<svg width="60" height="68" viewBox="0 0 60 68" fill="none" xmlns="http://www.w3.org/2000/svg">
<path d="M8.90247 42.4425V56.3735C8.90247 61.344 12.9319 65.3734 17.9025 65.3734H24.6218V58.5623H16.0325C15.4802 58.5623 15.0325 58.1146 15.0325 57.5623V42.4425" stroke="black" stroke-width="4" stroke-linejoin="round"/>
<path d="M8.0379 19.9655H2.31824V31.3175C2.31824 37.9632 7.70565 43.3506 14.3514 43.3506V43.3506H15.0325C22.9321 43.3506 29.336 36.9467 29.336 29.0471V29.0471H32.2875V30.5229C32.2875 37.6074 38.0306 43.3506 45.1152 43.3506V43.3506C52.1997 43.3506 57.9429 37.6074 57.9429 30.5229V19.9655H14.3514M8.0379 19.9655V2.71057H14.3514V19.9655M8.0379 19.9655H14.3514" stroke="black" stroke-width="4" stroke-linejoin="round"/>
<path d="M42.2106 24.9408L49.7583 32.4326" stroke="black" stroke-width="2" stroke-linecap="round" stroke-linejoin="round"/>
<path d="M37.4125 24.9408L41.3135 28.7745" stroke="black" stroke-width="2" stroke-linecap="round" stroke-linejoin="round"/>
</svg>
