<svg width="30" height="31" viewBox="0 0 30 31" fill="none" xmlns="http://www.w3.org/2000/svg">
<path fill-rule="evenodd" clip-rule="evenodd" d="M10.3909 8.11322C10.5254 7.88306 10.7719 7.74158 11.0385 7.74158H19.7738C20.0455 7.74158 20.2959 7.88849 20.4285 8.12563L27.7943 21.3026C27.9224 21.5318 27.9213 21.8113 27.7915 22.0395C27.6616 22.2677 27.4219 22.4114 27.1594 22.4183L18.7572 22.6404C18.747 22.6407 18.7368 22.6407 18.7266 22.6406L3.32878 22.4185C3.0621 22.4146 2.81752 22.2694 2.68644 22.0372C2.55535 21.8049 2.55748 21.5205 2.69203 21.2902L10.3909 8.11322ZM11.0331 9.98756L17.4306 21.1217L4.63556 20.9372L11.0331 9.98756ZM19.1648 21.1291L25.8796 20.9516L19.3338 9.24158H12.3344L19.1648 21.1291Z" fill="black"/>
<path fill-rule="evenodd" clip-rule="evenodd" d="M2.86047 18.9862C3.13662 18.9862 3.36047 19.2101 3.36047 19.4862V22.5508C3.36047 22.827 3.13662 23.0508 2.86047 23.0508C2.58433 23.0508 2.36047 22.827 2.36047 22.5508V19.4862C2.36047 19.2101 2.58433 18.9862 2.86047 18.9862Z" fill="black"/>
<path fill-rule="evenodd" clip-rule="evenodd" d="M19.3259 19.479C19.6021 19.479 19.8259 19.7029 19.8259 19.979V23.0436C19.8259 23.3198 19.6021 23.5436 19.3259 23.5436C19.0498 23.5436 18.8259 23.3198 18.8259 23.0436V19.979C18.8259 19.7029 19.0498 19.479 19.3259 19.479Z" fill="black"/>
<path fill-rule="evenodd" clip-rule="evenodd" d="M11.0711 15.0632C11.2592 15.0675 11.429 15.177 11.5105 15.3466L14.3678 21.2947C14.4874 21.5436 14.3825 21.8424 14.1336 21.9619C13.8847 22.0815 13.586 21.9766 13.4664 21.7277L11.0349 16.666L8.30469 21.7479C8.174 21.9911 7.87086 22.0824 7.6276 21.9517C7.38434 21.821 7.29308 21.5179 7.42377 21.2746L10.6194 15.3265C10.7084 15.1607 10.883 15.059 11.0711 15.0632Z" fill="black"/>
</svg>
