<svg width="30" height="31" viewBox="0 0 30 31" fill="none" xmlns="http://www.w3.org/2000/svg">
<g clip-path="url(#clip0_38_800)">
<path fill-rule="evenodd" clip-rule="evenodd" d="M15 1.41748C15.1933 1.41748 15.35 1.57418 15.35 1.76748V8.2822C15.35 9.96632 14.681 11.5815 13.4902 12.7723L10.2475 16.015C10.1109 16.1517 9.88924 16.1517 9.75256 16.015C9.61588 15.8783 9.61588 15.6567 9.75256 15.52L12.9952 12.2774C14.0548 11.2178 14.65 9.78067 14.65 8.2822V1.76748C14.65 1.57418 14.8067 1.41748 15 1.41748ZM7.26553 18.0394C7.39149 18.186 7.37475 18.407 7.22813 18.533L5.9798 19.6055C3.81118 21.4686 2.96474 24.4467 3.82924 27.1719L3.16201 27.3836C2.21266 24.3909 3.14217 21.1205 5.52363 19.0745L6.77197 18.002C6.91859 17.876 7.13956 17.8928 7.26553 18.0394Z" fill="black"/>
<path fill-rule="evenodd" clip-rule="evenodd" d="M5.4891 7.86418C6.03536 7.86418 6.47819 7.42134 6.47819 6.87508C6.47819 6.32882 6.03536 5.88599 5.4891 5.88599C4.94283 5.88599 4.5 6.32882 4.5 6.87508C4.5 7.42134 4.94283 7.86418 5.4891 7.86418ZM5.4891 9.36418C6.86378 9.36418 7.97819 8.24977 7.97819 6.87508C7.97819 5.50039 6.86378 4.38599 5.4891 4.38599C4.11441 4.38599 3 5.50039 3 6.87508C3 8.24977 4.11441 9.36418 5.4891 9.36418Z" fill="black"/>
<path fill-rule="evenodd" clip-rule="evenodd" d="M14.5163 10.3771C14.5887 10.7849 14.3167 11.1742 13.9089 11.2466L11.1654 11.7337C10.0655 11.9289 8.94024 11.9337 7.83874 11.7478L6.07478 11.4502L7.47034 15.9831C7.79304 17.0313 8.90085 17.6228 9.95141 17.308C12.4529 16.5584 15.1578 16.9519 17.342 18.3832L18.4111 19.0839C18.7576 19.3109 18.8544 19.7758 18.6273 20.1223C18.4003 20.4687 17.9354 20.5655 17.589 20.3385L16.5198 19.6378C14.7058 18.4491 12.4595 18.1223 10.382 18.7449C8.54209 19.2963 6.60191 18.2602 6.03674 16.4244L4.89462 12.7147C4.26373 14.519 4.27728 16.4929 4.94362 18.2965L5.37023 19.4513C5.51378 19.8398 5.31516 20.2712 4.92662 20.4147C4.53807 20.5583 4.10673 20.3596 3.96318 19.9711L3.53657 18.8164C2.67382 16.4811 2.73705 13.9043 3.71329 11.6141L4.31011 10.2141C4.44608 9.89512 4.78295 9.71094 5.12484 9.76864L8.08835 10.2687C9.02038 10.426 9.97252 10.422 10.9032 10.2568L13.6467 9.76973C14.0546 9.69733 14.4439 9.96925 14.5163 10.3771ZM11.218 24.0883C11.3222 22.7246 10.696 21.4079 9.57241 20.6281L10.4277 19.3958C11.9884 20.479 12.8584 22.3082 12.7137 24.2025L12.5369 26.5168C12.5053 26.9298 12.1449 27.239 11.7319 27.2075C11.3189 27.1759 11.0097 26.8155 11.0412 26.4025L11.218 24.0883Z" fill="black"/>
<path fill-rule="evenodd" clip-rule="evenodd" d="M25.9061 -0.595052C26.0994 -0.595054 26.2561 -0.438354 26.2561 -0.245052L26.2561 8.74249C26.2561 10.4384 25.2705 11.9797 23.7311 12.6911L22.979 13.0387C21.6028 13.6748 20.7631 15.0953 20.8693 16.6077L21.063 19.3657C21.1913 21.1934 20.1003 22.8872 18.3831 23.526C16.957 24.0566 16.0508 25.4633 16.1574 26.9812L16.2519 28.3261C16.2654 28.5189 16.1201 28.6862 15.9273 28.6997C15.7344 28.7133 15.5672 28.5679 15.5536 28.3751L15.4592 27.0302C15.3308 25.2025 16.4219 23.5088 18.139 22.8699C19.5652 22.3394 20.4713 20.9327 20.3647 19.4148L20.171 16.6567C20.0444 14.8543 21.0452 13.1614 22.6853 12.4033L23.4374 12.0557C24.7291 11.4587 25.5561 10.1655 25.5561 8.74249L25.5561 -0.245053C25.5561 -0.438354 25.7128 -0.595054 25.9061 -0.595052ZM11.2976 33.2303C11.4908 33.2237 11.6528 33.3749 11.6595 33.5681L11.8836 40.0787C11.9379 41.654 10.8578 43.0426 9.3176 43.3778C8.05534 43.6525 7.19515 44.8241 7.31114 46.1106L7.80429 51.5805C7.82164 51.7731 7.67965 51.9432 7.48713 51.9606C7.29461 51.9779 7.12447 51.8359 7.10712 51.6434L6.61397 46.1735C6.46628 44.5353 7.56155 43.0435 9.16876 42.6938C10.3784 42.4306 11.2266 41.34 11.184 40.1028L10.9599 33.5922C10.9532 33.399 11.1045 33.237 11.2976 33.2303Z" fill="black"/>
<path fill-rule="evenodd" clip-rule="evenodd" d="M24.0564 0.673007C24.1944 0.672568 24.3067 0.78414 24.3071 0.922214L24.3293 7.9006C24.3346 9.56237 23.3708 11.0748 21.8624 11.772L21.1184 12.1158C19.7045 12.7693 18.8418 14.2288 18.9509 15.7825L19.0502 17.1957C19.0598 17.3334 18.956 17.4529 18.8183 17.4626C18.6805 17.4723 18.5611 17.3684 18.5514 17.2307L18.4521 15.8176C18.3285 14.0566 19.3062 12.4025 20.9087 11.6619L21.6526 11.3181C22.9836 10.7029 23.834 9.36846 23.8293 7.90218L23.8072 0.923798C23.8067 0.785728 23.9183 0.673447 24.0564 0.673007Z" fill="black"/>
<path fill-rule="evenodd" clip-rule="evenodd" d="M22.8156 20.9112C23.0088 20.9073 23.1687 21.0607 23.1727 21.254C23.2227 23.7085 21.5203 24.9208 20.3985 25.2937C20.3123 25.3223 20.2362 25.3452 20.1673 25.366C20.0005 25.4162 19.8761 25.4537 19.7533 25.5288C19.3266 25.7898 18.84 26.2806 18.8059 26.997C18.7536 28.0964 18.7841 29.6012 18.8061 30.2171C18.813 30.4103 18.662 30.5724 18.4688 30.5793C18.2756 30.5862 18.1134 30.4352 18.1065 30.2421C18.0843 29.6201 18.053 28.0924 18.1067 26.9637C18.1563 25.9216 18.8603 25.2544 19.3881 24.9316C19.5951 24.805 19.8437 24.7307 20.0342 24.6737C20.0872 24.6578 20.1358 24.6433 20.1777 24.6294C21.1132 24.3184 22.5146 23.3184 22.4728 21.2683C22.4689 21.075 22.6223 20.9152 22.8156 20.9112Z" fill="black"/>
</g>
<defs>
<clipPath id="clip0_38_800">
<rect width="30" height="30" fill="white" transform="translate(0 0.767578)"/>
</clipPath>
</defs>
</svg>
