<svg width="71" height="71" viewBox="0 0 71 71" fill="none" xmlns="http://www.w3.org/2000/svg">
<path fill-rule="evenodd" clip-rule="evenodd" d="M5.32422 3.84424C6.42879 3.84424 7.32422 4.73967 7.32422 5.84424V14.677H63.8815V5.84424C63.8815 4.73967 64.777 3.84424 65.8815 3.84424C66.9861 3.84424 67.8815 4.73967 67.8815 5.84424V52.3655C67.8815 55.1269 65.643 57.3655 62.8815 57.3655H58.3977V65.8442C58.3977 66.9488 57.5023 67.8442 56.3977 67.8442C55.2931 67.8442 54.3977 66.9488 54.3977 65.8442V57.3655H16.7906V65.8442C16.7906 66.9488 15.8951 67.8442 14.7906 67.8442C13.686 67.8442 12.7906 66.9488 12.7906 65.8442V57.3655H8.32422C5.56279 57.3655 3.32422 55.1269 3.32422 52.3655V5.84424C3.32422 4.73967 4.21965 3.84424 5.32422 3.84424ZM16.7906 53.3655H23.6386V18.677H16.7906V53.3655ZM12.7906 18.677V53.3655H8.32422C7.77194 53.3655 7.32422 52.9178 7.32422 52.3655V18.677H12.7906ZM27.6386 18.677V53.3655H33.7772V18.677H27.6386ZM37.7772 18.677V53.3655H44.1228V18.677H37.7772ZM48.1228 18.677V53.3655H54.3977V18.677H48.1228ZM58.3977 18.677V53.3655H62.8815C63.4338 53.3655 63.8815 52.9178 63.8815 52.3655V18.677H58.3977Z" fill="black"/>
</svg>
