<svg width="31" height="31" viewBox="0 0 31 31" fill="none" xmlns="http://www.w3.org/2000/svg">
<path fill-rule="evenodd" clip-rule="evenodd" d="M15.2269 2.66248C15.4202 2.66248 15.5769 2.81918 15.5769 3.01248V9.52719C15.5769 11.2113 14.9078 12.8265 13.717 14.0173L10.4743 17.26C10.3377 17.3966 10.1161 17.3966 9.97937 17.26C9.84268 17.1233 9.84268 16.9017 9.97937 16.765L13.222 13.5223C14.2816 12.4628 14.8769 11.0257 14.8769 9.52719V3.01248C14.8769 2.81918 15.0336 2.66248 15.2269 2.66248ZM7.49233 19.2844C7.6183 19.431 7.60156 19.652 7.45494 19.778L6.2066 20.8504C4.03799 22.7136 3.19154 25.6917 4.05605 28.4169L3.38881 28.6286C2.43946 25.6359 3.36898 22.3655 5.75044 20.3195L6.99877 19.247C7.14539 19.121 7.36637 19.1378 7.49233 19.2844Z" fill="black"/>
<path fill-rule="evenodd" clip-rule="evenodd" d="M5.22681 8.51245C5.50295 8.51245 5.72681 8.28859 5.72681 8.01245C5.72681 7.73631 5.50295 7.51245 5.22681 7.51245C4.95066 7.51245 4.72681 7.73631 4.72681 8.01245C4.72681 8.28859 4.95066 8.51245 5.22681 8.51245ZM5.22681 10.0125C6.33138 10.0125 7.22681 9.11702 7.22681 8.01245C7.22681 6.90788 6.33138 6.01245 5.22681 6.01245C4.12224 6.01245 3.22681 6.90788 3.22681 8.01245C3.22681 9.11702 4.12224 10.0125 5.22681 10.0125Z" fill="black"/>
<path fill-rule="evenodd" clip-rule="evenodd" d="M14.7431 11.622C14.8155 12.0298 14.5436 12.4191 14.1357 12.4915L11.3922 12.9786C10.2923 13.1738 9.16705 13.1786 8.06555 12.9927L6.30159 12.695L7.69715 17.228C8.01985 18.2761 9.12766 18.8677 10.1782 18.5529C12.6797 17.8032 15.3846 18.1968 17.5688 19.6281L18.6379 20.3288C18.9844 20.5558 19.0812 21.0207 18.8541 21.3671C18.6271 21.7136 18.1622 21.8104 17.8158 21.5834L16.7466 20.8827C14.9326 19.694 12.6863 19.3672 10.6088 19.9897C8.7689 20.5411 6.82872 19.505 6.26355 17.6693L5.12143 13.9596C4.49053 15.7639 4.50408 17.7378 5.17042 19.5414L5.59704 20.6962C5.74058 21.0847 5.54197 21.516 5.15343 21.6596C4.76488 21.8031 4.33354 21.6045 4.18999 21.216L3.76338 20.0612C2.90063 17.726 2.96385 15.1491 3.9401 12.859L4.53692 11.459C4.67288 11.14 5.00976 10.9558 5.35165 11.0135L8.31515 11.5136C9.24719 11.6709 10.1993 11.6669 11.13 11.5016L13.8735 11.0146C14.2814 10.9422 14.6707 11.2141 14.7431 11.622ZM12.5301 25.4991C12.0317 24.0291 11.0744 22.758 9.79922 21.873L10.6545 20.6407C12.1936 21.7089 13.3491 23.2432 13.9506 25.0175L14.7149 27.2716C14.8479 27.6639 14.6377 28.0897 14.2454 28.2227C13.8532 28.3557 13.4273 28.1456 13.2943 27.7533L12.5301 25.4991Z" fill="black"/>
<path fill-rule="evenodd" clip-rule="evenodd" d="M23.8491 9.30908C24.1252 9.30908 24.3491 9.53293 24.3491 9.80907L24.3491 12.5007C24.3491 13.3291 23.6776 14.0007 22.8491 14.0007L21.6241 14.0007C21.3479 14.0007 21.1241 14.2246 21.1241 14.5007L21.1241 22.025C21.1241 22.8535 20.4525 23.525 19.6241 23.525L18.3383 23.525C18.0621 23.525 17.8383 23.7489 17.8383 24.025L17.8383 28.0125C17.8383 28.2886 17.6144 28.5125 17.3383 28.5125C17.0622 28.5125 16.8383 28.2886 16.8383 28.0125L16.8383 24.0251C16.8382 23.1966 17.5098 22.525 18.3383 22.525L19.6241 22.525C19.9002 22.525 20.1241 22.3012 20.1241 22.025L20.1241 14.5007C20.1241 13.6723 20.7956 13.0007 21.6241 13.0007L22.8491 13.0007C23.1253 13.0007 23.3491 12.7768 23.3491 12.5007L23.3491 9.80909C23.3491 9.53294 23.5729 9.30908 23.8491 9.30908Z" fill="black"/>
</svg>
