<svg width="71" height="71" viewBox="0 0 71 71" fill="none" xmlns="http://www.w3.org/2000/svg">
<path fill-rule="evenodd" clip-rule="evenodd" d="M1.21973 10.5178H5.21973V38.0301H20.5658C24.4317 38.0301 27.5658 41.1642 27.5658 45.0301V61.1339H23.5658V45.0301C23.5658 43.3733 22.2226 42.0301 20.5658 42.0301H5.21973V61.1339H1.21973V10.5178ZM70.2648 10.5178V61.1339H66.2648V42.0301H51.1626C49.5057 42.0301 48.1626 43.3733 48.1626 45.0302V61.1339H44.1626V45.0302C44.1626 41.1642 47.2966 38.0301 51.1626 38.0301H66.2648V10.5178H70.2648ZM33.9826 29.382H11.951V25.382H60.0141V29.382H37.9826V61.1339H33.9826V29.382Z" fill="black"/>
<path fill-rule="evenodd" clip-rule="evenodd" d="M34.6949 13.833C27.5519 13.9481 21.7969 19.7744 21.7969 26.9449H23.2969V28.4449H49.093V26.9449H50.593C50.593 19.7744 44.8379 13.9481 37.6949 13.833V9.2644H34.6949V13.833ZM47.4825 25.4449C46.7578 20.5706 42.5553 16.8313 37.4794 16.8313H34.9105C29.8346 16.8313 25.632 20.5706 24.9073 25.4449H47.4825Z" fill="black"/>
</svg>
