<svg width="30" height="31" viewBox="0 0 30 31" fill="none" xmlns="http://www.w3.org/2000/svg">
<path fill-rule="evenodd" clip-rule="evenodd" d="M26.7625 3.41797C27.1767 3.41797 27.5125 3.75376 27.5125 4.16797V18.9703C27.5125 22.6983 24.4904 25.7203 20.7625 25.7203H18.2812C17.9448 27.0963 16.7037 28.1173 15.2242 28.1173H13.6688C11.9308 28.1173 10.5219 26.7084 10.5219 24.9703C10.5219 23.0432 12.0841 21.4809 14.0113 21.4809H14.8817C16.5514 21.4809 17.9472 22.6537 18.2904 24.2203H20.7625C23.662 24.2203 26.0125 21.8698 26.0125 18.9703V4.16797C26.0125 3.75376 26.3483 3.41797 26.7625 3.41797ZM6.73555 11.8778C5.80231 11.8778 5.04577 12.6343 5.04577 13.5676V16.188C5.04577 18.3689 6.81375 20.1369 8.99468 20.1369H9.7528C10.9166 20.1369 11.9622 19.4255 12.3895 18.343L13.1151 16.5046C13.3306 15.9586 13.858 15.5998 14.445 15.5998C15.0005 15.5998 15.5058 15.9216 15.7406 16.4251L16.6158 18.3013C17.1382 19.4211 18.262 20.1369 19.4976 20.1369H19.9718C22.1391 20.1369 23.8961 18.38 23.8961 16.2126V13.5676C23.8961 12.6343 23.1395 11.8778 22.2063 11.8778H6.73555ZM3.5779 13.1131C3.79849 11.5667 5.12818 10.3778 6.73555 10.3778H22.2063C23.968 10.3778 25.3961 11.8059 25.3961 13.5676V16.2126C25.3961 19.2084 22.9675 21.6369 19.9718 21.6369H19.4976C17.6791 21.6369 16.0252 20.5834 15.2565 18.9354L14.4504 17.2073L13.7847 18.8937C13.1313 20.5491 11.5325 21.6369 9.7528 21.6369H8.99468C6.69223 21.6369 4.72332 20.2089 3.92537 18.1902C3.80976 18.4553 3.5453 18.6407 3.23755 18.6407C2.82334 18.6407 2.48755 18.3049 2.48755 17.8907V13.7816C2.48755 13.3674 2.82334 13.0316 3.23755 13.0316C3.36008 13.0316 3.47575 13.061 3.5779 13.1131ZM14.0113 22.9809C12.9125 22.9809 12.0219 23.8716 12.0219 24.9703C12.0219 25.88 12.7592 26.6173 13.6688 26.6173H15.2242C16.1338 26.6173 16.8712 25.88 16.8712 24.9703C16.8712 23.8716 15.9805 22.9809 14.8817 22.9809H14.0113Z" fill="black"/>
<path d="M8.80541 14.3755C8.80541 14.888 8.38994 15.3035 7.87744 15.3035C7.36493 15.3035 6.94946 14.888 6.94946 14.3755C6.94946 13.863 7.36493 13.4475 7.87744 13.4475C8.38994 13.4475 8.80541 13.863 8.80541 14.3755Z" fill="black"/>
<path d="M9.73339 15.7675C9.73339 16.0237 9.52566 16.2314 9.26941 16.2314C9.01315 16.2314 8.80542 16.0237 8.80542 15.7675C8.80542 15.5112 9.01315 15.3035 9.26941 15.3035C9.52566 15.3035 9.73339 15.5112 9.73339 15.7675Z" fill="black"/>
</svg>
