<svg width="71" height="71" viewBox="0 0 71 71" fill="none" xmlns="http://www.w3.org/2000/svg">
<path fill-rule="evenodd" clip-rule="evenodd" d="M3.44141 8.70483C3.44141 5.94341 5.67998 3.70483 8.44141 3.70483H62.4414C65.2028 3.70483 67.4414 5.94341 67.4414 8.70483V62.7048C67.4414 65.4663 65.2028 67.7048 62.4414 67.7048H47.4398C46.3352 67.7048 45.4398 66.8094 45.4398 65.7048C45.4398 64.6003 46.3352 63.7048 47.4398 63.7048H62.4414C62.9937 63.7048 63.4414 63.2571 63.4414 62.7048V8.70483C63.4414 8.15255 62.9937 7.70483 62.4414 7.70483H8.44141C7.88912 7.70483 7.44141 8.15255 7.44141 8.70483V62.7048C7.44141 63.2571 7.88912 63.7048 8.44141 63.7048H33.1583C33.7106 63.7048 34.1583 63.2571 34.1583 62.7048V47.0658H24.779C23.6745 47.0658 22.779 46.1704 22.779 45.0658V22.8139C22.779 21.7094 23.6745 20.8139 24.779 20.8139H46.3134C47.418 20.8139 48.3134 21.7094 48.3134 22.8139V45.0658C48.3134 46.1704 47.418 47.0658 46.3134 47.0658H38.1583V62.7048C38.1583 65.4663 35.9197 67.7048 33.1583 67.7048H8.44141C5.67998 67.7048 3.44141 65.4663 3.44141 62.7048V8.70483ZM38.1583 43.0658H44.3134V24.8139H26.779V43.0658H34.1583V34.7346C34.1583 33.63 35.0537 32.7346 36.1583 32.7346C37.2629 32.7346 38.1583 33.63 38.1583 34.7346V43.0658Z" fill="black"/>
</svg>
