<svg width="71" height="71" viewBox="0 0 71 71" fill="none" xmlns="http://www.w3.org/2000/svg">
<path fill-rule="evenodd" clip-rule="evenodd" d="M57.9783 9.64014H12.2521C8.33803 9.64014 5.16502 12.7741 5.16502 16.6401V54.6401C5.16502 58.5061 8.33803 61.6401 12.2521 61.6401H57.9783C61.8924 61.6401 65.0654 58.5061 65.0654 54.6401V16.6401C65.0654 12.7741 61.8924 9.64014 57.9783 9.64014ZM12.2521 5.64014C6.1014 5.64014 1.11523 10.565 1.11523 16.6401V54.6401C1.11523 60.7153 6.1014 65.6401 12.2521 65.6401H57.9783C64.1291 65.6401 69.1152 60.7153 69.1152 54.6401V16.6401C69.1152 10.565 64.1291 5.64014 57.9783 5.64014H12.2521Z" fill="black"/>
<path fill-rule="evenodd" clip-rule="evenodd" d="M29.3413 29.936H18.7539V41.3443H29.3413V51.8012H40.8916V41.3443H51.4786V29.936H40.8916V19.4788H29.3413V29.936ZM32.3786 22.4788V32.936H21.7912V38.3443H32.3786V48.8012H37.8543V38.3443H48.4413V32.936H37.8543V22.4788H32.3786Z" fill="black"/>
</svg>
