<svg width="71" height="71" viewBox="0 0 71 71" fill="none" xmlns="http://www.w3.org/2000/svg">
<path fill-rule="evenodd" clip-rule="evenodd" d="M36.7804 36.0665C37.7255 35.8338 38.703 36.31 39.0797 37.1865L44.0932 48.8544C45.4554 52.0248 43.6854 55.6454 40.3014 56.6104L40.1398 56.6565C39.3888 63.9479 33.0756 69.6401 25.3988 69.6401H19.4406C18.3527 69.6401 17.4707 68.7803 17.4707 67.7196C17.4707 66.6589 18.3527 65.7991 19.4406 65.7991H25.3988C30.4279 65.7991 34.6597 62.4713 35.9039 57.9512C33.1263 58.5495 30.2586 57.1211 29.162 54.4987L23.7402 41.5333C23.5249 41.0184 23.5491 40.4378 23.8064 39.9416C24.0638 39.4454 24.5291 39.0823 25.0821 38.9462L36.7804 36.0665ZM28.2442 42.1294L32.8103 53.0487C33.2026 53.9867 34.2746 54.4664 35.2599 54.1448L37.6193 53.3747C37.6432 53.3669 37.6674 53.3595 37.6916 53.3526L39.1953 52.9238C40.3233 52.6021 40.9133 51.3953 40.4593 50.3385L36.1009 40.1954L28.2442 42.1294Z" fill="black"/>
<path fill-rule="evenodd" clip-rule="evenodd" d="M22.1664 5.48119C12.7851 5.48119 5.18011 12.8955 5.18011 22.0414C5.18011 31.1874 12.7851 38.6016 22.1664 38.6016H22.8683C23.7895 38.6016 24.708 38.504 25.6075 38.3105L65.3004 29.7709V14.9137L25.6698 5.80965C24.7198 5.59141 23.7471 5.48119 22.7711 5.48119H22.1664ZM1.24023 22.0414C1.24023 10.7741 10.6092 1.64014 22.1664 1.64014H22.7711C24.0513 1.64014 25.3273 1.78472 26.5734 2.07098L67.7221 11.5238C68.6117 11.7281 69.2402 12.5021 69.2402 13.3931V31.3138C69.2402 32.215 68.5975 32.995 67.6948 33.1892L26.4565 42.0613C25.2782 42.3148 24.075 42.4427 22.8683 42.4427H22.1664C10.6092 42.4427 1.24023 33.3087 1.24023 22.0414Z" fill="black"/>
<path fill-rule="evenodd" clip-rule="evenodd" d="M20.6331 28.678C24.3928 28.678 27.4406 25.7067 27.4406 22.0413C27.4406 18.3759 24.3928 15.4045 20.6331 15.4045C16.8734 15.4045 13.8256 18.3759 13.8256 22.0413C13.8256 25.7067 16.8734 28.678 20.6331 28.678ZM20.6331 32.5191C26.5687 32.5191 31.3805 27.828 31.3805 22.0413C31.3805 16.2546 26.5687 11.5635 20.6331 11.5635C14.6975 11.5635 9.88574 16.2546 9.88574 22.0413C9.88574 27.828 14.6975 32.5191 20.6331 32.5191Z" fill="black"/>
</svg>
