<svg width="71" height="71" viewBox="0 0 71 71" fill="none" xmlns="http://www.w3.org/2000/svg">
<path fill-rule="evenodd" clip-rule="evenodd" d="M35.8211 3.62796C36.4934 3.63155 37.1189 3.97267 37.486 4.5359L52.34 27.3273C55.9202 32.8205 57.8262 39.236 57.8262 45.7928C57.8262 57.852 48.0503 67.6279 35.9911 67.6279H35.0348C23.0444 67.6279 13.3242 57.9078 13.3242 45.9174C13.3242 39.2771 15.2907 32.7855 18.9755 27.2614L34.1466 4.51808C34.5197 3.9588 35.1488 3.62437 35.8211 3.62796ZM35.791 9.26109L22.3031 29.4811C19.0567 34.3479 17.3242 40.0672 17.3242 45.9174C17.3242 55.6987 25.2535 63.6279 35.0348 63.6279H35.9911C45.8412 63.6279 53.8262 55.6429 53.8262 45.7928C53.8262 40.0115 52.1456 34.3548 48.9889 29.5114L35.791 9.26109Z" fill="black"/>
<path fill-rule="evenodd" clip-rule="evenodd" d="M37.0013 32.5723C37.8291 32.6032 38.4751 33.2995 38.4441 34.1273C38.365 36.2408 36.9974 40.7806 32.259 43.2923C28.8662 45.0907 28.4074 48.6652 28.6167 50.2125C28.7278 51.0334 28.1523 51.7889 27.3313 51.9C26.5104 52.0111 25.7548 51.4356 25.6438 50.6146C25.3397 48.3671 25.9327 43.2503 30.854 40.6417C34.4296 38.7463 35.397 35.3292 35.4462 34.0151C35.4772 33.1873 36.1734 32.5413 37.0013 32.5723Z" fill="black"/>
<path fill-rule="evenodd" clip-rule="evenodd" d="M43.3821 36.5612C44.21 36.5922 44.856 37.2884 44.825 38.1163C44.7459 40.2298 43.3782 44.7696 38.6399 47.2813C35.2471 49.0797 34.7883 52.6542 34.9976 54.2014C35.1086 55.0224 34.5331 55.7779 33.7122 55.889C32.8912 56 32.1357 55.4245 32.0246 54.6036C31.7206 52.356 32.3136 47.2392 37.2348 44.6306C40.8105 42.7353 41.7779 39.3182 41.8271 38.0041C41.8581 37.1762 42.5543 36.5302 43.3821 36.5612Z" fill="black"/>
</svg>
