<svg width="71" height="71" viewBox="0 0 71 71" fill="none" xmlns="http://www.w3.org/2000/svg">
<path fill-rule="evenodd" clip-rule="evenodd" d="M3.20703 14.7725C3.20703 12.011 5.44561 9.77246 8.20703 9.77246H62.4132C65.1746 9.77246 67.4132 12.011 67.4132 14.7725V62.106C67.4132 64.8674 65.1746 67.106 62.4132 67.106H8.20703C5.4456 67.106 3.20703 64.8674 3.20703 62.106V14.7725ZM8.20703 13.7725C7.65475 13.7725 7.20703 14.2202 7.20703 14.7725V62.106C7.20703 62.6582 7.65475 63.106 8.20703 63.106H62.4132C62.9654 63.106 63.4132 62.6582 63.4132 62.106V14.7725C63.4132 14.2202 62.9654 13.7725 62.4132 13.7725H8.20703Z" fill="black"/>
<path fill-rule="evenodd" clip-rule="evenodd" d="M3.20703 25.1058C3.20703 24.0013 4.10246 23.1058 5.20703 23.1058H65.4132C66.5177 23.1058 67.4132 24.0013 67.4132 25.1058C67.4132 26.2104 66.5177 27.1058 65.4132 27.1058H5.20703C4.10246 27.1058 3.20703 26.2104 3.20703 25.1058Z" fill="black"/>
<path fill-rule="evenodd" clip-rule="evenodd" d="M18.5859 3.10596C19.6905 3.10596 20.5859 4.00139 20.5859 5.10596V11.7726C20.5859 12.8772 19.6905 13.7726 18.5859 13.7726C17.4814 13.7726 16.5859 12.8772 16.5859 11.7726V5.10596C16.5859 4.00139 17.4814 3.10596 18.5859 3.10596Z" fill="black"/>
<path fill-rule="evenodd" clip-rule="evenodd" d="M52.0352 3.10596C53.1397 3.10596 54.0352 4.00139 54.0352 5.10596V11.7726C54.0352 12.8772 53.1397 13.7726 52.0352 13.7726C50.9306 13.7726 50.0352 12.8772 50.0352 11.7726V5.10596C50.0352 4.00139 50.9306 3.10596 52.0352 3.10596Z" fill="black"/>
</svg>
