<svg width="71" height="71" viewBox="0 0 71 71" fill="none" xmlns="http://www.w3.org/2000/svg">
<path fill-rule="evenodd" clip-rule="evenodd" d="M3.20898 10.3579C3.20898 5.93963 6.79071 2.35791 11.209 2.35791H59.209C63.6273 2.35791 67.209 5.93963 67.209 10.3579V54.1114C67.209 58.3545 63.9056 61.8261 59.7303 62.0947V67.6656H55.7303V62.1114H15.0874V67.6656H11.0874V62.1105C6.72521 62.0455 3.20898 58.4891 3.20898 54.1114V10.3579ZM11.209 6.35791C8.99985 6.35791 7.20898 8.14877 7.20898 10.3579V27.2045H63.209V10.3579C63.209 8.14877 61.4181 6.35791 59.209 6.35791H11.209ZM63.209 31.2045H7.20898V54.1114C7.20898 56.3205 8.99985 58.1114 11.209 58.1114H59.209C61.4181 58.1114 63.209 56.3205 63.209 54.1114V31.2045Z" fill="black"/>
<path fill-rule="evenodd" clip-rule="evenodd" d="M46.7909 39.6577V45.5728H48.7477V39.6577H46.7909ZM49.7072 48.5728H45.8604L45.1968 49.1617C44.2344 50.0157 43.6836 51.2409 43.6836 52.5276V58.7225H52.077V52.6515C52.077 51.3112 51.4796 50.0407 50.4473 49.1858L49.7072 48.5728ZM43.7909 46.3984V39.1577C43.7909 37.777 44.9102 36.6577 46.2909 36.6577H49.2477C50.6284 36.6577 51.7477 37.777 51.7477 39.1577V46.3675L52.3609 46.8753C54.0813 48.3001 55.077 50.4177 55.077 52.6515V61.7225H40.6836V52.5276C40.6836 50.3831 41.6016 48.3412 43.2056 46.9178L43.7909 46.3984Z" fill="black"/>
<path fill-rule="evenodd" clip-rule="evenodd" d="M32.7493 43.2678V47.7242H33.8951V43.2678H32.7493ZM34.8546 50.7242H31.8188L31.6636 50.862C30.7012 51.716 30.1504 52.9412 30.1504 54.2278V58.7224H36.6797V54.3518C36.6797 53.0115 36.0822 51.7409 35.05 50.886L34.8546 50.7242ZM29.7493 48.5499V42.7678C29.7493 41.3871 30.8685 40.2678 32.2493 40.2678H34.3951C35.7758 40.2678 36.8951 41.3871 36.8951 42.7678V48.5189L36.9635 48.5756C38.6839 50.0004 39.6797 52.118 39.6797 54.3518V61.7224H27.1504V54.2278C27.1504 52.0834 28.0684 50.0414 29.6724 48.6181L29.7493 48.5499Z" fill="black"/>
<path d="M19.8081 15.885C19.8081 17.7709 18.2792 19.2998 16.3933 19.2998C14.5074 19.2998 12.9785 17.7709 12.9785 15.885C12.9785 13.9991 14.5074 12.4702 16.3933 12.4702C18.2792 12.4702 19.8081 13.9991 19.8081 15.885Z" fill="black"/>
</svg>
