<svg width="30" height="31" viewBox="0 0 30 31" fill="none" xmlns="http://www.w3.org/2000/svg">
<path fill-rule="evenodd" clip-rule="evenodd" d="M21.4555 7.15871C21.6462 7.18998 21.7755 7.36996 21.7443 7.56071L18.3331 28.3735C18.3019 28.5643 18.1219 28.6936 17.9311 28.6623C17.7404 28.6311 17.6111 28.4511 17.6424 28.2603L21.0535 7.4475C21.0848 7.25674 21.2647 7.12745 21.4555 7.15871Z" fill="black"/>
<path fill-rule="evenodd" clip-rule="evenodd" d="M27.7193 27.0372L3.54012 27.0373C3.18281 27.0373 3.01374 27.4779 3.27931 27.7169C3.3509 27.7813 3.4438 27.817 3.54012 27.817H23.744C24.2742 27.817 25.0625 27.7736 25.7961 27.7231C26.2333 27.693 26.7972 27.5412 27.296 27.289C27.4519 27.2102 27.5937 27.1256 27.7193 27.0372ZM29.2262 26.3652C29.312 26.5656 29.2471 26.7409 29.2179 26.8062C28.941 27.4251 28.3433 27.8802 27.7472 28.1815C27.1394 28.4887 26.4462 28.6807 25.8647 28.7207C25.1306 28.7712 24.3119 28.817 23.744 28.817H3.54012C3.19676 28.817 2.86556 28.6899 2.61035 28.4602C1.66355 27.6081 2.26633 26.0373 3.54012 26.0373L28.6378 26.0372C28.6385 26.0372 28.6401 26.0372 28.6423 26.0372C28.6544 26.0371 28.6861 26.0369 28.7091 26.0376C28.7349 26.0383 28.8038 26.0406 28.8802 26.0628C28.9526 26.0838 29.1358 26.154 29.2262 26.3652Z" fill="black"/>
<path fill-rule="evenodd" clip-rule="evenodd" d="M14.3708 6.05612C14.7403 6.05612 15.0398 5.75663 15.0398 5.38719C15.0398 5.01775 14.7403 4.71826 14.3708 4.71826C14.0014 4.71826 13.7019 5.01775 13.7019 5.38719C13.7019 5.75663 14.0014 6.05612 14.3708 6.05612ZM14.3708 7.55612C15.5687 7.55612 16.5398 6.58506 16.5398 5.38719C16.5398 4.18932 15.5687 3.21826 14.3708 3.21826C13.173 3.21826 12.2019 4.18932 12.2019 5.38719C12.2019 6.58506 13.173 7.55612 14.3708 7.55612Z" fill="black"/>
<path fill-rule="evenodd" clip-rule="evenodd" d="M22.0934 6.46845C22.2496 6.85205 22.0654 7.28971 21.6818 7.44599L16.3402 9.62217C16.8141 9.92827 17.3202 10.2369 17.8281 10.5194C18.9309 11.1328 19.9471 11.5681 20.6425 11.6551C21.0535 11.7064 21.3451 12.0813 21.2937 12.4923C21.2423 12.9033 20.8675 13.1949 20.4565 13.1435C19.4508 13.0178 18.2159 12.4516 17.0989 11.8303C15.9556 11.1943 14.8354 10.4425 14.0305 9.85731C13.8531 9.72831 13.6428 9.67534 13.4434 9.7023C13.1516 9.74173 12.9085 9.9454 12.8186 10.2258L11.5538 14.1689C11.2366 15.1576 11.4539 16.0969 12.1283 16.6159C12.2418 16.7032 12.3625 16.7926 12.4905 16.8835C12.9652 17.2203 13.3659 17.5638 13.6881 17.8739C14.448 18.6055 14.7174 19.6093 14.7174 20.5322V25.7333C14.7174 26.1475 14.3816 26.4833 13.9674 26.4833C13.5532 26.4833 13.2174 26.1475 13.2174 25.7333V20.5322C13.2174 19.8756 13.0257 19.3184 12.6478 18.9546C12.3738 18.6909 12.0303 18.3961 11.6224 18.1067C11.4784 18.0045 11.3422 17.9036 11.2136 17.8047C9.89745 16.7919 9.67543 15.1138 10.1255 13.7108L11.3902 9.76762C11.6568 8.9365 12.3775 8.3327 13.2425 8.21581C13.8424 8.13474 14.4376 8.29874 14.9126 8.6441C14.9457 8.66816 14.9794 8.69251 15.0135 8.71712C15.0937 8.57538 15.2205 8.45865 15.383 8.39243L21.1158 6.05685C21.4994 5.90057 21.9371 6.08485 22.0934 6.46845ZM10.5104 17.8609C10.8947 18.0155 11.0809 18.4524 10.9263 18.8367L8.03864 26.0133C7.88402 26.3976 7.44716 26.5837 7.06289 26.4291C6.67861 26.2745 6.49244 25.8376 6.64706 25.4534L9.53469 18.2768C9.68931 17.8925 10.1262 17.7063 10.5104 17.8609Z" fill="black"/>
</svg>
