<svg width="31" height="31" viewBox="0 0 31 31" fill="none" xmlns="http://www.w3.org/2000/svg">
<path fill-rule="evenodd" clip-rule="evenodd" d="M6.52889 3.53323C6.44491 3.53477 6.36354 3.53626 6.28489 3.53761C6.19202 3.53921 6.11084 3.58557 6.06437 3.65615L3.99095 6.80566C3.89712 6.94819 3.97095 7.15381 4.15193 7.19699C6.53266 7.76501 8.3668 8.28432 9.82307 8.77435L12.7511 3.88303C10.2529 3.46498 7.99367 3.50638 6.52889 3.53323ZM14.3088 4.20119L11.2599 9.2945C13.6287 10.2216 14.7678 11.0613 15.9011 11.8967C16.1764 12.0997 16.4514 12.3024 16.7436 12.5061C17.3102 12.901 18.2181 13.7449 19.2228 14.7574C20.0624 15.6036 20.9997 16.5984 21.9148 17.6158L25.6592 13.0349C24.5987 11.1258 22.9897 9.04399 20.5244 7.112C18.5973 5.6018 16.4227 4.71561 14.3088 4.20119ZM26.3919 14.5087L22.9212 18.7547C23.7963 19.7634 24.6117 20.7549 25.2478 21.605C25.3468 21.7374 25.4829 21.7362 25.5493 21.6971C26.1425 21.348 26.7852 20.9163 27.2529 20.4939C27.4883 20.2814 27.6518 20.0957 27.7456 19.9474C27.7986 19.8635 27.8142 19.8162 27.8186 19.7994C27.8054 19.7174 27.7911 19.6169 27.7743 19.4994C27.6482 18.6132 27.3842 16.7575 26.3919 14.5087ZM6.51679 2.03316C8.18341 2.00222 11.0269 1.94942 14.1039 2.61518C16.5336 3.14088 19.1377 4.1196 21.4496 5.93134C24.284 8.15249 26.0783 10.5764 27.2225 12.7752C28.7575 15.7249 29.1155 18.2662 29.2584 19.28C29.2755 19.4015 29.2895 19.5011 29.3021 19.5767C29.3788 20.0379 29.2024 20.4502 29.0132 20.7493C28.8174 21.0588 28.5443 21.3488 28.2582 21.6072C27.683 22.1266 26.943 22.6174 26.3102 22.9898C25.5103 23.4606 24.5499 23.1762 24.0467 22.5036C23.3431 21.5631 22.3943 20.4217 21.3765 19.2669C20.3001 18.0454 19.1556 16.8193 18.158 15.8139C17.1447 14.7927 16.3256 14.0431 15.8859 13.7367C15.5695 13.5162 15.2807 13.3035 14.9984 13.0956C13.7626 12.1855 12.6518 11.3675 9.90217 10.3889C8.42684 9.86377 6.48074 9.29472 3.80381 8.65604C2.6258 8.37497 2.06367 7.00527 2.73808 5.98085L4.8115 2.83134C5.135 2.33995 5.67922 2.04782 6.25907 2.03783C6.3415 2.03642 6.42745 2.03482 6.51679 2.03316Z" fill="black"/>
<path fill-rule="evenodd" clip-rule="evenodd" d="M5.12592 18.0176C5.54013 18.0176 5.87592 18.3534 5.87592 18.7676V21.0511C5.87592 21.0794 5.88072 21.1075 5.89013 21.1342L6.27746 22.2332L9.81149 24.7676H11.9157C11.9338 24.7676 11.9519 24.7656 11.9696 24.7617L14.4085 24.2227C14.813 24.1334 15.2133 24.3888 15.3027 24.7932C15.3921 25.1977 15.1366 25.598 14.7322 25.6874L12.2933 26.2264C12.1693 26.2538 12.0427 26.2676 11.9157 26.2676H9.836L7.87416 27.8567C7.2479 28.3639 6.35617 28.3779 5.71433 27.8905L4.67968 27.1048C4.08926 26.6565 3.84541 25.8848 4.07102 25.1786L4.85748 22.7168L4.47542 21.6328C4.40956 21.4459 4.37592 21.2492 4.37592 21.0511V18.7676C4.37592 18.3534 4.7117 18.0176 5.12592 18.0176ZM6.04926 23.9154L5.49988 25.635C5.46765 25.7359 5.50248 25.8462 5.58683 25.9102L6.62148 26.6959C6.71317 26.7655 6.84056 26.7635 6.93003 26.6911L8.334 25.5539L6.04926 23.9154Z" fill="black"/>
<path fill-rule="evenodd" clip-rule="evenodd" d="M9.57031 21.2676C9.84645 21.2676 10.0703 21.0437 10.0703 20.7676C10.0703 20.4914 9.84645 20.2676 9.57031 20.2676C9.29417 20.2676 9.07031 20.4914 9.07031 20.7676C9.07031 21.0437 9.29417 21.2676 9.57031 21.2676ZM9.57031 22.7676C10.6749 22.7676 11.5703 21.8721 11.5703 20.7676C11.5703 19.663 10.6749 18.7676 9.57031 18.7676C8.46574 18.7676 7.57031 19.663 7.57031 20.7676C7.57031 21.8721 8.46574 22.7676 9.57031 22.7676Z" fill="black"/>
<path fill-rule="evenodd" clip-rule="evenodd" d="M4.51227 10.4224C4.7029 10.3903 4.8834 10.5189 4.91543 10.7095L6.00115 17.1711C6.03318 17.3617 5.90461 17.5422 5.71398 17.5742C5.52335 17.6063 5.34285 17.4777 5.31082 17.2871L4.22511 10.8255C4.19308 10.6349 4.32165 10.4544 4.51227 10.4224ZM23.9156 23.6335C23.9471 23.8242 23.8181 24.0044 23.6274 24.0359L17.1131 25.1128C16.9224 25.1444 16.7422 25.0153 16.7107 24.8246C16.6791 24.6339 16.8082 24.4538 16.9989 24.4222L23.5132 23.3453C23.7039 23.3138 23.8841 23.4428 23.9156 23.6335Z" fill="black"/>
</svg>
