<svg width="71" height="71" viewBox="0 0 71 71" fill="none" xmlns="http://www.w3.org/2000/svg">
<path fill-rule="evenodd" clip-rule="evenodd" d="M37.6246 34.2105C36.8237 33.3151 35.415 33.3047 34.6007 34.1883L21.6571 48.2339C19.7015 50.356 18.9464 53.3047 19.6447 56.0924C20.2907 58.6712 23.0361 60.1431 25.5718 59.2701L34.024 56.3601C35.431 55.8758 36.9684 55.9178 38.3462 56.4783L45.641 59.4462C48.372 60.5573 51.4591 58.9846 52.1321 56.1393C52.8019 53.3075 52.0423 50.3301 50.0944 48.1524L37.6246 34.2105ZM31.597 31.4775C34.0398 28.8268 38.2659 28.8578 40.6686 31.5441L53.1384 45.4859C55.9602 48.6408 57.0606 52.9539 56.0903 57.0562C54.8467 62.3141 49.142 65.2203 44.0952 63.167L36.8005 60.1992C36.3412 60.0123 35.8287 59.9983 35.3598 60.1598L26.9075 63.0698C22.1124 64.7207 16.9206 61.9371 15.699 57.0604C14.6737 52.9677 15.7823 48.6386 18.6534 45.5231L31.597 31.4775Z" fill="black"/>
<path fill-rule="evenodd" clip-rule="evenodd" d="M10.7518 39.3928C13.4199 39.3928 15.5829 37.2523 15.5829 34.6118C15.5829 31.9713 13.4199 29.8308 10.7518 29.8308C8.08362 29.8308 5.92065 31.9713 5.92065 34.6118C5.92065 37.2523 8.08362 39.3928 10.7518 39.3928ZM10.7518 43.4158C15.6651 43.4158 19.6481 39.4741 19.6481 34.6118C19.6481 29.7495 15.6651 25.8078 10.7518 25.8078C5.83848 25.8078 1.85547 29.7495 1.85547 34.6118C1.85547 39.4741 5.83848 43.4158 10.7518 43.4158Z" fill="black"/>
<path fill-rule="evenodd" clip-rule="evenodd" d="M23.6463 21.7848C26.3145 21.7848 28.4774 19.6443 28.4774 17.0038C28.4774 14.3634 26.3145 12.2229 23.6463 12.2229C20.9781 12.2229 18.8152 14.3634 18.8152 17.0038C18.8152 19.6443 20.9781 21.7848 23.6463 21.7848ZM23.6463 25.8078C28.5596 25.8078 32.5426 21.8661 32.5426 17.0038C32.5426 12.1415 28.5596 8.19986 23.6463 8.19986C18.733 8.19986 14.75 12.1415 14.75 17.0038C14.75 21.8661 18.733 25.8078 23.6463 25.8078Z" fill="black"/>
<path fill-rule="evenodd" clip-rule="evenodd" d="M46.1961 21.4148C48.8643 21.4148 51.0272 19.2743 51.0272 16.6338C51.0272 13.9933 48.8643 11.8528 46.1961 11.8528C43.528 11.8528 41.365 13.9933 41.365 16.6338C41.365 19.2743 43.528 21.4148 46.1961 21.4148ZM46.1961 25.4378C51.1094 25.4378 55.0924 21.4961 55.0924 16.6338C55.0924 11.7715 51.1094 7.82983 46.1961 7.82983C41.2828 7.82983 37.2998 11.7715 37.2998 16.6338C37.2998 21.4961 41.2828 25.4378 46.1961 25.4378Z" fill="black"/>
<path fill-rule="evenodd" clip-rule="evenodd" d="M60.9588 38.6923C63.627 38.6923 65.7899 36.5517 65.7899 33.9113C65.7899 31.2708 63.627 29.1303 60.9588 29.1303C58.2906 29.1303 56.1277 31.2708 56.1277 33.9113C56.1277 36.5517 58.2906 38.6923 60.9588 38.6923ZM60.9588 42.7153C65.8721 42.7153 69.8551 38.7736 69.8551 33.9113C69.8551 29.049 65.8721 25.1073 60.9588 25.1073C56.0455 25.1073 52.0625 29.049 52.0625 33.9113C52.0625 38.7736 56.0455 42.7153 60.9588 42.7153Z" fill="black"/>
</svg>
