<svg width="31" height="31" viewBox="0 0 31 31" fill="none" xmlns="http://www.w3.org/2000/svg">
<g clip-path="url(#clip0_38_775)">
<path fill-rule="evenodd" clip-rule="evenodd" d="M16.9489 7.18275L6.9045 15.0604C4.33862 17.0727 3.88992 20.7841 5.90228 23.35C7.91465 25.9159 11.626 26.3646 14.1919 24.3522L24.2363 16.4746C26.8022 14.4622 27.2509 10.7508 25.2385 8.18496C23.2261 5.61909 19.5147 5.17038 16.9489 7.18275ZM5.97881 13.8801C2.76108 16.4037 2.19838 21.058 4.72199 24.2757C7.2456 27.4934 11.8999 28.0561 15.1176 25.5325L25.162 17.6549C28.3797 15.1313 28.9424 10.477 26.4188 7.25928C23.8952 4.04154 19.2409 3.47884 16.0232 6.00245L5.97881 13.8801Z" fill="black"/>
<path fill-rule="evenodd" clip-rule="evenodd" d="M17.7608 8.85034L8.37548 16.2111C6.59762 17.6054 6.28672 20.177 7.68106 21.9549C9.0754 23.7327 11.647 24.0436 13.4248 22.6493L22.8102 15.2885C24.588 13.8942 24.8989 11.3226 23.5046 9.54476C22.1103 7.76689 19.5387 7.45599 17.7608 8.85034ZM7.94349 15.6603C5.86143 17.2932 5.49733 20.3048 7.13025 22.3869C8.76318 24.4689 11.7748 24.833 13.8568 23.2001L23.2422 15.8393C25.3242 14.2064 25.6883 11.1948 24.0554 9.11277C22.4225 7.0307 19.4109 6.66661 17.3288 8.29953L7.94349 15.6603Z" fill="black"/>
<path fill-rule="evenodd" clip-rule="evenodd" d="M6.23813 5.77367C6.12948 5.85888 6.11048 6.01603 6.19569 6.12467L7.42031 7.68612C7.46887 7.74804 7.54375 7.78348 7.62242 7.78178L8.73741 7.75772L9.0265 6.68059C9.0469 6.60459 9.03032 6.52342 8.98176 6.4615L7.75714 4.90005C7.67194 4.79141 7.51479 4.77241 7.40615 4.85761L6.23813 5.77367ZM8.95723 9.25332L7.65479 9.28143C7.10409 9.29332 6.57994 9.04523 6.24001 8.61181L5.01539 7.05035C4.41894 6.28985 4.55194 5.18982 5.31244 4.59337L6.48046 3.67732C7.24097 3.08087 8.34099 3.21386 8.93744 3.97436L10.1621 5.53582C10.502 5.96924 10.618 6.53742 10.4752 7.06942L10.1375 8.32763L14.4755 13.8588C14.7311 14.1847 14.6741 14.6562 14.3482 14.9118C14.0223 15.1674 13.5508 15.1104 13.2952 14.7845L8.95723 9.25332Z" fill="black"/>
<path fill-rule="evenodd" clip-rule="evenodd" d="M23.0525 27.2126C22.9439 27.2978 22.7867 27.2788 22.7015 27.1702L21.4769 25.6087C21.4283 25.5468 21.4118 25.4657 21.4322 25.3897L21.7213 24.3125L22.8363 24.2885C22.9149 24.2868 22.9898 24.3222 23.0384 24.3841L24.263 25.9456C24.3482 26.0542 24.3292 26.2114 24.2205 26.2966L23.0525 27.2126ZM20.3211 23.7426L19.9834 25.0008C19.8407 25.5328 19.9567 26.101 20.2966 26.5344L21.5212 28.0959C22.1177 28.8564 23.2177 28.9894 23.9782 28.3929L25.1462 27.4769C25.9067 26.8804 26.0397 25.7804 25.4433 25.0199L24.2187 23.4584C23.8787 23.025 23.3546 22.7769 22.8039 22.7888L21.5014 22.8169L17.1635 17.2858C16.9078 16.9599 16.4364 16.9029 16.1105 17.1585C15.7845 17.4141 15.7275 17.8855 15.9832 18.2115L20.3211 23.7426Z" fill="black"/>
</g>
<defs>
<clipPath id="clip0_38_775">
<rect width="30" height="30" fill="white" transform="translate(0.570312 0.767578)"/>
</clipPath>
</defs>
</svg>
