<svg width="30" height="31" viewBox="0 0 30 31" fill="none" xmlns="http://www.w3.org/2000/svg">
<path fill-rule="evenodd" clip-rule="evenodd" d="M12.1786 7.12207H16.6602C17.9341 7.12207 19.1547 7.63377 20.0477 8.54225L23.4699 12.0237L25.0287 12.1665C26.959 12.3434 28.4365 13.9624 28.4365 15.9009V18.9132H29C29.4142 18.9132 29.75 19.249 29.75 19.6632C29.75 20.0774 29.4142 20.4132 29 20.4132H26.3729C25.9587 20.4132 25.6229 20.0774 25.6229 19.6632C25.6229 19.249 25.9587 18.9132 26.3729 18.9132H26.9365V15.9009C26.9365 14.7378 26.05 13.7664 24.8918 13.6603L23.0935 13.4955H14.8829V8.62207H13.6786V14.4164C13.6786 14.8306 13.3428 15.1664 12.9286 15.1664C12.5144 15.1664 12.1786 14.8306 12.1786 14.4164V13.9132H4.75V18.6632C4.75 18.8013 4.86193 18.9132 5 18.9132H6C6.41421 18.9132 6.75 19.249 6.75 19.6632C6.75 20.0774 6.41421 20.4132 6 20.4132H5C4.0335 20.4132 3.25 19.6297 3.25 18.6632V12.4132H12.1786V7.12207ZM16.3829 8.62207V11.9955H21.3388L18.978 9.59377C18.3669 8.97218 17.5319 8.62207 16.6602 8.62207H16.3829ZM10.75 19.6632C10.75 19.249 11.0858 18.9132 11.5 18.9132H21.5C21.9142 18.9132 22.25 19.249 22.25 19.6632C22.25 20.0774 21.9142 20.4132 21.5 20.4132H11.5C11.0858 20.4132 10.75 20.0774 10.75 19.6632Z" fill="black"/>
<path fill-rule="evenodd" clip-rule="evenodd" d="M1 11.9131C1.41421 11.9131 1.75 12.2489 1.75 12.6631V17.6631C1.75 18.0773 1.41421 18.4131 1 18.4131C0.585786 18.4131 0.25 18.0773 0.25 17.6631V12.6631C0.25 12.2489 0.585786 11.9131 1 11.9131Z" fill="black"/>
<path fill-rule="evenodd" clip-rule="evenodd" d="M9 22.1631C9.82843 22.1631 10.5 21.4915 10.5 20.6631C10.5 19.8347 9.82843 19.1631 9 19.1631C8.17157 19.1631 7.5 19.8347 7.5 20.6631C7.5 21.4915 8.17157 22.1631 9 22.1631ZM9 23.6631C10.6569 23.6631 12 22.3199 12 20.6631C12 19.0062 10.6569 17.6631 9 17.6631C7.34315 17.6631 6 19.0062 6 20.6631C6 22.3199 7.34315 23.6631 9 23.6631Z" fill="black"/>
<path fill-rule="evenodd" clip-rule="evenodd" d="M24 22.1631C24.8284 22.1631 25.5 21.4915 25.5 20.6631C25.5 19.8347 24.8284 19.1631 24 19.1631C23.1716 19.1631 22.5 19.8347 22.5 20.6631C22.5 21.4915 23.1716 22.1631 24 22.1631ZM24 23.6631C25.6569 23.6631 27 22.3199 27 20.6631C27 19.0062 25.6569 17.6631 24 17.6631C22.3431 17.6631 21 19.0062 21 20.6631C21 22.3199 22.3431 23.6631 24 23.6631Z" fill="black"/>
</svg>
