<svg width="71" height="71" viewBox="0 0 71 71" fill="none" xmlns="http://www.w3.org/2000/svg">
<path fill-rule="evenodd" clip-rule="evenodd" d="M25.401 7.60278C24.2964 7.60278 23.401 8.49821 23.401 9.60278V26.1236C23.401 29.9344 25.9267 33.2837 29.5906 34.3315C30.7719 34.6694 31.5863 35.7493 31.5863 36.9781V44.586H29.5863V46.586C19.7475 46.586 11.7715 54.562 11.7715 64.4009V64.6773C11.7715 65.7819 10.8761 66.6773 9.77148 66.6773C8.66691 66.6773 7.77148 65.7819 7.77148 64.6773V64.4009C7.77148 53.0271 16.4757 43.6864 27.5863 42.6765V37.8814C22.6989 36.075 19.401 31.4006 19.401 26.1236V9.60278C19.401 6.28907 22.0873 3.60278 25.401 3.60278H45.6691C48.9828 3.60278 51.6691 6.28907 51.6691 9.60278V26.0198C51.6691 31.3579 48.3206 36.0821 43.3682 37.8877V42.6184C55.0084 43.2442 64.2543 52.881 64.2543 64.6773H60.2543C60.2543 54.6858 52.1546 46.586 42.1631 46.586H39.3682V36.9855C39.3682 35.7499 40.1895 34.6649 41.3787 34.3295C45.0994 33.2802 47.6691 29.8856 47.6691 26.0198V9.60278C47.6691 8.49822 46.7737 7.60278 45.6691 7.60278H25.401Z" fill="black"/>
<path fill-rule="evenodd" clip-rule="evenodd" d="M21.1064 16.2129C21.1064 15.3845 21.778 14.7129 22.6064 14.7129H49.0281C49.8565 14.7129 50.5281 15.3845 50.5281 16.2129C50.5281 17.0413 49.8565 17.7129 49.0281 17.7129H22.6064C21.778 17.7129 21.1064 17.0413 21.1064 16.2129Z" fill="black"/>
<path fill-rule="evenodd" clip-rule="evenodd" d="M21.6875 45.0398C21.6875 44.2114 22.3591 43.5398 23.1875 43.5398H45.3367C46.1651 43.5398 46.8367 44.2114 46.8367 45.0398C46.8367 45.8682 46.1651 46.5398 45.3367 46.5398H24.6875V63.7166C24.6875 64.5451 24.0159 65.2166 23.1875 65.2166C22.3591 65.2166 21.6875 64.5451 21.6875 63.7166V46.101C21.6875 45.9142 21.7216 45.7353 21.784 45.5704C21.7216 45.4054 21.6875 45.2266 21.6875 45.0398Z" fill="black"/>
<path d="M31.5874 51.8308C31.5874 53.0275 30.7212 53.9976 29.6526 53.9976C28.584 53.9976 27.7178 53.0275 27.7178 51.8308C27.7178 50.6342 28.584 49.6641 29.6526 49.6641C30.7212 49.6641 31.5874 50.6342 31.5874 51.8308Z" fill="black"/>
<path d="M39.8823 51.8308C39.8823 53.0275 39.0161 53.9976 37.9475 53.9976C36.8789 53.9976 36.0127 53.0275 36.0127 51.8308C36.0127 50.6342 36.8789 49.6641 37.9475 49.6641C39.0161 49.6641 39.8823 50.6342 39.8823 51.8308Z" fill="black"/>
<path d="M31.5874 61.5498C31.5874 62.7465 30.7212 63.7166 29.6526 63.7166C28.584 63.7166 27.7178 62.7465 27.7178 61.5498C27.7178 60.3531 28.584 59.3831 29.6526 59.3831C30.7212 59.3831 31.5874 60.3531 31.5874 61.5498Z" fill="black"/>
<path d="M39.8823 61.5498C39.8823 62.7465 39.0161 63.7166 37.9475 63.7166C36.8789 63.7166 36.0127 62.7465 36.0127 61.5498C36.0127 60.3531 36.8789 59.3831 37.9475 59.3831C39.0161 59.3831 39.8823 60.3531 39.8823 61.5498Z" fill="black"/>
</svg>
