<svg width="71" height="71" viewBox="0 0 71 71" fill="none" xmlns="http://www.w3.org/2000/svg">
<path fill-rule="evenodd" clip-rule="evenodd" d="M11.209 7.99561C8.99985 7.99561 7.20898 9.78647 7.20898 11.9956V59.9956C7.20898 62.2047 8.99985 63.9956 11.209 63.9956H59.209C61.4181 63.9956 63.209 62.2047 63.209 59.9956V11.9956C63.209 9.78647 61.4181 7.99561 59.209 7.99561H11.209ZM3.20898 11.9956C3.20898 7.57733 6.79071 3.99561 11.209 3.99561H59.209C63.6273 3.99561 67.209 7.57733 67.209 11.9956V59.9956C67.209 64.4139 63.6273 67.9956 59.209 67.9956H11.209C6.79071 67.9956 3.20898 64.4139 3.20898 59.9956V11.9956Z" fill="black"/>
<path fill-rule="evenodd" clip-rule="evenodd" d="M22.5264 30.2509C25.3229 30.2509 27.9297 27.8064 27.9297 24.3612C27.9297 20.9159 25.3229 18.4715 22.5264 18.4715C19.7299 18.4715 17.123 20.9159 17.123 24.3612C17.123 27.8064 19.7299 30.2509 22.5264 30.2509ZM22.5264 34.2509C27.7197 34.2509 31.9297 29.8231 31.9297 24.3612C31.9297 18.8993 27.7197 14.4715 22.5264 14.4715C17.3331 14.4715 13.123 18.8993 13.123 24.3612C13.123 29.8231 17.3331 34.2509 22.5264 34.2509Z" fill="black"/>
<path fill-rule="evenodd" clip-rule="evenodd" d="M47.3545 30.2509C50.151 30.2509 52.7578 27.8064 52.7578 24.3612C52.7578 20.9159 50.151 18.4715 47.3545 18.4715C44.558 18.4715 41.9512 20.9159 41.9512 24.3612C41.9512 27.8064 44.558 30.2509 47.3545 30.2509ZM47.3545 34.2509C52.5478 34.2509 56.7578 29.8231 56.7578 24.3612C56.7578 18.8993 52.5478 14.4715 47.3545 14.4715C42.1612 14.4715 37.9512 18.8993 37.9512 24.3612C37.9512 29.8231 42.1612 34.2509 47.3545 34.2509Z" fill="black"/>
<path fill-rule="evenodd" clip-rule="evenodd" d="M22.5264 54.637C25.3229 54.637 27.9297 52.1925 27.9297 48.7473C27.9297 45.302 25.3229 42.8576 22.5264 42.8576C19.7299 42.8576 17.123 45.302 17.123 48.7473C17.123 52.1925 19.7299 54.637 22.5264 54.637ZM22.5264 58.637C27.7197 58.637 31.9297 54.2092 31.9297 48.7473C31.9297 43.2854 27.7197 38.8576 22.5264 38.8576C17.3331 38.8576 13.123 43.2854 13.123 48.7473C13.123 54.2092 17.3331 58.637 22.5264 58.637Z" fill="black"/>
<path fill-rule="evenodd" clip-rule="evenodd" d="M47.3545 54.637C50.151 54.637 52.7578 52.1925 52.7578 48.7473C52.7578 45.302 50.151 42.8576 47.3545 42.8576C44.558 42.8576 41.9512 45.302 41.9512 48.7473C41.9512 52.1925 44.558 54.637 47.3545 54.637ZM47.3545 58.637C52.5478 58.637 56.7578 54.2092 56.7578 48.7473C56.7578 43.2854 52.5478 38.8576 47.3545 38.8576C42.1612 38.8576 37.9512 43.2854 37.9512 48.7473C37.9512 54.2092 42.1612 58.637 47.3545 58.637Z" fill="black"/>
</svg>
