<svg width="30" height="31" viewBox="0 0 30 31" fill="none" xmlns="http://www.w3.org/2000/svg">
<path fill-rule="evenodd" clip-rule="evenodd" d="M19.6293 4.3049C19.099 4.78667 18.75 5.52196 18.75 6.56067C18.75 7.52511 19.2733 8.6283 20.061 9.69187C20.6806 10.5284 21.4142 11.2738 22.0318 11.816C22.6062 11.3469 23.315 10.6033 23.9304 9.73774C24.7243 8.62135 25.25 7.45912 25.25 6.56068C25.25 5.38253 24.8336 4.65956 24.2799 4.21399C23.7003 3.74768 22.8838 3.51758 22 3.51758C20.9745 3.51758 20.1694 3.81428 19.6293 4.3049ZM18.6207 3.19463C19.4973 2.39828 20.6922 2.01758 22 2.01758C23.1163 2.01758 24.2997 2.30472 25.2202 3.04531C26.1664 3.80663 26.75 4.98021 26.75 6.56069C26.75 7.93706 25.998 9.41851 25.1529 10.607C24.297 11.8107 23.231 12.873 22.4028 13.4003C22.1328 13.5721 21.7835 13.5537 21.533 13.3544C20.7698 12.7471 19.7211 11.753 18.8557 10.5847C18.0046 9.43559 17.25 8.01004 17.25 6.56069C17.25 5.16111 17.7343 3.99984 18.6207 3.19463Z" fill="black"/>
<path d="M23 6.76758C23 7.31986 22.5523 7.76758 22 7.76758C21.4477 7.76758 21 7.31986 21 6.76758C21 6.21529 21.4477 5.76758 22 5.76758C22.5523 5.76758 23 6.21529 23 6.76758Z" fill="black"/>
<path fill-rule="evenodd" clip-rule="evenodd" d="M3.25 15.9297C3.25 13.7691 5.00153 12.0176 7.16216 12.0176H21.3455C21.7597 12.0176 22.0955 12.3534 22.0955 12.7676C22.0955 13.1818 21.7597 13.5176 21.3455 13.5176H7.16216C5.82996 13.5176 4.75 14.5975 4.75 15.9297C4.75 17.2619 5.82996 18.3419 7.16216 18.3419H18.6622C20.9198 18.3419 22.75 20.1721 22.75 22.4297C22.75 24.6874 20.9198 26.5176 18.6622 26.5176H14.1455C13.7312 26.5176 13.3955 26.1818 13.3955 25.7676C13.3955 25.3534 13.7312 25.0176 14.1455 25.0176H18.6622C20.0914 25.0176 21.25 23.859 21.25 22.4297C21.25 21.0005 20.0914 19.8419 18.6622 19.8419H7.16216C5.00153 19.8419 3.25 18.0904 3.25 15.9297Z" fill="black"/>
<path fill-rule="evenodd" clip-rule="evenodd" d="M12 27.2676C12.8284 27.2676 13.5 26.596 13.5 25.7676C13.5 24.9392 12.8284 24.2676 12 24.2676C11.1716 24.2676 10.5 24.9392 10.5 25.7676C10.5 26.596 11.1716 27.2676 12 27.2676ZM12 28.7676C13.6569 28.7676 15 27.4244 15 25.7676C15 24.1107 13.6569 22.7676 12 22.7676C10.3431 22.7676 9 24.1107 9 25.7676C9 27.4244 10.3431 28.7676 12 28.7676Z" fill="black"/>
</svg>
