<svg width="65" height="65" viewBox="0 0 65 65" fill="none" xmlns="http://www.w3.org/2000/svg">
<g id="trip operator">
<path id="Oval" d="M58.2411 34.6406H47.8492C46.7447 34.6406 45.8493 35.5361 45.8493 36.6406V51.2284C45.8493 52.333 46.7447 53.2284 47.8493 53.2284H56.2411C57.3457 53.2284 58.2411 52.333 58.2411 51.2284V34.6406C58.2411 19.242 45.7581 6.75891 30.3594 6.75891C14.9608 6.75891 2.47771 19.242 2.47771 34.6406V51.2284C2.47771 52.333 3.37314 53.2284 4.47771 53.2284H12.8696C13.9741 53.2284 14.8696 52.333 14.8696 51.2284V36.6406C14.8696 35.536 13.9741 34.6406 12.8696 34.6406H2.47771" stroke="black" stroke-width="4"/>
<path id="Path 50" d="M58.2411 40.8365V53.2284C58.2411 53.2284 58.2411 62.5223 52.0452 62.5223C45.8493 62.5223 36.5554 62.5223 36.5554 62.5223" stroke="black" stroke-width="4" stroke-linecap="round" stroke-linejoin="round"/>
</g>
</svg>
