<svg width="71" height="71" viewBox="0 0 71 71" fill="none" xmlns="http://www.w3.org/2000/svg">
<path fill-rule="evenodd" clip-rule="evenodd" d="M6.54799 7.2644C6.04434 7.2644 5.63605 7.71212 5.63605 8.2644V50.119C5.63605 50.6713 6.04433 51.119 6.54798 51.119H65.4286C65.9322 51.119 66.3405 50.6713 66.3405 50.119V8.2644C66.3405 7.71212 65.9322 7.2644 65.4286 7.2644H6.54799ZM1.98828 8.2644C1.98828 5.50298 4.02973 3.2644 6.54799 3.2644H65.4286C67.9468 3.2644 69.9883 5.50298 69.9883 8.2644V50.119C69.9883 52.8804 67.9468 55.119 65.4286 55.119H46.5351L42.9943 63.2644H55.0823C56.0896 63.2644 56.9062 64.1598 56.9062 65.2644C56.9062 66.369 56.0896 67.2644 55.0823 67.2644H16.5241C15.5168 67.2644 14.7002 66.369 14.7002 65.2644C14.7002 64.1598 15.5168 63.2644 16.5241 63.2644H28.3202L24.2244 55.119H6.54798C4.02973 55.119 1.98828 52.8804 1.98828 50.119V8.2644ZM28.39 55.119L32.4857 63.2644H38.9533L42.4941 55.119H28.39Z" fill="black"/>
</svg>
