<svg width="71" height="71" viewBox="0 0 71 71" fill="none" xmlns="http://www.w3.org/2000/svg">
<path fill-rule="evenodd" clip-rule="evenodd" d="M7.82054 5.51543C6.28244 5.51543 5.03556 6.74734 5.03556 8.26699V41.1913C7.36642 41.4985 9.4565 42.8312 10.6943 44.8491L11.1726 45.6289C11.6214 46.3607 12.4246 46.8076 13.2906 46.8076C14.4968 46.8076 15.6573 46.3523 16.5349 45.5348L19.5925 42.6866C20.6703 41.6826 22.0956 41.1234 23.5769 41.1234C25.0433 41.1234 26.4585 41.6563 27.5529 42.6206L31.3319 45.9506C31.9583 46.5026 32.7683 46.8076 33.6077 46.8076C34.3738 46.8076 35.1177 46.5534 35.7201 46.0858L40.3556 42.4873C41.4939 41.6037 42.8996 41.1234 44.3472 41.1234C45.9039 41.1234 47.4082 41.6786 48.5835 42.687L52.3492 45.918C53.0179 46.4917 53.8737 46.8076 54.7594 46.8076C55.7343 46.8076 56.6693 46.425 57.3586 45.7439L58.9027 44.2184C60.4653 42.6745 62.4618 41.6577 64.609 41.2837V8.26699C64.609 6.74734 63.3621 5.51543 61.824 5.51543H7.82054ZM64.609 45.0404C63.4542 45.3552 62.3902 45.9611 61.5283 46.8126L59.9843 48.3381C58.5986 49.7072 56.7191 50.4764 54.7594 50.4764C52.9791 50.4764 51.2586 49.8413 49.9144 48.688L46.1487 45.4571C45.6489 45.0282 45.0092 44.7921 44.3472 44.7921C43.7316 44.7921 43.1338 44.9964 42.6497 45.3722L38.0142 48.9706C36.7576 49.9461 35.2058 50.4764 33.6077 50.4764C31.8567 50.4764 30.167 49.8401 28.8602 48.6886L25.0812 45.3586C24.6672 44.9937 24.1318 44.7921 23.5769 44.7921C23.0427 44.7921 22.5286 44.9938 22.1399 45.3559L19.0822 48.2042C17.5156 49.6636 15.4438 50.4764 13.2906 50.4764C11.1261 50.4764 9.1188 49.3593 7.99695 47.5304L7.51864 46.7506C6.95637 45.834 6.05953 45.1863 5.03556 44.923V49.0103C7.36642 49.3176 9.4565 50.6503 10.6943 52.6682L11.1726 53.4479C11.6214 54.1797 12.4246 54.6267 13.2906 54.6267C14.4968 54.6267 15.6573 54.1713 16.5349 53.3539L19.5691 50.5274C20.6619 49.5094 22.1071 48.9424 23.6091 48.9424C25.0548 48.9424 26.45 49.4678 27.5289 50.4185L31.3318 53.7696C31.9583 54.3216 32.7683 54.6267 33.6077 54.6267C34.3738 54.6267 35.1177 54.3725 35.7201 53.9048L40.3556 50.3064C41.4939 49.4227 42.8996 48.9424 44.3472 48.9424C45.9039 48.9424 47.4082 49.4977 48.5835 50.5061L52.3492 53.737C53.0179 54.3107 53.8737 54.6267 54.7594 54.6267C55.7343 54.6267 56.6693 54.244 57.3586 53.5629L58.9027 52.0375C60.4653 50.4936 62.4618 49.4767 64.609 49.1028V45.0404ZM64.609 52.8595C63.4542 53.1742 62.3902 53.7801 61.5283 54.6317L59.9843 56.1572C58.5986 57.5263 56.7191 58.2954 54.7594 58.2954C52.9791 58.2954 51.2586 57.6604 49.9144 56.507L46.1487 53.2761C45.6489 52.8473 45.0092 52.6112 44.3472 52.6112C43.7316 52.6112 43.1338 52.8154 42.6497 53.1912L38.0142 56.7897C36.7576 57.7651 35.2058 58.2954 33.6077 58.2954C31.8567 58.2954 30.167 57.6591 28.8602 56.5076L25.0573 53.1565C24.6587 52.8053 24.1432 52.6112 23.6091 52.6112C23.0542 52.6112 22.5202 52.8206 22.1165 53.1967L19.0822 56.0232C17.5156 57.4826 15.4438 58.2954 13.2906 58.2954C11.1261 58.2954 9.1188 57.1783 7.99695 55.3494L7.51864 54.5696C6.95637 53.653 6.05953 53.0053 5.03556 52.7421V63.4264C5.03556 64.946 6.28244 66.1779 7.82054 66.1779H61.824C63.3621 66.1779 64.609 64.946 64.609 63.4264V52.8595ZM1.32227 8.26699C1.32227 4.72115 4.23164 1.84668 7.82054 1.84668H61.824C65.4129 1.84668 68.3223 4.72115 68.3223 8.26699V63.4264C68.3223 66.9722 65.4129 69.8467 61.824 69.8467H7.82054C4.23164 69.8467 1.32227 66.9722 1.32227 63.4264V8.26699Z" fill="black"/>
<path fill-rule="evenodd" clip-rule="evenodd" d="M48.0726 27.2604C51.0672 27.2604 53.4948 24.8328 53.4948 21.8382C53.4948 18.8436 51.0672 16.416 48.0726 16.416C45.078 16.416 42.6504 18.8436 42.6504 21.8382C42.6504 24.8328 45.078 27.2604 48.0726 27.2604ZM48.0726 30.2604C52.7241 30.2604 56.4948 26.4897 56.4948 21.8382C56.4948 17.1868 52.7241 13.416 48.0726 13.416C43.4211 13.416 39.6504 17.1868 39.6504 21.8382C39.6504 26.4897 43.4211 30.2604 48.0726 30.2604Z" fill="black"/>
</svg>
