<svg width="71" height="71" viewBox="0 0 71 71" fill="none" xmlns="http://www.w3.org/2000/svg">
<path fill-rule="evenodd" clip-rule="evenodd" d="M2.44336 10.1377C2.44336 9.10312 3.26793 8.2644 4.28509 8.2644H67.6911C68.7083 8.2644 69.5329 9.10312 69.5329 10.1377V32.895C69.5329 40.6546 63.3486 46.9449 55.7199 46.9449H16.2563C8.62763 46.9449 2.44336 40.6546 2.44336 32.895V10.1377ZM6.12681 12.0111V32.895C6.12681 38.5853 10.6619 43.1983 16.2563 43.1983H55.7199C61.3143 43.1983 65.8494 38.5853 65.8494 32.895V12.0111H6.12681ZM13.895 36.576C13.895 35.5414 14.7195 34.7027 15.7367 34.7027H56.1876C57.2047 34.7027 58.0293 35.5414 58.0293 36.576C58.0293 37.6106 57.2047 38.4493 56.1876 38.4493H15.7367C14.7195 38.4493 13.895 37.6106 13.895 36.576Z" fill="black"/>
<path fill-rule="evenodd" clip-rule="evenodd" d="M37.7399 49.4478V60.3911C37.7399 61.4257 36.9154 62.2644 35.8982 62.2644C34.8811 62.2644 34.0565 61.4257 34.0565 60.3911V49.4478H37.7399ZM18.0201 58.5178C22.8011 58.5178 26.6768 54.5755 26.6768 49.7126H30.3603C30.3603 56.6448 24.8354 62.2644 18.0201 62.2644H15.0722C14.055 62.2644 13.2305 61.4257 13.2305 60.3911C13.2305 59.3565 14.055 58.5178 15.0722 58.5178H18.0201ZM54.1441 62.2644C47.3289 62.2644 41.804 56.6448 41.804 49.7126H45.4874C45.4874 54.5755 49.3632 58.5178 54.1441 58.5178H56.9053C57.9225 58.5178 58.747 59.3565 58.747 60.3911C58.747 61.4257 57.9225 62.2644 56.9053 62.2644H54.1441Z" fill="black"/>
</svg>
