<svg width="70" height="70" viewBox="0 0 70 70" fill="none" xmlns="http://www.w3.org/2000/svg">
<path fill-rule="evenodd" clip-rule="evenodd" d="M46.0405 14.4439L42.1331 21.9496L45.2578 23.6123L48.6774 17.0438H59.5405L57.9206 24.9579C54.9327 33.9415 46.6029 39.9992 37.2207 39.9992H31.4575C22.0736 39.9992 13.7429 33.9382 10.7584 24.9511L9.07201 17.0438H19.0562L16.526 21.9566L19.6579 23.6053L23.54 16.0679L30.1565 2.59188L26.9936 1.00464L20.8714 13.4739H4.69839L6.86609 23.6379H1V27.2078H7.81171C11.5805 37.0285 20.9507 43.5691 31.4575 43.5691H37.2207C47.7282 43.5691 57.0993 37.0287 60.8694 27.2078H68V23.6379H61.7967L63.8772 13.4739H50.4682L55.8477 2.59652L52.6894 1L46.0405 14.4439ZM42.692 2.58898L32.4368 23.5716L29.2711 21.9902L39.5262 1.00754L42.692 2.58898Z" fill="black"/>
<path fill-rule="evenodd" clip-rule="evenodd" d="M46.7303 38.302C47.6446 37.9594 48.6605 38.4311 48.9993 39.3555L53.6568 52.0622L58.5554 65.6743C58.8888 66.6007 58.4162 67.6249 57.4999 67.962C56.5836 68.299 55.5705 67.8213 55.2371 66.8949L50.7612 54.4575H17.3398L11.8914 67.0022C11.4993 67.9048 10.4578 68.3153 9.56496 67.9189C8.67215 67.5226 8.26618 66.4696 8.65821 65.567L20.087 39.2579C20.4792 38.3553 21.5208 37.9451 22.4135 38.3415C23.3063 38.738 23.7121 39.7911 23.3199 40.6937L18.8907 50.8876H49.4605L45.6882 40.5959C45.3494 39.6716 45.8159 38.6445 46.7303 38.302Z" fill="black"/>
<path fill-rule="evenodd" clip-rule="evenodd" d="M34.0643 41.589C35.0394 41.5956 35.8246 42.4 35.8181 43.3858L35.6613 67.2151C35.6548 68.2009 34.8591 68.9947 33.884 68.9881C32.909 68.9816 32.1238 68.1771 32.1303 67.1913L32.2871 43.3621C32.2936 42.3763 33.0893 41.5825 34.0643 41.589Z" fill="black"/>
</svg>
