<svg width="71" height="71" viewBox="0 0 71 71" fill="none" xmlns="http://www.w3.org/2000/svg">
<path fill-rule="evenodd" clip-rule="evenodd" d="M9.44141 7.01074C8.88912 7.01074 8.44141 7.45846 8.44141 8.01074V46.5951C8.44141 46.6525 8.4453 46.6848 8.44799 46.7008C8.66229 47.9723 9.22666 49.7795 10.1966 51.2117C11.1505 52.6203 12.3134 53.4326 13.7845 53.4326H62.8667V47.5397H25.0786C24.47 47.5397 23.8523 47.5466 23.2354 47.5534C21.1237 47.5768 19.022 47.6001 17.3289 47.3481C16.1967 47.1796 15.0278 46.8651 14.0307 46.2111C12.9721 45.5166 12.2104 44.5056 11.8534 43.1801C11.5661 42.1135 12.1978 41.016 13.2644 40.7288C14.3309 40.4415 15.4284 41.0732 15.7157 42.1398C15.8148 42.5077 15.9762 42.7034 16.2247 42.8665C16.5348 43.0699 17.0573 43.2636 17.9178 43.3917C19.2665 43.5924 20.9097 43.5753 22.9308 43.5542C23.6038 43.5472 24.3187 43.5397 25.0786 43.5397H62.8667V28.0731H48.5813C43.0585 28.0731 38.5813 23.596 38.5813 18.0731V7.01074H9.44141ZM42.5813 7.05248V18.0731C42.5813 21.3868 45.2676 24.0731 48.5813 24.0731H59.9932L42.9979 7.29902C42.8803 7.18293 42.7369 7.0989 42.5813 7.05248ZM62.8827 57.4326H13.7845C13.2866 57.4326 12.8124 57.3878 12.3612 57.3047C13.7856 60.6561 17.1079 63.0063 20.979 63.0063H54.0998C54.1105 63.0063 54.1212 63.0064 54.1319 63.0066C54.1392 63.0067 54.1465 63.0068 54.1538 63.007C55.8765 63.0536 58.3536 62.6736 60.2224 61.5238C61.1285 60.9663 61.8483 60.2561 62.3133 59.3606C62.5861 58.8354 62.7942 58.2024 62.8827 57.4326ZM7.64336 54.4525C7.36684 54.1289 7.11417 53.7937 6.8846 53.4547C5.50713 51.4207 4.78386 49.0283 4.50362 47.3656C4.45737 47.0912 4.44141 46.8321 4.44141 46.5951V8.01074C4.44141 5.24932 6.67998 3.01074 9.44141 3.01074H42.2954C43.6102 3.01074 44.872 3.52857 45.8077 4.45212L66.2716 24.6497C66.6524 25.0255 66.8667 25.5381 66.8667 26.0731V55.3319C67.0874 57.6032 66.7156 59.5626 65.8633 61.2039C65.0022 62.8621 63.7162 64.0706 62.3186 64.9306C59.5915 66.6085 56.2862 67.0616 54.0737 67.0063H20.979C13.8713 67.0063 8.05998 61.4556 7.64336 54.4525Z" fill="black"/>
</svg>
