<svg width="30" height="31" viewBox="0 0 30 31" fill="none" xmlns="http://www.w3.org/2000/svg">
<path fill-rule="evenodd" clip-rule="evenodd" d="M23.0237 8.04593C22.7832 8.09154 22.5509 8.16988 22.4187 8.2248C22.3579 8.25007 22.2927 8.26308 22.2269 8.26308H22.0777L22.1687 8.43584C22.3273 8.50969 22.3964 8.64071 22.4219 8.70511C22.4494 8.77444 22.4547 8.83349 22.4563 8.85846C22.4598 8.91184 22.4537 8.95416 22.4519 8.96669C22.4492 8.98549 22.446 9.00119 22.4438 9.0112C22.4311 9.0685 22.4046 9.14585 22.388 9.19349C22.3647 9.26039 22.3281 9.3201 22.2816 9.36994C22.217 9.52005 22.1196 9.75203 21.9777 10.098C21.7698 10.6049 21.7123 11.3634 21.7481 12.1596C21.7826 12.9265 21.8999 13.6616 21.9977 14.1062C22.0537 14.2794 22.1099 14.5386 22.1271 14.8285C22.1452 15.1333 22.1223 15.5091 21.9793 15.8663C21.8766 16.1227 21.5856 16.2473 21.3292 16.1446C21.0729 16.042 20.9483 15.751 21.0509 15.4946C21.1204 15.321 21.1418 15.1059 21.1289 14.8876C21.116 14.6708 21.0715 14.4876 21.0419 14.4009C21.0361 14.3837 21.0311 14.3662 21.0272 14.3485C20.917 13.8562 20.7871 13.05 20.7491 12.2046C20.7118 11.3745 20.7588 10.4346 21.0525 9.71856C21.1793 9.4094 21.2744 9.18156 21.3447 9.0174L20.807 7.99599C20.7254 7.841 20.7309 7.65462 20.8214 7.50467C20.9119 7.35473 21.0743 7.26308 21.2495 7.26308H22.1317C22.3164 7.19317 22.5701 7.11413 22.8373 7.06345C23.1344 7.00709 23.5418 6.96653 23.8896 7.09603C24.1316 7.18609 24.4323 7.34248 24.6936 7.47839C24.7591 7.51244 24.8221 7.5452 24.8811 7.57531C25.0405 7.65672 25.1771 7.72284 25.2873 7.76678C25.3715 7.80033 25.4087 7.80756 25.4124 7.80924C25.4901 7.80637 25.5594 7.81799 25.602 7.82641C25.6574 7.83735 25.7145 7.85275 25.7691 7.86939C25.8786 7.90278 26.0056 7.94958 26.1387 8.00309C26.4066 8.11072 26.7286 8.25726 27.0424 8.41194C27.3561 8.56654 27.6707 8.73368 27.9224 8.8839C28.0476 8.95859 28.1645 9.03336 28.2604 9.10357C28.3348 9.15806 28.465 9.25702 28.5449 9.38551C28.8978 9.95311 28.7776 10.5043 28.5878 10.8837C28.4949 11.0695 28.3819 11.2243 28.2904 11.3379C28.2443 11.3952 28.2018 11.4443 28.1698 11.481C28.1529 11.5004 28.1411 11.514 28.1308 11.526C28.12 11.5386 28.1173 11.5422 28.1183 11.5408C28.0238 11.6651 27.8766 11.7381 27.7204 11.7381C27.6349 11.7381 27.5476 11.7219 27.4876 11.7093C27.4187 11.6948 27.3425 11.6754 27.2658 11.6543C27.1123 11.6121 26.9336 11.5569 26.7655 11.5044C26.7379 11.4957 26.7106 11.4872 26.6837 11.4788C26.5427 11.4346 26.4123 11.3938 26.3034 11.3621C26.2386 11.3432 26.1879 11.3294 26.1514 11.3208C26.1423 11.3186 26.1352 11.317 26.13 11.316C26.1061 11.3157 26.079 11.3152 26.0492 11.3146C25.8841 11.3114 25.6382 11.3066 25.407 11.3368C25.3757 11.3408 25.3475 11.3453 25.3224 11.3498C25.3325 11.3772 25.3434 11.4067 25.3551 11.4386L25.3657 11.4671C25.4403 11.6692 25.5397 11.9401 25.6429 12.2596C25.8487 12.897 26.0733 13.7399 26.1542 14.6567C26.3167 16.4988 25.8947 18.7112 23.5214 20.0852C23.5011 20.097 23.4799 20.1073 23.4581 20.1161C22.9454 20.3231 22.1228 20.4863 21.2743 20.313C20.6339 20.1821 19.9894 19.8603 19.4696 19.2482C19.2849 19.6791 19.0746 20.155 18.8602 20.6146C18.4758 21.4389 18.0471 22.2818 17.7214 22.6804C17.4951 22.9574 17.4366 23.3608 17.4525 23.849C17.4576 24.0059 17.4683 24.1431 17.4792 24.2818C17.4856 24.3636 17.4921 24.446 17.4974 24.5331C17.5039 24.6396 17.5084 24.7526 17.5035 24.8589C17.4989 24.9593 17.4849 25.0924 17.4325 25.2212C17.3988 25.3041 17.3641 25.3657 17.3384 25.4095C17.3328 25.4192 17.3282 25.4271 17.3243 25.4337C17.309 25.4598 17.3059 25.465 17.3016 25.4744L17.3015 25.4745C17.3 25.4775 17.2795 25.5172 17.2694 25.6878C17.2483 26.0453 17.2803 26.7901 17.4417 28.5003L18.1687 28.8924C18.4117 29.0235 18.5025 29.3268 18.3714 29.5699C18.2403 29.8129 17.937 29.9036 17.6939 29.7725L16.7319 29.2536C16.5853 29.1745 16.4876 29.0275 16.4716 28.8616C16.2901 26.9804 16.2435 26.0966 16.2711 25.6289C16.2857 25.3823 16.3224 25.2087 16.3945 25.0534C16.4213 24.9957 16.4523 24.9433 16.4687 24.9157C16.4712 24.9116 16.4733 24.908 16.475 24.905C16.4871 24.8843 16.4945 24.8708 16.5009 24.8568C16.5018 24.8501 16.5035 24.8362 16.5046 24.8132C16.507 24.7611 16.5052 24.6905 16.4993 24.5943C16.4959 24.5388 16.4907 24.4715 16.4849 24.3971C16.473 24.2425 16.4587 24.057 16.453 23.8815C16.4357 23.3504 16.4768 22.6232 16.947 22.0477C17.1786 21.7643 17.5565 21.0443 17.9539 20.192C18.3403 19.3634 18.7153 18.4766 18.942 17.9145C19.0452 17.6584 19.3366 17.5345 19.5927 17.6377C19.7925 17.7183 19.9118 17.9133 19.9056 18.1168C20.319 18.8886 20.9044 19.2167 21.4745 19.3332C22.0765 19.4562 22.6803 19.3443 23.0519 19.2014C24.9384 18.0924 25.3002 16.3561 25.1581 14.7446C25.0862 13.9301 24.8846 13.1658 24.6913 12.5668C24.5948 12.2682 24.5015 12.0135 24.4276 11.8136C24.4239 11.8035 24.4202 11.7934 24.4165 11.7835C24.3845 11.697 24.3552 11.6176 24.3323 11.5523C24.3107 11.4903 24.2808 11.4029 24.2671 11.3262C24.2364 11.1548 24.2627 10.9799 24.353 10.8253C24.4373 10.6809 24.5574 10.588 24.6607 10.5289C24.8577 10.416 25.0944 10.369 25.2777 10.3451C25.5982 10.3034 25.9582 10.3117 26.1037 10.3151C26.1289 10.3157 26.1477 10.3161 26.1587 10.3161C26.2469 10.3161 26.3373 10.3371 26.3822 10.3478C26.443 10.3622 26.5125 10.3814 26.5833 10.4021C26.7026 10.4368 26.8444 10.4812 26.985 10.5253C27.0113 10.5335 27.0376 10.5417 27.0637 10.5499C27.2324 10.6026 27.3948 10.6526 27.5289 10.6895C27.5856 10.6195 27.6412 10.5408 27.6934 10.4364C27.7818 10.2596 27.8019 10.1071 27.7136 9.9444C27.7047 9.93697 27.6905 9.92568 27.6697 9.91042C27.6091 9.86609 27.5217 9.80928 27.4101 9.74268C27.1882 9.61029 26.8987 9.45597 26.6004 9.30892C26.3022 9.16196 26.004 9.02667 25.7659 8.93099C25.6461 8.88285 25.5486 8.84762 25.4775 8.82595C25.4508 8.81782 25.4316 8.81276 25.419 8.8098C25.2283 8.8128 25.039 8.74434 24.917 8.69568C24.7607 8.63336 24.589 8.54899 24.4264 8.46596C24.3468 8.42535 24.2696 8.38527 24.195 8.34656C23.9416 8.21508 23.7189 8.09951 23.5408 8.0332C23.4621 8.00392 23.2846 7.99643 23.0237 8.04593ZM25.4021 8.80643C25.4021 8.80638 25.4034 8.80655 25.4062 8.80707C25.4036 8.80674 25.4022 8.80648 25.4021 8.80643Z" fill="black"/>
<path fill-rule="evenodd" clip-rule="evenodd" d="M21.46 20.975C21.7102 21.0917 21.8185 21.3892 21.7017 21.6395L20.4914 24.2341C20.5318 24.3798 20.5665 24.5541 20.5803 24.7378C20.6012 25.0158 20.5797 25.3881 20.3808 25.7115C20.3826 25.7085 20.3822 25.7099 20.3803 25.7167C20.3741 25.7383 20.3525 25.8142 20.3382 25.976C20.3217 26.1617 20.3193 26.3959 20.3277 26.6536C20.3414 27.073 20.3824 27.5242 20.4232 27.8706L21.5344 28.6448C21.761 28.8027 21.8167 29.1143 21.6588 29.3409C21.501 29.5675 21.1893 29.6232 20.9628 29.4653L19.669 28.5639C19.5541 28.4838 19.478 28.3592 19.4593 28.2204C19.408 27.8388 19.3464 27.2424 19.3283 26.6862C19.3192 26.4088 19.3206 26.1299 19.3421 25.8877C19.3612 25.6726 19.4019 25.3942 19.529 25.1876C19.5689 25.1228 19.5971 24.9981 19.5832 24.8127C19.5699 24.636 19.523 24.4698 19.4893 24.3836C19.4394 24.2563 19.4439 24.114 19.5018 23.99L20.7955 21.2167C20.9122 20.9665 21.2097 20.8582 21.46 20.975Z" fill="black"/>
<path fill-rule="evenodd" clip-rule="evenodd" d="M19.043 11.1474C19.1441 11.3798 19.2457 11.6134 19.3463 11.8364C20.1036 13.5165 21.0692 13.9827 21.2993 14.0274C21.5704 14.08 21.7474 14.3425 21.6948 14.6136C21.6421 14.8846 21.3796 15.0617 21.1086 15.009C20.4639 14.8838 19.2794 14.1215 18.4346 12.2474C18.3201 11.9934 18.2157 11.7531 18.1151 11.5215C17.9847 11.2213 17.8606 10.9356 17.7289 10.6533C17.5013 10.1654 17.2842 9.76341 17.0502 9.46341C16.8184 9.16614 16.5967 9.00327 16.3685 8.93787C16.1502 8.8753 15.8535 8.88127 15.4246 9.06456C15.1545 9.23285 14.2866 9.96775 13.1486 11.5848C12.9077 11.9272 12.5139 12.1413 12.0844 12.1413C11.6636 12.1413 11.2694 11.9356 11.0288 11.5903L9.79314 9.81721C9.59381 9.53118 9.38287 9.27726 9.16026 9.10783C8.94424 8.94342 8.75226 8.88359 8.56175 8.9101C8.32732 8.94272 8.06589 9.05931 7.8327 9.38394C7.16838 10.3087 6.45842 11.6825 6.18648 12.2561C6.12827 12.3789 6.0226 12.4727 5.89378 12.5159C5.66943 12.5912 5.29319 12.7472 4.92567 12.9605C4.54718 13.1803 4.23685 13.4273 4.08029 13.6647C4.05143 13.7084 4.02237 13.752 3.99325 13.7957C3.73322 14.1857 3.46852 14.5827 3.29704 15.1723C3.10781 15.8229 3.02597 16.7424 3.29092 18.1395C3.51729 19.3332 3.56877 20.2127 3.53369 20.8371C3.51616 21.1492 3.47662 21.4047 3.42281 21.6076C3.37554 21.7858 3.30699 21.9635 3.20187 22.0991L2.28343 23.4426C2.58893 24.3377 2.94075 25.3864 3.22484 26.2559C3.37953 26.7293 3.51486 27.1518 3.61182 27.4681C3.66015 27.6257 3.70002 27.7605 3.72819 27.8632C3.74216 27.9142 3.75449 27.9618 3.7637 28.0025L3.76438 28.0054C3.77003 28.0302 3.78646 28.1023 3.78646 28.175C3.78646 28.2577 3.76646 28.33 3.76054 28.3515L3.75993 28.3537C3.75232 28.3814 3.74262 28.4122 3.73557 28.4345L3.7333 28.4418C3.71646 28.4953 3.70246 28.5416 3.69253 28.5896C3.67117 28.6927 3.68365 28.7358 3.6914 28.7506C3.69426 28.7561 3.70427 28.7739 3.74127 28.7993C3.78111 28.8267 3.85583 28.8649 3.98774 28.8977C4.25775 28.9649 4.71227 28.9963 5.45003 28.9179C5.72463 28.8888 5.97088 29.0877 6.00004 29.3623C6.02921 29.6369 5.83025 29.8832 5.55565 29.9123C4.76504 29.9963 4.17833 29.9757 3.7462 29.8681C3.30561 29.7584 2.97794 29.5441 2.80534 29.2142C2.64109 28.9002 2.67261 28.5833 2.7133 28.3868C2.73197 28.2966 2.75588 28.217 2.77304 28.1619C2.77027 28.1515 2.76719 28.1401 2.76377 28.1276C2.73952 28.0391 2.70304 27.9155 2.65575 27.7612C2.56145 27.4536 2.42833 27.0379 2.27429 26.5665C1.96644 25.6243 1.57791 24.4683 1.25624 23.5294C1.2051 23.3801 1.22743 23.2154 1.31648 23.0851L2.3869 21.5193C2.39361 21.5094 2.40067 21.4999 2.40806 21.4906C2.40806 21.4906 2.40805 21.4906 2.40805 21.4906C2.40735 21.4901 2.42928 21.4528 2.45623 21.3512C2.48875 21.2286 2.52057 21.0426 2.53526 20.781C2.56463 20.2584 2.52404 19.4628 2.30843 18.3258C2.0209 16.8097 2.09445 15.7263 2.33683 14.893C2.55337 14.1485 2.89994 13.6309 3.1609 13.2411C3.1903 13.1972 3.21862 13.1549 3.24554 13.1141C3.53096 12.6814 4.0033 12.3397 4.42359 12.0957C4.76187 11.8993 5.10469 11.7445 5.37294 11.6412C5.70122 10.9718 6.37049 9.70544 7.02052 8.80052C7.41812 8.24702 7.92672 7.98882 8.42394 7.91964C8.95873 7.84523 9.41267 8.04324 9.76591 8.3121C10.1126 8.57594 10.3942 8.93072 10.6136 9.24547L11.8492 11.0186C11.9028 11.0955 11.9906 11.1413 12.0844 11.1413C12.1777 11.1413 12.2709 11.0945 12.3308 11.0093C13.5339 9.2998 14.5186 8.43285 14.9455 8.186C14.9614 8.17679 14.9778 8.16847 14.9946 8.16107C15.5867 7.90089 16.1365 7.8311 16.6441 7.97658C17.1464 8.12058 17.5311 8.45387 17.8388 8.84849C18.1444 9.24039 18.3998 9.72605 18.6352 10.2305C18.7677 10.5146 18.9049 10.83 19.043 11.1474ZM2.79186 28.2403C2.79179 28.2402 2.79136 28.238 2.79076 28.2342C2.79163 28.2385 2.79193 28.2404 2.79186 28.2403ZM2.79509 28.0908C2.797 28.0822 2.79787 28.0807 2.7956 28.089C2.79544 28.0896 2.79527 28.0902 2.79509 28.0908Z" fill="black"/>
<path fill-rule="evenodd" clip-rule="evenodd" d="M6.64215 17.2437C6.84912 17.0609 7.16509 17.0804 7.3479 17.2874C7.87568 17.885 9.8683 19.2504 13.2147 19.1674C13.4908 19.1606 13.7201 19.3788 13.727 19.6548C13.7338 19.9309 13.5156 20.1602 13.2395 20.1671C9.62745 20.2567 7.34056 18.7897 6.5984 17.9494C6.41559 17.7424 6.43518 17.4265 6.64215 17.2437Z" fill="black"/>
<path fill-rule="evenodd" clip-rule="evenodd" d="M6.88893 17.2791C7.16507 17.2791 7.38893 17.5029 7.38893 17.7791C7.38892 18.4527 7.13958 20.057 6.11091 21.2822L4.58142 23.3623L5.4442 27.5719C5.49964 27.8424 5.32529 28.1067 5.05477 28.1621C4.78425 28.2176 4.52 28.0432 4.46456 27.7727L3.55718 23.3454C3.52879 23.2069 3.56039 23.0628 3.64418 22.9488L5.31508 20.6765C5.32182 20.6673 5.32887 20.6584 5.33622 20.6497C6.17167 19.6624 6.38892 18.3095 6.38893 17.779C6.38893 17.5029 6.61279 17.2791 6.88893 17.2791Z" fill="black"/>
<path fill-rule="evenodd" clip-rule="evenodd" d="M15.9348 8.08116C16.3226 8.2266 16.5191 8.65891 16.3737 9.04675C16.081 9.82722 15.5729 11.3503 15.3869 12.5408C15.2046 13.7074 15.3109 15.265 15.3901 15.8987C15.4168 16.1121 15.3505 16.3268 15.2081 16.488C15.0658 16.6493 14.861 16.7417 14.6459 16.7417H9.83055C9.33069 16.8352 8.84805 16.5654 8.51414 16.1562C8.14666 15.7059 7.85478 14.9934 7.66604 13.9449C7.45666 12.7817 7.6781 11.6816 8.01596 10.8004C8.35261 9.92233 8.82262 9.2142 9.17813 8.80934C9.45145 8.4981 9.92532 8.46735 10.2366 8.74066C10.5478 9.01398 10.5786 9.48785 10.3052 9.7991C10.0663 10.0712 9.68921 10.6262 9.41655 11.3374C9.14509 12.0454 8.995 12.8608 9.14231 13.6791C9.31025 14.6121 9.53852 15.039 9.67632 15.2079C9.68753 15.2216 9.69747 15.2331 9.70613 15.2425C9.71797 15.242 9.72982 15.2417 9.74169 15.2417H13.8251C13.7716 14.413 13.7541 13.2745 13.9049 12.3092C14.1152 10.9635 14.6674 9.32478 14.9692 8.52006C15.1146 8.13222 15.5469 7.93572 15.9348 8.08116ZM9.75008 15.2833C9.75008 15.2835 9.7481 15.2823 9.74414 15.2792C9.7481 15.2815 9.75009 15.283 9.75008 15.2833Z" fill="black"/>
<path fill-rule="evenodd" clip-rule="evenodd" d="M9.70474 18.9875C9.9139 19.1831 9.93728 19.5255 9.75698 19.7524L8.82185 20.929C8.77307 21.2902 8.69283 21.774 8.58754 22.2173C8.52683 22.4729 8.45413 22.7307 8.36861 22.9487C8.32583 23.0577 8.27538 23.1684 8.21532 23.2681C8.18949 23.311 8.15792 23.3587 8.1197 23.406C8.12478 23.4775 8.13757 23.5785 8.16131 23.7118C8.2241 24.0644 8.34557 24.5469 8.50109 25.092C8.78676 26.0934 9.17181 27.2526 9.46412 28.0849L10.3146 28.5226C10.564 28.651 10.6703 28.9745 10.5519 29.2451C10.4335 29.5157 10.1353 29.6309 9.88582 29.5025L8.85453 28.9717C8.7388 28.9121 8.64856 28.8066 8.60243 28.677C8.29933 27.8251 7.86446 26.5297 7.54579 25.4127C7.38719 24.8568 7.25278 24.3292 7.17946 23.9175C7.14341 23.715 7.1174 23.5154 7.11707 23.3444C7.1169 23.2601 7.12264 23.1558 7.14918 23.0511C7.1723 22.9598 7.22859 22.8002 7.3731 22.683C7.37455 22.6808 7.3762 22.6781 7.37807 22.675C7.39543 22.6462 7.41966 22.5974 7.44847 22.524C7.50615 22.377 7.5643 22.1777 7.61917 21.9467C7.72832 21.4872 7.81009 20.9642 7.85127 20.6251C7.86399 20.5203 7.90466 20.4218 7.96828 20.3418L8.99957 19.0442C9.17987 18.8173 9.49559 18.792 9.70474 18.9875ZM7.36603 22.6932C7.36603 22.6931 7.36641 22.6926 7.3672 22.6917Z" fill="black"/>
</svg>
