<svg width="30" height="31" viewBox="0 0 30 31" fill="none" xmlns="http://www.w3.org/2000/svg">
<g clip-path="url(#clip0_38_798)">
<path fill-rule="evenodd" clip-rule="evenodd" d="M11.744 11.511C11.744 12.0589 12.1882 12.5031 12.7362 12.5031C13.2841 12.5031 13.7283 12.0589 13.7283 11.511H15.2283C15.2283 12.8874 14.1125 14.0031 12.7362 14.0031C11.3598 14.0031 10.244 12.8874 10.244 11.511H11.744Z" fill="black"/>
<path fill-rule="evenodd" clip-rule="evenodd" d="M10.414 13.0387C10.7371 13.0521 11.0152 13.2711 11.104 13.5821L11.9427 16.5182L16.136 15.2443C16.5323 15.1239 16.9512 15.3476 17.0716 15.7439C17.192 16.1403 16.9683 16.5592 16.572 16.6796L11.649 18.1751C11.4566 18.2335 11.2488 18.2122 11.0722 18.1161C10.8956 18.0199 10.7651 17.8568 10.7099 17.6634L10.2839 16.1722L9.64787 17.8558C9.17419 19.1096 9.56326 20.462 10.6297 21.2515C11.0704 21.5777 11.5147 21.9151 11.8928 22.2299C12.2569 22.533 12.6112 22.8566 12.8309 23.1539C12.998 23.38 13.09 23.6504 13.1473 23.8885C13.2071 24.1375 13.2435 24.4154 13.2653 24.7008C13.3089 25.2717 13.299 25.9421 13.266 26.61C13.2201 27.5382 13.1251 28.5295 13.0517 29.2942C13.0205 29.62 12.9932 29.9047 12.9753 30.1258C12.942 30.5387 12.5802 30.8464 12.1673 30.813C11.7545 30.7796 11.4468 30.4179 11.4802 30.005C11.501 29.7473 11.5307 29.4386 11.5636 29.0963C11.6358 28.3442 11.7237 27.4296 11.7678 26.536C11.7996 25.892 11.8062 25.2938 11.7697 24.815C11.7514 24.5756 11.7235 24.3833 11.6888 24.239C11.6577 24.1098 11.6298 24.0561 11.6247 24.0463C11.6237 24.0443 11.6236 24.0441 11.6246 24.0455C11.5216 23.9061 11.2916 23.6811 10.9331 23.3827C10.5887 23.096 10.1721 22.779 9.73728 22.4571C8.12076 21.2605 7.53861 19.1946 8.24467 17.3256L9.68126 13.523C9.79554 13.2205 10.0909 13.0253 10.414 13.0387ZM8.42481 22.5194C8.83902 22.5194 9.17481 22.8552 9.17481 23.2694V23.806C9.17481 24.7471 8.89523 25.6671 8.37154 26.4491L5.67024 30.4828C5.43976 30.8269 4.97392 30.9191 4.62975 30.6886C4.28558 30.4581 4.19342 29.9923 4.42391 29.6481L7.1252 25.6144C7.48351 25.0794 7.67481 24.4499 7.67481 23.806V23.2694C7.67481 22.8552 8.01059 22.5194 8.42481 22.5194Z" fill="black"/>
<path fill-rule="evenodd" clip-rule="evenodd" d="M7.43657 13.2299L5.13973 19.2094C5.04919 19.4452 5.16688 19.7096 5.40259 19.8002C5.63831 19.8907 5.90279 19.773 5.99334 19.5373L8.29018 13.5577C8.38072 13.322 8.26303 13.0575 8.02731 12.967C7.7916 12.8765 7.52711 12.9941 7.43657 13.2299ZM4.20623 18.8509C3.91765 19.6022 4.29275 20.4451 5.04402 20.7337C5.7953 21.0223 6.63826 20.6472 6.92684 19.8959L9.22368 13.9163C9.51225 13.165 9.13716 12.3221 8.38588 12.0335C7.63461 11.7449 6.79164 12.12 6.50307 12.8713L4.20623 18.8509Z" fill="black"/>
<path fill-rule="evenodd" clip-rule="evenodd" d="M9.83887 10.6819C9.83887 9.08182 11.136 7.78467 12.7361 7.78467C14.3363 7.78467 15.6334 9.08182 15.6334 10.6819V10.9759C15.6334 11.1692 15.4767 11.3259 15.2834 11.3259H10.1889C9.99557 11.3259 9.83887 11.1692 9.83887 10.9759V10.6819ZM10.5396 10.6259H14.9327C14.903 9.43826 13.9309 8.48467 12.7361 8.48467C11.5414 8.48467 10.5693 9.43826 10.5396 10.6259Z" fill="black"/>
<path fill-rule="evenodd" clip-rule="evenodd" d="M16.1573 9.48804C16.3506 9.48804 16.5073 9.64474 16.5073 9.83804V11.3478C16.5073 11.5411 16.3506 11.6978 16.1573 11.6978C15.964 11.6978 15.8073 11.5411 15.8073 11.3478V9.83804C15.8073 9.64474 15.964 9.48804 16.1573 9.48804Z" fill="black"/>
<path fill-rule="evenodd" clip-rule="evenodd" d="M30 0.043457C29.1684 0.043457 26.9324 0.341119 25.1972 0.892915C23.6866 1.37328 22.6812 2.71648 21.5922 4.1715L21.5662 4.20614L21.1659 3.90651L21.5631 4.21024C20.5835 5.49133 18.7582 5.75169 17.4594 4.79561L15.106 3.06315C13.9469 2.20996 12.3838 2.15322 11.166 2.92013L10.3797 3.41528L5.94084 6.66338C4.84232 7.46721 3.43899 7.7306 2.12375 7.3798L-1.89839 6.30701C-2.1652 6.23584 -2.32381 5.96185 -2.25264 5.69504C-2.18147 5.42822 -1.90749 5.26962 -1.64067 5.34078L2.38147 6.41358C3.40443 6.68643 4.49591 6.48157 5.35031 5.85636L9.80324 2.59797C9.81261 2.5911 9.82223 2.58457 9.83206 2.57838L10.6331 2.07393C12.1989 1.08791 14.2086 1.16086 15.6988 2.25782L18.0522 3.99028C18.9114 4.62271 20.1185 4.45108 20.7673 3.60468C20.8031 3.5569 20.839 3.50879 20.8752 3.46042C21.8945 2.09631 23.073 0.519069 24.8941 -0.0600607C26.7173 -0.639833 29.0556 -0.956543 30 -0.956543C30.2762 -0.956543 30.5 -0.732685 30.5 -0.456543C30.5 -0.180401 30.2762 0.043457 30 0.043457Z" fill="black"/>
<path fill-rule="evenodd" clip-rule="evenodd" d="M32.5835 7.33955C32.6113 7.53085 32.4787 7.70844 32.2874 7.73621L17.6946 9.85479C17.5033 9.88256 17.3258 9.75 17.298 9.55871C17.2702 9.36741 17.4028 9.18982 17.5941 9.16205L32.1868 7.04347C32.3781 7.0157 32.5557 7.14826 32.5835 7.33955ZM17.3087 11.4939C17.3634 11.3085 17.558 11.2025 17.7434 11.2572L23.2337 12.8765C23.4191 12.9312 23.5251 13.1259 23.4704 13.3113C23.4157 13.4967 23.2211 13.6026 23.0357 13.5479L17.5454 11.9286C17.36 11.8739 17.254 11.6793 17.3087 11.4939ZM25.0804 13.7545C25.1323 13.5683 25.3253 13.4594 25.5115 13.5113L31.4032 15.1531C31.5894 15.205 31.6983 15.398 31.6464 15.5842C31.5945 15.7704 31.4015 15.8793 31.2153 15.8274L25.3236 14.1856C25.1374 14.1337 25.0285 13.9407 25.0804 13.7545Z" fill="black"/>
</g>
<defs>
<clipPath id="clip0_38_798">
<rect width="30" height="30" fill="white" transform="translate(0 0.767578)"/>
</clipPath>
</defs>
</svg>
