<svg width="71" height="71" viewBox="0 0 71 71" fill="none" xmlns="http://www.w3.org/2000/svg">
<path fill-rule="evenodd" clip-rule="evenodd" d="M9.51172 15.8082C9.51172 9.14215 14.9156 3.73828 21.5816 3.73828H53.5352C56.1602 3.73828 58.5669 5.19979 59.7775 7.52904C62.2114 12.2122 58.8131 17.8082 53.5352 17.8082H35.7542V22.6206H31.7542V17.8082H13.5117V53.7383C13.5117 59.2611 17.9889 63.7383 23.5117 63.7383H61.8263V67.7383H23.5117C15.7797 67.7383 9.51172 61.4703 9.51172 53.7383V15.8082ZM13.7615 13.8082H53.5352C55.8121 13.8082 57.2782 11.394 56.2282 9.37365C55.7059 8.36879 54.6677 7.73828 53.5352 7.73828H21.5816C17.8151 7.73828 14.6512 10.3187 13.7615 13.8082ZM23.1334 28.0661H22.5087V24.0661H51.7045V28.0661H50.1441V31.1276H54.1546C58.5787 31.1276 62.1651 34.714 62.1651 39.1381V44.5066H58.1651V39.1381C58.1651 36.9232 56.3695 35.1276 54.1546 35.1276H49.7561C49.5116 35.731 49.1597 36.2795 48.7243 36.7493C51.1034 38.7861 52.5119 41.5626 53.199 43.4886C53.6127 44.6484 53.7045 45.8171 53.7045 46.8329V62.0547H20.5087V45.468C20.5087 42.3112 22.2945 39.8224 24.1687 38.1049C24.7177 37.6018 25.2958 37.1442 25.8771 36.7337C24.4639 35.5233 23.5243 33.7692 23.3879 31.7793L23.1334 28.0661ZM27.1428 28.0661L27.3786 31.5058C27.4924 33.1671 28.8733 34.4566 30.5385 34.4566H44.8152C45.5491 34.4566 46.1441 33.8616 46.1441 33.1276V28.0661H27.1428ZM30.9295 38.4566C29.7857 38.9446 28.1943 39.8414 26.8711 41.054C25.3996 42.4024 24.5087 43.9014 24.5087 45.468V58.0547H49.7045V46.8329C49.7045 46.0346 49.6273 45.3813 49.4315 44.8326C48.584 42.4568 46.7293 39.4578 43.8402 38.4566H30.9295Z" fill="black"/>
</svg>
