<svg width="88" height="49" viewBox="0 0 88 49" fill="none" xmlns="http://www.w3.org/2000/svg">
<path d="M15.0076 32.3369C11.6726 33.6627 5.74107 36.1111 2.66357 37.5987V46.8038H63.1754C65.2839 43.2241 74.8906 36.7244 78.2528 32.3369C83.2653 25.7959 85.6636 23.4263 85.6636 15.9283C81.3284 16.3875 75.3566 17.2024 68.4119 18.3998M15.0076 32.3369C33.3821 25.0323 52.1985 21.1952 68.4119 18.3998M15.0076 32.3369V23.6112M68.4119 18.3998C66.9345 17.2409 63.5973 15.5666 60.1581 13.9982M15.0076 23.6112V14.8855C16.5094 14.4803 18.6755 13.9648 21.36 13.4137M15.0076 23.6112C19.5806 21.2058 32.853 16.7498 60.1581 13.9982M60.1581 13.9982C57.1717 12.6362 54.1082 11.3541 52.1186 10.5587C48.6963 10.2999 46.2643 9.91227 42.2428 10.2999M21.36 13.4137L19.9833 7.74843C19.3713 5.23029 21.2787 2.80385 23.8701 2.80385H24.1253C25.9457 2.80385 27.5364 4.03291 27.9958 5.79431L29.5935 11.9197M21.36 13.4137C23.7331 12.9265 26.5112 12.4114 29.5935 11.9197M29.5935 11.9197C31.0539 11.6868 32.5827 11.4591 34.169 11.2422M34.169 11.2422L33.231 7.87811C32.5202 5.32847 34.4372 2.80385 37.0841 2.80385H37.1747C38.9882 2.80385 40.5747 4.0238 41.0405 5.77637L42.2428 10.2999M34.169 11.2422C36.7256 10.8926 39.4319 10.5708 42.2428 10.2999" stroke="black" stroke-width="4" stroke-linejoin="round"/>
<ellipse cx="51.4902" cy="29.1714" rx="2.11549" ry="2.11646" fill="black"/>
<ellipse cx="60.7582" cy="26.9203" rx="2.1155" ry="2.11646" fill="black"/>
<ellipse cx="69.0794" cy="24.9385" rx="2.1155" ry="2.11646" fill="black"/>
<ellipse cx="42.0481" cy="31.1532" rx="2.1155" ry="2.11646" fill="black"/>
</svg>
