<svg xmlns="http://www.w3.org/2000/svg" xmlns:xlink="http://www.w3.org/1999/xlink" width="66" height="98" viewBox="0 0 66 98">
  <defs>
    <clipPath id="clip-path">
      <rect id="Rectangle_1" data-name="Rectangle 1" width="41" height="98" transform="translate(4154 1096)" fill="#fff"/>
    </clipPath>
  </defs>
  <g id="Group_2" data-name="Group 2" transform="translate(-4129 -1096)">
    <g id="Group_1" data-name="Group 1">
      <g id="Mask_Group_1" data-name="Mask Group 1" clip-path="url(#clip-path)">
        <ellipse id="Ellipse_1" data-name="Ellipse 1" cx="35" cy="33.5" rx="35" ry="33.5" transform="translate(4160 1107)" fill="#c1dc6d"/>
      </g>
      <g id="dishes" transform="translate(4126.791 1103.931)">
        <path id="Path_1" data-name="Path 1" d="M66.58,66.15a29.59,29.59,0,1,1,0-59.179v-3.9a33.492,33.492,0,1,0,0,66.984Z" fill-rule="evenodd"/>
        <path id="Path_2" data-name="Path 2" d="M15.443,68.715h-4V28.243A11.238,11.238,0,0,1,2.209,17.186V12.709a11.64,11.64,0,0,1,23.279,0v3.667A12.048,12.048,0,0,1,15.443,28.255Zm-2-44.295a8.045,8.045,0,0,0,8.045-8.045V12.709a7.64,7.64,0,0,0-15.279,0v4.477A7.234,7.234,0,0,0,13.443,24.42Z" fill-rule="evenodd"/>
        <path id="Path_3" data-name="Path 3" d="M65.149,55.179a18.858,18.858,0,0,1,3-37.476v2.977a15.881,15.881,0,1,0,0,31.761v2.977A18.85,18.85,0,0,1,65.149,55.179Z" fill-rule="evenodd"/>
      </g>
    </g>
  </g>
</svg>
