<svg width="30" height="31" viewBox="0 0 30 31" fill="none" xmlns="http://www.w3.org/2000/svg">
<g clip-path="url(#clip0_38_805)">
<path fill-rule="evenodd" clip-rule="evenodd" d="M17.3541 12.6192C17.7267 11.9272 18.3725 11.76 18.8762 11.7843C19.4722 11.8131 19.9187 12.1972 20.2079 12.479L20.7812 13.0377C20.9551 13.207 21.1882 13.3018 21.4309 13.3018H22.0855C22.1062 13.3018 22.1269 13.3031 22.1475 13.3057C24.3167 13.5768 25.0691 15.3724 25.3207 15.9731C25.3428 16.0256 25.361 16.0691 25.3759 16.1015C25.5073 16.3861 26.1338 17.6771 26.6399 18.717C26.939 19.3314 27.0948 20.0056 27.0948 20.6894V23.6661C27.0948 24.9301 26.1452 25.9924 24.889 26.1336C23.7942 26.2566 22.7492 25.6434 22.3225 24.6276L22.1336 24.1778C22.0267 23.9232 22.1464 23.6301 22.401 23.5232C22.6556 23.4162 22.9486 23.5359 23.0556 23.7905L23.2445 24.2404C23.4993 24.8471 24.1235 25.2133 24.7774 25.1398C25.5276 25.0555 26.0948 24.4211 26.0948 23.6661V23.0898C25.8386 22.745 25.2386 22.0232 24.3664 21.2257C23.9284 20.8253 23.3495 20.545 22.7811 20.3604C22.4309 20.2467 22.0982 20.1737 21.8267 20.1308C21.572 20.7667 20.8879 21.1581 20.195 21.0256C19.9483 21.3097 19.7603 21.6411 19.6432 22.0006L19.0484 23.826C18.9343 24.1761 18.8762 24.5421 18.8762 24.9103V29.9481C18.8762 30.2242 18.6523 30.4481 18.3762 30.4481H14.1942C13.9317 30.4481 13.7139 30.2451 13.6954 29.9832C13.6289 29.0402 13.5184 27.627 13.4029 26.4513C13.3451 25.8623 13.2866 25.3397 13.2326 24.9673C13.2257 24.9194 13.2189 24.8747 13.2123 24.8334L13.0839 24.8521C12.2468 25.1178 11.5999 26.0376 11.5422 27.0904L11.3842 29.9754C11.3696 30.2405 11.1504 30.4481 10.8849 30.4481H6.30287C6.05242 30.4481 5.84061 30.2628 5.80731 30.0146L5.00725 24.0506C5.00429 24.0286 5.00281 24.0064 5.00281 23.9841V20.042C4.90178 20.2992 4.80162 20.5555 4.7051 20.8044C4.49029 21.3583 4.29435 21.8731 4.14699 22.2771C4.07322 22.4794 4.0126 22.6512 3.96819 22.785C3.94596 22.8519 3.92857 22.907 3.91589 22.9502C3.90958 22.9717 3.90483 22.9889 3.90141 23.0022L3.89761 23.0176L3.89666 23.0219C3.89645 23.0229 3.89637 23.0234 3.89638 23.0233C3.84461 23.2945 3.58275 23.4725 3.3115 23.4207C3.04026 23.3689 2.86234 23.1071 2.91411 22.8358C2.9457 22.6703 3.06479 22.3258 3.20753 21.9345C3.35829 21.5211 3.55703 20.9991 3.77275 20.4428C4.19097 19.3644 4.67631 18.149 5.0078 17.3287C5.03477 17.0285 5.16721 16.7349 5.31385 16.4842C5.48556 16.1907 5.71515 15.8924 5.95736 15.6138C6.44234 15.056 7.0186 14.5312 7.40419 14.2152C7.61776 14.0401 7.9328 14.0714 8.10784 14.2849C8.28289 14.4985 8.25165 14.8136 8.03808 14.9886C7.68421 15.2786 7.15131 15.7647 6.71199 16.27C6.49204 16.5229 6.3057 16.7692 6.17701 16.9891C6.04107 17.2215 6.00281 17.3689 6.00281 17.4383V23.9508L6.74027 29.4481H8.09389V28.4606C8.09389 26.2261 9.73353 24.33 11.9446 24.0076L12.8363 23.8776C13.0689 23.8111 13.316 23.7751 13.576 23.7751C13.8164 23.7751 13.9508 23.9328 13.9847 23.9756C14.0312 24.0344 14.0578 24.0926 14.0708 24.1235C14.0991 24.1906 14.1191 24.2645 14.1336 24.3257C14.1644 24.4551 14.1939 24.6281 14.2223 24.8238C14.2797 25.2196 14.3399 25.7607 14.3981 26.3536C14.497 27.3603 14.592 28.5359 14.6593 29.4481H17.8762V24.9103C17.8762 24.4368 17.9509 23.9663 18.0976 23.5162L18.6924 21.6908C18.8312 21.2648 19.0434 20.868 19.318 20.5177C18.9613 20.2235 18.5297 19.8371 18.1001 19.3967C17.479 18.76 16.8352 17.9836 16.438 17.1892C15.876 16.0652 16.044 15.0891 16.3843 14.3018H14.8124C14.5362 14.3018 14.3124 14.078 14.3124 13.8018C14.3124 13.5257 14.5362 13.3018 14.8124 13.3018H16.9324C16.9773 13.2308 17.0199 13.1646 17.0604 13.1016C17.1732 12.926 17.2697 12.7759 17.3541 12.6192ZM11.0745 25.3069C9.89093 25.8772 9.09389 27.0866 9.09389 28.4606V29.4481H10.4116L10.5437 27.0357C10.5763 26.4417 10.7617 25.8342 11.0745 25.3069ZM20.2987 20.0191C20.6019 20.1355 20.9309 19.9119 20.9309 19.5839V18.7839C20.9309 18.5077 21.1547 18.2839 21.4309 18.2839C21.707 18.2839 21.9309 18.5077 21.9309 18.7839V19.1351C22.2652 19.1851 22.6687 19.2725 23.0899 19.4093C23.7367 19.6193 24.4609 19.9572 25.0412 20.4877C25.4478 20.8594 25.8012 21.2181 26.0948 21.5375V20.6894C26.0948 20.1576 25.9737 19.633 25.7408 19.1546C25.2381 18.1219 24.605 16.8174 24.468 16.5206C24.446 16.473 24.4223 16.4183 24.3962 16.3581C24.1256 15.7346 23.5938 14.5091 22.0532 14.3018H21.4309C20.9275 14.3018 20.4439 14.1052 20.0834 13.7539L19.51 13.1952C19.2326 12.9249 19.022 12.7926 18.828 12.7832C18.6984 12.7769 18.5825 12.7957 18.4882 12.8396C18.401 12.8803 18.3108 12.9518 18.2346 13.0933C18.1379 13.2729 18.0008 13.4876 17.8669 13.6972C17.7866 13.823 17.7074 13.9469 17.6388 14.0605C17.1574 14.8568 16.8114 15.6999 17.3324 16.742C17.6625 17.4022 18.2249 18.0925 18.8159 18.6984C19.3771 19.2736 19.9401 19.7483 20.2987 20.0191Z" fill="black"/>
<path fill-rule="evenodd" clip-rule="evenodd" d="M7.42017 14.479C7.42017 12.9633 8.64894 11.7345 10.1647 11.7345H13.2674C14.416 11.7345 15.3471 12.6656 15.3471 13.8142V17.2494C15.3471 19.4384 13.5726 21.2129 11.3837 21.2129C9.19468 21.2129 7.42017 19.4384 7.42017 17.2494V14.479ZM10.1647 13.2345C9.47737 13.2345 8.92017 13.7917 8.92017 14.479V17.2494C8.92017 18.61 10.0231 19.7129 11.3837 19.7129C12.7442 19.7129 13.8471 18.61 13.8471 17.2494V13.8142C13.8471 13.4941 13.5876 13.2345 13.2674 13.2345H10.1647Z" fill="black"/>
<path fill-rule="evenodd" clip-rule="evenodd" d="M9.72015 5.00706C9.89334 4.87235 10.1341 4.8663 10.3139 4.99212L14.3762 7.83588C14.555 7.96103 14.632 8.18768 14.5664 8.39581C14.5007 8.60395 14.3077 8.74549 14.0895 8.74549H10.5271V12.5785C10.5271 12.8546 10.3033 13.0785 10.0271 13.0785C9.75098 13.0785 9.52712 12.8546 9.52712 12.5785V8.74549H6.371C6.1574 8.74549 5.96739 8.6098 5.89807 8.40776C5.82874 8.20572 5.89542 7.98196 6.06402 7.85082L9.72015 5.00706ZM10.0428 6.02301L7.82823 7.74549H12.5033L10.0428 6.02301Z" fill="black"/>
</g>
<defs>
<clipPath id="clip0_38_805">
<rect width="30" height="30" fill="white" transform="translate(0 0.767578)"/>
</clipPath>
</defs>
</svg>
