<svg width="71" height="71" viewBox="0 0 71 71" fill="none" xmlns="http://www.w3.org/2000/svg">
<path fill-rule="evenodd" clip-rule="evenodd" d="M34.3036 19.9254C27.0188 19.9254 21.1133 25.8309 21.1133 33.1158V48.5533H24.7637V33.1656C24.7637 27.0905 29.6886 22.1656 35.7637 22.1656H36.7605V19.2351H40.7605V22.1656H41.7574C47.8325 22.1656 52.7574 27.0905 52.7574 33.1656V67.693H24.7637V52.5533H21.1133V58.0009H17.1133V33.1158C17.1133 23.6218 24.8096 15.9254 34.3036 15.9254V19.9254ZM35.7637 26.1656C31.8977 26.1656 28.7637 29.2996 28.7637 33.1656V63.693H48.7574V33.1656C48.7574 29.2996 45.6234 26.1656 41.7574 26.1656H35.7637Z" fill="black"/>
<path fill-rule="evenodd" clip-rule="evenodd" d="M38.1572 18.2561C39.7575 18.2561 41.0547 16.9588 41.0547 15.3586C41.0547 13.7583 39.7575 12.4611 38.1572 12.4611C36.557 12.4611 35.2598 13.7583 35.2598 15.3586C35.2598 16.9588 36.557 18.2561 38.1572 18.2561ZM38.1572 21.2561C41.4143 21.2561 44.0547 18.6157 44.0547 15.3586C44.0547 12.1015 41.4143 9.46109 38.1572 9.46109C34.9002 9.46109 32.2598 12.1015 32.2598 15.3586C32.2598 18.6157 34.9002 21.2561 38.1572 21.2561Z" fill="black"/>
<path fill-rule="evenodd" clip-rule="evenodd" d="M47.3138 7.53224L42.489 12.9138L39.5107 10.2436L44.3356 4.86206L47.3138 7.53224ZM50.1696 17.2626H43.0329V13.2626H50.1696V17.2626Z" fill="black"/>
</svg>
