<svg width="30" height="31" viewBox="0 0 30 31" fill="none" xmlns="http://www.w3.org/2000/svg">
<g clip-path="url(#clip0_38_804)">
<path fill-rule="evenodd" clip-rule="evenodd" d="M24.6586 6.87764V7.57358C24.6586 8.02409 24.8725 8.44678 25.2332 8.71447C25.5857 8.97609 26.0737 9.34019 26.5192 9.67788C26.7413 9.84614 27.0502 10.1654 27.3841 10.5527C27.7109 10.9318 28.038 11.3482 28.2932 11.6875C28.3446 11.7558 28.3543 11.8535 28.3076 11.9398L28.237 12.0701C27.4778 12.0574 26.7259 11.9176 26.0124 11.6565L25.1789 11.3513C24.9835 11.2798 24.7709 11.2699 24.5697 11.3228L24.408 11.3654C24.0161 11.4685 23.667 11.7238 23.4655 12.0983C23.2662 12.4687 23.0332 12.9434 22.8543 13.4073C22.685 13.8464 22.5289 14.3615 22.5608 14.7759C22.6286 15.6572 22.7063 16.6925 22.3545 17.7478C22.3357 17.8042 22.3224 17.86 22.3139 17.9151C22.2163 18.2723 21.9669 18.6175 21.6304 18.9281C21.5788 18.9757 21.5264 19.0238 21.4733 19.0725C20.775 19.7134 19.9625 20.4591 19.5442 21.4556C19.1503 22.3942 18.7092 23.4596 18.3465 24.3666C17.9903 25.2573 17.6932 26.0355 17.6047 26.3731C17.358 27.3154 17.6447 28.3757 18.0311 29.0519C18.1681 29.2917 18.4735 29.375 18.7133 29.238C18.953 29.1009 19.0363 28.7955 18.8993 28.5558C18.5996 28.0312 18.4109 27.2422 18.5721 26.6265C18.641 26.3636 18.9088 25.6537 19.275 24.7379C19.6348 23.8384 20.0734 22.7787 20.4663 21.8426C20.7965 21.0559 21.4526 20.4515 22.1903 19.772C22.2295 19.7358 22.269 19.6995 22.3086 19.6629C22.4844 19.5007 22.658 19.3155 22.8121 19.1085C23.068 19.3752 23.4008 19.6268 23.7483 19.8535C24.5504 20.3767 25.5476 20.8415 26.2328 21.1161C26.4673 21.2617 27.2931 22.1957 26.5744 24.7972C26.5009 25.0634 26.6571 25.3388 26.9232 25.4123C27.1894 25.4858 27.4648 25.3297 27.5383 25.0635C28.3256 22.2136 27.5122 20.6575 26.6812 20.2213C26.6657 20.2132 26.6498 20.2059 26.6336 20.1994C25.9835 19.9408 25.0339 19.4982 24.2947 19.0159C23.9217 18.7726 23.6317 18.538 23.4575 18.332C23.3712 18.2299 23.3296 18.1538 23.3125 18.105C23.3078 18.0915 23.3055 18.0816 23.3044 18.0749C23.3075 18.0611 23.3105 18.0472 23.3133 18.0333C23.7191 16.7919 23.6269 15.5949 23.5609 14.739L23.5578 14.6992C23.5449 14.531 23.6189 14.204 23.7874 13.7671C23.9463 13.355 24.159 12.9199 24.3461 12.5722C24.407 12.4591 24.5189 12.3702 24.6625 12.3325L24.8242 12.2899C24.8278 12.2889 24.8316 12.2891 24.8352 12.2904L25.6686 12.5955C26.528 12.9101 27.436 13.0711 28.3511 13.0711C28.6475 13.0711 28.92 12.9088 29.0611 12.6482L29.1869 12.4161C29.4138 11.9971 29.3865 11.4774 29.0924 11.0864C28.8284 10.7355 28.4871 10.3006 28.1415 9.8998C27.8031 9.5072 27.4359 9.11781 27.1232 8.8809C26.674 8.54041 26.183 8.17412 25.8292 7.91149C25.7216 7.83162 25.6586 7.70621 25.6586 7.57358V6.83696C25.6586 6.08456 24.8494 5.60971 24.1926 5.97666C24.0851 6.03672 23.9898 6.11639 23.9116 6.21156L23.5156 6.69378C23.2857 6.97379 22.9889 7.21016 22.6406 7.46621C22.5855 7.50675 22.5286 7.54808 22.4705 7.59029C22.1775 7.80317 21.8536 8.03847 21.5686 8.30702C21.2021 8.6524 20.8708 9.10334 20.5773 9.65575C20.4362 9.92138 20.3356 10.1092 20.2657 10.2383C20.2336 10.2726 20.2059 10.3121 20.1838 10.3562C20.1551 10.4136 20.1249 10.475 20.1062 10.5159C20.1015 10.5261 20.0954 10.5397 20.0896 10.5537C20.0869 10.5602 20.0821 10.5722 20.077 10.5868C20.0746 10.594 20.0704 10.6065 20.0662 10.6222C20.0634 10.6323 20.0535 10.669 20.05 10.717C20.0484 10.7393 20.0456 10.7928 20.0599 10.859C20.0725 10.9179 20.1174 11.0716 20.2791 11.1752C20.4538 11.2871 20.6274 11.255 20.7067 11.2287C20.7835 11.2031 20.8351 11.165 20.8546 11.15C20.8971 11.1172 20.9246 11.0848 20.9317 11.0763C20.943 11.063 20.9517 11.0514 20.9563 11.0449C20.9723 11.023 20.9853 11.0014 20.9904 10.993C21.0372 10.9152 21.1709 10.6698 21.4604 10.1249C21.7146 9.64635 21.984 9.28962 22.2544 9.03482C22.4887 8.81402 22.751 8.62311 23.043 8.41063C23.105 8.36552 23.1683 8.31944 23.233 8.2719C23.5872 8.01148 23.9729 7.71267 24.2884 7.32842L24.6586 6.87764ZM7.67131 13.9843C7.68528 13.9859 7.71436 13.9883 7.76314 13.986C7.85314 13.9818 7.96563 13.9645 8.0883 13.9374C8.33498 13.8829 8.5629 13.8026 8.61963 13.7796C8.63894 13.7717 8.65873 13.7651 8.67887 13.7598C9.05891 13.6585 9.67453 13.5235 10.3041 13.4431C10.911 13.3656 11.6166 13.3264 12.1285 13.4728C12.523 13.5857 12.8128 13.6547 13.0116 13.695C13.1975 13.7327 13.2838 13.7411 13.2994 13.7426C13.3016 13.7428 13.3024 13.7429 13.3018 13.7429C13.5779 13.7429 13.8018 13.9668 13.8018 14.2429C13.8018 14.519 13.5779 14.7429 13.3018 14.7429C13.1972 14.7429 13.0286 14.7188 12.8129 14.6751C12.5835 14.6286 12.2679 14.5528 11.8534 14.4343C11.5564 14.3492 11.0323 14.3582 10.4308 14.435C9.86676 14.5071 9.30963 14.628 8.96319 14.7189C8.83957 14.7662 8.58139 14.8525 8.30409 14.9138C8.15117 14.9476 7.97763 14.9772 7.80929 14.9849C7.65511 14.9921 7.43881 14.9851 7.24317 14.8913C7.12201 14.8332 7.01543 14.7428 6.94046 14.6751C6.85787 14.6006 6.76758 14.5103 6.67954 14.4221L6.66937 14.4119C6.48911 14.2312 6.29163 14.0332 6.06439 13.8484C5.59723 13.4683 5.08057 13.2067 4.49428 13.2878C4.18911 13.3301 3.87386 13.5135 3.55355 13.8713C3.23299 14.2294 2.93603 14.7317 2.67213 15.3372C2.14474 16.5474 1.78765 18.0808 1.61294 19.4426C1.52926 20.0948 1.3411 20.7444 1.02057 21.3352C1.10349 21.3009 1.19186 21.2592 1.28551 21.209C1.89019 20.8848 2.68321 20.2152 3.55308 18.9182C3.7069 18.6889 4.01751 18.6277 4.24684 18.7815C4.47617 18.9353 4.53739 19.2459 4.38357 19.4753C3.44935 20.8681 2.54375 21.669 1.75806 22.0903C0.984782 22.5049 0.290563 22.5674 -0.172942 22.3965C-0.323382 22.3411 -0.438099 22.2168 -0.481409 22.0624C-0.524718 21.9081 -0.491366 21.7423 -0.391727 21.6167L-0.192107 21.365C0.261475 20.7931 0.523196 20.0782 0.621067 19.3153C0.803518 17.8932 1.17874 16.2609 1.7554 14.9377C2.04353 14.2765 2.39153 13.6701 2.80845 13.2043C3.22561 12.7383 3.74034 12.3826 4.35722 12.2973C5.34924 12.16 6.14339 12.6235 6.69545 13.0727C6.96363 13.2908 7.19276 13.5206 7.36821 13.6965C7.37469 13.703 7.3811 13.7094 7.38743 13.7157C7.4798 13.8083 7.55093 13.8791 7.61042 13.9327C7.64039 13.9598 7.66019 13.9757 7.67131 13.9843ZM19.3268 12.475C19.553 12.6334 19.6079 12.9452 19.4495 13.1714L18.4979 14.5298C18.3395 14.7559 18.0277 14.8109 17.8016 14.6524C17.5754 14.494 17.5205 14.1822 17.6789 13.956L18.6304 12.5977C18.7889 12.3715 19.1006 12.3166 19.3268 12.475ZM7.82065 16.1172C8.01153 16.3167 8.00449 16.6332 7.80494 16.8241C7.59731 17.0227 7.20109 17.6378 7.38263 18.3639C7.59364 19.208 7.1332 19.9783 6.71285 20.5228C6.49927 20.7995 6.26414 21.0573 6.06506 21.2756L6.04515 21.2974C5.82976 21.5336 5.6774 21.7037 5.59081 21.8336C5.54244 21.9061 5.49569 21.9738 5.45095 22.0385C5.25916 22.3161 5.10428 22.5403 5.0164 22.8684C4.91419 23.25 4.90105 23.8184 5.23438 24.7641C5.79415 26.3523 6.70963 28.1766 6.93601 28.5388C7.08237 28.773 7.01118 29.0815 6.77701 29.2278C6.54284 29.3742 6.23437 29.303 6.08801 29.0688C5.81504 28.6321 4.87001 26.7386 4.29125 25.0966C3.913 24.0234 3.88114 23.2418 4.05045 22.6097C4.18754 22.0978 4.45758 21.7117 4.65526 21.429C4.69285 21.3753 4.72782 21.3253 4.75876 21.2789C4.89491 21.0746 5.10363 20.8458 5.29784 20.6328L5.31655 20.6123C5.52208 20.3869 5.73318 20.1554 5.92126 19.9118C6.32485 19.389 6.50108 18.9609 6.41248 18.6064C6.11464 17.4151 6.74709 16.4522 7.11372 16.1015C7.31327 15.9106 7.62978 15.9176 7.82065 16.1172Z" fill="black"/>
<path fill-rule="evenodd" clip-rule="evenodd" d="M15.5535 7.34323C15.8341 7.6479 15.8146 8.12238 15.51 8.40299C14.3204 9.49856 13.5131 10.3023 13.0186 11.5171C12.6356 12.4578 13.1562 13.603 14.2506 14.0995C14.7062 14.3062 15.1685 14.4895 15.5935 14.6162C16.2261 14.8049 16.5853 15.2796 16.7512 15.794C16.9068 16.2768 16.9073 16.8238 16.8524 17.3236C16.7415 18.3332 16.3699 19.4331 16.0685 20.1362C15.9792 20.3188 15.9121 20.5058 15.8891 20.6244C15.8708 20.7186 15.8736 20.7737 15.8773 20.7988C15.9024 20.8111 15.9645 20.8346 16.0868 20.8459C16.1583 20.8525 16.2335 20.8591 16.3126 20.8657C16.7254 20.9001 17.0321 21.2626 16.9977 21.6754C16.9633 22.0882 16.6008 22.3949 16.188 22.3605C16.1049 22.3536 16.0253 22.3466 15.9492 22.3396C15.6114 22.3085 15.2836 22.2151 15.0067 22.0223C14.7185 21.8216 14.5289 21.5428 14.4383 21.2266C14.2726 20.6486 14.4547 20.0295 14.6967 19.5292C14.9645 18.9007 15.2733 17.9611 15.3614 17.1598C15.4063 16.7506 15.3854 16.4464 15.3235 16.2542C15.2717 16.0935 15.2172 16.0693 15.1648 16.0537C14.6535 15.9012 14.1246 15.6895 13.6308 15.4655C11.9784 14.7157 10.8749 12.8046 11.6293 10.9516C12.2638 9.39297 13.3103 8.38968 14.4938 7.29965C14.7984 7.01904 15.2729 7.03855 15.5535 7.34323Z" fill="black"/>
<path fill-rule="evenodd" clip-rule="evenodd" d="M14.0496 8.32288C14.4529 8.41728 14.7033 8.82076 14.6089 9.22407C14.6091 9.22335 14.609 9.22456 14.6087 9.22771C14.607 9.24953 14.5979 9.36441 14.6188 9.57123C14.6404 9.78462 14.6879 10.0328 14.7649 10.2646C14.9461 10.8097 15.154 10.914 15.2378 10.9209C15.7817 10.9663 16.1346 10.9611 16.5072 10.8833C16.8925 10.8029 17.3413 10.6358 18.0599 10.2954C18.4342 10.1181 18.8814 10.2778 19.0588 10.6521C19.2361 11.0265 19.0764 11.4737 18.702 11.651C17.953 12.0058 17.3759 12.2343 16.8138 12.3517C16.2388 12.4717 15.7228 12.4666 15.1132 12.4158C14.0435 12.3266 13.5479 11.3586 13.3415 10.7378C13.2248 10.3865 13.1574 10.0284 13.1264 9.72234C13.0978 9.43955 13.092 9.12329 13.1484 8.88222C13.2428 8.47891 13.6463 8.22848 14.0496 8.32288Z" fill="black"/>
<path fill-rule="evenodd" clip-rule="evenodd" d="M16.6155 5.22328C16.9635 5.22328 17.2456 4.94119 17.2456 4.59321C17.2456 4.24523 16.9635 3.96313 16.6155 3.96313C16.2676 3.96313 15.9855 4.24523 15.9855 4.59321C15.9855 4.94119 16.2676 5.22328 16.6155 5.22328ZM16.6155 6.72328C17.792 6.72328 18.7456 5.76962 18.7456 4.59321C18.7456 3.4168 17.792 2.46313 16.6155 2.46313C15.4391 2.46313 14.4855 3.4168 14.4855 4.59321C14.4855 5.76962 15.4391 6.72328 16.6155 6.72328Z" fill="black"/>
<path fill-rule="evenodd" clip-rule="evenodd" d="M6.98803 16.6942C7.2624 16.7253 7.45956 16.973 7.42839 17.2474C7.40563 17.4478 7.40405 17.8143 7.48523 18.2059C7.56684 18.5996 7.72214 18.9715 7.97494 19.2344C8.10517 19.3699 8.20727 19.4661 8.30847 19.5615C8.37931 19.6283 8.44971 19.6947 8.52901 19.7738C8.67691 19.9213 8.87944 20.1352 8.95421 20.4133C9.04535 20.7524 8.92324 21.0516 8.73183 21.2957C8.56881 21.5036 8.32196 21.7175 8.00499 21.9535C8.01537 22.0442 8.05027 22.1771 8.11208 22.3478C8.17616 22.5246 8.25752 22.7112 8.33773 22.8895C8.35261 22.9225 8.36783 22.9561 8.38307 22.9898C8.4398 23.115 8.49668 23.2405 8.53618 23.3398L11.1731 28.5647C11.2975 28.8113 11.1985 29.112 10.952 29.2364C10.7055 29.3608 10.4048 29.2618 10.2803 29.0153L7.63285 23.7694C7.62533 23.7545 7.61855 23.7392 7.61256 23.7236C7.58453 23.6508 7.53974 23.5518 7.48042 23.4208C7.46339 23.3831 7.44516 23.3429 7.42578 23.2998C7.34416 23.1184 7.24959 22.9029 7.17188 22.6884C7.09655 22.4804 7.02425 22.2396 7.00622 22.0132C6.99011 21.8108 7.00554 21.4447 7.32043 21.2157C7.67253 20.9596 7.85657 20.7913 7.94493 20.6786C7.95535 20.6654 7.96338 20.6543 7.96953 20.6452C7.94862 20.6167 7.90629 20.5651 7.82277 20.4817C7.7841 20.4432 7.72835 20.3902 7.66343 20.3285C7.5418 20.2129 7.38798 20.0668 7.25406 19.9275C6.824 19.4802 6.6094 18.9074 6.50605 18.4089C6.40226 17.9082 6.40066 17.4349 6.43478 17.1345C6.46595 16.8601 6.71365 16.663 6.98803 16.6942ZM7.98825 20.6128C7.98832 20.6128 7.98805 20.6137 7.98721 20.6155C7.98776 20.6138 7.98818 20.6128 7.98825 20.6128ZM8.00268 21.8854C8.00287 21.8856 8.00275 21.8887 8.00173 21.8941C8.00198 21.8879 8.00249 21.8852 8.00268 21.8854Z" fill="black"/>
<path fill-rule="evenodd" clip-rule="evenodd" d="M18.5713 10.511C18.8452 10.4757 19.0959 10.669 19.1312 10.9429C19.3982 13.012 20.2202 13.895 21.0063 14.288C21.8331 14.7014 22.7429 14.6382 23.2927 14.5695C23.4244 14.553 23.6549 14.4709 23.963 14.3029C24.2592 14.1414 24.5878 13.9225 24.9051 13.6758C25.2225 13.4291 25.5195 13.1617 25.7557 12.9067C25.9994 12.6436 26.1492 12.4247 26.2097 12.276C26.3138 12.0202 26.6055 11.8972 26.8613 12.0012C27.1171 12.1053 27.2401 12.397 27.136 12.6528C27.0078 12.9681 26.7617 13.2922 26.4894 13.5862C26.2096 13.8882 25.8706 14.1919 25.5189 14.4653C25.1672 14.7388 24.7936 14.9891 24.4417 15.1809C24.1017 15.3662 23.738 15.5216 23.4167 15.5617C22.8339 15.6346 21.6672 15.7365 20.559 15.1824C19.4102 14.608 18.4388 13.3909 18.1394 11.0709C18.1041 10.797 18.2975 10.5463 18.5713 10.511Z" fill="black"/>
</g>
<defs>
<clipPath id="clip0_38_804">
<rect width="30" height="30" fill="white" transform="translate(0 0.767578)"/>
</clipPath>
</defs>
</svg>
