<svg width="15" height="20" viewBox="0 0 15 20" fill="none" xmlns="http://www.w3.org/2000/svg">
<path fill-rule="evenodd" clip-rule="evenodd" d="M6.86551 0.173122C7.08698 0.0549368 7.35707 0.0769499 7.55648 0.229439C8.02016 0.58401 8.4946 1.17483 8.91469 1.87622C9.34116 2.58826 9.73676 3.45631 10.0237 4.4029C10.4544 5.82409 10.655 7.47637 10.2958 9.05939C10.8295 8.61401 11.4652 7.84399 12.0694 6.54024C12.1645 6.33493 12.3609 6.19502 12.586 6.17214C12.8111 6.14926 13.0316 6.24681 13.1662 6.42878C13.9985 7.55496 14.8216 9.70785 14.7217 12.0077C14.6199 14.3527 13.5544 16.8592 10.6043 18.5612C10.4344 18.6592 10.2289 18.674 10.0467 18.6013C9.25992 18.2875 8.11847 17.6483 7.21656 16.7239C7.21288 16.7201 7.2092 16.7163 7.20553 16.7125C7.43002 17.3309 7.74515 18.0478 8.1759 18.8764C8.27917 19.0751 8.27127 19.3132 8.15506 19.5046C8.03885 19.696 7.83119 19.8128 7.6073 19.8128C6.30288 19.8128 4.07773 19.1911 2.41054 17.7701C1.56501 17.0494 0.844065 16.1069 0.474316 14.916C0.10328 13.7209 0.101099 12.3242 0.616763 10.7256C1.35096 8.44962 2.94239 6.9859 4.79302 5.4081C6.42775 4.01437 6.62714 2.3708 6.52762 0.778471C6.51196 0.527925 6.64403 0.291307 6.86551 0.173122ZM7.76714 2.45562C7.59857 3.78156 7.04913 5.16886 5.62455 6.38342C3.76483 7.96897 2.44733 9.22566 1.83654 11.1191C1.39084 12.5008 1.41565 13.6254 1.69835 14.536C1.98234 15.4506 2.54187 16.198 3.24193 16.7946C4.24743 17.6517 5.50349 18.1642 6.51221 18.3914C5.90502 17.0611 5.58976 15.9902 5.48285 15.1252C5.34772 14.032 5.54195 13.2244 5.95067 12.6617C6.12514 12.4215 6.44175 12.3326 6.71577 12.4468C6.98979 12.5611 7.14946 12.8486 7.10162 13.1416C6.93541 14.1596 7.38695 15.0632 8.13395 15.8288C8.78143 16.4925 9.59919 16.9937 10.2359 17.2877C12.5546 15.8395 13.3594 13.8384 13.4413 11.9521C13.5043 10.5011 13.1373 9.12273 12.6794 8.1336C11.5002 10.1182 10.1582 10.8546 9.22857 10.9093C9.00015 10.9227 8.78189 10.8134 8.65593 10.6224C8.52997 10.4313 8.51541 10.1876 8.61774 9.98298C9.41252 8.39342 9.31421 6.48084 8.79708 4.77466C8.54074 3.92889 8.18789 3.15712 7.81515 2.53477C7.79914 2.50804 7.78313 2.48165 7.76714 2.45562Z" fill="black"/>
</svg>
