<svg width="71" height="70" viewBox="0 0 71 70" fill="none" xmlns="http://www.w3.org/2000/svg">
<path fill-rule="evenodd" clip-rule="evenodd" d="M5.53503 47.045C5.15168 47.8638 4.79766 48.663 4.47297 49.4379C4.30084 49.8487 4.57521 50.4148 5.20975 50.4148H44.6812C48.581 50.4148 52.4218 49.4642 55.8696 47.6456L63.253 43.7511L62.2852 39.4331L53.1572 44.6646C50.4358 46.2243 47.3524 47.045 44.2141 47.045H5.53503ZM7.24991 43.6313H44.2141C46.7546 43.6313 49.2507 42.9669 51.4538 41.7043L61.4678 35.965L56.0932 15.0225L55.4642 12.4878C41.7629 11.721 30.7421 17.0177 22.2925 24.4143C15.6744 30.2078 10.6631 37.2693 7.24991 43.6313ZM20.0369 21.848C29.2718 13.7639 41.5781 7.91648 56.964 9.16929L58.1895 9.26908L58.8834 12.0654C61.7032 10.7275 66.2177 9.16364 70.9883 9.16364V12.5774C66.4554 12.5774 62.0837 14.2487 59.7344 15.4519L65.1106 36.4007L67.1615 45.5508L57.468 50.6637C53.5276 52.7421 49.1381 53.8285 44.6812 53.8285H5.20975C2.32228 53.8285 0.130506 50.9529 1.31722 48.1208C4.62644 40.2235 10.8304 29.9072 20.0369 21.848ZM29.8925 33.5245H52.6309L49.7087 21.3997C45.0486 21.7644 40.621 23.9888 36.844 26.847C34.021 28.9832 31.6399 31.4149 29.8925 33.5245ZM34.7773 24.1268C39.226 20.7604 44.8602 17.9334 51.0437 17.9334H52.3914L56.9718 36.9382H23.2801L25.0508 34.2851C26.8802 31.5442 30.3177 27.5015 34.7773 24.1268ZM58.27 60H1.61564V56.5863H58.27V60Z" fill="black"/>
</svg>
