<svg width="30" height="31" viewBox="0 0 30 31" fill="none" xmlns="http://www.w3.org/2000/svg">
<g clip-path="url(#clip0_38_780)">
<path fill-rule="evenodd" clip-rule="evenodd" d="M28.18 13.0316C28.2948 13.2828 28.1842 13.5794 27.933 13.6942C25.4002 14.8517 20.5424 16.0913 15.5857 17.1527C10.6106 18.2181 5.47524 19.116 2.3483 19.5806C2.07515 19.6212 1.82083 19.4327 1.78024 19.1596C1.73966 18.8864 1.92819 18.6321 2.20133 18.5915C5.30754 18.13 10.4221 17.2358 15.3763 16.1749C20.3488 15.1101 25.0997 13.8895 27.5174 12.7847C27.7686 12.6699 28.0652 12.7805 28.18 13.0316Z" fill="black"/>
<path fill-rule="evenodd" clip-rule="evenodd" d="M13.7182 10.1271C14.1407 9.86059 14.6681 9.82189 15.125 10.0239L15.9385 10.3835C16.525 10.1197 17.1848 10.0104 17.8447 10.1289C20.8093 10.6612 25.3073 12.1724 27.1366 13.1766L27.3627 13.3008L27.3926 13.5569C27.4327 13.9006 27.3034 14.309 27.1065 14.709C26.8989 15.1304 26.5772 15.6198 26.1353 16.1517C25.2502 17.217 23.8595 18.4811 21.8584 19.7426C21.6248 19.8899 21.3161 19.8199 21.1688 19.5863C21.0215 19.3527 21.0915 19.044 21.3251 18.8967C23.251 17.6825 24.558 16.4853 25.3661 15.5126C25.7708 15.0256 26.0445 14.6018 26.2094 14.2671C26.2846 14.1145 26.3312 13.9922 26.3595 13.8986C24.4804 12.9584 20.4011 11.6039 17.668 11.1132C17.1969 11.0286 16.7032 11.1156 16.25 11.3424L16.068 11.5274C15.8313 11.7679 15.6307 12.0414 15.4723 12.3393L15.3126 12.6396C14.5849 14.0086 13.1908 14.9367 11.6077 14.9451C9.96778 14.9537 7.93182 14.8655 6.04437 14.5316L6.04331 14.5314L4.80775 14.3101C4.58403 14.27 4.36644 14.4063 4.30492 14.6251C4.24064 14.8537 4.36867 15.0921 4.5947 15.1649L5.47925 15.4494C5.54508 15.4706 5.61239 15.4869 5.68062 15.4982L13.0692 16.7188C13.3416 16.7638 13.526 17.0212 13.481 17.2936C13.436 17.5661 13.1786 17.7504 12.9062 17.7054L7.2449 16.7701L6.95457 18.461C6.90784 18.7332 6.64933 18.9159 6.37717 18.8692C6.10501 18.8225 5.92226 18.564 5.96899 18.2918L6.25826 16.6071L5.51762 16.4848C5.40085 16.4655 5.28567 16.4376 5.17301 16.4014L4.28846 16.1168C3.55042 15.8794 3.13237 15.1007 3.34226 14.3544C3.54316 13.64 4.25362 13.1949 4.98409 13.3257L6.21859 13.5469C6.21876 13.5469 6.21841 13.5469 6.21859 13.5469C8.02423 13.8663 9.99473 13.9536 11.6024 13.9451C12.7855 13.9388 13.859 13.2438 14.4296 12.1703L14.5893 11.8699C14.7336 11.5984 14.9052 11.3427 15.1013 11.1067L14.7206 10.9385C14.5683 10.8711 14.3925 10.884 14.2517 10.9729L12.4028 12.1392C12.1692 12.2865 11.8605 12.2166 11.7131 11.9831C11.5658 11.7495 11.6357 11.4407 11.8693 11.2934L13.7182 10.1271ZM3.15782 18.422C3.39974 18.2888 3.7038 18.377 3.83694 18.6189L4.76468 20.3046C4.89783 20.5465 4.80965 20.8505 4.56773 20.9837C4.32581 21.1168 4.02175 21.0287 3.88861 20.7867L2.96087 19.1011C2.82772 18.8592 2.9159 18.5551 3.15782 18.422Z" fill="black"/>
<path fill-rule="evenodd" clip-rule="evenodd" d="M43.0995 21.2415C43.1805 21.417 43.1039 21.625 42.9284 21.706L36.5923 24.6303C35.0479 25.3431 33.2298 25.0904 31.9384 23.9835L31.3162 23.4501C30.1651 22.4635 28.5239 22.2911 27.193 23.0171L24.7657 24.341C23.1573 25.2184 21.1631 24.9312 19.8675 23.6357C18.7916 22.5597 17.1354 22.3212 15.7996 23.0498L13.1837 24.4767C11.7483 25.2596 9.95565 24.8701 8.97457 23.562C8.22315 22.5601 6.86275 22.239 5.7426 22.799L2.11153 24.6146C0.701719 25.3195 -1.01047 24.9153 -1.95619 23.6543C-2.73127 22.6209 -4.15459 22.3263 -5.27619 22.9672L-10.0447 25.6921C-10.2125 25.788 -10.4263 25.7297 -10.5222 25.5618C-10.6181 25.394 -10.5598 25.1802 -10.3919 25.0843L-5.62348 22.3594C-4.19538 21.5434 -2.38309 21.9185 -1.3962 23.2343C-0.653448 24.2246 0.691255 24.5421 1.79848 23.9885L5.42955 22.1729C6.85228 21.4616 8.58017 21.8695 9.53457 23.142C10.307 24.1719 11.7184 24.4786 12.8485 23.8621L15.4644 22.4353C17.0728 21.558 19.067 21.8452 20.3625 23.1407C21.4385 24.2166 23.0947 24.4551 24.4305 23.7265L26.8578 22.4025C28.444 21.5373 30.3999 21.7428 31.7717 22.9186L32.394 23.452C33.4776 24.3808 35.0031 24.5928 36.2989 23.9947L42.635 21.0704C42.8105 20.9894 43.0185 21.066 43.0995 21.2415Z" fill="black"/>
<path fill-rule="evenodd" clip-rule="evenodd" d="M43.0088 19.2835C43.0666 19.4088 43.0119 19.5574 42.8865 19.6152L36.5504 22.5396C35.0416 23.236 33.2653 22.9891 32.0036 21.9076L31.3813 21.3743C30.1987 20.3606 28.5126 20.1835 27.1451 20.9294L24.7179 22.2533C23.1484 23.1094 21.2025 22.8292 19.9383 21.565C18.831 20.4577 17.1265 20.2122 15.7518 20.9621L13.1359 22.3889C11.7441 23.1481 10.0059 22.7704 9.05465 21.5021C8.27423 20.4615 6.86133 20.128 5.69796 20.7097L2.06689 22.5252C0.700305 23.2085 -0.959384 22.8167 -1.87611 21.5944C-2.68145 20.5206 -4.16034 20.2145 -5.32572 20.8805L-10.0942 23.6053C-10.2141 23.6738 -10.3668 23.6322 -10.4353 23.5123C-10.5038 23.3924 -10.4621 23.2397 -10.3423 23.1712L-5.57379 20.4463C-4.18947 19.6553 -2.43275 20.0189 -1.47611 21.2944C-0.70437 22.3234 0.692831 22.6532 1.84328 22.078L5.47435 20.2625C6.85386 19.5727 8.52925 19.9682 9.45465 21.2021C10.2569 22.2717 11.7227 22.5902 12.8965 21.95L15.5123 20.5232C17.0818 19.6671 19.0277 19.9473 20.2919 21.2115C21.3992 22.3188 23.1037 22.5642 24.4785 21.8144L26.9057 20.4904C28.4555 19.6451 30.3664 19.8458 31.7067 20.9946L32.329 21.528C33.4422 22.4822 35.0096 22.7001 36.3409 22.0856L42.677 19.1613C42.8024 19.1034 42.9509 19.1581 43.0088 19.2835Z" fill="black"/>
</g>
<defs>
<clipPath id="clip0_38_780">
<rect width="30" height="30" fill="white" transform="translate(0 0.767578)"/>
</clipPath>
</defs>
</svg>
