<svg width="71" height="71" viewBox="0 0 71 71" fill="none" xmlns="http://www.w3.org/2000/svg">
<path fill-rule="evenodd" clip-rule="evenodd" d="M10.5281 9.82189C8.05891 9.82189 6.05721 11.965 6.05721 14.6088V58.648C6.05721 61.2917 8.05891 63.4349 10.5281 63.4349H61.4491C63.9183 63.4349 65.92 61.2917 65.92 58.648V14.6088C65.92 11.965 63.9183 9.82189 61.4491 9.82189H10.5281ZM2.48047 14.6088C2.48047 9.85007 6.08353 5.99239 10.5281 5.99239H61.4491C65.8937 5.99239 69.4967 9.85007 69.4967 14.6088V58.648C69.4967 63.4067 65.8937 67.2644 61.4491 67.2644H10.5281C6.08353 67.2644 2.48047 63.4067 2.48047 58.648V14.6088ZM17.4645 18.4497C16.4768 18.4497 15.6761 19.307 15.6761 20.3645V51.4723C15.6761 52.5298 16.4768 53.3871 17.4645 53.3871H23.7828C21.8016 50.7505 20.69 47.4423 20.69 43.9886V38.3791H43.1108V44.1545C43.1108 47.5332 42.0466 50.7762 40.1407 53.3871H46.7002C47.6879 53.3871 48.4886 52.5298 48.4886 51.4723V20.3645C48.4886 19.307 47.6879 18.4497 46.7002 18.4497H17.4645ZM36.0928 52.4419C38.2765 50.3325 39.534 47.3236 39.534 44.1545V42.2086H24.2668V43.9886C24.2668 47.2454 25.5943 50.3285 27.8833 52.4419H36.0928ZM12.0994 20.3645C12.0994 17.192 14.5014 14.6202 17.4645 14.6202H46.7002C49.6633 14.6202 52.0653 17.192 52.0653 20.3645V51.4723C52.0653 54.6448 49.6632 57.2166 46.7002 57.2166H17.4645C14.5014 57.2166 12.0994 54.6448 12.0994 51.4723V20.3645Z" fill="black"/>
<path d="M60.6904 17.7182C60.6904 18.9473 59.7597 19.9437 58.6118 19.9437C57.4638 19.9437 56.5332 18.9473 56.5332 17.7182C56.5332 16.4891 57.4638 15.4928 58.6118 15.4928C59.7597 15.4928 60.6904 16.4891 60.6904 17.7182Z" fill="black"/>
<path d="M60.6904 26.5253C60.6904 27.7544 59.7597 28.7508 58.6118 28.7508C57.4638 28.7508 56.5332 27.7544 56.5332 26.5253C56.5332 25.2962 57.4638 24.2999 58.6118 24.2999C59.7597 24.2999 60.6904 25.2962 60.6904 26.5253Z" fill="black"/>
</svg>
