<svg width="30" height="31" viewBox="0 0 30 31" fill="none" xmlns="http://www.w3.org/2000/svg">
<g clip-path="url(#clip0_38_803)">
<path fill-rule="evenodd" clip-rule="evenodd" d="M11.9246 5.7835C11.6899 5.88504 11.582 6.15756 11.6836 6.39218C11.7851 6.62681 12.0576 6.73469 12.2923 6.63315C12.5269 6.53161 12.6348 6.25909 12.5332 6.02447C12.4317 5.78984 12.1592 5.68196 11.9246 5.7835ZM10.307 6.98796C9.8764 5.99305 10.3339 4.83747 11.3288 4.40689C12.3237 3.97631 13.4793 4.43379 13.9098 5.4287C14.3404 6.4236 13.8829 7.57918 12.888 8.00976C11.8931 8.44034 10.7376 7.98286 10.307 6.98796Z" fill="black"/>
<path fill-rule="evenodd" clip-rule="evenodd" d="M9.59385 7.79349L13.3678 9.28753L15.9543 9.43046C16.3678 9.45331 16.6846 9.80711 16.6617 10.2207C16.6389 10.6343 16.2851 10.951 15.8715 10.9282L13.042 10.7718L10.4364 9.74031L9.15506 12.977L12.9527 13.6663L15.0391 18.4872C15.2036 18.8673 15.0289 19.3089 14.6487 19.4734C14.2686 19.6379 13.827 19.4631 13.6625 19.083L11.895 14.9988L7.08688 14.1261L9.59385 7.79349Z" fill="black"/>
<path fill-rule="evenodd" clip-rule="evenodd" d="M7.32861 18.2136C6.25052 18.6802 5.7548 19.9324 6.22138 21.0105C6.68795 22.0886 7.94016 22.5843 9.01825 22.1177C10.0963 21.6511 10.5921 20.3989 10.1255 19.3208C9.6589 18.2428 8.4067 17.747 7.32861 18.2136ZM4.84477 21.6063C4.04915 19.7679 4.89447 17.6326 6.73284 16.837C8.57121 16.0414 10.7065 16.8867 11.5021 18.7251C12.2977 20.5634 11.4524 22.6987 9.61402 23.4943C7.77565 24.2899 5.64038 23.4446 4.84477 21.6063Z" fill="black"/>
<path fill-rule="evenodd" clip-rule="evenodd" d="M18.4521 12.7282C17.3275 13.2149 16.8104 14.5211 17.2971 15.6457C17.7838 16.7703 19.09 17.2874 20.2146 16.8007C21.3392 16.314 21.8563 15.0078 21.3696 13.8832C20.8829 12.7586 19.5767 12.2415 18.4521 12.7282ZM15.9205 16.2415C15.1048 14.3566 15.9715 12.1673 17.8563 11.3516C19.7412 10.5358 21.9305 11.4025 22.7463 13.2874C23.562 15.1723 22.6953 17.3616 20.8104 18.1773C18.9255 18.9931 16.7363 18.1264 15.9205 16.2415Z" fill="black"/>
<path fill-rule="evenodd" clip-rule="evenodd" d="M29.7757 14.4C29.9673 14.5989 29.9613 14.9154 29.7624 15.107L23.0106 21.6087C21.9745 22.6064 20.5237 23.0487 19.1072 22.7987L17.4156 22.5002C16.5815 22.353 15.7224 22.5133 14.9975 22.9512L6.99006 27.7887C6.7537 27.9314 6.44634 27.8556 6.30355 27.6192C6.16076 27.3829 6.23662 27.0755 6.47298 26.9327L14.4804 22.0953C15.4125 21.5322 16.517 21.3262 17.5894 21.5154L19.281 21.814C20.3827 22.0084 21.5111 21.6644 22.317 20.8884L29.0687 14.3867C29.2676 14.1951 29.5842 14.2011 29.7757 14.4Z" fill="black"/>
<path fill-rule="evenodd" clip-rule="evenodd" d="M6.58581 24.828C6.68415 24.9944 6.62896 25.209 6.46254 25.3074C5.92632 25.6242 4.99991 25.9927 3.92203 26.1005C2.83953 26.2088 1.58424 26.0554 0.421264 25.2995C0.259191 25.1942 0.213202 24.9774 0.318545 24.8153C0.423888 24.6532 0.640671 24.6073 0.802744 24.7126C1.80075 25.3613 2.88649 25.5006 3.85238 25.404C4.8229 25.3069 5.65224 24.9731 6.10644 24.7047C6.27285 24.6064 6.48748 24.6616 6.58581 24.828Z" fill="black"/>
<path fill-rule="evenodd" clip-rule="evenodd" d="M5.7464 23.603C5.86715 23.754 5.84268 23.9742 5.69174 24.095C5.29319 24.4138 4.23091 24.9398 3.04523 24.5653C2.8609 24.5071 2.75867 24.3105 2.81688 24.1262C2.87509 23.9418 3.07171 23.8396 3.25603 23.8978C4.14684 24.1791 4.96989 23.776 5.25445 23.5484C5.40539 23.4276 5.62565 23.4521 5.7464 23.603Z" fill="black"/>
</g>
<defs>
<clipPath id="clip0_38_803">
<rect width="30" height="30" fill="white" transform="translate(0 0.767578)"/>
</clipPath>
</defs>
</svg>
