<svg id="Layer_1" enable-background="new 0 0 1580 1580" height="512" viewBox="0 0 1580 1580" width="512" xmlns="http://www.w3.org/2000/svg"><g fill="rgb(0,0,0)"><path d="m502.3 1558h-219.2c-112.5 0-204-91.5-204-204v-832.3c0-112.5 91.5-204 204-204h219.1c112.5 0 204 91.5 204 204v832.3c.1 112.5-91.5 204-203.9 204zm-219.2-1192.3c-86 0-156 70-156 156v832.3c0 86 70 156 156 156h219.1c86 0 156-70 156-156v-832.3c0-86-70-156-156-156z"/><path d="m682.3 1236.8h-579.2c-13.3 0-24-10.7-24-24v-549.9c0-13.3 10.7-24 24-24h579.1c13.3 0 24 10.7 24 24v549.9c.1 13.3-10.7 24-23.9 24zm-555.2-48h531.1v-501.9h-531.1z"/><path d="m453.5 365.7h-121.6c-13.3 0-24-10.7-24-24v-188.6c0-13.3 10.7-24 24-24h121.7c13.3 0 24 10.7 24 24v188.6c-.1 13.2-10.8 24-24.1 24zm-97.6-48h73.7v-140.6h-73.7z"/><path d="m536.3 177.1h-287.2c-13.3 0-24-10.7-24-24v-107.1c0-13.3 10.7-24 24-24h287.1c13.3 0 24 10.7 24 24v107.1c.1 13.2-10.7 24-23.9 24zm-263.2-48h239.1v-59.1h-239.1z"/><path d="m1059.4 1304.9c-111.2 0-201.6-90.5-201.6-201.6v-653.1c0-98.6-80.2-178.8-178.8-178.8h-225.5c-13.3 0-24-10.7-24-24s10.7-24 24-24h225.5c60.6 0 117.5 23.6 160.4 66.4s66.4 99.8 66.4 160.4v653.2c0 84.7 68.9 153.6 153.6 153.6s153.6-68.9 153.6-153.6v-174.5c0-13.3 10.7-24 24-24s24 10.7 24 24v174.4c.1 111.2-90.4 201.6-201.6 201.6z"/><path d="m1290.6 952.9h-107.1c-13.3 0-24-10.7-24-24v-107c0-13.3 10.7-24 24-24h107.1c13.3 0 24 10.7 24 24v107.1c0 13.2-10.8 23.9-24 23.9zm-83.1-48h59.1v-59.1h-59.1z"/><path d="m1180.8 899.4c-2.1 0-4.3-.3-6.4-.9-1.4-.4-33.8-9.5-69.4-34-47.9-32.9-79.3-78.3-90.9-131.2-10.2-46.6-3.8-96.4 17.9-140.3 15.7-31.7 28.5-58.3 38.3-87 13.2-38.8 30-82.6 62.5-110.8 24.5-21.3 49.8-35.3 75.2-41.5 30.9-7.5 62.9-3.1 92.6 12.9 13.7 7.4 27.4 17 40.7 28.5 32.5 28.3 49.3 72 62.5 110.8 9.8 28.7 22.6 55.3 38.3 87 21.8 43.9 28.1 93.7 17.9 140.3-11.6 52.9-43 98.3-90.9 131.2-35.6 24.5-68.1 33.6-69.4 34-12.8 3.5-26-4-29.5-16.7-3.5-12.8 4-26 16.7-29.5.2-.1 27.2-7.8 56.2-28.1 37.4-26.2 61-60.2 69.9-101.1 7.9-35.9 2.9-74.5-14-108.7-16-32.2-30-61.4-40.7-92.9-11.2-32.9-25.1-69.7-48.6-90.1-10.6-9.2-21.3-16.8-31.9-22.5-19.3-10.4-39-13.3-58.4-8.6-17.8 4.3-36.3 14.8-55 31-23.5 20.4-37.4 57.2-48.6 90.1-10.7 31.5-24.8 60.7-40.7 92.9-16.9 34.1-21.9 72.7-14 108.7 9 40.9 32.5 74.9 69.9 101.1 29.1 20.3 56 28.1 56.3 28.2 12.8 3.5 20.2 16.7 16.7 29.5-3 10.7-12.6 17.7-23.2 17.7z"/><g><path d="m1384.6 537.7c-4.1 0-8.2-1-11.9-3.2-11.5-6.6-15.5-21.3-8.9-32.8l73.6-128.1c20.1-34.9 20.5-78.6 1.3-114l-15.4-28.2c-6.3-11.6-2-26.2 9.6-32.6 11.6-6.3 26.2-2 32.6 9.6l15.4 28.2c13.4 24.7 20.4 52.6 20.1 80.7s-7.9 55.8-21.9 80.2l-73.6 128.1c-4.5 7.8-12.6 12.1-20.9 12.1z"/><path d="m1089.5 537.7c-8.3 0-16.4-4.3-20.8-12.1l-73.6-128.1c-14-24.4-21.6-52.1-21.9-80.2s6.6-56 20.1-80.7l15.4-28.2c6.3-11.6 20.9-15.9 32.6-9.6 11.6 6.3 15.9 20.9 9.6 32.6l-15.4 28.2c-19.3 35.4-18.8 79.1 1.3 114l73.6 128.1c6.6 11.5 2.6 26.2-8.9 32.8-3.8 2.2-7.9 3.2-12 3.2z"/></g></g></svg>