<svg width="71" height="71" viewBox="0 0 71 71" fill="none" xmlns="http://www.w3.org/2000/svg">
<path fill-rule="evenodd" clip-rule="evenodd" d="M1.28711 60.9457C1.28711 60.1598 1.92334 59.5226 2.70818 59.5226H67.2655C68.0503 59.5226 68.6866 60.1598 68.6866 60.9457C68.6866 61.7317 68.0503 62.3688 67.2655 62.3688H2.70818C1.92334 62.3688 1.28711 61.7317 1.28711 60.9457Z" fill="black"/>
<path fill-rule="evenodd" clip-rule="evenodd" d="M50.1678 16.3492H12.0331L5.49619 30.6051H1.66406V47.9553H6.82051V44.8611H4.97312V33.6994H67.0332V44.8611H61.9174V47.9553H70.3423V33.4682C70.3423 31.8726 68.9503 30.6051 67.2667 30.6051H56.7048L50.1678 16.3492ZM9.09673 30.6051L14.2148 19.4434H18.0063V30.6051H9.09673ZM21.3154 30.6051V19.4434H34.3486V30.6051H21.3154ZM37.6577 30.6051V19.4434H47.9861L53.1042 30.6051H37.6577Z" fill="black"/>
<path d="M49.3105 44.8611H19.4274V47.9553H49.3105V44.8611Z" fill="black"/>
<path fill-rule="evenodd" clip-rule="evenodd" d="M13.124 42.5681C10.2174 42.5681 8.00815 44.9535 8.00815 47.7053C8.00815 50.4571 10.2174 52.8425 13.124 52.8425C16.0306 52.8425 18.2398 50.4571 18.2398 47.7053C18.2398 44.9535 16.0306 42.5681 13.124 42.5681ZM5.16602 47.7053C5.16602 43.0804 8.81008 39.4858 13.124 39.4858C17.4379 39.4858 21.082 43.0804 21.082 47.7053C21.082 52.3303 17.4379 55.9249 13.124 55.9249C8.81008 55.9249 5.16602 52.3303 5.16602 47.7053Z" fill="black"/>
<path fill-rule="evenodd" clip-rule="evenodd" d="M55.6123 42.5681C52.7057 42.5681 50.4964 44.9535 50.4964 47.7053C50.4964 50.4571 52.7057 52.8425 55.6123 52.8425C58.5188 52.8425 60.7281 50.4571 60.7281 47.7053C60.7281 44.9535 58.5188 42.5681 55.6123 42.5681ZM47.6543 47.7053C47.6543 43.0804 51.2984 39.4858 55.6123 39.4858C59.9262 39.4858 63.5703 43.0804 63.5703 47.7053C63.5703 52.3303 59.9262 55.9249 55.6123 55.9249C51.2984 55.9249 47.6543 52.3303 47.6543 47.7053Z" fill="black"/>
</svg>
