<svg width="71" height="71" viewBox="0 0 71 71" fill="none" xmlns="http://www.w3.org/2000/svg">
<path fill-rule="evenodd" clip-rule="evenodd" d="M13.46 7.8081C13.46 5.59897 15.2508 3.80811 17.46 3.80811H54.516C56.7252 3.80811 58.516 5.59897 58.516 7.80811V48.2351H67.002V52.2351H63.759V63.8081H67.002V67.8081H3.4375V63.8081H7.44874V52.2351H3.4375V48.2351H13.46V7.8081ZM17.46 48.2351H33.988V27.1829H17.46V48.2351ZM17.46 23.1829H33.988V7.80811L17.46 7.8081V23.1829ZM37.988 7.80811V23.1829H54.516V7.80811H37.988ZM54.516 27.1829H37.988V48.2351H54.516V27.1829ZM11.4487 52.2351V63.8081H23.724V52.2351H11.4487ZM27.724 52.2351V63.8081H44.3487L44.2662 52.2351H27.724ZM48.2663 52.2351L48.3488 63.8081H59.759V52.2351H48.2663Z" fill="black"/>
</svg>
