<svg width="71" height="71" viewBox="0 0 71 71" fill="none" xmlns="http://www.w3.org/2000/svg">
<path fill-rule="evenodd" clip-rule="evenodd" d="M5.32422 3.599H39.2344C40.3389 3.599 41.2344 4.49443 41.2344 5.599C41.2344 6.70357 40.3389 7.599 39.2344 7.599H9.32422V37.2349H13.4448V36.4806C13.4448 31.7073 17.3143 27.8378 22.0876 27.8378V31.8378C19.5234 31.8378 17.4448 33.9165 17.4448 36.4806V37.2349H38.3813V37.2064C38.3813 34.2414 35.9777 31.8378 33.0127 31.8378V27.8378C38.1868 27.8378 42.3813 32.0323 42.3813 37.2064V37.2349H60.3574V28.7805C60.3574 27.6759 61.2529 26.7805 62.3574 26.7805C63.462 26.7805 64.3574 27.6759 64.3574 28.7805V67.5982H5.32422V3.599ZM60.3574 41.2349H9.32422V63.5982H60.3574V41.2349Z" fill="black"/>
<path fill-rule="evenodd" clip-rule="evenodd" d="M27.4909 30.4528C31.2714 30.4528 34.2473 27.454 34.2473 23.8635C34.2473 20.2729 31.2714 17.2741 27.4909 17.2741C23.7103 17.2741 20.7344 20.2729 20.7344 23.8635C20.7344 27.454 23.7103 30.4528 27.4909 30.4528ZM27.4909 33.4528C32.8792 33.4528 37.2473 29.1595 37.2473 23.8635C37.2473 18.5674 32.8792 14.2741 27.4909 14.2741C22.1025 14.2741 17.7344 18.5674 17.7344 23.8635C17.7344 29.1595 22.1025 33.4528 27.4909 33.4528Z" fill="black"/>
<path fill-rule="evenodd" clip-rule="evenodd" d="M50.0184 4.09842C50.8468 4.09842 51.5184 4.76999 51.5184 5.59842V6.75241C51.5184 9.4949 50.3331 12.1036 48.2673 13.9074C46.8539 15.1416 46.043 16.9263 46.043 18.8027V20.8137C46.043 21.6421 45.3714 22.3137 44.543 22.3137C43.7145 22.3137 43.043 21.6421 43.043 20.8137V18.8027C43.043 16.0602 44.2283 13.4515 46.2941 11.6477C47.7074 10.4135 48.5184 8.62875 48.5184 6.75241V5.59842C48.5184 4.76999 49.19 4.09842 50.0184 4.09842Z" fill="black"/>
<path fill-rule="evenodd" clip-rule="evenodd" d="M60.4461 4.09818C61.2745 4.09818 61.9461 4.76975 61.9461 5.59818V6.75216C61.9461 9.49466 60.7608 12.1033 58.695 13.9072C57.2817 15.1413 56.4707 16.9261 56.4707 18.8024V20.8135C56.4707 21.6419 55.7991 22.3135 54.9707 22.3135C54.1423 22.3135 53.4707 21.6419 53.4707 20.8135V18.8024C53.4707 16.0599 54.656 13.4513 56.7218 11.6474C58.1352 10.4133 58.9461 8.62851 58.9461 6.75216V5.59818C58.9461 4.76975 59.6177 4.09818 60.4461 4.09818Z" fill="black"/>
</svg>
