<svg width="71" height="71" viewBox="0 0 71 71" fill="none" xmlns="http://www.w3.org/2000/svg">
<path fill-rule="evenodd" clip-rule="evenodd" d="M10.1688 8.81373C7.39035 8.81373 5.13796 11.0001 5.13796 13.6971V30.7697C5.13796 33.4667 7.39035 35.6531 10.1688 35.6531H46.1889C48.9674 35.6531 51.2198 33.4667 51.2198 30.7697V13.6971C51.2198 11.0001 48.9674 8.81373 46.1889 8.81373H10.1688ZM1.11328 13.6971C1.11328 8.84248 5.16758 4.90701 10.1688 4.90701H46.1889C50.6796 4.90701 54.4069 8.08004 55.121 12.2424L69.1133 7.99313V36.4737L55.121 32.2244C54.4069 36.3868 50.6796 39.5598 46.1889 39.5598H35.135C34.2826 43.0414 31.202 45.6851 27.4365 45.9929C26.4768 52.4049 20.7901 57.3299 13.9185 57.3299H5.13796V65.4611H1.11328V45.5976H5.13796V53.4232H13.9185C18.5736 53.4232 22.4578 50.219 23.3579 45.9587C19.7476 45.5246 16.8254 42.9362 15.9987 39.5598H10.1688C5.16758 39.5598 1.11328 35.6244 1.11328 30.7697V13.6971ZM20.2459 39.5598C20.9958 41.0723 22.5896 42.1162 24.4346 42.1162H26.6991C28.5441 42.1162 30.1378 41.0723 30.8878 39.5598H20.2459ZM55.2444 28.1684L65.0886 31.158V13.3088L55.2444 16.2984V28.1684Z" fill="black"/>
</svg>
