<svg width="71" height="71" viewBox="0 0 71 71" fill="none" xmlns="http://www.w3.org/2000/svg">
<path fill-rule="evenodd" clip-rule="evenodd" d="M16.0029 5.62793C16.0029 4.52336 16.8984 3.62793 18.0029 3.62793H41.6371C42.7417 3.62793 43.6371 4.52336 43.6371 5.62793C43.6371 6.7325 42.7417 7.62793 41.6371 7.62793H36.5479V11.8024H38.6372C41.3986 11.8024 43.6371 14.041 43.6371 16.8024V20.877H48.9136C51.675 20.877 53.9136 23.1156 53.9136 25.877V62.6279C53.9136 65.3894 51.675 67.6279 48.9136 67.6279H21.0029C18.2415 67.6279 16.0029 65.3894 16.0029 62.6279V25.877C16.0029 23.1156 18.2415 20.877 21.0029 20.877H25.4586V16.8024C25.4586 14.041 27.6971 11.8024 30.4586 11.8024H32.5479V7.62793H18.0029C16.8984 7.62793 16.0029 6.7325 16.0029 5.62793ZM29.4586 20.877H39.6371V16.8024C39.6371 16.2501 39.1894 15.8024 38.6372 15.8024H30.4586C29.9063 15.8024 29.4586 16.2502 29.4586 16.8024V20.877ZM21.0029 24.877C20.4506 24.877 20.0029 25.3247 20.0029 25.877V31.8837H49.9136V25.877C49.9136 25.3247 49.4659 24.877 48.9136 24.877H21.0029ZM49.9136 35.8837H20.0029V43.4348H49.9136V35.8837ZM49.9136 47.4348H20.0029V62.6279C20.0029 63.1802 20.4506 63.6279 21.0029 63.6279H48.9136C49.4659 63.6279 49.9136 63.1802 49.9136 62.6279V47.4348Z" fill="black"/>
</svg>
