<?xml version="1.0" encoding="iso-8859-1"?>
<!-- Generator: Adobe Illustrator 22.1.0, SVG Export Plug-In . SVG Version: 6.00 Build 0)  -->
<svg xmlns="http://www.w3.org/2000/svg" xmlns:xlink="http://www.w3.org/1999/xlink" version="1.1" id="Layer_1_1_" x="0px" y="0px" viewBox="0 0 64 64" style="enable-background:new 0 0 64 64;" xml:space="preserve" width="512" height="512">
<path d="M26.817,58c1.633,0,2.499-0.671,3.195-1.209C30.605,56.332,31.034,56,31.984,56c0.949,0,1.378,0.332,1.971,0.791  C34.651,57.329,35.517,58,37.15,58s2.5-0.671,3.196-1.209C40.939,56.332,41.368,56,42.318,56c0.949,0,1.378,0.332,1.971,0.791  C44.985,57.329,45.851,58,47.484,58s2.5-0.67,3.196-1.209C51.273,56.332,51.702,56,52.653,56c0.952,0,1.381,0.332,1.976,0.791  C55.325,57.33,56.192,58,57.827,58s2.501-0.67,3.197-1.209C61.619,56.332,62.048,56,63,56v-2c-1.635,0-2.502,0.67-3.198,1.209  C59.207,55.668,58.778,56,57.827,56c-0.952,0-1.381-0.332-1.976-0.791C55.155,54.67,54.288,54,52.653,54s-2.501,0.671-3.197,1.209  C48.863,55.668,48.435,56,47.484,56c-0.949,0-1.378-0.332-1.971-0.791C44.817,54.671,43.952,54,42.318,54s-2.5,0.671-3.196,1.209  C38.529,55.668,38.101,56,37.15,56c-0.949,0-1.378-0.332-1.971-0.791C34.483,54.671,33.618,54,31.984,54s-2.5,0.671-3.196,1.209  C28.195,55.668,27.767,56,26.817,56c-0.95,0-1.378-0.332-1.972-0.791c-0.249-0.193-0.526-0.401-0.846-0.59V47h-1.941  c0.499-4.493,4.316-8,8.941-8h16v-6h-4V22h2v-8.657c0-1.839-1.246-3.436-3.03-3.881l-0.697-0.174C41.728,8.638,42,7.852,42,7V5  c0-2.206-1.794-4-4-4s-4,1.794-4,4v2c0,0.856,0.275,1.646,0.735,2.297L34.03,9.462C32.246,9.907,31,11.504,31,13.343V22h2v11H22v-2  c0-1.103-0.897-2-2-2H8c-1.103,0-2,0.897-2,2v2H1v6h5v8H4v16h20v-0.925C24.639,62.539,25.463,63,26.817,63  c1.633,0,2.499-0.671,3.195-1.209C30.605,61.332,31.034,61,31.984,61c0.949,0,1.378,0.332,1.971,0.791  C34.651,62.329,35.517,63,37.15,63s2.5-0.671,3.196-1.209C40.939,61.332,41.368,61,42.318,61c0.949,0,1.378,0.332,1.971,0.791  C44.985,62.329,45.851,63,47.484,63s2.5-0.67,3.196-1.209C51.273,61.332,51.702,61,52.653,61c0.952,0,1.381,0.332,1.976,0.791  C55.325,62.33,56.192,63,57.827,63s2.501-0.67,3.197-1.209C61.619,61.332,62.048,61,63,61v-2c-1.635,0-2.502,0.67-3.198,1.209  C59.207,60.668,58.778,61,57.827,61c-0.952,0-1.381-0.332-1.976-0.791C55.155,59.67,54.288,59,52.653,59s-2.501,0.671-3.197,1.209  C48.863,60.668,48.435,61,47.484,61c-0.949,0-1.378-0.332-1.971-0.791C44.817,59.671,43.952,59,42.318,59s-2.5,0.671-3.196,1.209  C38.529,60.668,38.101,61,37.15,61c-0.949,0-1.378-0.332-1.971-0.791C34.483,59.671,33.618,59,31.984,59s-2.5,0.671-3.196,1.209  C28.195,60.668,27.767,61,26.817,61c-0.95,0-1.378-0.332-1.972-0.791c-0.249-0.193-0.526-0.401-0.846-0.59v-2.544  C24.639,57.539,25.463,58,26.817,58z M36,5c0-1.103,0.897-2,2-2s2,0.897,2,2v2c0,1.103-0.897,2-2,2s-2-0.897-2-2V5z M33,20v-6.657  c0-0.92,0.623-1.718,1.515-1.941L36.123,11h3.754l1.608,0.401C42.377,11.625,43,12.423,43,13.343V20h-2v13h-2V21h-2v12h-2V20H33z   M8,31h12v2H8V31z M8,39h14v-2H3v-2h42v2H31c-5.728,0-10.442,4.402-10.949,10H8V39z M22,61H6V49h16V61z"/>
</svg>
