<svg width="74" height="83" viewBox="0 0 74 83" fill="none" xmlns="http://www.w3.org/2000/svg">
<g id="trip mates">
<path id="Rectangle 5" fill-rule="evenodd" clip-rule="evenodd" d="M21.7731 58.0833L34.5231 55.25V77.9167L21.7731 80.75V58.0833Z" stroke="black" stroke-width="3" stroke-linejoin="round"/>
<path id="Rectangle 5_2" fill-rule="evenodd" clip-rule="evenodd" d="M47.2731 58.0833L60.0231 55.25V77.9167L47.2731 80.75V58.0833Z" stroke="black" stroke-width="3" stroke-linejoin="round"/>
<path id="Rectangle 5_3" fill-rule="evenodd" clip-rule="evenodd" d="M47.2731 58.0833L34.5231 55.25V77.9167L47.2731 80.75V58.0833Z" stroke="black" stroke-width="3" stroke-linejoin="round"/>
<path id="Vector 10" d="M72 59.3866L60.2518 55.35V77.6391L72 81.5002V59.3866Z" stroke="black" stroke-width="3" stroke-linecap="round" stroke-linejoin="round"/>
<path id="Stroke 1 Copy" d="M34.1327 54.5365C31.4654 53.2527 28.6729 50.393 26.5955 48.2867C24.3455 46.0055 31.0955 46.0055 31.0955 34.5992C31.0955 26.9958 28.0963 23.193 22.0955 23.193C16.0948 23.193 13.0955 26.9958 13.0955 34.5992C13.0955 46.0055 19.8455 46.0055 17.5955 48.2867C13.0955 52.8492 4.86093 51.5419 2.99948 60.2285C2.52393 64.4867 1.53841 71.7168 5.8976 75.4403C10.2568 79.1637 17.5524 76.462 20.6553 74.6456" stroke="black" stroke-width="4" stroke-linecap="round"/>
<path id="Stroke 1 Copy 2" d="M36 49.4061C37.701 48.2175 39.9091 47.3618 42.0221 46.33C43.6741 45.5232 45.268 44.6089 46.5158 43.3438C48.7658 41.0625 42.0158 41.0625 42.0158 29.6563C42.0158 22.0528 45.0151 18.25 51.0158 18.25C57.0166 18.25 60.0158 22.0528 60.0158 29.6563C60.0158 41.0625 53.2658 41.0625 55.5158 43.3438C60.0158 47.9063 69.0158 47.9063 69.0158 54.75" stroke="black" stroke-width="4" stroke-linecap="round"/>
</g>
</svg>
