<svg id="Layer_1" height="512" viewBox="0 0 50 50" width="512" xmlns="http://www.w3.org/2000/svg"><g><path d="m47.9 20.5c-.8-.8-1.9-1.3-3-1.3s-2.2.5-3 1.3c-.8.9-1.2 2-1.1 3.1l.8 15.4c0 .5.5.9 1 .9h.2v.1c0 .1-.1.2-.2.2h-7.4v-6.1h1v.4c0 .6.4 1 1 1s1-.4 1-1v-1.4-3.5-1.5c0-.6-.4-1-1-1s-1 .4-1 1v.5h-1v-.3c0-2-1.2-3.9-3.2-4.8-1.3-.6-2.1-1.7-2.1-3v-1.6c0-.6-.4-1-1-1h-8c-.6 0-1 .4-1 1v1.6c0 1.3-.8 2.4-2.1 3-2 .9-3.2 2.8-3.2 4.8v3.3h-1c0-.6-.4-1-1-1s-1 .4-1 1v1 2.4 1c0 .6.4 1 1 1s1-.4 1-1h1v4.2h-7.2c-.1 0-.2-.1-.2-.2h.2c.5 0 1-.4 1-.9l.9-15.4c.1-1.2-.3-2.3-1.1-3.2-.8-.8-1.9-1.3-3-1.3s-2.2.5-3 1.3c-.8.9-1.2 2-1.1 3.1l.8 15.4c0 .5.4.9.9.9v1.8c0 2.6 2.1 4.7 4.6 4.7h35.1c2.6 0 4.6-2.1 4.6-4.7v-1.7c.5 0 .9-.4.9-.9l1-15.4c.1-1.2-.3-2.3-1.1-3.2zm-11.6 10.1v1.5h-1v-1.5zm-19.6-2.3c0-1.3.8-2.4 2.1-3 2-.9 3.2-2.8 3.2-4.8v-.6h6v.6c0 2 1.2 3.9 3.2 4.8 1.3.6 2.1 1.7 2.1 3v1.3 3.5 7.1h-16.6v-5.2-2.5zm-3 5.7v-.5h1v.5zm29.6-12.1c.8-.9 2.3-.9 3.1 0 .4.4.6 1 .6 1.7l-.8 14.4h-2.6l-.8-14.5c-.1-.6.1-1.2.5-1.6zm-39.7 0c.8-.9 2.3-.9 3.1 0 .4.4.6 1 .6 1.7l-.9 14.4h-2.6l-.8-14.5c0-.6.2-1.2.6-1.6zm41.6 19.9c0 1.5-1.2 2.7-2.6 2.7h-35.2c-1.5 0-2.6-1.2-2.6-2.7v-1.8h.4c0 1.2 1 2.2 2.2 2.2h35.3c1.2 0 2.2-1 2.2-2.2h.4v1.8z"/><path d="m25 38.2c3.5 0 6.3-2.9 6.3-6.4s-2.8-6.4-6.3-6.4-6.3 2.9-6.3 6.4 2.8 6.4 6.3 6.4zm0-10.7c2.4 0 4.3 2 4.3 4.4s-1.9 4.4-4.3 4.4-4.3-2-4.3-4.4 1.9-4.4 4.3-4.4z"/><path d="m25 35.1c1.8 0 3.2-1.4 3.2-3.2s-1.4-3.2-3.2-3.2-3.2 1.4-3.2 3.2 1.4 3.2 3.2 3.2zm0-4.5c.7 0 1.2.5 1.2 1.2s-.5 1.2-1.2 1.2-1.2-.5-1.2-1.2.5-1.2 1.2-1.2z"/><path d="m11.8 5.5c.6 0 1.1.2 1.6.5 1.1.7 2.4.7 3.5 0 .9-.6 2.2-.6 3.1 0 1.1.7 2.4.7 3.5 0 .9-.6 2.2-.6 3.1 0 .5.4 1.1.5 1.7.5s1.2-.2 1.7-.5c.9-.6 2.2-.6 3.1 0 1.1.7 2.4.7 3.5 0 .5-.3 1-.5 1.6-.5s1-.4 1-1-.4-1-1-1c-.9 0-1.9.3-2.7.8-.4.3-.9.3-1.3 0-1.6-1-3.8-1-5.3 0-.4.3-.9.3-1.3 0-1.6-1.1-3.8-1.1-5.3 0-.4.3-.9.3-1.3 0-1.6-1.1-3.8-1.1-5.3 0-.4.3-.9.3-1.3 0-.8-.5-1.7-.8-2.7-.8-.6 0-1 .4-1 1s.6 1 1.1 1z"/><path d="m11.8 9.9c.6 0 1.1.2 1.6.5 1.1.7 2.4.7 3.5 0 .9-.6 2.2-.6 3.1 0 1.1.7 2.4.7 3.5 0 .9-.6 2.2-.6 3.1 0 .5.4 1.1.5 1.7.5s1.2-.2 1.7-.5c.9-.6 2.2-.6 3.1 0 1.1.7 2.4.7 3.5 0 .5-.3 1-.5 1.6-.5s1-.4 1-1-.4-1-1-1c-.9 0-1.9.3-2.7.8-.4.3-.9.3-1.3 0-1.6-1-3.8-1.1-5.3 0-.4.3-.9.3-1.3 0-1.6-1-3.8-1.1-5.3 0-.4.3-.9.3-1.3 0-1.6-1-3.8-1.1-5.3 0-.4.3-.9.3-1.3 0-.8-.5-1.7-.8-2.7-.8-.6 0-1 .4-1 1s.6 1 1.1 1z"/><path d="m11.8 14.3c.6 0 1.1.2 1.6.5 1.1.7 2.4.7 3.5 0 .9-.6 2.2-.6 3.1 0 1.1.7 2.4.7 3.5 0 .9-.6 2.2-.6 3.1 0 .5.4 1.1.5 1.7.5s1.2-.2 1.7-.5c.9-.6 2.2-.6 3.1 0 1.1.7 2.4.7 3.5 0 .5-.3 1-.5 1.6-.5s1-.4 1-1-.4-1-1-1c-.9 0-1.9.3-2.7.8-.4.3-.9.3-1.3 0-1.6-1-3.8-1-5.3 0-.4.3-.9.3-1.3 0-1.6-1.1-3.8-1.1-5.3 0-.4.3-.9.3-1.3 0-1.6-1.1-3.8-1.1-5.3 0-.4.3-.9.3-1.3 0-.8-.5-1.7-.8-2.7-.8-.6 0-1 .4-1 1s.6 1 1.1 1z"/></g></svg>