<svg width="80" height="73" viewBox="0 0 80 73" fill="none" xmlns="http://www.w3.org/2000/svg">
<path d="M2.91333 41.5774V60.2983C2.91333 65.8212 7.39047 70.2983 12.9133 70.2983H46.866C52.3889 70.2983 56.866 65.8212 56.866 60.2983V41.5774M2.91333 41.5774V27.719C2.91333 22.1961 7.39048 17.719 12.9133 17.719H46.866C52.3889 17.719 56.866 22.1961 56.866 27.719V41.5774M2.91333 41.5774H56.866" stroke="black" stroke-width="4" stroke-linecap="round" stroke-linejoin="round"/>
<path d="M13.7486 63.2797V63.2797C13.7486 59.5593 16.7646 56.5433 20.485 56.5433H21.6267C25.3471 56.5433 28.3631 59.5593 28.3631 63.2797V63.2797" stroke="black" stroke-width="2" stroke-linecap="round" stroke-linejoin="round"/>
<circle cx="21.0128" cy="50.217" r="2.88013" stroke="black" stroke-width="2"/>
<path d="M58.3312 12.4784L65.1903 17.719L77.1969 2.06433" stroke="black" stroke-width="4" stroke-linecap="round" stroke-linejoin="round"/>
<path d="M18.868 35.3827H20.9095L24.034 26.6688H22.1419L19.9385 33.0797L17.7601 26.6688H15.7559L18.868 35.3827Z" fill="black"/>
<path d="M24.9374 35.3827H26.7673V26.6688H24.9374V35.3827Z" fill="black"/>
<path d="M28.0923 33.0175C28.3413 34.6109 29.5986 35.5072 31.5405 35.5072C33.4451 35.5072 34.8393 34.3743 34.8393 32.9054C34.8393 29.395 30.0716 30.8017 30.0716 29.0962C30.0716 28.5112 30.6069 28.1253 31.3911 28.1253C32.1878 28.1253 32.7978 28.4863 32.9472 29.3825L34.7647 29.0215C34.4659 27.3908 33.2957 26.5443 31.3911 26.5443C29.5612 26.5443 28.167 27.6771 28.167 29.146C28.167 32.6316 32.9472 31.2623 32.9472 32.9428C32.9472 33.5403 32.387 33.9138 31.5405 33.9138C30.7314 33.9138 30.0592 33.5528 29.9098 32.6689L28.0923 33.0175Z" fill="black"/>
<path d="M35.3524 35.3827H37.2072L37.8918 33.3162H40.979L41.6761 35.3827H43.6305L40.5184 26.6688H38.4769L35.3524 35.3827ZM39.4479 28.7103L40.4562 31.7228H38.4271L39.4479 28.7103Z" fill="black"/>
</svg>
