<svg width="71" height="71" viewBox="0 0 71 71" fill="none" xmlns="http://www.w3.org/2000/svg">
<path fill-rule="evenodd" clip-rule="evenodd" d="M9.24023 7.93604C8.68795 7.93604 8.24023 8.38375 8.24023 8.93604V62.936C8.24023 63.4883 8.68795 63.936 9.24023 63.936H60.7651C61.3174 63.936 61.7651 63.4883 61.7651 62.936V8.93604C61.7651 8.38375 61.3174 7.93604 60.7651 7.93604H9.24023ZM4.24023 8.93604C4.24023 6.17461 6.47881 3.93604 9.24023 3.93604H60.7651C63.5266 3.93604 65.7651 6.17461 65.7651 8.93604V62.936C65.7651 65.6975 63.5266 67.936 60.7651 67.936H9.24023C6.47881 67.936 4.24023 65.6975 4.24023 62.936V8.93604Z" fill="black"/>
<path fill-rule="evenodd" clip-rule="evenodd" d="M34.6451 51.2609C42.7403 51.2609 49.2668 44.75 49.2668 36.7625C49.2668 28.775 42.7403 22.264 34.6451 22.264C26.5499 22.264 20.0234 28.775 20.0234 36.7625C20.0234 44.75 26.5499 51.2609 34.6451 51.2609ZM34.6451 54.2609C44.3773 54.2609 52.2668 46.4266 52.2668 36.7625C52.2668 27.0984 44.3773 19.264 34.6451 19.264C24.9129 19.264 17.0234 27.0984 17.0234 36.7625C17.0234 46.4266 24.9129 54.2609 34.6451 54.2609Z" fill="black"/>
<path fill-rule="evenodd" clip-rule="evenodd" d="M19.8766 29.818C19.9149 28.9905 20.6167 28.3506 21.4442 28.3888C22.8881 28.4555 25.1837 28.8539 27.5795 29.8138C29.9783 30.7749 32.5787 32.3399 34.5027 34.8072C36.4376 37.2885 39.3117 39.1424 42.0774 40.2451C43.4527 40.7934 44.7604 41.1393 45.8588 41.2892C46.9997 41.4448 47.7575 41.3674 48.1301 41.2286C48.9065 40.9395 49.7702 41.3345 50.0593 42.1109C50.3484 42.8872 49.9534 43.7509 49.177 44.04C48.1234 44.4324 46.7862 44.4435 45.4533 44.2616C44.0779 44.074 42.533 43.6564 40.9664 43.0318C37.8484 41.7886 34.4819 39.6591 32.137 36.652C30.6371 34.7287 28.5426 33.4315 26.4637 32.5986C24.3819 31.7645 22.4169 31.437 21.3058 31.3856C20.4783 31.3474 19.8384 30.6456 19.8766 29.818Z" fill="black"/>
<path d="M19.671 14.2518C19.671 16.0998 18.1624 17.5979 16.3013 17.5979C14.4403 17.5979 12.9316 16.0998 12.9316 14.2518C12.9316 12.4038 14.4403 10.9057 16.3013 10.9057C18.1624 10.9057 19.671 12.4038 19.671 14.2518Z" fill="black"/>
</svg>
