<svg width="30" height="31" viewBox="0 0 30 31" fill="none" xmlns="http://www.w3.org/2000/svg">
<g clip-path="url(#clip0_38_778)">
<path fill-rule="evenodd" clip-rule="evenodd" d="M22.0615 8.94717C19.2001 6.59266 15.2264 6.95946 13.1901 7.49326C12.7894 7.59829 12.3795 7.35862 12.2744 6.95795C12.1694 6.55727 12.4091 6.14732 12.8097 6.04228C14.9886 5.47112 19.5826 4.96485 23.0146 7.7889C23.1599 7.90845 23.281 8.04991 23.3765 8.20563C23.975 9.18207 24.7811 10.6702 25.3243 12.0941C25.5949 12.8036 25.813 13.5298 25.8967 14.1858C25.9766 14.811 25.9563 15.5349 25.5564 16.0911C25.0798 16.7542 24.6164 17.27 24.0057 17.683C23.401 18.0918 22.6982 18.3685 21.7902 18.6257C20.7731 18.9138 19.9352 19.5775 19.5164 20.4847L17.5269 24.795C17.3533 25.1711 16.9077 25.3353 16.5316 25.1617C16.1555 24.9881 15.9913 24.5425 16.1649 24.1664L18.1545 19.8561C18.7804 18.5002 20.0002 17.5737 21.3814 17.1824C22.2226 16.9442 22.7513 16.7204 23.1655 16.4404C23.5737 16.1643 23.9166 15.8025 24.3384 15.2156C24.3968 15.1344 24.4752 14.8956 24.4088 14.3758C24.3464 13.8868 24.1734 13.2857 23.9228 12.6287C23.4233 11.3193 22.6661 9.91705 22.0976 8.9895C22.0863 8.97106 22.0739 8.95741 22.0615 8.94717ZM21.1437 15.1042C21.2947 15.49 21.1043 15.925 20.7186 16.076L17.9596 17.1556C17.2637 17.4279 16.683 17.9317 16.3151 18.5821L15.1527 20.637C14.9488 20.9976 14.4912 21.1245 14.1307 20.9206C13.7702 20.7167 13.6432 20.2591 13.8471 19.8985L15.0095 17.8436C15.5472 16.893 16.396 16.1567 17.413 15.7588L20.172 14.6791C20.5577 14.5282 20.9928 14.7185 21.1437 15.1042Z" fill="black"/>
<path fill-rule="evenodd" clip-rule="evenodd" d="M10.5968 4.80884C10.8502 4.69919 11.1446 4.81574 11.2542 5.06918L13.3121 9.82529L13.3131 9.82746L15.2057 14.1455C15.3166 14.3984 15.2014 14.6933 14.9485 14.8042C14.6956 14.915 14.4007 14.7999 14.2899 14.5469L12.3953 10.2246L10.3364 5.46628C10.2268 5.21285 10.3433 4.9185 10.5968 4.80884Z" fill="black"/>
<path fill-rule="evenodd" clip-rule="evenodd" d="M-1.62382 0.547036C-1.50197 0.396977 -1.28154 0.374108 -1.13149 0.495957L8.54538 8.35366L11.3435 6.95461C11.5164 6.86817 11.7266 6.93825 11.813 7.11114C11.8995 7.28403 11.8294 7.49427 11.6565 7.58071L9.15352 8.83222L13.8627 12.4913C14.0153 12.6099 14.0429 12.8298 13.9243 12.9824C13.8057 13.135 13.5858 13.1626 13.4332 13.044L8.27932 9.03943L-1.57274 1.03937C-1.7228 0.917519 -1.74567 0.697094 -1.62382 0.547036Z" fill="black"/>
<path fill-rule="evenodd" clip-rule="evenodd" d="M21.5 4.26758C22.0523 4.26758 22.5 3.81986 22.5 3.26758C22.5 2.71529 22.0523 2.26758 21.5 2.26758C20.9477 2.26758 20.5 2.71529 20.5 3.26758C20.5 3.81986 20.9477 4.26758 21.5 4.26758ZM21.5 5.76758C22.8807 5.76758 24 4.64829 24 3.26758C24 1.88687 22.8807 0.767578 21.5 0.767578C20.1193 0.767578 19 1.88687 19 3.26758C19 4.64829 20.1193 5.76758 21.5 5.76758Z" fill="black"/>
<path fill-rule="evenodd" clip-rule="evenodd" d="M37.3177 28.6209C37.3988 28.7964 37.3221 29.0043 37.1466 29.0854L30.8105 32.0097C29.2662 32.7225 27.4481 32.4698 26.1567 31.3629L25.5344 30.8295C24.3833 29.8429 22.7422 29.6705 21.4112 30.3965L18.984 31.7204C17.3755 32.5978 15.3813 32.3106 14.0858 31.0151C13.0099 29.9391 11.3537 29.7006 10.0178 30.4292L7.40199 31.856C5.96652 32.639 4.17391 32.2495 3.19283 30.9414C2.44141 29.9395 1.08101 29.6184 -0.0391407 30.1784L-3.67021 31.994C-5.08002 32.6989 -6.79221 32.2947 -7.73793 31.0337C-8.51301 30.0003 -9.93633 29.7057 -11.0579 30.3466L-15.8264 33.0714C-15.9942 33.1674 -16.208 33.109 -16.3039 32.9412C-16.3998 32.7734 -16.3415 32.5596 -16.1737 32.4637L-11.4052 29.7388C-9.97712 28.9228 -8.16483 29.2978 -7.17793 30.6137C-6.43519 31.604 -5.09048 31.9215 -3.98326 31.3679L-0.35219 29.5523C1.07055 28.841 2.79843 29.2489 3.75283 30.5214C4.52526 31.5513 5.93662 31.858 7.0668 31.2415L9.68263 29.8147C11.2911 28.9374 13.2853 29.2245 14.5808 30.5201C15.6567 31.596 17.3129 31.8345 18.6488 31.1059L21.076 29.7819C22.6622 28.9167 24.6181 29.1222 25.99 30.298L26.6122 30.8314C27.6958 31.7602 29.2213 31.9722 30.5172 31.3741L36.8533 28.4498C37.0288 28.3688 37.2367 28.4454 37.3177 28.6209Z" fill="black"/>
<path fill-rule="evenodd" clip-rule="evenodd" d="M37.227 26.6629C37.2849 26.7882 37.2302 26.9368 37.1048 26.9946L30.7687 29.919C29.2599 30.6154 27.4835 30.3685 26.2218 29.287L25.5996 28.7537C24.417 27.74 22.7308 27.5629 21.3634 28.3088L18.9362 29.6327C17.3667 30.4888 15.4208 30.2086 14.1566 28.9444C13.0493 27.8371 11.3448 27.5916 9.97003 28.3415L7.35419 29.7683C5.96233 30.5275 4.22418 30.1498 3.27291 28.8815C2.4925 27.8409 1.0796 27.5074 -0.0837822 28.0891L-3.71485 29.9046C-5.08143 30.5879 -6.74112 30.1961 -7.65785 28.9738C-8.46319 27.9 -9.94208 27.5939 -11.1075 28.2599L-15.8759 30.9847C-15.9958 31.0532 -16.1485 31.0116 -16.217 30.8917C-16.2855 30.7718 -16.2439 30.6191 -16.124 30.5506L-11.3555 27.8257C-9.97121 27.0347 -8.21449 27.3983 -7.25785 28.6738C-6.48611 29.7028 -5.08891 30.0326 -3.93846 29.4574L-0.307388 27.6418C1.07212 26.9521 2.74751 27.3476 3.67291 28.5815C4.47514 29.6511 5.94097 29.9696 7.11476 29.3294L9.7306 27.9026C11.3001 27.0465 13.246 27.3267 14.5102 28.5909C15.6175 29.6982 17.322 29.9436 18.6967 29.1938L21.124 27.8698C22.6737 27.0245 24.5847 27.2252 25.925 28.374L26.5472 28.9074C27.6605 29.8616 29.2278 30.0795 30.5592 29.465L36.8953 26.5406C37.0206 26.4828 37.1692 26.5375 37.227 26.6629Z" fill="black"/>
<path fill-rule="evenodd" clip-rule="evenodd" d="M23.7398 9.6444C23.8079 10.053 23.5319 10.4394 23.1233 10.5075L14.1233 12.0075C13.7147 12.0756 13.3283 11.7996 13.2602 11.391C13.1921 10.9824 13.4681 10.596 13.8767 10.5279L22.8767 9.0279C23.2853 8.9598 23.6717 9.23582 23.7398 9.6444Z" fill="black"/>
<path fill-rule="evenodd" clip-rule="evenodd" d="M8 15.5176C8.41421 15.5176 8.75 15.8534 8.75 16.2676V16.4278C8.75 17.3766 9.16458 18.278 9.88493 18.8954L18.9881 26.6981C19.3026 26.9677 19.339 27.4412 19.0694 27.7557C18.7999 28.0702 18.3264 28.1066 18.0119 27.837L8.90874 20.0343C7.85592 19.1319 7.25 17.8145 7.25 16.4278V16.2676C7.25 15.8534 7.58579 15.5176 8 15.5176Z" fill="black"/>
</g>
<defs>
<clipPath id="clip0_38_778">
<rect width="30" height="30" fill="white" transform="translate(0 0.767578)"/>
</clipPath>
</defs>
</svg>
