<svg width="71" height="71" viewBox="0 0 71 71" fill="none" xmlns="http://www.w3.org/2000/svg">
<path fill-rule="evenodd" clip-rule="evenodd" d="M31.3726 28.1301C23.3736 29.657 16.6266 34.9393 12.8884 39.3783C12.2044 40.1905 10.9946 40.2918 10.1862 39.6045C9.37778 38.9172 9.27696 37.7016 9.96099 36.8893C14.0802 31.9978 21.5481 26.0834 30.6569 24.3446C39.9408 22.5724 50.609 25.2039 60.7292 36.8677C61.425 37.6698 61.3421 38.8868 60.5439 39.586C59.7457 40.2852 58.5345 40.2019 57.8386 39.3998C48.5292 28.6704 39.1966 26.6366 31.3726 28.1301Z" fill="black"/>
<path fill-rule="evenodd" clip-rule="evenodd" d="M29.3835 11.1736C18.3963 13.3241 9.31324 20.7465 4.33759 26.9752C3.67474 27.805 2.46791 27.9378 1.64208 27.2717C0.816238 26.6057 0.684113 25.3931 1.34697 24.5633C6.70066 17.8613 16.5152 9.7667 28.6503 7.39148C40.9629 4.98149 55.2991 8.53293 69.304 24.4952C70.0043 25.2934 69.928 26.5108 69.1337 27.2145C68.3393 27.9181 67.1277 27.8415 66.4274 27.0433C53.204 11.9717 40.1931 9.05779 29.3835 11.1736Z" fill="black"/>
<path fill-rule="evenodd" clip-rule="evenodd" d="M33.1889 44.0585C28.2403 44.9961 23.9432 48.2595 21.5261 51.0192C20.8266 51.818 19.615 51.8957 18.82 51.1928C18.0251 50.4899 17.9477 49.2725 18.6473 48.4737C21.4379 45.2874 26.4435 41.4155 32.4783 40.272C38.6942 39.0942 45.7091 40.874 52.0905 48.5073C52.7717 49.322 52.6665 50.5373 51.8557 51.2217C51.0448 51.906 49.8353 51.8004 49.1542 50.9856C43.6055 44.3484 37.9563 43.1551 33.1889 44.0585Z" fill="black"/>
<path fill-rule="evenodd" clip-rule="evenodd" d="M35.3534 61.1883C36.544 61.1883 37.5091 60.2185 37.5091 59.0223C37.5091 57.826 36.544 56.8562 35.3534 56.8562C34.1629 56.8562 33.1977 57.826 33.1977 59.0223C33.1977 60.2185 34.1629 61.1883 35.3534 61.1883ZM35.3534 65.0415C38.6619 65.0415 41.344 62.3466 41.344 59.0223C41.344 55.6979 38.6619 53.0031 35.3534 53.0031C32.045 53.0031 29.3629 55.6979 29.3629 59.0223C29.3629 62.3466 32.045 65.0415 35.3534 65.0415Z" fill="black"/>
</svg>
