<svg id="Layer_1" enable-background="new 0 0 512 512" height="512" viewBox="0 0 512 512" width="512" xmlns="http://www.w3.org/2000/svg"><path clip-rule="evenodd" d="m492.875 21.101c-7.14-7.139-16.665-11.071-26.82-11.071-10.154 0-19.68 3.933-26.819 11.071-22.671 22.672-2.67 54.413 11.934 77.59.875 1.389 1.737 2.757 2.576 4.1h-224.262c-32.899 0-59.665 26.766-59.665 59.665s26.766 59.665 59.665 59.665h40.362c5.799 6.561 14.269 10.71 23.693 10.71s17.894-4.149 23.693-10.71h89.23c25.181 0 45.666 20.485 45.666 45.666 0 25.18-20.485 45.665-45.666 45.665h-62.779l-25.417-16.834 3.226-38.726c.754-9.067-5.982-17.096-15.016-17.897l-44.832-3.979c-6.329-.557-12.403 2.607-15.625 7.913l-49.934 26.887c-2.086 1.121-3.939 2.583-5.508 4.344l-34.14 38.292h-78.881c2.224-3.595 4.641-7.386 7.125-11.282 11.868-18.613 25.32-39.71 32.247-61.016 8.514-26.185 4.888-47.404-10.778-63.071-10.869-10.868-25.372-16.854-40.839-16.854-15.466 0-29.969 5.986-40.838 16.854-15.473 15.473-19.326 36.046-11.452 61.149 6.476 20.646 19.854 41.879 31.658 60.612 5.375 8.53 10.454 16.59 14.442 23.876.615 1.168 1.567 2.175 2.809 2.859.003.002.006.004.01.005.005.003.012.005.014.008 1.066.583 2.217.859 3.353.859.045 0 .09 0 .134-.001h83.919c-.081.959-.118 1.926-.061 2.903.236 4.063 1.662 7.87 4.079 11.035l-14.872 31.292-15.55-7.412c-4.857-2.316-10.341-2.595-15.437-.791-5.097 1.807-9.179 5.477-11.493 10.335l-30.518 64.025c-4.793 10.056-.511 22.137 9.545 26.931l4.063 1.937c-3.482 2.816-5.719 7.115-5.719 11.925 0 8.449 6.89 15.34 15.339 15.34s15.339-6.891 15.339-15.34c0-.57-.037-1.131-.098-1.686l61.332-129.049c6.831 1.413 14.211-.734 19.17-6.307l13.493-15.139h38.643c-.235 4.979-.372 9.883-.336 14.611l-13.765 57.357-39.016 66.156c-2.962 5.013-3.795 10.878-2.345 16.517s5.009 10.375 10.021 13.337c5.013 2.962 10.881 3.797 16.517 2.345 5.64-1.45 10.376-5.009 13.337-10.021.001-.002.002-.003.003-.005l40.616-68.871c1.337-2.26 2.245-4.708 2.701-7.281l6.289-26.202c2.921.685 6.029 1.22 9.309 1.603l20.886 23.006 2.416 70.878c.182 5.812 2.617 11.207 6.856 15.188 4.068 3.821 9.332 5.902 14.888 5.902.232 0 .466-.004.7-.012 11.999-.376 21.455-10.444 21.078-22.463l-2.608-76.502c.107-4.425-1.118-8.723-3.558-12.453l-26.635-40.587.586-7.287 21.911 14.367c9.305 6.089 21.825 3.469 27.909-5.834 2.948-4.507 3.966-9.892 2.863-15.163-.669-3.203-2.082-6.125-4.083-8.586h43.309c32.9 0 59.666-26.766 59.666-59.665 0-32.9-26.766-59.666-59.666-59.666h-82.067c.5-2.229.771-4.542.771-6.919 0-17.439-14.188-31.628-31.628-31.628s-31.628 14.188-31.628 31.628c0 2.377.272 4.69.771 6.919h-33.199c-25.18 0-45.665-20.485-45.665-45.665s20.485-45.665 45.665-45.665h236.44c1.156.028 2.38-.252 3.489-.858 1.252-.685 2.211-1.695 2.831-2.87 2.044-3.729 4.898-8.205 7.92-12.942 14.223-22.305 35.716-56.012 12.711-79.017zm-427.523 285.467c-2.767-4.566-5.75-9.302-8.828-14.188-22.929-36.389-48.917-77.633-22.15-104.398 8.224-8.224 19.211-12.754 30.938-12.754s22.714 4.529 30.938 12.753c11.968 11.969 14.309 27.488 7.365 48.843-6.376 19.611-19.319 39.909-30.738 57.817-2.623 4.115-5.173 8.112-7.525 11.927zm12.793 138.294 30.518-64.025c.707-1.482 1.962-2.605 3.533-3.162 1.57-.557 3.254-.476 4.736.231l15.564 7.419-35.771 75.265-15.649-7.458c-3.088-1.473-4.402-5.182-2.931-8.27zm132.305-131.411 7.887-8.849 21.094-11.357c-.698 6.619-1.366 13.419-1.911 20.206zm142.21 30.085c-1.859 2.842-5.685 3.644-8.524 1.787l-31.775-20.836c-2.066-1.356-4.695-1.52-6.915-.434s-3.702 3.263-3.9 5.727l-1.724 21.446c-.125 1.551.271 3.1 1.125 4.401l27.946 42.585c.89 1.36 1.329 2.932 1.271 4.542-.006.165-.006.329-.001.493l2.615 76.706c.134 4.283-3.241 7.878-7.525 8.013-2.077.054-4.052-.682-5.564-2.104-1.514-1.421-2.383-3.348-2.448-5.441l-2.504-73.463c-.057-1.657-.699-3.239-1.813-4.467l-24.412-26.89c-1.183-1.303-2.812-2.112-4.564-2.268-6.144-.545-11.513-1.657-15.959-3.308-.788-.292-1.612-.438-2.436-.438-1.137 0-2.269.277-3.294.823-1.767.942-3.045 2.596-3.513 4.543l-8.063 33.597c-.039.165-.073.332-.101.5-.156.951-.487 1.858-.987 2.705l-40.618 68.874c-1.06 1.793-2.753 3.065-4.77 3.584-2.019.515-4.115.222-5.908-.839-1.793-1.06-3.066-2.754-3.585-4.771s-.221-4.115.842-5.913l39.551-67.064c.354-.599.615-1.246.777-1.922l14.211-59.215c.135-.562.199-1.138.192-1.715-.21-18.062 2.101-39.281 4.139-58.004l.353-3.239c.28-2.584-.895-5.11-3.05-6.562-2.158-1.452-4.939-1.588-7.228-.356l-33.885 18.245c-.719.387-1.364.896-1.907 1.506l-34.683 38.912c-2.257 2.537-6.158 2.766-8.696.506-1.229-1.094-1.959-2.602-2.055-4.244-.096-1.644.454-3.225 1.544-4.449l36.214-40.618c.478-.536 1.045-.982 1.688-1.329l51.872-27.931c1.474-.793 2.613-2.088 3.215-3.649.338-.881 1.347-1.717 2.603-1.604l44.831 3.979c1.388.123 2.42 1.376 2.303 2.791l-3.569 42.854c-.212 2.547.98 5.006 3.11 6.417l43.793 29.005c1.377.901 2.321 2.285 2.658 3.896.335 1.613.024 3.258-.877 4.636zm-59.12-159.963c9.72 0 17.628 7.908 17.628 17.628 0 9.721-7.908 17.629-17.628 17.629s-17.628-7.908-17.628-17.629c0-9.72 7.908-17.628 17.628-17.628zm174.82-90.981c-.767 1.202-1.522 2.388-2.26 3.553-1.003-1.61-2.036-3.249-3.087-4.917-16.23-25.758-27.558-46.548-13.878-60.227 4.495-4.496 10.504-6.972 16.919-6.972 6.416 0 12.425 2.476 16.92 6.972 13.924 13.923 1.62 36.131-14.614 61.591zm9.065-46.537c0 6.291-5.131 11.421-11.421 11.421-6.291 0-11.421-5.131-11.421-11.421 0-6.291 5.13-11.421 11.421-11.421 6.29-.001 11.421 5.13 11.421 11.421zm-412.199 144.062c-14.195 0-25.743 11.548-25.743 25.742s11.548 25.743 25.743 25.743c14.194 0 25.742-11.549 25.742-25.743s-11.548-25.742-25.742-25.742zm0 37.486c-6.476 0-11.743-5.268-11.743-11.743s5.268-11.742 11.743-11.742 11.742 5.268 11.742 11.742c0 6.475-5.268 11.743-11.742 11.743z" fill-rule="evenodd"/></svg>