<svg id="Capa_1" enable-background="new 0 0 512 512" height="512" viewBox="0 0 512 512" width="512" xmlns="http://www.w3.org/2000/svg"><g><path d="m498.798 193.966c-12.696-12.697-31.137-16.226-47.033-10.599v-138.242c0-24.882-20.243-45.125-45.125-45.125h-361.5c-24.882 0-45.125 20.243-45.125 45.128-.511 24.679 21.728 45.654 45.122 45.122h15.128v421.75h391.5v-207.183l47.033-47.033c17.594-17.595 17.594-46.223 0-63.818zm-227.784 206.392 11.056-11.056 21.392 21.392-11.057 11.057h-21.391zm53.661-10.877-21.392-21.392 121.002-121.002 21.392 21.392zm-279.539-329.231c-9.03.011-15.164-8.072-15.121-15.125 0-8.34 6.785-15.125 15.125-15.125h318.982c-1.688 4.73-2.607 9.822-2.607 15.125 0 5.301.919 10.393 2.606 15.122zm376.629 421.75h-331.5v-391.751l316.375-.003v-30h-.003c-8.338 0-15.122-6.784-15.122-15.122 0-8.34 6.785-15.125 15.125-15.125s15.125 6.785 15.125 15.125v162.056l-33.816 33.816h-267.434v30h237.434l-30.25 30.25h-207.184v30h177.183l-30.25 30.25h-146.933v30h120.499v60.253l63.817.001 116.934-116.934zm55.82-245.429-10.694 10.694-21.392-21.392 10.694-10.694c5.898-5.897 15.493-5.897 21.392 0 5.897 5.898 5.897 15.494 0 21.392z"/><path d="m120.515 180.748h150.5v30h-150.5z"/></g></svg>