<svg height="512" viewBox="0 0 60 60" width="512" xmlns="http://www.w3.org/2000/svg"><g id="Page-1" fill="none" fill-rule="evenodd"><g id="020---Rating" fill="rgb(0,0,0)" fill-rule="nonzero" transform="translate(-1)"><path id="Shape" d="m17.9 43c-.4569602-.0009136-.9024018-.143455-1.275-.408-.7211145-.5071662-1.0861421-1.383933-.938-2.253l1.52-9.331c.0180952-.0991933-.0123888-.2010546-.082-.274l-6.47-6.615c-.6061783-.6191079-.81298394-1.5263468-.535-2.347.261751-.8054039.9556952-1.3940761 1.793-1.521l8.905-1.36c.0836499-.0150819.1542115-.0710057.188-.149l3.969-8.442c.364337-.78821783 1.1529193-1.2934236 2.0212663-1.29492556.8683469-.00150196 1.6586722.50097281 2.0257337 1.28792556l3.978 8.452c.0332728.0745954.1001443.1288356.18.146l8.917 1.36c.8354071.1286693 1.527051.7170308 1.788 1.521.2788676.8223918.0707746 1.7317351-.538 2.351l-6.467 6.616c-.0655991.0699441-.0951364.1663094-.08.261l.141.842-1.973.33-.141-.84c-.1204003-.7237466.1087975-1.4617783.618-1.99l6.474-6.624c.081575-.0830982.1076938-.2058954.067-.315-.0219712-.0910904-.0957518-.1605541-.188-.177l-8.915-1.36c-.7418465-.1115126-1.3787614-.5866654-1.697-1.266l-3.971-8.452c-.036487-.0882092-.1230873-.1452402-.2185358-.1439176s-.1804354.0607313-.2144642.1499176l-3.967 8.446c-.3167393.6832255-.9553318 1.1617942-1.7 1.274l-8.9 1.36c-.0941693.0146215-.1703039.0844444-.193.177-.0397712.1073851-.014941.2280444.064.311l6.473 6.624c.511623.5289415.7423636 1.269018.622 1.995l-1.52 9.325c-.0246449.1144108.0214034.2324834.117.3.0647634.0508349.1540617.0567881.225.015l7.934-4.381c.6609534-.3704995 1.4670466-.3704995 2.128 0l7.178 3.959-.967 1.751-7.176-3.964c-.0598158-.0327284-.1321842-.0327284-.192 0l-7.941 4.382c-.327149.178914-.6941241.2724634-1.067.272z"/><path id="Shape" d="m27 52c.821 0 1.612-.042 2.368-.112.7770826.4092945 1.508229.900413 2.181 1.465 2 1.6 5.2 3.5 7.639 3.587.9124472.0147596 1.7481657.5137529 2.194 1.31.329416.7245086.9351337 1.2870122 1.682 1.562.7472651.2803924 1.5757607.2494139 2.3-.086l12.725-5.838c2.5072589-1.1541798 3.6075953-4.1197205 2.46-6.63l-6.469-14.088c-.3442467-.7409146-.9392904-1.3363125-1.68-1.681 2.3243223-10.7713049-2.3953582-21.8377235-11.7779382-27.6161901-9.3825799-5.7784666-21.389053-5.01321462-29.962091 1.90968233-8.573038 6.92289697-11.8495629 18.49896667-8.17655085 28.88802177 3.67301206 10.389055 13.49734835 17.3333637 24.51658005 17.329486zm31.726-3.908c.331856.723236.3627807 1.5486872.0859698 2.2947264-.2768109.7460391-.8386774 1.3515406-1.5619698 1.6832736l-12.725 5.838c-.501493.2298113-1.094363.0101139-1.325-.491-.7617149-1.4860804-2.2755507-2.436209-3.945-2.476-1.817-.06-4.619-1.674-6.453-3.148-1.6581179-1.5557382-3.8134072-2.4743222-6.084-2.593-.1 0-.113-.022-.14-.078-.1325584-.5552309.0045755-1.1404592.37-1.579.3591834-.5022618.9426283-.7954803 1.56-.784.1339977.0003689.2677535.0114037.4.033 1.2381063.2856415 2.4302773.742719 3.542 1.358 1.781.869 3.317 1.619 4.569.968.7263174-.4312764 1.1949221-1.1913576 1.254-2.034.0316262-.1948331.0044705-.3946713-.078-.574l-7.715-16.81c-.2236483-.4871316-.1704261-1.0565747.1396181-1.4938256s.8298075-.6758808 1.3635-.626c.5336925.0498807 1.0002336.380694 1.2238819.8678256l4.169 9.087 2.293 5c.1489798.3247544.4598971.5453601.8156326.5787171.3557354.033357.7022443-.1256025.909-.417s.2423472-.6709627.0933674-.9957171l-2.3-5.005c-.327228-.7503675.0075881-1.6245203.7523591-1.9642931.7447711-.3397728 1.624419-.0196719 1.9766409.7192931l.624 1.361 1.668 3.635c.2303028.5020268.8239732.7223027 1.326.4919999.5020268-.2303027.7223027-.8239731.492-1.3259999l-1.458-3.179c-.3460064-.754421-.014921-1.6464936.7395-1.9925s1.6464936-.014921 1.9925.7395l.417.908 1.042 2.271c.2303027.5020268.8239732.7223027 1.326.492s.7223027-.8239732.492-1.326l-1.045-2.277c-.3449018-.7538687-.0133686-1.6445981.7405-1.9894999.7538687-.3449019 1.6445982-.0133687 1.9895.7404999zm-31.726-46.092c7.2791157-.01398854 14.1696685 3.28265292 18.7262692 8.9591934 4.5566006 5.6765404 6.2848184 13.117026 4.6967308 20.2208066-1.0758007.1233717-2.0269591.7557414-2.557 1.7-1.5458014-1.0187231-3.6173122-.6596029-4.73.82-1.0282207-1.1156529-2.6573895-1.443343-4.037-.812-.472376.2150618-.8903509.533584-1.223.932l-2.851-6.216c-.5216078-1.1366405-1.6099837-1.9086652-2.8551471-2.0252598-1.2451634-.1165947-2.4579443.4399542-3.1815 1.46-.7235556 1.0200458-.8479607 2.3486193-.3263529 3.4852598l7.577 16.515c-.0189443.1111242-.0680667.2149039-.142.3-.359.191-1.868-.551-2.769-.99-1.2861538-.705947-2.6668628-1.2238813-4.1-1.538-1.4809864-.2788354-2.9905781.3169128-3.882 1.532-.8002791.997142-1.0290372 2.3367947-.605 3.543-12.7250032-1.2440531-22.24061364-12.2455848-21.63812554-25.0170523.6024881-12.7714674 11.11151934-22.8283459 23.89712554-22.8689477z"/></g></g></svg>