<svg id="Capa_1" enable-background="new 0 0 512 512" height="512" viewBox="0 0 512 512" width="512" xmlns="http://www.w3.org/2000/svg"><g><path d="m75 190h170c8.284 0 15-6.716 15-15s-6.716-15-15-15h-170c-8.284 0-15 6.716-15 15s6.716 15 15 15z"/><path d="m205 220h-130c-8.284 0-15 6.716-15 15s6.716 15 15 15h130c8.284 0 15-6.716 15-15s-6.716-15-15-15z"/><path d="m205 280h-130c-8.284 0-15 6.716-15 15s6.716 15 15 15h130c8.284 0 15-6.716 15-15s-6.716-15-15-15z"/><path d="m205 340h-130c-8.284 0-15 6.716-15 15s6.716 15 15 15h130c8.284 0 15-6.716 15-15s-6.716-15-15-15z"/><path d="m507.606 422.886-75.007-75.007c30.769-41.096 27.492-99.787-9.845-137.125-9.575-9.575-20.678-17.067-32.754-22.261v-73.493c0-3.978-1.58-7.793-4.394-10.606l-99.996-100c-2.812-2.813-6.628-4.394-10.606-4.394h-220.004c-30.327 0-55 24.673-55 55v402c0 30.327 24.673 55 55 55h280c30.327 0 55-24.673 55-55v-75.493c7.56-3.252 14.737-7.404 21.396-12.406l74.997 74.997c2.929 2.929 6.768 4.394 10.606 4.394s7.678-1.464 10.606-4.394c5.86-5.857 5.86-15.354.001-21.212zm-106.065-84.853c-8.677 8.677-19.11 14.952-30.493 18.523-.349.095-.693.203-1.031.322-6.891 2.052-14.117 3.122-21.509 3.122-20.033 0-38.868-7.801-53.033-21.967-14.166-14.166-21.967-33-21.967-53.033s7.801-38.867 21.967-53.033c14.165-14.166 33-21.967 53.033-21.967 7.394 0 14.622 1.07 21.514 3.123.335.118.674.224 1.02.318 11.385 3.571 21.821 9.847 30.5 18.525 29.241 29.244 29.24 76.825-.001 106.067zm-62.754-238.033h-48.787v-48.786zm21.213 357c0 13.785-11.215 25-25 25h-280c-13.785 0-25-11.215-25-25v-402c0-13.785 11.215-25 25-25h205v85c0 8.284 6.716 15 15 15h85v50.625c-3.791-.41-7.625-.625-11.492-.625-28.047 0-54.415 10.922-74.246 30.754-19.832 19.832-30.754 46.2-30.754 74.246 0 28.047 10.922 54.415 30.754 74.246 19.831 19.832 46.199 30.754 74.246 30.754 3.867 0 7.701-.215 11.492-.625z"/></g></svg>