<?xml version="1.0"?>
<svg xmlns="http://www.w3.org/2000/svg" xmlns:xlink="http://www.w3.org/1999/xlink" xmlns:svgjs="http://svgjs.com/svgjs" version="1.1" width="512" height="512" x="0" y="0" viewBox="0 0 2.66666 2.66666" style="enable-background:new 0 0 512 512" xml:space="preserve" class=""><g><g id="_341076336" fill-rule="nonzero"><circle id="_306843384" cx="1.333" cy="1.333" fill="#003333" r="1.333" data-original="#003333" class=""/><circle id="_306844632" cx="1.333" cy="1.333" fill="#ffffff" r="1.244" data-original="#ffffff" class=""/></g><g id="Layer_x0020_1"><g fill="#7dd63e"><path d="m1.42424 2.02624c-.00391732 0-.00783465-.00056693-.0116142-.00172441l-.601602-.182457-.277524.0994409c-.0133346.00476772-.0281969.00215354-.0390709-.00690157-.0108898-.00903937-.0161811-.0231811-.0139016-.0371575l.181543-1.1195c.00249606-.0154016.0137205-.0279606.0287638-.0321378l.373591-.103898c.00774803-.0021378.0159764-.00193307.0235866.00066535l.410063.139291.478256.0363346c.018374.00140157.0334173.0151654.0364331.0333307l.173346 1.04578c.00180709.0108031-.00091732.021874-.00752756.030626-.00661024.00876772-.0165.0144134-.0274016.0156535l-.722421.0824016c-.00149213.00017323-.00300394.00025984-.00451969.00025984zm-.614256-.266303c.00390157 0 .00782283.00056693.0116102.00172441l.606339.183898.672382-.0766929-.161331-.973295-.451996-.0343465c-.00334646-.00025197-.00664961-.00092913-.00983071-.00201575l-.403177-.136941-.337035.0937362-.166594 1.0273.226134-.0810276c.00437795-.00155512.00892913-.00234252.0135-.00234252z" fill="#181a18" data-original="#7dd63e" class=""/><path d="m.595488 1.47859c-.011748 0-.0233898-.00514173-.0312756-.0150394-.0137913-.017252-.0109724-.0424331.00629528-.0562126l.384976-.307469c.00354331-.00283465.00754331-.0050315.0118189-.0065315l.208583-.0725394-.137551-.324772c-.00862598-.0203346.00088583-.0438228.0212323-.0524291.0203346-.00861024.0438189.00088583.0524291.0212323l.15422.364106c.0043189.0101772.00422047.0217047-.00027953.0318307-.00448819.0101102-.0129724.0179173-.0234173.0215551l-.242469.0843346-.379618.303181c-.00737795.00588976-.0161969.00875197-.0249449.00875197z" fill="#181a18" data-original="#7dd63e" class=""/><path d="m1.62778 2.00302c-.00783071 0-.0157795-.00229528-.0227244-.00709843-.0181654-.012563-.0227087-.0374843-.010126-.0556654l.426453-.616575c.0125394-.0181693.0374449-.0227362.0556535-.0101378.0181654.0125669.0227087.0374843.010126.0556535l-.426453.616591c-.00776378.0112165-.0202362.0172323-.0329291.0172323z" fill="#181a18" data-original="#7dd63e" class=""/></g><path d="m1.57556 1.53809c-.0798976 0-.155012-.0311142-.211508-.0876102-.0565-.0564882-.087626-.13161-.087626-.211512 0-.0798976.0311102-.155012.087626-.211508.0564882-.0564961.13161-.0876102.211508-.0876102.0799016 0 .155012.0311142.211512.0876102.116606.116622.116606.306386 0 .423008-.0565.0565079-.13161.087622-.211512.087622zm0-.518232c-.0585276 0-.113551.0227953-.154941.0641772-.041374.041378-.0641772.0964055-.0641772.154929 0 .0585236.0228031.113551.0641772.154941.0413898.041378.0964134.0641693.154941.0641693.0585315 0 .113555-.0227913.154945-.0641693.0854173-.0854409.0854173-.224453 0-.309886-.0413898-.041374-.0964213-.0641614-.154945-.0641614z" fill="#003333" data-original="#003333" class=""/><path d="m1.30119 1.55333c-.0102362 0-.0204724-.00390157-.0282913-.0117205-.0156299-.0156142-.0156299-.0409449 0-.0565591l.0911535-.0911378c.015626-.015626.0409567-.015626.0565551 0 .015626.0156142.015626.0409449 0 .0565591l-.0911378.0911378c-.00779134.0078189-.0180433.0117205-.0282795.0117205z" fill="#003333" data-original="#003333" class=""/><path d="m1.1832 1.76956c-.0106063 0-.0207913-.00422047-.0282913-.0117205l-.0982205-.0982362c-.015626-.015626-.015626-.0409449 0-.0565551l.16711-.167094c.0156299-.0156378.0409449-.015626.0565669 0l.0982205.0982205c.015626.0156102.015626.0409449 0 .0565551l-.167094.16711c-.00749606.0075-.0176811.0117205-.0282913.0117205zm-.0416496-.138232.0416654.0416693.110539-.110539-.0416654-.0416535-.110539.110524z" fill="#181a18" data-original="#7dd63e" class=""/></g></g></svg>
