<svg width="67" height="72" viewBox="0 0 67 72" fill="none" xmlns="http://www.w3.org/2000/svg">
<g id="Icon/share-android">
<path id="Path 2" d="M44.4045 24.1973L22.4933 32.9922" stroke="black" stroke-width="4" stroke-linecap="round"/>
<path id="Path 2_2" d="M44.4045 47.6504L22.4933 38.8555" stroke="black" stroke-width="4" stroke-linecap="round"/>
<path id="Oval" fill-rule="evenodd" clip-rule="evenodd" d="M17.0155 41.7871C20.0408 41.7871 22.4933 39.162 22.4933 35.9238C22.4933 32.6856 20.0408 30.0605 17.0155 30.0605C13.9902 30.0605 11.5378 32.6856 11.5378 35.9238C11.5378 39.162 13.9902 41.7871 17.0155 41.7871Z" stroke="black" stroke-width="4"/>
<path id="Oval_2" fill-rule="evenodd" clip-rule="evenodd" d="M49.8823 27.1289C52.9076 27.1289 55.3601 24.5038 55.3601 21.2656C55.3601 18.0274 52.9076 15.4023 49.8823 15.4023C46.857 15.4023 44.4045 18.0274 44.4045 21.2656C44.4045 24.5038 46.857 27.1289 49.8823 27.1289Z" stroke="black" stroke-width="4"/>
<path id="Oval_3" fill-rule="evenodd" clip-rule="evenodd" d="M49.8823 56.4453C52.9076 56.4453 55.3601 53.8202 55.3601 50.582C55.3601 47.3438 52.9076 44.7188 49.8823 44.7188C46.857 44.7188 44.4045 47.3438 44.4045 50.582C44.4045 53.8202 46.857 56.4453 49.8823 56.4453Z" stroke="black" stroke-width="4"/>
</g>
</svg>
