<svg id="Layer_2_copy" enable-background="new 0 0 256 256" height="512" viewBox="0 0 256 256" width="512" xmlns="http://www.w3.org/2000/svg"><path d="m208.1523 179.7444v-29.9715c-.0112-9.9705-8.091-18.0505-18.0615-18.062h-25.4483c1.2982-2.3867 2.3906-4.8798 3.2652-7.4521l.9014-.0543c.0918.0054.1836.0088.2783.0088 8.0387.0058 14.56-6.5061 14.5659-14.5447.0032-4.411-1.9941-8.5855-5.4307-11.3507.62-2.4727 1.1315-4.9851 1.5132-7.5327l10.0762-.4825c4.1813-.2156 7.3961-3.7799 7.1805-7.9612-.123-2.3855-1.3631-4.5735-3.3465-5.9045l-19.4211-13.0222c-.7871-3.2493-1.936-7.9831-3.1566-12.9807l-.0018-.0056c-.2456-1.0057-.494-2.0211-.7428-3.0374-5.2642-21.4985-5.2642-21.4985-6.4619-22.2827-4.9927-3.2676-24.6-6.9927-36.8062-6.9927s-31.8134 3.7251-36.8056 6.9927c-1.1978.7842-1.1978.7842-6.4624 22.2827-1.4852 6.0653-2.9552 12.12-3.9011 16.0239l-19.4207 13.022c-3.4765 2.333-4.4035 7.0426-2.0705 10.5192 1.3311 1.9835 3.5192 3.2236 5.9047 3.3465l10.0757.4825c.3817 2.5476.8929 5.06 1.5133 7.5329-6.263 5.0392-7.255 14.2014-2.2158 20.4644 2.7654 3.437 6.9405 5.4344 11.3519 5.4308.124 0 .2446-.0059.3574-.0151.1293-.0033.2583-.0148.3862-.0347l.0819-.0128c.8813 2.6104 1.9864 5.1398 3.303 7.56h-25.1326c-9.9707.0112-18.0508 8.0913-18.062 18.062v29.972c-11.789 15.0253-17.749 34.4306-17.749 57.912 0 1.6569 1.3431 3 3 3h191.6919c1.6569 0 3-1.3431 3-3 0-23.4819-5.9606-42.8878-17.7496-57.9123zm-81.0967-1.9758c15.3813 0 26.5278-7.9619 30.9907-21.9736 1.5825.3916 3.1634.8223 4.7427 1.292-5.93 16.86-18.5234 26.0967-35.7339 26.0967s-29.8027-9.2368-35.7329-26.0977c1.5767-.4683 3.1577-.8988 4.7432-1.2915 4.4624 14.0121 15.6089 21.974 30.9903 21.974zm0-6c-7.4092 0-20.1-2.3336-25.1064-17.2883 2.458-.4643 4.9914-.8369 7.5665-1.1572 6.3246 4.0438 12.63 6.3351 17.3763 6.3351 4.7607 0 11.09-2.3048 17.4334-6.3692 2.67.3263 5.2928.7111 7.837 1.1917-5.0063 14.9542-17.6975 17.2878-25.1067 17.2878zm-.1636-18.11c-11.1138 0-37.26-18.0405-37.26-42.7339l-.08-19.4123 35.6288 1.7062c.6221.03 1.248.0444 1.8745.0444s1.2529-.0146 1.875-.0444l35.5997-1.7051-.3767 19.423c-.0005 24.6812-26.1474 42.7217-37.2612 42.7217zm42.5961-35.4625c.4375-2.3755.6598-4.7856.6641-7.201l.19-9.811c4.6751.6879 7.9073 5.0355 7.2193 9.7105-.5963 4.0528-3.9816 7.1143-8.0737 7.3016zm3.2319-22.6379c-.7416-.1958-1.4976-.3321-2.2608-.4077l.0761-3.9247 3.073-.1472c-.2505 1.5076-.5466 3.0008-.8883 4.4796zm-84.3645-41.5826 35.5-2.9756c2.209-.1855 4.4297-.1856 6.6387 0l35.2573 2.9546c.6536 2.6807 1.2736 5.2311 1.8125 7.4511l-37.2354-3.121c-2.178-.1812-4.3674-.1812-6.5454 0l-37.2352 3.1215c.5374-2.2142 1.1557-4.7571 1.8075-7.4306zm6.0473-24.3106c4.8711-2.2373 21.168-5.5493 32.6528-5.5493s27.7817 3.312 32.6533 5.5493c.7116 2.6245 2.5085 9.8537 4.5405 18.143l-33.2544-2.787c-2.5425-.2119-5.0981-.2119-7.6406 0l-33.4972 2.8075c2.0342-8.2979 3.8335-15.5371 4.5456-18.1635zm-29.8149 54.645c-.678-.0147-1.2608-.4849-1.4185-1.1445-.2087-.659.0535-1.3758.6382-1.7446l20.6011-13.814 39.8755-3.3423c1.8446-.1545 3.6989-.1545 5.5435 0l39.8755 3.3423 20.601 13.8131c.5847.3688.8469 1.0856.6382 1.7446-.1576.6595-.7401 1.1297-1.418 1.1445l-60.88 2.9155c-1.0557.05-2.124.05-3.1758 0zm15.9151 6.7687 3.0481.1459.0161 3.93c-.7345.0786-1.4619.2135-2.1758.4035-.342-1.4782-.6381-2.9713-.8884-4.4794zm-4.0445 18.5683c.0075-4.1735 3.0193-7.7352 7.1335-8.4361l.04 9.7256c.0042 2.4282.2278 4.8511.6681 7.2391-4.43-.3794-7.8347-4.0825-7.8416-8.5286zm-16.3 64.0822v60.9276h-25.9114c.6455-26.0537 9.7445-46.7759 25.9116-60.9277zm23.0737 60.9276h-17.0735v-79.1968h17.0737zm.4927-85.1963h-18.0589c-3.0401.0035-5.5038 2.4672-5.5073 5.5073v10.883c-.9461.716-1.8837 1.44-2.7915 2.1942-1.8955 1.5737-3.6982 3.2186-5.4082 4.9347v-23.2068c.0076-6.6585 5.4035-12.0544 12.062-12.062h28.922c2.8387 3.8933 6.1243 7.4401 9.7894 10.5679-1.684.2926-3.3364.6294-4.9747.9857-.0723.01-.1437.01-.2161.0255-.5867.1282-1.1752.2706-1.7633.4095-.5989.1414-1.1977.2881-1.7966.44-1.9644.4949-3.9049 1.0212-5.7976 1.6093-1.032-1.4354-2.6912-2.287-4.459-2.2888zm5.5073 17.6428c7.7665 14.1721 21.0692 22.08 37.8228 22.08s30.0569-7.908 37.8237-22.0793v67.5525h-75.6463zm98.7207 67.5535h-17.074v-79.1968h17.0742zm.4927-85.1963h-18.0589c-1.7678.0016-3.4271.8529-4.4594 2.288-1.8951-.5887-3.8381-1.1157-5.8051-1.6111-.5929-.1505-1.1853-.2955-1.7772-.4348-.5919-.14-1.1841-.283-1.7748-.412-.0778-.017-.1545-.0163-.2321-.027-1.7213-.3733-3.4584-.7245-5.23-1.0283 3.6465-3.1168 6.9166-6.6488 9.7437-10.5243h29.2385c6.6584.0077 12.0541 5.4036 12.0615 12.062v23.2064c-1.7121-1.7143-3.5148-3.3591-5.4082-4.9344-.9077-.7535-1.8451-1.4779-2.791-2.1938v-10.8834c-.0033-3.0401-2.4667-5.504-5.5068-5.5078zm5.5073 85.1963v-60.9268c16.1671 14.1517 25.2661 34.8738 25.9116 60.927z"/></svg>