<svg width="54" height="50" viewBox="0 0 54 50" fill="none" xmlns="http://www.w3.org/2000/svg">
<path d="M47.5304 6.10103C46.3346 4.81698 44.9147 3.79839 43.352 3.10343C41.7893 2.40848 40.1143 2.05078 38.4227 2.05078C36.7311 2.05078 35.0561 2.40848 33.4934 3.10343C31.9307 3.79839 30.5108 4.81698 29.315 6.10103L26.8332 8.76463L24.3514 6.10103C21.9359 3.50856 18.6598 2.05213 15.2437 2.05213C11.8277 2.05213 8.55152 3.50856 6.136 6.10103C3.72049 8.6935 2.36346 12.2096 2.36346 15.8759C2.36346 19.5422 3.72049 23.0584 6.136 25.6509L8.61779 28.3145L26.8332 47.8643L45.0486 28.3145L47.5304 25.6509C48.7268 24.3674 49.6759 22.8436 50.3234 21.1663C50.9709 19.4891 51.3042 17.6914 51.3042 15.8759C51.3042 14.0605 50.9709 12.2628 50.3234 10.5855C49.6759 8.90833 48.7268 7.38447 47.5304 6.10103V6.10103Z" stroke="#111111" stroke-width="4" stroke-linecap="round" stroke-linejoin="round"/>
</svg>
