<svg height="480pt" viewBox="0 0 480 480.00623" width="480pt" xmlns="http://www.w3.org/2000/svg"><path d="m64.003906 408.007812v-168h-16v168c.027344 22.078126 17.917969 39.972657 40 40h176v-16h-176c-13.253906 0-24-10.746093-24-24zm0 0"/><path d="m448.003906 344.007812v-168c-.027344-22.082031-17.921875-39.976562-40-40h-152v16h152c13.253906 0 24 10.742188 24 24v168zm0 0"/><path d="m416.003906 344.007812v-168c0-4.421874-3.582031-8-8-8h-160v16h152v160zm0 0"/><path d="m96.003906 256.007812h-16v152c0 4.417969 3.582032 8 8 8h176v-16h-168zm0 0"/><path d="m240.003906 232.007812h16v16h-16zm0 0"/><path d="m336.003906 288.007812v-8h8c4.417969 0 8-3.582031 8-8v-32c-.003906-3.445312-2.207031-6.496093-5.472656-7.585937l-96-32c-1.640625-.550781-3.414062-.550781-5.054688 0l-32 10.664063 5.054688 15.199218 29.472656-9.847656 88 29.335938v18.234374h-176v-8h-16v16c0 4.417969 3.582032 8 8 8h8v56h-8c-4.417968 0-8 3.578126-8 8v32c0 4.417969 3.582032 8 8 8h168v-16h-160v-16h160v-16h-16v-56h16v8zm-112-8v56h-16v-56zm-48 56v-56h16v56zm64 0v-56h16v56zm48 0h-16v-56h16zm0 0"/><path d="m240.003906 120.007812c0-66.277343-53.726562-119.9999995-120-119.9999995-66.273437 0-119.99999975 53.7226565-119.99999975 119.9999995 0 66.273438 53.72656275 120 119.99999975 120 66.242188-.078124 119.925782-53.757812 120-120zm-131.890625 103.261719c-7.5-12.347656-13.546875-25.523437-18.023437-39.261719h59.824218c-4.472656 13.738282-10.519531 26.914063-18.023437 39.261719-7.894531.980469-15.878906.980469-23.777344 0zm-91.703125-95.261719h47.800782c.445312 13.453126 2.101562 26.839844 4.953124 40h-41.328124c-6.484376-12.421874-10.375-26.03125-11.425782-40zm207.199219-16h-47.8125c-.445313-13.457031-2.105469-26.84375-4.953125-40h41.328125c6.484375 12.417969 10.371094 26.027344 11.421875 40zm0 16c-1.050781 13.96875-4.9375 27.578126-11.421875 40h-41.34375c2.847656-13.160156 4.507812-26.546874 4.953125-40zm-63.71875-16h-79.757813c.503907-13.480468 2.328126-26.878906 5.4375-40h68.832032c3.125 13.121094 4.957031 26.519532 5.472656 40zm-95.679687 0h-47.800782c1.050782-13.972656 4.941406-27.582031 11.425782-40h41.328124c-2.851562 13.15625-4.507812 26.542969-4.953124 40zm15.921874 16h79.742188c-.507812 13.476563-2.328125 26.875-5.441406 40h-68.832032c-3.121093-13.125-4.953124-26.523437-5.46875-40zm72.671876 90.613282c5.65625-11.097656 10.296874-22.683594 13.871093-34.613282h35.136719c-12.59375 16.089844-29.636719 28.125-49.007812 34.613282zm49.007812-162.613282h-35.136719c-3.574219-11.933593-8.214843-23.519531-13.871093-34.617187 19.371093 6.488281 36.414062 18.523437 49.007812 34.617187zm-69.921875-39.265624c7.503906 12.347656 13.550781 25.523437 18.023437 39.265624h-59.824218c4.476562-13.742187 10.523437-26.917968 18.023437-39.265624 7.898438-.980469 15.882813-.980469 23.777344 0zm-44.6875 4.648437c-5.65625 11.097656-10.300781 22.683594-13.871094 34.617187h-35.136719c12.59375-16.09375 29.632813-28.128906 49.007813-34.617187zm-49.007813 162.617187h35.136719c3.570313 11.929688 8.214844 23.515626 13.871094 34.613282-19.375-6.488282-36.414063-18.523438-49.007813-34.613282zm0 0"/><path d="m460.003906 360.324219c-6.980468-1.15625-14.117187.8125-19.511718 5.394531-.160157.128906-.320313.261719-.472657.40625-9.101562-8.167969-22.898437-8.167969-32 0-6.617187-5.675781-15.71875-7.480469-24-4.757812v-40.503907c.148438-11.941406-8.273437-22.277343-20-24.539062-6.972656-1.179688-14.109375.769531-19.507812 5.332031-5.402344 4.566406-8.515625 11.28125-8.507813 18.351562v97.871094l-21.234375-12.738281c-6.476562-3.914063-14.515625-4.21875-21.269531-.796875l-1.273438.628906c-6.9375 3.472656-11.550781 10.328125-12.15625 18.0625-.605468 7.734375 2.882813 15.21875 9.195313 19.730469l50.089844 35.769531c1.355469.964844 2.980469 1.480469 4.648437 1.472656h128c4.417969 0 8-3.582031 8-8v-87.144531c.148438-11.941406-8.273437-22.277343-20-24.539062zm4 103.683593h-117.441406l-48-34.28125c-1.746094-1.25-2.714844-3.320312-2.550781-5.460937.160156-2.144531 1.433593-4.042969 3.351562-5.011719l1.273438-.625c1.867187-.945312 4.089843-.859375 5.878906.226563l33.351563 20c2.46875 1.492187 5.554687 1.535156 8.066406.117187 2.515625-1.417968 4.070312-4.082031 4.070312-6.964844v-112c0-2.367187 1.046875-4.613281 2.859375-6.136718 1.816407-1.519532 4.210938-2.160156 6.539063-1.746094 3.996094.976562 6.753906 4.628906 6.601562 8.738281v63.144531c0 4.417969 3.582032 8 8 8 4.417969 0 8-3.582031 8-8 0-4.421874 3.582032-8 8-8 4.417969 0 8 3.578126 8 8 0 4.417969 3.582032 8 8 8 4.417969 0 8-3.582031 8-8 0-4.421874 3.582032-8 8-8 4.417969 0 8 3.578126 8 8 0 4.417969 3.582032 8 8 8 4.417969 0 8-3.582031 8-8-.003906-2.351562 1.03125-4.585937 2.824219-6.105468 1.808594-1.554688 4.226563-2.207032 6.574219-1.777344 3.996094.976562 6.753906 4.628906 6.601562 8.738281zm0 0"/><path d="m458.980469 87.4375c3.035156-1.214844 5.023437-4.160156 5.023437-7.429688v-72c0-2.660156-1.316406-5.144531-3.515625-6.632812-2.199219-1.488281-4.996093-1.789062-7.460937-.800781l-9.367188 3.75c-18.339844 7.382812-38.546875 8.753906-57.714844 3.921875-22.429687-5.667969-46.078124-4.074219-67.542968 4.558594l-9.375 3.746093c-3.046875 1.21875-5.035156 4.175781-5.023438 7.457031v72c-.003906 2.65625 1.3125 5.140626 3.515625 6.628907 2.199219 1.488281 4.992188 1.789062 7.460938.800781l9.367187-3.75c18.335938-7.390625 38.542969-8.761719 57.710938-3.921875 22.429687 5.664063 46.078125 4.070313 67.542968-4.558594zm-10.976563-12.847656-4.34375 1.734375c-18.339844 7.386719-38.546875 8.757812-57.714844 3.921875-21.863281-5.511719-44.894531-4.128906-65.941406 3.953125v-54.777344l4.34375-1.734375c18.335938-7.382812 38.542969-8.753906 57.710938-3.921875 21.863281 5.511719 44.894531 4.132813 65.945312-3.953125zm0 0"/><path d="m240.003906 56.007812h16v16h-16zm0 0"/><path d="m272.003906 56.007812h16v16h-16zm0 0"/><path d="m352.003906 104.007812h16v16h-16zm0 0"/></svg>