<?xml version="1.0" encoding="UTF-8"?><svg id="Layer_2" xmlns="http://www.w3.org/2000/svg" viewBox="0 0 107.22 102.78"><defs><style>.cls-1{stroke-linecap:round;}.cls-1,.cls-2{fill:none;stroke:#000;stroke-width:2px;}</style></defs><path class="cls-2" d="M24.41,91.36V56.48c0-3.62,1.5-7.09,4.14-9.57l20.63-19.36c2.64-2.48,6.76-2.48,9.4,0l20.63,19.36c2.64,2.48,4.14,5.94,4.14,9.57v34.89H24.41Z"/><path class="cls-1" d="M13.75,91.36V48.53c0-1.88,.78-3.68,2.15-4.96L47.7,13.85c3.48-3.25,8.88-3.25,12.36,0l33.41,31.2"/><path class="cls-2" d="M45.32,63.71h17.11c.7,0,1.27,.58,1.27,1.3v25.07c0,.72-.57,1.3-1.27,1.3h-17.11c-.7,0-1.27-.58-1.27-1.3v-25.07c0-.72,.57-1.3,1.27-1.3Z"/></svg>