<?xml version="1.0" encoding="UTF-8"?><svg id="Layer_2" xmlns="http://www.w3.org/2000/svg" viewBox="0 0 107.22 102.78"><defs><style>.cls-1{fill:#fff;}.cls-2,.cls-3,.cls-4,.cls-5{fill:none;stroke:#000;}.cls-2,.cls-4,.cls-5{stroke-width:2px;}.cls-2,.cls-5{stroke-linejoin:round;}.cls-3{stroke-width:.58px;}.cls-3,.cls-4{stroke-miterlimit:10;}.cls-5{stroke-linecap:round;}</style></defs><g id="Layer_1-2"><g><rect class="cls-1" width="107.22" height="102.78" rx="6.71" ry="6.71"/><g><path class="cls-2" d="M23.03,41.32v10.46c0,3.73,3.03,6.76,6.76,6.76h5.05v-5.11h-6.45c-.42,0-.75-.34-.75-.75v-11.35"/><path class="cls-2" d="M22.38,24.44h-4.29v8.52c0,4.99,4.05,9.03,9.04,9.03h.51c5.93,0,10.74-4.81,10.74-10.74h2.21v1.11c0,5.32,4.31,9.63,9.63,9.63h0c5.32,0,9.63-4.31,9.63-9.63v-7.93H27.13m-4.74,0V11.49h4.74v12.95m-4.74,0h4.74"/><path class="cls-5" d="M48.03,28.18l5.67,5.62"/><path class="cls-5" d="M44.44,28.18l2.93,2.88"/></g><path class="cls-4" d="M49.1,71.17v-1.02c.07-.03,.08-.09,.07-.16,0-.06,.02-.13-.07-.15v-.47c.12-.04,.07-.15,.08-.23,.08-.74,.18-1.47,.33-2.2,1.75-8.23,8.38-14.46,16.72-15.73,.44-.07,.9-.03,1.32-.21h.31c.02,.1,.09,.08,.15,.07,.07,.01,.13,.02,.16-.07h.31c.34,.13,.68,.13,1.02,0h.31c.06,.11,.15,.08,.24,.07,.08,0,.18,.07,.23-.07h.23c.02,.09,.09,.07,.15,.08,.87,.06,1.73,.2,2.59,.38,10.88,2.31,17.86,13.21,15.32,23.78-.23,.94-.48,1.86-.74,2.85-.48-.45-.91-.85-1.34-1.24-2.14-1.97-4.64-2.68-7.5-2.08-.19,.04-.34,.01-.51-.11-.79-.59-1.62-1.13-2.5-1.59-.16-.08-.22-.18-.23-.36-.15-2.04-1.43-3.64-3.4-4.2-1.93-.54-3.86-1.04-5.79-1.56-.68-.18-1.36-.37-2.08-.56,.02,.11,.02,.16,.04,.21,.67,2.48,1.34,4.97,2,7.45,.57,2.14,2.11,3.44,4.3,3.63,.18,.02,.28,.07,.36,.23,.44,.87,.97,1.69,1.55,2.48,.14,.19,.15,.36,.1,.58-.37,1.7-.22,3.36,.45,4.97,.48,1.15,1.25,2.09,2.11,2.97,.26,.26,.5,.54,.76,.82-2.2,.81-4.41,1.26-6.69,1.29-4.78,.06-9.08-1.37-12.8-4.37-4.07-3.28-6.52-7.53-7.35-12.7-.07-.45-.04-.92-.22-1.36v-.47c.12-.08,.09-.16,0-.23v-.23c.12-.16,.12-.31,0-.47Zm17.87-11.87c0,1.18,.98,2.14,2.16,2.13,1.17,0,2.13-.97,2.13-2.15,0-1.18-.97-2.15-2.15-2.15-1.18,0-2.14,.97-2.14,2.16Zm11.51,6.83c1.18,0,2.16-.95,2.17-2.13,0-1.17-.95-2.15-2.12-2.16-1.19-.01-2.17,.94-2.18,2.12,0,1.19,.94,2.16,2.12,2.17Zm-20.89-2.14c0,1.18,.97,2.15,2.15,2.14,1.17,0,2.13-.96,2.14-2.14,0-1.18-.96-2.15-2.14-2.16-1.18,0-2.15,.96-2.15,2.15Zm5.68,15.44c-1.19,0-2.16,.96-2.16,2.14,0,1.18,.95,2.14,2.12,2.15,1.19,.01,2.16-.95,2.17-2.13,0-1.18-.95-2.16-2.13-2.17Zm-8.02-6.06c0,1.18,.97,2.15,2.16,2.14,1.17,0,2.13-.97,2.14-2.14,0-1.18-.96-2.15-2.15-2.15-1.18,0-2.15,.97-2.15,2.15Z"/><g><path class="cls-3" d="M87.18,88.28c0,.55-.33,.81-.86,.73-.46-.07-.87-.25-1.28-.47-1.08-.57-2.05-1.3-3.01-2.06-3.1-2.47-5.8-5.32-8.09-8.55-.28-.39-.51-.81-.77-1.21-.11-.17-.12-.27,.09-.39,.51-.29,.92-.69,1.2-1.2,.15-.27,.27-.25,.5-.1,1.25,.81,2.42,1.73,3.56,2.68,2.47,2.06,4.77,4.3,6.71,6.88,.65,.86,1.25,1.75,1.68,2.75,.14,.32,.25,.65,.26,.94Z"/><path class="cls-3" d="M67.97,69.82c1.26,.34,2.46,.64,3.64,1,.99,.3,1.55,1.24,1.43,2.3-.11,.91-.89,1.68-1.81,1.78-1.04,.11-1.97-.44-2.26-1.43-.35-1.18-.65-2.38-.99-3.64Z"/></g></g></g></svg>