<?xml version="1.0" encoding="UTF-8"?><svg id="Layer_2" xmlns="http://www.w3.org/2000/svg" viewBox="0 0 107.22 102.78"><defs><style>.cls-1{fill:#fff;}.cls-2{stroke-width:1.52px;}.cls-2,.cls-3{fill:none;stroke:#000;stroke-miterlimit:10;}.cls-3{stroke-width:2px;}</style></defs><g id="Layer_1-2"><g><rect class="cls-1" y="0" width="107.22" height="102.78" rx="6.71" ry="6.71"/><g><path class="cls-3" d="M52.3,34.99c-4.49,0-8.99-.01-13.48,.01-.59,0-.77-.11-.76-.74,.05-2.08-.01-4.17,.03-6.25,.01-.63-.13-.91-.78-.99-.86-.11-1.66-.46-2.42-.89-4.36-2.5-4.44-7.96-.13-10.55,2.28-1.38,4.76-1.7,7.35-1.15,.48,.1,.84,.08,1.27-.22,5.34-3.59,12.72-3.58,18.05,.04,.41,.28,.76,.27,1.2,.18,3.08-.62,5.95-.16,8.39,1.91,2.99,2.53,2.85,6.7-.22,9.14-1.04,.82-2.21,1.36-3.51,1.57-.49,.08-.64,.28-.63,.78,.03,2.17,0,4.33,.03,6.5,0,.53-.13,.67-.66,.66-4.58-.02-9.15-.01-13.73-.01Z"/><path class="cls-3" d="M61.48,58.02c-6.65,5.63-11.54,5.65-18.2-.02,0,1.43,0,2.76,0,4.1,0,2.01-.21,2.32-2.1,3.04-2.29,.87-4.59,1.74-6.99,2.64-.01-1.71,.43-3.21,1.55-4.35,1.8-1.83,2.46-3.96,2.37-6.49-.1-2.84-.03-5.69-.01-8.53,0-.45-.1-.69-.54-.93-1.35-.72-2.07-1.89-2.06-3.43,.01-1.54,.75-2.69,2.1-3.4,.42-.22,.49-.46,.49-.87,.01-.72-.33-1.71,.14-2.09,.44-.36,1.39-.11,2.12-.12,2.98,0,5.96,0,8.94,0,.26,0,.52,0,.78,0-2.58,1.25-5.29,1.99-8.09,2.44-.16,.03-.32,.06-.48,.06-.73-.04-.84,.34-.82,.99,.06,2.3-.12,4.62,.1,6.9,.35,3.67,2.4,6.47,5.14,8.81,1.07,.92,2.26,1.66,3.56,2.23,1.73,.76,3.5,.96,5.27,.21,4.6-1.95,7.76-5.21,9.09-10.1,.19-.68,.26-1.38,.26-2.09,0-2.09-.01-4.17,.01-6.26,0-.44-.12-.68-.5-.9-1.11-.64-2.18-1.35-3.32-2.29,2.13,0,4.1,0,6.06,0,.3,0,.37,.14,.35,.39,0,.11,0,.22,0,.32-.08,1.18,0,2.08,1.22,2.94,2.2,1.57,1.74,4.94-.66,6.23-.46,.25-.57,.5-.57,.99,.02,3.14,.03,6.28,0,9.42-.01,1.93,.58,3.61,1.92,5.01,1.27,1.32,1.96,2.89,1.99,4.85-.88-.32-1.7-.62-2.51-.92-1.69-.64-3.38-1.28-5.07-1.93-1.11-.43-1.51-1.03-1.52-2.22,0-1.51,0-3.02,0-4.66Z"/><g><path class="cls-3" d="M66.41,69.12c3.76,1.45,7.48,2.69,11.03,4.31,3.83,1.75,5.72,5,5.86,9.19,.08,2.62,0,5.25,.03,7.88,0,.55-.17,.65-.68,.65-11.7-.01-23.4-.01-35.1,0-.53,0-.67-.14-.66-.66,.02-4.14,.03-8.29,0-12.43,0-.55,.21-.73,.67-.88,5.92-1.96,11.83-3.94,17.76-5.87,.84-.28,1.3-.62,1.09-1.55-.03-.15,0-.32,0-.64Zm-13.97,13.42c.91,0,1.66-.75,1.66-1.66,0-.9-.76-1.65-1.67-1.64-.88,.01-1.61,.74-1.63,1.62-.02,.91,.73,1.67,1.64,1.68Zm12.67-1.66c0-.91-.77-1.65-1.67-1.64-.88,.01-1.61,.74-1.62,1.62-.01,.91,.73,1.67,1.64,1.68,.91,0,1.66-.75,1.66-1.66Zm-12.68,4.58c-.91,0-1.65,.78-1.63,1.69,.02,.88,.75,1.61,1.63,1.61,.91,0,1.66-.74,1.66-1.65,0-.91-.76-1.66-1.67-1.65Zm12.68,1.66c.01-.9-.74-1.66-1.65-1.66-.88,0-1.62,.72-1.65,1.6-.03,.91,.71,1.68,1.62,1.7,.91,.01,1.67-.73,1.68-1.64Z"/><path class="cls-3" d="M40.74,69.22c.23,.47-.07,.61-.44,.73-1.05,.34-2.1,.69-3.15,1.04-1.8,.6-2.84,2.01-2.84,3.9,0,5.17-.01,10.35,.01,15.52,0,.61-.14,.75-.75,.75-3.01-.03-6.01-.03-9.02,0-.54,0-.67-.14-.66-.67,.03-2.55,0-5.09,.01-7.64,.02-4.45,2.49-8.16,6.61-9.79,3.34-1.32,6.71-2.56,10.07-3.83,.05-.02,.1-.01,.16-.02Z"/></g><path class="cls-2" d="M59.03,64.32c0,1.42-.02,2.77,.01,4.11,0,.42-.21,.49-.53,.59-5.22,1.73-10.43,3.49-15.65,5.2-.65,.21-.84,.49-.83,1.17,.03,4.03,0,11.12,.03,15.16,0,.47-.08,.64-.6,.63-1.67-.02-1.68,0-1.68-1.67,0-4.08,0-11.22,0-15.3,0-1.03,.17-1.24,1.15-1.57,2.39-.79,4.77-1.59,7.16-2.39,.19-.06,.42-.06,.57-.32-.95-.32-1.87-.62-2.8-.93-.22-.07-.43-.11-.43-.45,.02-1.39,0-2.77,0-4.22,2.11,.7,4.16,1.37,6.2,2.08,.43,.15,.8,.13,1.21,0,2.02-.69,4.05-1.36,6.17-2.07Z"/><path d="M52.45,55.22c-1,0-1.88-.26-2.7-.74-.34-.2-.49-.37-.13-.68,.03-.02,.05-.05,.07-.08,.21-.26,.37-.62,.65-.75,.3-.15,.57,.24,.87,.34,.99,.33,1.95,.28,2.85-.24,.3-.17,.45-.15,.62,.13,.11,.18,.26,.33,.39,.5q.42,.52-.14,.85c-.78,.45-1.62,.67-2.48,.69Z"/><path d="M45.89,46.15c-.94,0-1.73-.59-1.71-1.29,.02-.69,.79-1.25,1.7-1.25,.92,0,1.68,.58,1.68,1.27,0,.69-.76,1.27-1.68,1.27Z"/><path d="M58.91,46.15c-.94,0-1.73-.59-1.71-1.3,.02-.68,.79-1.25,1.71-1.24,.92,0,1.68,.58,1.68,1.27,0,.69-.76,1.27-1.68,1.27Z"/></g></g></g></svg>