<?xml version="1.0" encoding="UTF-8"?><svg id="Layer_2" xmlns="http://www.w3.org/2000/svg" viewBox="0 0 107.22 102.78"><defs><style>.cls-1{fill:#fff;}.cls-2{fill:none;stroke:#000;stroke-linejoin:round;stroke-width:2px;}</style></defs><g id="Layer_1-2"><g><rect class="cls-1" width="107.22" height="102.78" rx="6.71" ry="6.71"/><g><path class="cls-2" d="M24.45,58.92c-3.33,1.33-9.26,3.77-12.34,5.26v9.2h60.51c2.11-3.58,11.71-10.08,15.08-14.47,5.01-6.54,7.41-8.91,7.41-16.41-4.34,.46-10.31,1.27-17.25,2.47m-53.41,13.94c18.38-7.3,37.19-11.14,53.41-13.94m-53.41,13.94v-8.73m53.41-5.21c-1.48-1.16-4.82-2.83-8.26-4.4m-45.15,9.61v-8.73c1.5-.41,3.67-.92,6.35-1.47m-6.35,10.2c4.57-2.4,17.85-6.86,45.15-9.61m0,0c-2.98-1.36-6.05-2.64-8.04-3.44-3.42-.26-5.85-.65-9.87-.26m-20.89,3.11l-1.37-5.67c-.61-2.52,1.29-4.95,3.88-4.95h.26c1.82,0,3.41,1.23,3.87,2.99l1.6,6.13m-8.24,1.49c2.38-.49,5.16-1,8.24-1.49m0,0c1.46-.23,2.99-.46,4.57-.68m0,0l-.93-3.36c-.72-2.55,1.2-5.07,3.85-5.07h.09c1.81,0,3.4,1.22,3.86,2.97l1.21,4.52m-8.08,.94c2.56-.35,5.27-.67,8.08-.94"/><circle cx="60.93" cy="55.76" r="2.12"/><circle cx="70.2" cy="53.5" r="2.12"/><circle cx="78.52" cy="51.52" r="2.12"/><circle cx="51.49" cy="57.74" r="2.12"/></g></g></g></svg>