<?xml version="1.0" encoding="UTF-8"?><svg id="Layer_2" xmlns="http://www.w3.org/2000/svg" viewBox="0 0 107.22 102.78"><defs><style>.cls-1{fill:#fff;}.cls-2{fill:none;stroke:#000;stroke-miterlimit:10;stroke-width:2px;}</style></defs><g id="Layer_1-2"><g><rect class="cls-1" y="0" width="107.22" height="102.78" rx="6.71" ry="6.71"/><path class="cls-2" d="M94.95,64.75c-1.51,0-3.02-.03-4.52,.05-.01,0-.03,0-.03-.02-1.63-3.02-3.33-6.01-4.96-9.04,0-.01-.02-.02-.03-.02-8.86,.4-17.72,.78-26.58,1.14-.76,.03-.42,.39-.3,.69,2.43,5.91,4.86,11.81,7.29,17.71,1.43,3.48,2.86,6.97,4.3,10.45,.1,.24,.19,.48,.32,.8-2.2,0-4.31,0-6.43,0-.41,0-.52-.33-.7-.58-3.05-4.13-6.12-8.25-9.12-12.41-.05-.07-.13-.1-.21-.1-2.2,.12-4.4,.04-6.61,.07-.63,0-.85-.13-.7-1.12,.17-1.11,.14-2.24,0-3.35-.1-.78,0-1,.56-.99,.88,.03,1.76,0,2.77,0,.03,0,.05-.04,.03-.07-.91-1.27-1.24-1.77-2.69-3.44-1.67-1.92-3.19-3.97-4.43-6.19-.42-.75-.73-1.02-1.39-1-5.31,.13-10.62,.07-15.92-.06-3.18-.08-6.29-.59-9.22-1.9-1.67-.74-3.19-1.73-4.04-3.64-.13-.29-.11-.63,.03-.91,1.28-2.39,3.45-3.36,5.71-4.12,2.46-.83,5-1.19,7.58-1.25,5.51-.12,11.02-.18,16.53-.04,.01,0,.02,0,.03-.02,2.42-3.33,4.87-6.63,7.31-9.94,.15-.21,.29-.43,.52-.76-1.02,0-1.92-.02-2.82,0-.62,.02-.71-.24-.51-1.34,.16-.91,.16-1.84,0-2.74-.22-1.21-.08-1.38,.56-1.38,2.27,.03,4.53-.04,6.8,.06,.01,0,.02,0,.03-.02,3.02-4.16,6.09-8.28,9.12-12.43,.33-.46,.67-.65,1.25-.64,1.93,.04,3.87,.02,5.9,.01,.03,0,.05,.03,.04,.05-1.05,2.55-2.06,5.03-3.08,7.5-2.92,7.09-5.84,14.18-8.76,21.26-.34,.82-.33,.8,.57,.84,8.36,.36,16.71,.7,25.07,1.1,.88,.04,1.37-.17,1.79-.98,1.31-2.51,2.72-4.97,4.08-7.46,.21-.38,.43-.59,.92-.57,1.29,.05,2.57,.02,3.86,.02v.48c-.05,.09-.12,.17-.14,.27-.59,3.37-1.21,6.74-1.76,10.11-.19,1.15-.52,2.27-.27,3.49,.47,2.28,.79,4.58,1.22,6.87,.34,1.82,.5,3.67,1.09,5.44,0,.02,0,.05-.03,.05Z"/></g></g></svg>