<?xml version="1.0" encoding="UTF-8"?><svg id="Layer_2" xmlns="http://www.w3.org/2000/svg" viewBox="0 0 48.43 83.23"><defs><style>.cls-1{fill:none;stroke:#000;stroke-miterlimit:10;stroke-width:2px;}</style></defs><g id="Layer_1-2"><g><path class="cls-1" d="M33.12,44.55c.09,2.18,.05,4.37,.33,6.52,.17,1.31,.86,2.55,1.32,3.82,2.57,7.1,5.15,14.19,7.73,21.29,.96,2.66,.04,4.83-2.44,5.72-2.6,.94-4.95-.16-5.91-2.78-2.76-7.59-5.51-15.18-8.27-22.77-.04-.12-.09-.23-.13-.35-.07-.18-.06-.42-.34-.43-.27,0-.29,.24-.38,.41-1.58,3.04-3.19,6.07-4.73,9.13-1.03,2.04-2.45,3.69-4.29,5.03-3.16,2.3-6.28,4.66-9.41,7-.8,.6-1.65,.96-2.66,.67-.36-.1-.72-.27-.95-.58-.98-1.34-1.8-2.79-1.98-4.46-.14-1.33,.51-2.36,1.58-3.13,2.4-1.72,4.79-3.47,7.21-5.17,1.47-1.04,2.56-2.36,3.28-4.02,.94-2.16,1.92-4.29,2.89-6.43,.12-.27,.24-.53,.23-.85-.26-5.76-.51-11.53-.76-17.29,0-.02-.03-.03-.1-.11-.56,.39-1.14,.76-1.6,1.28-.45,.51-.58,1.12-.43,1.82,.75,3.47,1.48,6.95,2.23,10.43,.41,1.91-.34,2.98-2.29,3.25-1.24,.17-2.4,.11-3.28-.97-.35-.43-.51-.91-.63-1.42-1.06-4.53-2.12-9.07-3.16-13.6-.38-1.64,.08-3.01,1.44-4.05,2.64-2.03,5.29-4.06,7.92-6.11,.76-.59,1.57-.9,2.55-.93,3.81-.14,7.62-.33,11.43-.5,1.49-.07,2.49,.7,2.97,2.33,.9,3.05,1.81,6.09,2.69,9.14,.32,1.12,.99,1.94,1.99,2.52,2.89,1.66,5.77,3.32,8.65,4.99,1.68,.97,2.03,2.27,1.13,3.98-.53,1.01-1.11,1.91-2.4,2.01-.63,.05-1.18-.14-1.72-.42-3-1.56-5.99-3.11-8.99-4.67-.22-.11-.41-.29-.72-.28Z"/><g><g><path d="M16.77,12.25l-.23-1.06-2.11,.84,.17,.76c.76,3.42,3.46,6.12,6.88,6.88l.76,.17,.83-2.1-1.06-.23c-2.63-.56-4.69-2.62-5.25-5.25Z"/><path d="M21.49,2c-3.42,.75-6.13,3.46-6.88,6.88l-.17,.76,2.11,.84,.23-1.06c.56-2.63,2.62-4.7,5.25-5.25l1.06-.22-.83-2.11-.76,.17Z"/><path d="M32.49,10.42l-.07-.65c-.45-3.82-3.28-6.94-7.03-7.77l-.76-.16-.84,2.1,1.06,.23c2.78,.59,4.92,2.86,5.34,5.67l.07,.51,1.19,.48-1.19,.48-.07,.52c-.41,2.8-2.55,5.09-5.33,5.67l-1.07,.23,.84,2.1,.76-.16c3.75-.82,6.58-3.94,7.03-7.76l.07-.65,.02-.42-.02-.41Z"/></g><polygon points="21.87 0 24.99 0 23.43 3.93 21.87 0"/><polygon points="25 21.7 21.88 21.7 23.44 17.77 25 21.7"/><polygon points="12.57 12.41 12.57 9.3 16.49 10.85 12.57 12.41"/><polygon points="23.78 13.47 30.43 10.84 23.78 8.2 25.46 10.84 23.78 13.47"/></g></g></g></svg>