<?xml version="1.0" encoding="UTF-8"?><svg id="Layer_2" xmlns="http://www.w3.org/2000/svg" viewBox="0 0 107.22 102.78"><defs><style>.cls-1{fill:#fff;}.cls-2,.cls-3{fill:none;stroke:#000;stroke-linecap:round;stroke-width:2px;}.cls-3{stroke-linejoin:round;}</style></defs><g id="Layer_1-2"><g><rect class="cls-1" width="107.22" height="102.78" rx="6.71" ry="6.71"/><g><path class="cls-2" d="M32.2,91.13c0-8.1,10.8-8.1,16.2-13.5,2.7-2.7-5.4-2.7-5.4-16.2,0-9,3.6-13.5,10.8-13.5s10.8,4.5,10.8,13.5c0,13.5-8.1,13.5-5.4,16.2,5.4,5.4,16.2,5.4,16.2,13.5"/><path class="cls-3" d="M25.12,91.13V26.7c0-2.93,2.38-5.31,5.31-5.31h46.37c2.93,0,5.31,2.38,5.31,5.31V91.13"/><path class="cls-3" d="M15.69,91.13V17.24c0-2.85,2.38-5.17,5.31-5.17H86.22c2.93,0,5.31,2.31,5.31,5.17V91.13"/></g></g></g></svg>