<?xml version="1.0" encoding="UTF-8"?><svg id="Layer_2" xmlns="http://www.w3.org/2000/svg" viewBox="0 0 107.22 102.78"><defs><style>.cls-1{fill:#fff;}.cls-2,.cls-3,.cls-4{fill:none;stroke:#000;stroke-width:2px;}.cls-2,.cls-4{stroke-linecap:round;}.cls-4{stroke-linejoin:round;}</style></defs><g id="Layer_1-2"><g><rect class="cls-1" y="0" width="107.22" height="102.78" rx="6.71" ry="6.71"/><g><path class="cls-4" d="M71.02,47.04l20.26-4.22c1.71-.54,3.44,.73,3.44,2.51v19.72c0,1.78-1.73,3.05-3.44,2.51l-20.25-4.22"/><path class="cls-4" d="M71.02,39.27c0-1.46-1.18-2.64-2.64-2.64H14.83c-1.45,0-2.64,1.18-2.64,2.64v31.79c0,1.46,1.19,2.64,2.64,2.64h53.55c1.46,0,2.64-1.18,2.64-2.64v-31.79Z"/><line class="cls-3" x1="86.74" y1="43.76" x2="86.74" y2="66.28"/><path class="cls-2" d="M48.49,29.08h15.67c.96,0,1.74,.78,1.74,1.74v5.82h-19.14v-5.82c0-.96,.78-1.74,1.74-1.74Z"/><rect x="17.63" y="41.8" width="15.38" height="1.78" rx=".89" ry=".89"/></g></g></g></svg>