<?xml version="1.0" encoding="UTF-8"?><svg id="Layer_2" xmlns="http://www.w3.org/2000/svg" viewBox="0 0 107.22 102.78"><defs><style>.cls-1{fill:#fff;}.cls-2,.cls-3{fill:none;stroke:#000;stroke-width:2px;}.cls-3{stroke-linecap:round;stroke-linejoin:round;}</style></defs><g id="Layer_1-2"><g><rect class="cls-1" width="107.22" height="102.78" rx="6.71" ry="6.71"/><g><path class="cls-3" d="M33.01,31.19c1.51,0,2.92-.75,3.76-2l2.02-2.98c1.68-2.5,4.52-4,7.57-4h14.5c3.04,0,5.88,1.5,7.57,4l2,2.97c.84,1.25,2.26,2,3.77,2h15.77c2.51,0,4.54,2.03,4.54,4.54v40.29c0,2.51-2.03,4.54-4.54,4.54H17.25c-2.51,0-4.54-2.03-4.54-4.54V35.73c0-2.51,2.03-4.54,4.54-4.54h15.76Z"/><line class="cls-2" x1="71.52" y1="45.88" x2="94.51" y2="45.88"/><line class="cls-2" x1="35.7" y1="45.88" x2="12.71" y2="45.88"/><path class="cls-2" d="M53.6,66c6.92,0,12.52-5.54,12.52-12.36s-5.6-12.36-12.52-12.36-12.51,5.54-12.51,12.36,5.6,12.36,12.51,12.36Z"/><path class="cls-2" d="M53.6,72.94c10.81,0,19.56-8.65,19.56-19.31s-8.75-19.31-19.56-19.31-19.54,8.65-19.54,19.31,8.75,19.31,19.54,19.31Z"/></g></g></g></svg>