<?xml version="1.0" encoding="UTF-8"?><svg id="Layer_2" xmlns="http://www.w3.org/2000/svg" viewBox="0 0 107.22 102.78"><defs><style>.cls-1{stroke-width:.25px;}.cls-1,.cls-2,.cls-3,.cls-4{fill:none;stroke:#000;stroke-miterlimit:10;}.cls-5{fill:#fff;}.cls-2{stroke-linecap:round;}.cls-2,.cls-3{stroke-width:1.02px;}.cls-4{stroke-width:2px;}</style></defs><g id="Layer_1-2"><g><rect class="cls-5" width="107.22" height="102.78" rx="6.71" ry="6.71"/><g><path class="cls-4" d="M28.7,11.52h49.41c1.83,0,3.32,1.49,3.32,3.32v11.32H25.38V14.84c0-1.83,1.49-3.32,3.32-3.32Z"/><path class="cls-4" d="M20.15,48.58H86.66v39.16c0,1.88-1.52,3.4-3.4,3.4H23.54c-1.88,0-3.4-1.52-3.4-3.4V48.58h0Z"/><path class="cls-3" d="M64.35,83.84h17.44c.47,0,.86,.38,.86,.86v1.84h-19.15v-1.84c0-.47,.38-.86,.86-.86Z"/><path class="cls-3" d="M60.99,86.79h24.4c.7,0,1.26,.57,1.26,1.26h0c0,1.6-1.3,2.91-2.91,2.91h-24.03v-2.91c0-.7,.57-1.26,1.26-1.26Z"/><rect class="cls-3" x="25.8" y="59.78" width="30.97" height="22.44" rx="4.16" ry="4.16"/><path class="cls-3" d="M70.37,59.46h5.65c2.56,0,4.64,2.08,4.64,4.64v19.23h-14.92v-19.23c0-2.56,2.08-4.64,4.64-4.64Z"/><path class="cls-4" d="M86.58,48.58H20.64c-2.48,0-4.14-2.56-3.13-4.82l7.87-17.6h56.05l8.25,17.54c1.07,2.27-.59,4.88-3.1,4.88Z"/><path class="cls-4" d="M63.44,48.62s8.09,.23,8.65-4.75l-3.16-17.72"/><path class="cls-4" d="M81.71,48.58s-8.19,.5-9.62-4.42"/><path class="cls-4" d="M44.15,48.7c.28-.56,8.97,1,9.42-3.77l.44-19.24"/><path class="cls-4" d="M62.16,48.55s-8.08,.89-8.55-4.21"/><path class="cls-4" d="M25.8,48.6s7.63,.78,9.31-3.44l5.16-19.01"/><path class="cls-4" d="M44.71,48.57s-10.44,1.47-9.35-4.74"/><line class="cls-3" x1="65.87" y1="66.35" x2="80.65" y2="66.35"/><circle class="cls-1" cx="68.45" cy="75.24" r=".73"/><line class="cls-2" x1="38.64" y1="66.91" x2="31.45" y2="74.1"/><line class="cls-2" x1="47.46" y1="64.95" x2="36.34" y2="76.07"/></g></g></g></svg>