<?xml version="1.0" encoding="UTF-8"?><svg id="Layer_2" xmlns="http://www.w3.org/2000/svg" viewBox="0 0 107.22 102.78"><defs><style>.cls-1{fill:#fff;}.cls-2{fill:none;stroke:#000;stroke-miterlimit:10;stroke-width:2px;}</style></defs><g id="Layer_1-2"><g><rect class="cls-1" width="107.22" height="102.78" rx="6.71" ry="6.71"/><g><path class="cls-2" d="M42.84,90.7c-5.28,0-10.57,0-15.85,0-2.91,0-4.02-.82-4.84-3.61-2.58-8.79-5.16-17.57-7.73-26.36-.9-3.07,.86-5.42,4.06-5.42,10.81,0,21.63,0,32.44,0,2.35,0,3.73,1.03,4.39,3.28,2.62,8.93,5.24,17.87,7.84,26.81,.86,2.97-.9,5.29-4,5.3-5.44,.01-10.88,0-16.31,0Z"/><path class="cls-2" d="M93,76.14c-1.53-.94-3.07-1.19-4.7-1.16-2.89,.04-5.78,0-8.66,.03-.59,0-.77-.13-.76-.75,.04-2.52,.02-5.04,.01-7.56,0-1.15-.46-1.77-1.34-1.89-1.06-.15-1.8,.55-1.81,1.79-.02,2.46-.04,4.92,.01,7.37,.02,.82-.18,1.09-1.03,1.05-1.41-.07-2.84-.12-4.23,.05-2.66,.33-4.53,1.86-5.75,4.47-.64-2.16-1.22-4.13-1.8-6.1-1.55-5.29-3.09-10.58-4.65-15.87-1.01-3.44-3.63-5.4-7.22-5.41-4.05,0-8.11,0-12.16,0-.29,0-.6,.09-.95-.11,1.92-2.29,4.24-3.99,6.91-5.22,1.11-.51,2.28-.89,3.47-1.19,.42-.1,.65-.06,.93,.3,3.95,5.1,9.16,7.47,15.58,6.91,5-.43,9.02-2.78,12.08-6.74,.36-.46,.65-.57,1.2-.44,8.2,1.92,14.61,9.6,14.85,18.01,.12,4.11,.02,8.22,.02,12.46Z"/><path class="cls-2" d="M61.05,31.71c-5.28,0-10.56,.02-15.84,0-2.38-.01-3.93-2.18-3.07-4.27,.54-1.32,1.6-1.96,3.02-2.01,.73-.03,1.7,.32,2.12-.13,.47-.49,.13-1.46,.14-2.22,.02-2.3,0-4.61,.01-6.91,.01-2.42,1.61-4.07,4.02-4.07,7.8-.02,15.6-.02,23.4,0,2.33,0,3.98,1.56,4.01,3.9,.06,4.67,.04,9.33,.01,14,0,1.21-.6,1.72-1.89,1.72-5.31,0-10.62,0-15.94,0Z"/><path class="cls-2" d="M63.12,34.86c4.42,0,8.85,.02,13.27-.02,.8,0,.95,.23,.94,.98-.07,7.05-5.64,13.26-12.51,13.91-7.56,.71-14.18-4.13-15.54-11.35-.17-.88-.21-1.77-.29-2.65-.06-.68,.16-.89,.87-.88,4.42,.03,8.85,.02,13.27,.02Z"/><path class="cls-2" d="M67.56,81.27c.76-2.19,2.05-3.14,4.2-3.14,5.65,0,11.31,0,16.96,0,2.75,0,4.32,1.6,4.31,4.36,0,4.84-3.3,8.17-8.12,8.21-1.07,0-2.15,0-3.33,0,.54-1.04,.99-2.02,1.16-3.11,.54-3.4-1.81-6.28-5.25-6.31-3.29-.03-6.57,0-9.94,0Z"/><path class="cls-2" d="M65.41,90.67c1.13-1.89,1.33-3.79,.86-5.78-.08-.34,0-.49,.39-.49,3.68,.01,7.36-.02,11.04,.04,1.2,.02,2.01,1.03,1.99,2.22-.04,2.03-1.72,3.93-3.73,3.98-3.46,.09-6.92,.02-10.54,.02Z"/></g></g></g></svg>