<?xml version="1.0" encoding="UTF-8"?><svg id="Layer_2" xmlns="http://www.w3.org/2000/svg" viewBox="0 0 107.22 102.78"><defs><style>.cls-1{fill:#fff;}.cls-2,.cls-3{fill:none;stroke:#000;stroke-width:2px;}.cls-3{stroke-linecap:round;stroke-linejoin:round;}</style></defs><g id="Layer_1-2"><g><rect class="cls-1" width="107.22" height="102.78" rx="6.71" ry="6.71"/><g><path class="cls-2" d="M93.03,51.39h-14.7c-1.56,0-2.83,1.27-2.83,2.83v20.62c0,1.56,1.27,2.83,2.83,2.83h11.87c1.56,0,2.83-1.27,2.83-2.83v-23.45c0-21.77-17.66-39.42-39.43-39.42S14.19,29.62,14.19,51.39v23.45c0,1.56,1.27,2.83,2.83,2.83h11.86c1.57,0,2.83-1.27,2.83-2.83v-20.62c0-1.56-1.26-2.83-2.83-2.83H14.19"/><path class="cls-3" d="M93.02,60.15v17.52s0,13.14-8.75,13.14h-21.9"/></g></g></g></svg>