<?xml version="1.0" encoding="UTF-8"?><svg id="Layer_2" xmlns="http://www.w3.org/2000/svg" viewBox="0 0 107.22 102.78"><defs><style>.cls-1{fill:#fff;}.cls-2{stroke-linecap:round;}.cls-2,.cls-3{fill:none;stroke:#000;stroke-miterlimit:10;stroke-width:2px;}</style></defs><g id="Layer_1-2"><g><rect class="cls-1" width="107.22" height="102.78" rx="6.71" ry="6.71"/><g><circle class="cls-3" cx="35.7" cy="23.65" r="11.94"/><circle class="cls-3" cx="71.68" cy="23.65" r="11.94"/><circle class="cls-3" cx="53.53" cy="51.09" r="11.94"/><path class="cls-2" d="M94.06,67.03v-12.02c0-5.59-4.53-10.13-10.13-10.13h-13.64"/><path class="cls-2" d="M36.91,44.88h-13.8c-5.5,0-9.95,4.46-9.95,9.95v12.2"/><line class="cls-2" x1="83.46" y1="57.09" x2="83.46" y2="67.03"/><line class="cls-2" x1="23.76" y1="57.09" x2="23.76" y2="67.03"/><line class="cls-2" x1="41.69" y1="81.69" x2="41.69" y2="91.63"/><line class="cls-2" x1="65.56" y1="81.69" x2="65.56" y2="91.63"/><path class="cls-3" d="M31.26,92.46v-12.27c0-5.64,4.57-10.21,10.21-10.21h24.41c5.64,0,10.21,4.57,10.21,10.21v12.27"/></g></g></g></svg>