<?xml version="1.0" encoding="UTF-8"?><svg id="Layer_2" xmlns="http://www.w3.org/2000/svg" viewBox="0 0 107.22 102.78"><defs><style>.cls-1{fill:#fff;}.cls-2{fill:none;stroke:#000;stroke-linejoin:round;stroke-width:2px;}</style></defs><g id="Layer_1-2"><g><rect class="cls-1" width="107.22" height="102.78" rx="6.71" ry="6.71"/><g><path class="cls-2" d="M51.25,30.84h.42c.18,.17,.39,.06,.59,.07h1.77c.17-.02,.36,.1,.5-.07h.67c.03,.12,.13,.08,.21,.08,.9,.04,1.79,.11,2.68,.26,1.34,.23,2.65,.53,3.74,1.39,2.06,1.62,3.95,3.41,5.7,5.36,1.65,1.83,3.12,3.79,4.72,5.66,1.39,1.62,2.94,3.01,5.05,3.64,2.74,.81,5.51,1.5,8.31,2.07,1.76,.36,3.53,.64,5.25,1.17,1.58,.48,2.65,1.48,3.14,3.06,.18,.59,.32,1.19,.44,1.79,.45,2.23,.68,4.47,.21,6.72-.46,2.17-1.5,3.95-3.51,5.03-1.53,.82-3.15,1.06-4.85,.64-.29-.07-.45-.19-.42-.54,.04-.46-.01-.92-.06-1.39-.43-4.32-3.14-7.44-7.37-8.37-2.34-.51-4.64-.31-6.68,1.04-3.09,2.03-4.51,5-4.6,8.64-.01,.39-.11,.47-.48,.47-8.68-.01-17.36,0-26.04,0-1.25,0-2.5,0-3.75,0-.24,0-.34-.03-.35-.31-.01-.83-.14-1.65-.33-2.46-1.13-4.95-5.18-8.17-10.2-7.6-3.02,.35-5.38,1.76-6.95,4.38-1.05,1.74-1.5,3.67-1.63,5.68-.02,.29-.08,.36-.36,.27-.64-.2-1.28-.4-1.9-.66-1.2-.51-2.12-1.3-2.51-2.6-.2-.68-.34-1.37-.35-2.07-.03-2.95-.07-5.89,.07-8.84,.02-.45,.11-.88,.29-1.3,1.1-2.55,2.99-4.33,5.44-5.56,.28-.14,.53-.3,.74-.54,1.37-1.55,2.83-3,4.38-4.37,4.38-3.86,9.32-6.73,14.89-8.5,3.75-1.19,7.59-1.86,11.51-2.11,.53-.03,1.08,.04,1.59-.15Z"/><path class="cls-2" d="M58.52,45.67c2.26,0,4.52,0,6.79,0,.43,0,.61-.22,.54-.65-.06-.35-.25-.63-.5-.89-2.23-2.28-4.52-4.51-6.78-6.76-.19-.19-.42-.32-.67-.4-.54-.17-1.11-.21-1.67-.21-1.58,0-3.12,.26-4.66,.56-.2,.04-.18,.16-.18,.3,0,2.6,0,5.19,0,7.79,0,.22,.06,.27,.27,.27,2.29,0,4.58,0,6.87,0Z"/><path class="cls-2" d="M35.11,45.59s.19-.02,.19,0c1.36,0,2.52,.08,3.87,.08,.36,0,.59-.22,.59-.58,0-1.95,0-3.91,0-5.86,0-.03,0-.06,0-.09,0-.1-.03-.12-.12-.1-.26,.06-.52,.11-.78,.18-2.13,.59-4.06,1.59-5.84,2.89-.88,.64-1.7,1.35-2.47,2.12-.25,.25-.3,.6-.15,.96,.13,.3,.35,.4,.67,.4,1.35,0,2.69,0,4.04,0Z"/><path class="cls-2" d="M76.54,71.94c-2.97,0-5.37-2.4-5.37-5.36,0-2.96,2.41-5.36,5.38-5.36,2.95,0,5.35,2.4,5.35,5.35,0,2.97-2.39,5.37-5.36,5.37Z"/><path d="M79.24,66.59c0-1.49-1.21-2.72-2.7-2.72-1.5,0-2.71,1.21-2.71,2.7,0,1.49,1.21,2.71,2.7,2.72,1.49,0,2.71-1.21,2.72-2.7Z"/><path class="cls-2" d="M26.88,71.94c-2.97,0-5.37-2.4-5.37-5.36,0-2.96,2.41-5.36,5.38-5.36,2.95,0,5.35,2.4,5.35,5.35,0,2.97-2.39,5.37-5.36,5.37Z"/><path d="M29.58,66.59c0-1.49-1.21-2.72-2.7-2.72-1.5,0-2.71,1.21-2.71,2.7,0,1.49,1.21,2.71,2.7,2.72,1.49,0,2.71-1.21,2.72-2.7Z"/></g></g></g></svg>