<?xml version="1.0" encoding="UTF-8"?><svg id="Layer_2" xmlns="http://www.w3.org/2000/svg" viewBox="0 0 107.22 102.78"><defs><style>.cls-1{fill:#fff;}.cls-2,.cls-3{fill:none;stroke:#000;stroke-width:2px;}.cls-3{stroke-linecap:round;stroke-linejoin:round;}</style></defs><g id="Layer_1-2"><g><rect class="cls-1" y="0" width="107.22" height="102.78" rx="6.71" ry="6.71"/><g><path class="cls-3" d="M73.85,24.19l7.39,5.64,12.93-16.86"/><path class="cls-3" d="M19.92,85.78h0c0-4.25,3.45-7.7,7.69-7.7h1.3c4.25,0,7.69,3.45,7.69,7.7h0"/><circle class="cls-2" cx="28.22" cy="70.86" r="3.29"/><g><path d="M28.81,49.87h2.33l3.57-9.95h-2.16l-2.52,7.32-2.49-7.32h-2.29l3.55,9.95Z"/><path d="M35.74,49.87h2.09v-9.95h-2.09v9.95Z"/><path d="M39.34,47.17c.28,1.82,1.72,2.84,3.94,2.84s3.77-1.29,3.77-2.97c0-4.01-5.45-2.4-5.45-4.35,0-.67,.61-1.11,1.51-1.11s1.61,.41,1.78,1.44l2.08-.41c-.34-1.86-1.68-2.83-3.85-2.83s-3.68,1.29-3.68,2.97c0,3.98,5.46,2.42,5.46,4.34,0,.68-.64,1.11-1.61,1.11s-1.69-.41-1.86-1.42l-2.08,.4Z"/><path d="M47.64,49.87h2.12l.78-2.36h3.53l.8,2.36h2.23l-3.55-9.95h-2.33l-3.57,9.95Zm4.68-7.62l1.15,3.44h-2.32l1.17-3.44Z"/></g><rect class="cls-3" x="12.12" y="32.58" width="58.1" height="58.1" rx="4.89" ry="4.89"/><line class="cls-3" x1="12.12" y1="55.81" x2="70.22" y2="55.81"/></g></g></g></svg>