<svg id="Capa_1" enable-background="new 0 0 512 512" height="512" viewBox="0 0 512 512" width="512" xmlns="http://www.w3.org/2000/svg"><g><path d="m115.377 274.616c4.354-7.328 6.679-15.716 6.679-24.434 0-26.452-21.52-47.972-47.972-47.972s-47.972 21.52-47.972 47.972c0 8.803 2.365 17.259 6.792 24.63-21.32 8.757-32.904 24.635-32.904 45.538v12.186c0 4.15 3.365 7.515 7.515 7.515s7.515-3.365 7.515-7.515v-12.186c0-17.143 10.833-28.759 32.197-34.525 2.58-.697 4.596-2.711 5.295-5.29s-.024-5.336-1.9-7.239c-6.112-6.204-9.478-14.412-9.478-23.114 0-18.164 14.778-32.942 32.942-32.942s32.942 14.778 32.942 32.942c0 8.645-3.331 16.818-9.381 23.01-1.868 1.912-2.579 4.674-1.868 7.251s2.739 4.582 5.323 5.265c21.65 5.722 32.627 17.377 32.627 34.641v53.872c0 4.799-3.904 8.703-8.703 8.703s-8.703-3.904-8.703-8.703v-26.656-21.996c0-4.15-3.365-7.515-7.515-7.515s-7.515 3.365-7.515 7.515v14.481h-53.828v-14.481c0-4.15-3.365-7.515-7.515-7.515s-7.515 3.365-7.515 7.515v21.996 26.656c0 4.799-3.904 8.703-8.703 8.703s-8.703-3.904-8.703-8.703v-11.627c0-4.15-3.365-7.515-7.515-7.515s-7.514 3.366-7.514 7.516v11.627c0 13.086 10.646 23.732 23.732 23.732 3.071 0 6.007-.586 8.703-1.653v50.742c0 13.635 11.094 24.729 24.729 24.729 6.685 0 12.759-2.666 17.215-6.992 4.455 4.326 10.529 6.992 17.214 6.992 13.636 0 24.729-11.094 24.729-24.729v-50.742c2.696 1.066 5.632 1.653 8.703 1.653 13.086 0 23.732-10.646 23.732-23.732v-53.872c.001-21.07-11.752-37.018-33.38-45.734zm-14.083 80.464v11.678c-11.811 12.16-22.709 17.659-26.914 17.659-4.206 0-15.105-5.5-26.914-17.659v-11.678zm-44.13 101.664c-5.348 0-9.7-4.351-9.7-9.7v-60.05c5.704 4.565 12.577 9.086 19.4 11.204v48.846c.001 5.348-4.351 9.7-9.7 9.7zm34.429 0c-5.348 0-9.7-4.351-9.7-9.7v-48.846c6.823-2.118 13.696-6.639 19.4-11.204v60.05c.001 5.348-4.351 9.7-9.7 9.7z"/><path d="m293.124 191.976c5.048-8.162 7.75-17.583 7.75-27.389 0-28.793-23.425-52.219-52.219-52.219s-52.219 23.425-52.219 52.219c0 9.897 2.747 19.392 7.876 27.598-23.791 9.479-36.73 26.912-36.73 49.935v95.598c0 14.025 11.41 25.434 25.435 25.434 3.705 0 7.228-.796 10.406-2.227v84.311c0 14.632 11.904 26.536 26.536 26.536 7.452 0 14.197-3.088 19.021-8.051 4.825 4.963 11.57 8.051 19.022 8.051 14.632 0 26.536-11.904 26.536-26.536v-25.749c0-4.15-3.364-7.515-7.515-7.515-4.15 0-7.515 3.364-7.515 7.515v25.749c0 6.345-5.162 11.507-11.507 11.507s-11.507-5.162-11.507-11.507v-105.986c0-4.15-3.365-7.515-7.515-7.515s-7.515 3.365-7.515 7.515v105.986c0 6.345-5.162 11.507-11.507 11.507s-11.507-5.162-11.507-11.507v-197.35c0-4.15-3.364-7.515-7.515-7.515-4.15 0-7.515 3.365-7.515 7.515v89.831c0 5.737-4.668 10.405-10.406 10.405s-10.406-4.668-10.406-10.405v-95.597c0-19.344 12.166-32.436 36.16-38.91 2.58-.697 4.596-2.71 5.295-5.29.699-2.579-.024-5.336-1.9-7.239-6.901-7.004-10.701-16.271-10.701-26.094 0-20.506 16.683-37.189 37.189-37.189s37.189 16.683 37.189 37.189c0 9.76-3.761 18.985-10.59 25.977-1.868 1.913-2.58 4.674-1.868 7.251s2.739 4.582 5.324 5.265c24.312 6.425 36.639 19.559 36.639 39.04v95.598c0 5.737-4.668 10.405-10.406 10.405s-10.406-4.668-10.406-10.405v-89.831c0-4.15-3.364-7.515-7.515-7.515-4.15 0-7.515 3.365-7.515 7.515v141.542c0 4.15 3.365 7.515 7.515 7.515s7.515-3.364 7.515-7.515v-28.503c3.178 1.43 6.701 2.227 10.406 2.227 14.025 0 25.435-11.41 25.435-25.434v-95.599c.005-23.204-13.123-40.712-37.25-50.144z"/><path d="m474.745 119.835c5.048-8.162 7.75-17.583 7.75-27.389 0-28.794-23.425-52.219-52.219-52.219-28.793 0-52.218 23.425-52.218 52.219 0 9.897 2.747 19.392 7.876 27.598-23.791 9.479-36.73 26.912-36.73 49.935v44.908c0 4.15 3.364 7.515 7.515 7.515s7.515-3.365 7.515-7.515v-44.908c0-19.344 12.166-32.436 36.16-38.91 2.58-.697 4.596-2.71 5.295-5.29.699-2.579-.025-5.336-1.9-7.239-6.9-7.004-10.701-16.271-10.701-26.094 0-20.506 16.683-37.189 37.189-37.189s37.189 16.683 37.189 37.189c0 9.76-3.761 18.985-10.59 25.977-1.868 1.913-2.579 4.674-1.868 7.251.712 2.577 2.739 4.582 5.324 5.265 24.312 6.425 36.639 19.559 36.639 39.04v131.669c0 5.737-4.668 10.405-10.406 10.405-5.737 0-10.405-4.668-10.405-10.405v-125.902c0-4.15-3.365-7.515-7.515-7.515s-7.515 3.365-7.515 7.515v269.491c0 6.345-5.162 11.507-11.507 11.507s-11.507-5.162-11.507-11.507v-142.057c0-4.15-3.364-7.515-7.515-7.515s-7.515 3.364-7.515 7.515v142.057c0 6.345-5.162 11.507-11.507 11.507s-11.507-5.162-11.507-11.507v-269.491c0-4.15-3.365-7.515-7.515-7.515s-7.515 3.365-7.515 7.515v125.902c0 5.737-4.668 10.405-10.405 10.405-5.738 0-10.406-4.668-10.406-10.405v-56.702c0-4.15-3.364-7.515-7.515-7.515s-7.515 3.365-7.515 7.515v56.702c0 14.025 11.41 25.435 25.435 25.435 3.705 0 7.228-.797 10.405-2.227v120.381c0 14.632 11.904 26.536 26.536 26.536 7.453 0 14.197-3.088 19.022-8.051 4.825 4.964 11.569 8.051 19.022 8.051 14.632 0 26.536-11.904 26.536-26.536v-120.381c3.178 1.43 6.701 2.227 10.406 2.227 14.024 0 25.434-11.41 25.434-25.435v-131.669c.003-23.204-13.125-40.712-37.252-50.144z"/></g></svg>