<svg id="Capa_1" enable-background="new 0 0 448 448" height="512" viewBox="0 0 448 448" width="512" xmlns="http://www.w3.org/2000/svg"><g><g transform="translate(-232 -232)"><path clip-rule="evenodd" d="m274.667 285.333v-21.333c0-17.675 14.325-32 32-32h341.333c17.675 0 32 14.325 32 32v341.333c0 17.675-14.325 32-32 32h-21.333v10.667c0 17.675-14.325 32-32 32h-330.667c-17.675 0-32-14.325-32-32v-330.667c0-17.675 14.325-32 32-32zm138.762 301.526 38.304 71.808h135.968l-100.448-191.766zm-130.592 71.808h144.715l-68.096-127.691zm311.83-352h-330.667c-5.888 0-10.667 4.779-10.667 10.667v330.666c0 3.989 2.197 7.477 5.44 9.301l92.085-153.451c1.973-3.296 5.568-5.28 9.408-5.184s7.339 2.261 9.141 5.643l32.395 60.736 77.109-125.301c2.016-3.264 5.621-5.205 9.461-5.067 3.829.128 7.296 2.304 9.077 5.707l107.883 205.963v-329.014c.001-5.888-4.777-10.666-10.665-10.666zm32 309.333h21.333c5.888 0 10.667-4.779 10.667-10.667v-341.333c0-5.888-4.779-10.667-10.667-10.667h-341.333c-5.888 0-10.667 4.779-10.667 10.667v21.333h298.667c17.675 0 32 14.325 32 32zm-245.334-234.667c-23.552 0-42.667 19.115-42.667 42.667s19.115 42.667 42.667 42.667 42.667-19.115 42.667-42.667-19.115-42.667-42.667-42.667zm0 21.334c11.776 0 21.333 9.557 21.333 21.333s-9.557 21.333-21.333 21.333-21.333-9.557-21.333-21.333 9.557-21.333 21.333-21.333z" fill-rule="evenodd"/></g></g></svg>