<?xml version="1.0"?>
<svg xmlns="http://www.w3.org/2000/svg" viewBox="0 0 64 64" width="512" height="512"><g id="Layer_2" data-name="Layer 2"><path d="M56.48,28.9l-3.443-.573a2.99,2.99,0,0,1-2.111-1.471l-4.755-8.32A9.019,9.019,0,0,0,38.357,14H21.643a9.019,9.019,0,0,0-7.814,4.535l-4.85,8.487A3.016,3.016,0,0,1,7.1,28.444l-3.314.828A4.985,4.985,0,0,0,.245,32.6c-.011.026-.012.057-.021.084A4.98,4.98,0,0,0,0,34.123V41a5.006,5.006,0,0,0,5,5H8.685a6.985,6.985,0,0,0,12.63,0h21.37a6.985,6.985,0,0,0,12.63,0H59a5.006,5.006,0,0,0,5-5V37.777A8.973,8.973,0,0,0,56.48,28.9ZM60.894,34a6.976,6.976,0,0,1,.877,2H61a3.01,3.01,0,0,1-2.118-.872A3.057,3.057,0,0,1,58.172,34ZM2.01,34H3.719l-.5,2H2V34.123C2,34.081,2.009,34.041,2.01,34ZM15,48a5,5,0,1,1,5-5A5.006,5.006,0,0,1,15,48Zm34,0a5,5,0,1,1,5-5A5.006,5.006,0,0,1,49,48Zm10-4H55.92a7,7,0,1,0-13.84,0H21.92A7,7,0,1,0,8.08,44H5a3,3,0,0,1-3-3V38H4a1,1,0,0,0,.97-.757l1-4A1,1,0,0,0,5,32H2.889a2.983,2.983,0,0,1,1.383-.787l3.315-.829a5.026,5.026,0,0,0,3.128-2.37l4.85-8.487A7.016,7.016,0,0,1,21.643,16H38.357a7.016,7.016,0,0,1,6.078,3.527l4.754,8.32A4.98,4.98,0,0,0,52.708,30.3l3.443.574A7.013,7.013,0,0,1,58.959,32H57a1,1,0,0,0-1,1,4.995,4.995,0,0,0,5,5h1v3A3,3,0,0,1,59,44Z"/><path d="M45.458,23.485a1,1,0,0,0-1.715,1.03L45.234,27H33V19h5.735a3.015,3.015,0,0,1,2.573,1.457l.634,1.058a1,1,0,0,0,1.715-1.03l-.635-1.058A5.023,5.023,0,0,0,38.735,17H32a1,1,0,0,0-1,1V28a1,1,0,0,0,1,1H47a1,1,0,0,0,.857-1.515Z"/><path d="M28,17H21.265a5.023,5.023,0,0,0-4.287,2.427l-4.835,8.058A1,1,0,0,0,13,29H28a1,1,0,0,0,1-1V18A1,1,0,0,0,28,17ZM27,27H14.766l3.926-6.543A3.015,3.015,0,0,1,21.265,19H27Z"/><path d="M34,30H32a1,1,0,0,0,0,2h2a1,1,0,0,0,0-2Z"/><path d="M15,30H13a1,1,0,0,0,0,2h2a1,1,0,0,0,0-2Z"/><path d="M49,40a3,3,0,1,0,3,3A3,3,0,0,0,49,40Zm0,4a1,1,0,1,1,1-1A1,1,0,0,1,49,44Z"/><path d="M15,40a3,3,0,1,0,3,3A3,3,0,0,0,15,40Zm0,4a1,1,0,1,1,1-1A1,1,0,0,1,15,44Z"/></g></svg>
