<svg height="627pt" viewBox="-19 -55 627.99989 627" width="627pt" xmlns="http://www.w3.org/2000/svg"><path d="m527.566406 30.59375h-55.566406v-21.226562c0-6.207032-5.035156-11.238282-11.238281-11.238282-6.207031 0-11.238281 5.03125-11.238281 11.238282v21.226562h-189.800782v-21.226562c0-6.207032-5.03125-11.238282-11.238281-11.238282-6.203125 0-11.234375 5.03125-11.234375 11.238282v21.226562h-59.3125c-33.777344.039062-61.148438 27.40625-61.1875 61.183594v187.300781c0 6.207031 5.035156 11.238281 11.238281 11.238281 6.207031 0 11.238281-5.03125 11.238281-11.238281v-73.671875h427.046876v248.488281c-.023438 21.367188-17.339844 38.683594-38.707032 38.707031h-349.628906c-21.371094-.023437-38.6875-17.339843-38.710938-38.707031v-64.933593c0-6.203126-5.03125-11.238282-11.238281-11.238282-6.203125 0-11.238281 5.035156-11.238281 11.238282v64.933593c.039062 33.777344 27.410156 61.144531 61.1875 61.183594h349.628906c33.777344-.039063 61.144532-27.40625 61.183594-61.183594v-362.117187c-.039062-33.777344-27.40625-61.144532-61.183594-61.183594zm-388.339844 152.335938v-91.152344c.023438-21.367188 17.339844-38.683594 38.710938-38.707032h59.3125v30.511719c-16.925781 5.527344-27.320312 22.53125-24.527344 40.113281 2.800782 17.582032 17.960938 30.519532 35.761719 30.519532 17.804687 0 32.964844-12.9375 35.765625-30.519532 2.792969-17.582031-7.601562-34.585937-24.527344-40.113281v-30.511719h189.800782v30.511719c-16.925782 5.527344-27.320313 22.53125-24.527344 40.113281 2.800781 17.582032 17.960937 30.519532 35.765625 30.519532 17.800781 0 32.960937-12.9375 35.761719-30.519532 2.796874-17.582031-7.597657-34.585937-24.523438-40.113281v-30.511719h55.566406c21.367188.023438 38.683594 17.339844 38.707032 38.707032v91.152344zm109.257813-78.664063c7.585937 0 13.738281 6.148437 13.738281 13.734375s-6.152344 13.734375-13.738281 13.734375c-7.582031 0-13.734375-6.148437-13.734375-13.734375.011719-7.578125 6.15625-13.726562 13.734375-13.734375zm212.277344 0c7.582031 0 13.734375 6.148437 13.734375 13.734375s-6.152344 13.734375-13.734375 13.734375c-7.585938 0-13.738281-6.148437-13.738281-13.734375.011718-7.578125 6.15625-13.726562 13.738281-13.734375zm0 0"/><path d="m38.367188 345.257812h221.355468c6.207032 0 11.238282-5.03125 11.238282-11.238281 0-6.203125-5.03125-11.238281-11.238282-11.238281h-221.355468l39.503906-39.503906c4.390625-4.386719 4.390625-11.5 0-15.890625s-11.5-4.390625-15.890625 0l-58.6875 58.6875c-4.390625 4.390625-4.390625 11.503906 0 15.890625l58.6875 58.6875c4.390625 4.390625 11.5 4.390625 15.890625 0 4.390625-4.386719 4.390625-11.5 0-15.890625zm0 0"/></svg>