<svg id="Layer_1" enable-background="new 0 0 100 100" height="512" viewBox="0 0 100 100" width="512" xmlns="http://www.w3.org/2000/svg"><path d="m50 22.6733398c3.5107422 0 6.3666992-2.8427734 6.3666992-6.3369141s-2.855957-6.3364257-6.3666992-6.3364257-6.3666992 2.8422852-6.3666992 6.3364258 2.855957 6.336914 6.3666992 6.336914zm0-10.6733398c2.4077148 0 4.3666992 1.9453125 4.3666992 4.3364258 0 2.3916016-1.9589844 4.3369141-4.3666992 4.3369141s-4.3666992-1.9453125-4.3666992-4.3369141c0-2.3911133 1.9589844-4.3364258 4.3666992-4.3364258z"/><path d="m73.815918 32.5478516h.0180664c1.690918 0 3.2783203-.65625 4.4711914-1.8496094 1.1977539-1.1972656 1.8549805-2.7919922 1.8500977-4.4897461-.0048828-1.6953125-.6694336-3.2910156-1.8710938-4.4926758s-2.7973633-1.8662109-4.4926758-1.8710938c-1.6757812-.0161133-3.2919922.6523438-4.4897461 1.8500977-1.1977539 1.1972656-1.8544922 2.7919922-1.8496094 4.4892578.0043945 1.6953125.6689453 3.2910156 1.8710938 4.4926758 1.2016601 1.2021484 2.7973633 1.8666992 4.4926758 1.8710938zm-3.1000977-9.4389649c.8154297-.8154297 1.9008789-1.2641602 3.0576172-1.2641602h.012207c1.1635742.003418 2.2587891.4599609 3.0844727 1.2851562.8251953.8256836 1.2817383 1.9208984 1.2851562 3.0844727.003418 1.1611328-.4458008 2.2514648-1.2641602 3.0698242-.8154297.8154297-1.9008789 1.2636719-3.0571289 1.2636719-.0043945 0-.0083008 0-.0126953 0-1.1630859-.0029297-2.2583008-.4594727-3.0839844-1.2851562s-1.2822266-1.9208984-1.2851562-3.0839844c-.0034179-1.1611328.4453125-2.2514648 1.2636719-3.0698242z"/><path d="m83.6635742 43.6333008c-3.4941406 0-6.3369141 2.855957-6.3369141 6.3666992s2.8427734 6.3666992 6.3369141 6.3666992 6.3364258-2.855957 6.3364258-6.3666992-2.8422852-6.3666992-6.3364258-6.3666992zm0 10.7333984c-2.3916016 0-4.3369141-1.9589844-4.3369141-4.3666992s1.9453125-4.3666992 4.3369141-4.3666992c2.3911133 0 4.3364258 1.9589844 4.3364258 4.3666992s-1.9453125 4.3666992-4.3364258 4.3666992z"/><path d="m73.7729492 80.1552734h.0185547c1.6953125-.0048828 3.2910156-.6694336 4.4926758-1.8710938s1.8662109-2.7973633 1.8710938-4.4926758c.0048828-1.6977539-.6523438-3.2924805-1.8500977-4.4897461-1.1972656-1.1972656-2.7553711-1.8579102-4.4892578-1.8496094-1.6953125.0043945-3.2910156.6689453-4.4926758 1.8710938-1.2021484 1.2016602-1.8666992 2.7973633-1.8710938 4.4926758-.0048828 1.6972656.6518555 3.2919922 1.8496094 4.4892578 1.1928711 1.1933595 2.7802734 1.8500977 4.4711914 1.8500977zm-3.0356445-9.4179687c.8256836-.8256836 1.9208984-1.2822266 3.0839844-1.2851562h.0126953c1.15625 0 2.2416992.4482422 3.0571289 1.2636719.8183594.8183594 1.2675781 1.9086914 1.2641602 3.0698242-.003418 1.1635742-.4599609 2.2587891-1.2851562 3.0844727-.8256836.8251953-1.9208984 1.2817383-3.0844727 1.2851562-.0039062 0-.0083008 0-.012207 0-1.1567383 0-2.2421875-.4487305-3.0576172-1.2641602-.8183594-.8183594-1.2670898-1.9086914-1.2636719-3.0698242.0029296-1.163086.4594726-2.2583008 1.2851562-3.0839844z"/><path d="m43.6333008 83.6635742c0 3.4941406 2.855957 6.3364258 6.3666992 6.3364258s6.3666992-2.8422852 6.3666992-6.3364258-2.855957-6.336914-6.3666992-6.336914-6.3666992 2.8427734-6.3666992 6.336914zm10.7333984 0c0 2.3911133-1.9589844 4.3364258-4.3666992 4.3364258s-4.3666992-1.9453125-4.3666992-4.3364258c0-2.3916016 1.9589844-4.3369141 4.3666992-4.3369141s4.3666992 1.9453126 4.3666992 4.3369141z"/><path d="m26.2084961 80.1552734h.0185547c1.690918 0 3.2783203-.6567383 4.4711914-1.8500977 1.1977539-1.1972656 1.8544922-2.7919922 1.8496094-4.4892578-.0043945-1.6953125-.6689453-3.2910156-1.8710938-4.4926758-1.2016602-1.2021484-2.7973633-1.8666992-4.4926758-1.8710938-1.6538086.0151367-3.2919922.6523438-4.4892578 1.8496094-1.1977539 1.1972656-1.8549805 2.7919922-1.8500977 4.4897461.0048828 1.6953125.6694336 3.2910156 1.8710938 4.4926758s2.7973633 1.866211 4.4926758 1.8710938zm-3.0996094-9.4394531c.8154297-.8154297 1.9008789-1.2636719 3.0571289-1.2636719h.0126953c1.1630859.0029297 2.2583008.4594727 3.0839844 1.2851562s1.2822266 1.9208984 1.2851562 3.0839844c.003418 1.1611328-.4453125 2.2514648-1.2636719 3.0698242-.8154297.8154297-1.9008789 1.2641602-3.0576172 1.2641602-.0039062 0-.0083008 0-.012207 0-1.1635742-.003418-2.2587891-.4599609-3.0844727-1.2851562-.8251953-.8256836-1.2817383-1.9208984-1.2851562-3.0844727-.0034179-1.1611328.4458008-2.2514648 1.2641602-3.0698242z"/><path d="m16.3364258 56.3666992c3.4941406 0 6.3369141-2.855957 6.3369141-6.3666992s-2.8427734-6.3666992-6.3369141-6.3666992-6.3364258 2.855957-6.3364258 6.3666992 2.8422852 6.3666992 6.3364258 6.3666992zm0-10.7333984c2.3916016 0 4.3369141 1.9589844 4.3369141 4.3666992s-1.9453125 4.3666992-4.3369141 4.3666992c-2.3911133 0-4.3364258-1.9589844-4.3364258-4.3666992s1.9453125-4.3666992 4.3364258-4.3666992z"/><path d="m26.1660156 32.5478516h.0180664c1.6953125-.0043945 3.2910156-.6689453 4.4926758-1.8710938 1.2021484-1.2016602 1.8666992-2.7973633 1.8710938-4.4926758.0048828-1.6972656-.6518555-3.2919922-1.8496094-4.4892578-1.1928711-1.1933594-2.7802734-1.8500977-4.4711914-1.8500977-.0063477 0-.012207 0-.0185547 0-1.6953125.0048828-3.2910156.6694336-4.4926758 1.8710938s-1.8662109 2.7973633-1.8710938 4.4926758c-.0048828 1.6977539.6523438 3.2924805 1.8500977 4.4897461 1.1933594 1.1933594 2.7802735 1.8496094 4.4711914 1.8496094zm-3.0361328-9.4179688c.8256836-.8251953 1.9208984-1.2817383 3.0844727-1.2851562h.012207c1.1567383 0 2.2421875.4487305 3.0576172 1.2641602.8183594.8183594 1.2670898 1.9086914 1.2636719 3.0698242-.0029297 1.1630859-.4594727 2.2583008-1.2851562 3.0839844s-1.9208984 1.2822266-3.0839844 1.2851562c-.0043945 0-.0083008 0-.0126953 0-1.15625 0-2.2416992-.4482422-3.0571289-1.2636719-.8183594-.8183594-1.2675781-1.9086914-1.2641602-3.0698242.0034179-1.1635743.4599609-2.2587891 1.2851562-3.0844727z"/><path d="m33.625 21.581543c.1650391 0 .3320312-.0405273.4863281-.1269531 2.0742188-1.1577148 4.2802734-2.0878906 6.5556641-2.765625.5292969-.1577148.8310547-.7143555.6733398-1.2436523-.1577148-.5302734-.7163086-.8305664-1.2436523-.6733398-2.4165039.7192383-4.7578125 1.7075195-6.9599609 2.9365234-.4824219.269043-.6552734.8779297-.3857422 1.3603516.1831054.3281249.5234375.5126952.8740234.5126952z"/><path d="m58.8613281 18.543457c2.2871094.6494141 4.5048828 1.5512695 6.5908203 2.6801758.1513672.0820312.3144531.1206055.4750977.1206055.3554688 0 .699707-.1894531.8803711-.5239258.2626953-.4858398.0820312-1.0927734-.4033203-1.3554688-2.2148438-1.1987305-4.5688477-2.1557617-6.9970703-2.8452148-.53125-.1499023-1.0839844.1582031-1.2348633.6889648-.1508789.5312501.1577148 1.0839844.6889648 1.2348633z"/><path d="m78.8061523 32.6259766c-.4824219.269043-.6552734.8779297-.3857422 1.3603516 1.1577148 2.0742188 2.0878906 4.2802734 2.765625 6.5556641.1293945.4345703.5273438.715332.9580078.715332.0947266 0 .1904297-.0136719.2856445-.0419922.5292969-.1577148.8310547-.7143555.6733398-1.2436523-.7192383-2.4165039-1.7075195-4.7578125-2.9365234-6.9599609-.2690429-.482422-.8789061-.6562501-1.3603515-.3857423z"/><path d="m79.5297852 66.8032227c.3554688 0 .699707-.1894531.8803711-.5239258 1.1987305-2.215332 2.15625-4.5693359 2.8452148-6.9970703.1508789-.53125-.1577148-1.0839844-.6889648-1.2348633-.5302734-.1513672-1.0834961.1582031-1.2348633.6889648-.6494141 2.2866211-1.5512695 4.5043945-2.6801758 6.5908203-.2626953.4858398-.0820312 1.0927734.4033203 1.3554688.1513672.0820312.3144531.1206055.4750977.1206055z"/><path d="m65.8886719 78.2954102c-2.0742188 1.1577148-4.2802734 2.0878906-6.5556641 2.765625-.5292969.1577148-.8310547.7143555-.6733398 1.2436523.1293945.4345703.5273438.715332.9580078.715332.0947266 0 .1904297-.0136719.2856445-.0419922 2.4165039-.7192383 4.7578125-1.7075195 6.9599609-2.9365234.4824219-.269043.6552734-.8779297.3857422-1.3603516s-.8779296-.65625-1.3603515-.3857421z"/><path d="m34.5478516 78.5263672c-.4853516-.2626953-1.0922852-.0820312-1.3554688.4033203-.2626953.4858398-.0820312 1.0927734.4033203 1.3554688 2.215332 1.1987305 4.5693359 2.15625 6.9970703 2.8452148.0913086.0258789.1831055.0385742.2734375.0385742.4360352 0 .8364258-.2875977.9614258-.7275391.1508789-.53125-.1577148-1.0839844-.6889648-1.2348633-2.2866211-.649414-4.5043946-1.5512695-6.5908203-2.6801757z"/><path d="m21.1938477 67.1240234c.4824219-.269043.6552734-.8779297.3857422-1.3603516-1.1577148-2.0742188-2.0878906-4.2802734-2.765625-6.5556641-.1582031-.5297852-.7167969-.8300781-1.2436523-.6733398-.5292969.1577148-.8310547.7143555-.6733398 1.2436523.7192383 2.4165039 1.7075195 4.7578125 2.9365234 6.9599609.1831055.328125.5234375.5126953.8740234.5126953.165039.0000002.3320312-.0405272.4863281-.126953z"/><path d="m17.4335938 41.7026367c.0913086.0258789.1831055.0385742.2734375.0385742.4360352 0 .8364258-.2875977.9614258-.7275391.6494141-2.2866211 1.5512695-4.5043945 2.6801758-6.5908203.2626953-.4858398.0820312-1.0927734-.4033203-1.3554688s-1.0932617-.0825195-1.3554688.4033203c-1.1987305 2.215332-2.15625 4.5693359-2.8452148 6.9970703-.150879.5312501.1577148 1.0839845.6889648 1.2348634z"/><path d="m63.0849609 64.7709961v-18.9335938l1.7700195 1.5268555c.1889648.1630859.4213867.2426758.652832.2426758.2807617 0 .5600586-.1176758.7578125-.3466797.3608398-.418457.3139648-1.0498047-.1040039-1.4106445l-15.5083007-13.3779297c-.3759766-.3232422-.9306641-.3232422-1.3066406 0l-15.5083008 13.3779297c-.4179688.3608398-.4648438.9921875-.1040039 1.4106445.3598633.4174805.9916992.4638672 1.4106445.1040039l1.7700195-1.5268555v18.9335938c0 .5522461.4477539 1 1 1h24.1699219c.5522461 0 1-.4477539 1-1zm-24.1699218-1v-19.6588745l11.0849609-9.5623169 11.0849609 9.5623169v19.6588745z"/></svg>