<?xml version="1.0" encoding="UTF-8"?>
<svg xmlns="http://www.w3.org/2000/svg" id="Layer_1" data-name="Layer 1" viewBox="0 0 64 64" width="512" height="512"><path d="M16,59V49a1,1,0,0,0-1-1H7a1,1,0,0,0-1,1V59H8V50h6v9Z"/><path d="M27,39V59h2V40h6V59h2V39a1,1,0,0,0-1-1H28A1,1,0,0,0,27,39Z"/><path d="M48,29V59h2V30h6V59h2V29a1,1,0,0,0-1-1H49A1,1,0,0,0,48,29Z"/><rect x="1" y="61" width="62" height="2"/><path d="M60,17a1,1,0,0,0,1-1V10a1,1,0,0,0-.86-1l-7-1A1,1,0,0,0,52,9V24H50v2h6V24H54V17Zm-6-6.85,5,.72V15H54Z"/><path d="M39,27a1,1,0,0,0,1-1V20a1,1,0,0,0-.86-1l-7-1a1,1,0,0,0-.8.23A1,1,0,0,0,31,19V34H29v2h6V34H33V27Zm-6-6.85,5,.72V25H33Z"/><path d="M19,36V30a1,1,0,0,0-.86-1l-7-1a1,1,0,0,0-.8.23A1,1,0,0,0,10,29V44H8v2h6V44H12V37h6A1,1,0,0,0,19,36Zm-2-1H12V30.15l5,.72Z"/><path d="M1.06,12.1a1.73,1.73,0,0,0,.19,1.35l1.29,2.13A1.83,1.83,0,0,0,5,16.22l.37-.2a8.47,8.47,0,0,0,1.56.86v.35A1.79,1.79,0,0,0,8.71,19h2.58a1.79,1.79,0,0,0,1.8-1.77v-.35A8.47,8.47,0,0,0,14.65,16l.37.2a1.83,1.83,0,0,0,2.44-.64l1.29-2.13a1.73,1.73,0,0,0,.19-1.35A1.77,1.77,0,0,0,18.08,11l-.33-.18A7.86,7.86,0,0,0,17.8,10a7.86,7.86,0,0,0-.05-.83L18.08,9a1.77,1.77,0,0,0,.86-1.09,1.73,1.73,0,0,0-.19-1.35L17.46,4.42A1.83,1.83,0,0,0,15,3.78l-.37.2a8.47,8.47,0,0,0-1.56-.86V2.77A1.79,1.79,0,0,0,11.29,1H8.71a1.79,1.79,0,0,0-1.8,1.77v.35A8.47,8.47,0,0,0,5.35,4L5,3.78a1.83,1.83,0,0,0-2.44.64L1.25,6.55A1.73,1.73,0,0,0,1.06,7.9,1.77,1.77,0,0,0,1.92,9l.33.18a7.86,7.86,0,0,0,0,.83,7.86,7.86,0,0,0,0,.83L1.92,11A1.77,1.77,0,0,0,1.06,12.1ZM4.2,10a6,6,0,0,1,0-.74,1.75,1.75,0,0,0-.9-1.76L3.1,7.36,4.16,5.61l.32.18a1.87,1.87,0,0,0,2-.15,5.79,5.79,0,0,1,1.29-.71A1.79,1.79,0,0,0,8.91,3.28V3h2.18v.28a1.79,1.79,0,0,0,1.15,1.65,5.79,5.79,0,0,1,1.29.71,1.87,1.87,0,0,0,2,.15l.32-.18L16.9,7.36l-.25.14a1.75,1.75,0,0,0-.9,1.76,5.5,5.5,0,0,1,0,1.48,1.75,1.75,0,0,0,.9,1.76l.25.14-1.06,1.75-.32-.18a1.87,1.87,0,0,0-2,.15,5.79,5.79,0,0,1-1.29.71,1.79,1.79,0,0,0-1.15,1.65V17H8.91v-.28a1.79,1.79,0,0,0-1.15-1.65,5.79,5.79,0,0,1-1.29-.71,1.87,1.87,0,0,0-2-.15l-.32.18L3.1,12.64l.25-.14a1.75,1.75,0,0,0,.9-1.76A6,6,0,0,1,4.2,10Z"/><path d="M10,13.5A3.5,3.5,0,1,0,6.5,10,3.5,3.5,0,0,0,10,13.5Zm0-5A1.5,1.5,0,1,1,8.5,10,1.5,1.5,0,0,1,10,8.5Z"/></svg>
