<svg id="Layer_1" enable-background="new 0 0 512 512" height="512" viewBox="0 0 512 512" width="512" xmlns="http://www.w3.org/2000/svg"><g id="_x30_9_Movie_projector"><g><path d="m298.4 292.1h-196.2c-11.8 0-21.3 9.6-21.3 21.3v72.2c0 11.8 9.6 21.3 21.3 21.3h196.2c11.8 0 21.3-9.6 21.3-21.3v-72.2c.1-11.7-9.5-21.3-21.3-21.3zm10.7 93.5c0 5.9-4.8 10.7-10.7 10.7h-196.2c-5.9 0-10.7-4.8-10.7-10.7v-72.2c0-5.9 4.8-10.7 10.7-10.7h196.2c5.9 0 10.7 4.8 10.7 10.7z"/><path d="m489.6 194.9c-12.4 0-22.5 10.1-22.5 22.5v4.6l-71.2 33.9h-33.5v-34.3c0-12.7-8.9-23.3-20.8-26 34.8-16.5 58.9-51.9 58.9-92.8.1-56.7-46.1-102.8-102.7-102.8-45.3 0-83.8 29.5-97.4 70.3-13.7-40.8-52.2-70.3-97.6-70.3-56.6 0-102.7 46.1-102.7 102.8 0 41 24.2 76.3 58.9 92.9-11.9 2.7-20.8 13.3-20.8 26v201.3c0 14.7 12 26.7 26.7 26.7h56.3v6.6c0 11.8 9.6 21.3 21.3 21.3h25.8v29.2c0 2.9 2.4 5.3 5.3 5.3s5.3-2.4 5.3-5.3v-29.2h42.8v29.2c0 2.9 2.4 5.3 5.3 5.3s5.3-2.4 5.3-5.3v-29.2h25.8c11.8 0 21.3-9.6 21.3-21.3v-6.6h56.3c14.7 0 26.7-12 26.7-26.7v-34.3h33.4l71.3 33.8v4.6c0 12.4 10.1 22.5 22.5 22.5s22.5-10.1 22.5-22.5v-209.7c0-12.4-10.1-22.5-22.5-22.5zm-220.8 261.3c0 5.9-4.8 10.7-10.7 10.7-93.4 0 37.6 0-115.7 0-5.9 0-10.7-4.8-10.7-10.7v-6.6h137zm29-445.5c50.8 0 92.2 41.3 92.2 92.1 0 50.7-41.2 92-91.9 92.1h-.5c-50.7-.1-91.8-41.4-91.8-92.1-.1-50.8 41.2-92.1 92-92.1zm-127.8 169.7 16.2 14.5h-38.1c8-3.9 15.3-8.8 21.9-14.5zm7.7-7.4c10-10.7 17.8-23.5 22.6-37.8 4.7 14.2 12.5 27 22.6 37.7l-22.6 20.2zm52.9 7.4c6.6 5.7 13.9 10.6 21.9 14.5h-38.1zm-219.9-77.6c0-50.8 41.3-92.1 92.1-92.1s92.2 41.3 92.2 92.1c0 50.7-41.2 92-91.9 92.1h-.5c-50.7-.1-91.9-41.4-91.9-92.1zm341.1 320.1c0 8.8-7.2 16-16 16h-270.9c-8.8 0-16-7.2-16-16v-201.3c0-8.8 7.2-16 16-16h270.9c8.8 0 16 7.2 16 16zm39.9-44.9h-29.3v-111.5h29.3zm75.4 32.7-64.7-30.7v-115.4l64.7-30.8zm34.3 16.4c0 6.5-5.3 11.8-11.8 11.8s-11.8-5.3-11.8-11.8v-209.7c0-6.5 5.3-11.8 11.8-11.8s11.8 5.3 11.8 11.8z"/><path d="m102.8 178.9c42 0 76.2-34.2 76.2-76.2s-34.2-76.1-76.2-76.1-76.1 34.1-76.1 76.1c0 42.1 34.2 76.2 76.1 76.2zm0-141.6c36.1 0 65.5 29.4 65.5 65.4 0 36.1-29.4 65.5-65.5 65.5s-65.4-29.4-65.4-65.5c0-36 29.4-65.4 65.4-65.4z"/><path d="m102.8 136.3c18.5 0 33.5-15 33.5-33.5 0-18.4-15-33.4-33.5-33.4-18.4 0-33.4 15-33.4 33.4s15 33.5 33.4 33.5zm0-56.3c12.6 0 22.8 10.2 22.8 22.8s-10.2 22.8-22.8 22.8-22.8-10.2-22.8-22.8c.1-12.6 10.3-22.8 22.8-22.8z"/><path d="m297.8 178.9c42 0 76.2-34.2 76.2-76.2s-34.2-76.1-76.2-76.1-76.1 34.1-76.1 76.1c0 42.1 34.1 76.2 76.1 76.2zm0-141.6c36.1 0 65.5 29.4 65.5 65.4 0 36.1-29.4 65.5-65.5 65.5s-65.4-29.4-65.4-65.5c-.1-36 29.3-65.4 65.4-65.4z"/><path d="m297.8 136.3c18.5 0 33.5-15 33.5-33.5 0-18.4-15-33.4-33.5-33.4-18.4 0-33.4 15-33.4 33.4-.1 18.4 14.9 33.5 33.4 33.5zm0-56.3c12.6 0 22.8 10.2 22.8 22.8s-10.2 22.8-22.8 22.8-22.8-10.2-22.8-22.8 10.2-22.8 22.8-22.8z"/><path d="m145 315.5c-18.8 0-34.1 15.3-34.1 34 0 18.8 15.3 34.1 34.1 34.1s34.1-15.3 34.1-34.1-15.3-34-34.1-34zm0 57.4c-12.9 0-23.4-10.5-23.4-23.4s10.5-23.4 23.4-23.4 23.4 10.5 23.4 23.4-10.5 23.4-23.4 23.4z"/></g></g></svg>