<svg id="Layer_1" enable-background="new 0 0 512 512" height="512" viewBox="0 0 512 512" width="512" xmlns="http://www.w3.org/2000/svg"><path d="m207.884 310.861c.032.002.062.011.093.012.064.002.128.026.192.026.002 0 .005-.001.007-.001s.005.001.007.001c.041 0 .081-.016.122-.016.168.001.33.025.498.025h.002.001.001c50.933 0 92.369-41.436 92.369-92.371s-41.436-92.371-92.369-92.371c-.096 0-.189.014-.285.015-.115-.006-.231.011-.347.011-.223.001-.443.012-.664.034-.127.012-.255.006-.382.025-50.154.908-90.693 41.917-90.693 92.286 0 50.623 40.943 91.821 91.448 92.324zm-70.928-60.744h20.987c4.875 15.916 13.387 30.453 25.021 42.495-20.577-7.203-37.267-22.688-46.008-42.495zm150.382-31.581c0 6.109-.771 12.031-2.097 17.743h-23.628c.969-5.85 1.519-11.826 1.519-17.914 0-5.962-.538-11.822-1.485-17.567h23.596c1.325 5.711 2.095 11.631 2.095 17.738zm-38.044.172c0 5.977-.573 11.852-1.663 17.572h-31.908v-35.481h31.878c1.113 5.818 1.693 11.806 1.693 17.909zm-76.733 31.409h29.325v41.03c-13.556-10.83-23.59-25.005-29.325-41.03zm43.162 39.964v-39.965h28.105c-5.547 15.48-15.167 29.257-28.105 39.965zm0-103.12v-39.968c12.911 10.689 22.517 24.45 28.07 39.968zm-13.837-41.035v41.035h-29.363c5.728-15.988 15.776-30.185 29.363-41.035zm0 54.872v35.481h-33.136c-1.113-5.82-1.693-11.809-1.693-17.914 0-5.975.573-11.849 1.662-17.567zm-47.18 35.481h-22.336c-1.326-5.712-2.097-11.634-2.097-17.743 0-6.108.77-12.028 2.096-17.738h22.37c-.968 5.848-1.518 11.823-1.518 17.909 0 5.963.539 11.826 1.485 17.572zm77.912 57.077c11.986-12.169 20.768-26.951 25.753-43.24h22.284c-9.03 20.464-26.518 36.374-48.037 43.24zm48.039-106.395h-22.247c-4.977-16.254-13.77-31.051-25.783-43.241 21.517 6.867 39.002 22.778 48.03 43.241zm-97.686-42.502c-11.609 12.023-20.11 26.549-24.992 42.502h-21.025c8.741-19.812 25.435-35.3 46.017-42.502zm269.4-53.626c-4.741-9.189-12.745-15.968-22.538-19.094l-218.914-69.898c-9.788-3.135-20.243-2.243-29.431 2.504-9.187 4.739-15.968 12.743-19.094 22.535l-14.529 45.499h-53.96c-21.292 0-38.614 17.324-38.614 38.616v362.394c0 21.292 17.322 38.611 38.614 38.611h229.801c21.292 0 38.614-17.319 38.614-38.611v-63.253l92.553-289.871c3.126-9.788 2.239-20.243-2.502-29.432zm-103.889 382.556c0 13.662-11.115 24.774-24.776 24.774h-229.801c-13.662 0-24.776-11.112-24.776-24.774v-362.394c0-13.662 11.115-24.778 24.776-24.778h229.801c13.662 0 24.776 11.117 24.776 24.778zm93.211-357.331-79.373 248.592v-253.655c0-21.292-17.322-38.616-38.614-38.616h-161.319l13.186-41.291c2.002-6.27 6.356-11.401 12.259-14.45 5.901-3.045 12.603-3.617 18.88-1.617l218.914 69.899c6.27 2.004 11.403 6.356 14.448 12.261 3.045 5.9 3.621 12.607 1.619 18.877zm-139.561 248.339c0 3.82-3.097 6.919-6.919 6.919h-172.818c-3.822 0-6.919-3.099-6.919-6.919s3.097-6.919 6.919-6.919h172.819c3.822 0 6.918 3.099 6.918 6.919zm0 48.84c0 3.82-3.097 6.919-6.919 6.919h-172.818c-3.822 0-6.919-3.099-6.919-6.919s3.097-6.919 6.919-6.919h172.819c3.822.001 6.918 3.1 6.918 6.919zm-39.197 48.841c0 3.82-3.097 6.919-6.919 6.919h-94.423c-3.822 0-6.919-3.099-6.919-6.919s3.097-6.919 6.919-6.919h94.423c3.823 0 6.919 3.099 6.919 6.919z"/></svg>