<svg xmlns="http://www.w3.org/2000/svg" height="512pt" version="1.1" viewBox="0 -26 512.00102 512" width="512pt">
<g id="surface1">
<path d="M 100.308594 20 L 100.578125 20 C 106.101562 20 110.578125 15.523438 110.578125 10 C 110.578125 4.476562 106.101562 0 100.578125 0 L 100.308594 0 C 94.785156 0 90.308594 4.476562 90.308594 10 C 90.308594 15.523438 94.785156 20 100.308594 20 Z M 100.308594 20 " style=" stroke:none;fill-rule:nonzero;fill:rgb(0%,0%,0%);fill-opacity:1;" />
<path d="M 471.457031 0 L 140.542969 0 C 135.023438 0 130.542969 4.476562 130.542969 10 C 130.542969 15.523438 135.023438 20 140.542969 20 L 471.457031 20 C 482.785156 20 492 29.21875 492 40.546875 L 492 399.453125 C 492 410.785156 482.785156 420 471.457031 420 L 460.421875 420 C 454.898438 420 450.421875 424.476562 450.421875 430 C 450.421875 435.523438 454.898438 440 460.421875 440 L 471.457031 440 C 493.8125 440 512 421.8125 512 399.453125 L 512 40.546875 C 512 18.1875 493.8125 0 471.457031 0 Z M 471.457031 0 " style=" stroke:none;fill-rule:nonzero;fill:rgb(0%,0%,0%);fill-opacity:1;" />
<path d="M 431.691406 420 L 431.421875 420 C 425.898438 420 421.421875 424.476562 421.421875 430 C 421.421875 435.523438 425.898438 440 431.421875 440 L 431.691406 440 C 437.214844 440 441.691406 435.523438 441.691406 430 C 441.691406 424.476562 437.214844 420 431.691406 420 Z M 431.691406 420 " style=" stroke:none;fill-rule:nonzero;fill:rgb(0%,0%,0%);fill-opacity:1;" />
<path d="M 391.457031 420 L 320 420 L 320 231.816406 C 320 214.273438 305.726562 200 288.179688 200 L 40 200 L 40 40.546875 C 40 29.214844 49.21875 20 60.542969 20 L 71.578125 20 C 77.101562 20 81.578125 15.523438 81.578125 10 C 81.578125 4.476562 77.101562 0 71.578125 0 L 60.542969 0 C 38.1875 0 20 18.1875 20 40.546875 L 20 202.285156 C 8.292969 206.988281 0 218.449219 0 231.816406 L 0 428.183594 C 0 445.726562 14.273438 460 31.816406 460 L 288.179688 460 C 301.550781 460 313.011719 451.707031 317.714844 440 L 391.457031 440 C 396.980469 440 401.457031 435.523438 401.457031 430 C 401.457031 424.476562 396.980469 420 391.457031 420 Z M 288.179688 440 L 31.816406 440 C 25.300781 440 20 434.699219 20 428.183594 L 20 231.816406 C 20 225.300781 25.300781 220 31.816406 220 L 288.179688 220 C 294.699219 220 300 225.300781 300 231.816406 L 300 428.183594 C 300 434.699219 294.699219 440 288.179688 440 Z M 288.179688 440 " style=" stroke:none;fill-rule:nonzero;fill:rgb(0%,0%,0%);fill-opacity:1;" />
<path d="M 474.382812 120.574219 L 474.382812 67.816406 C 474.382812 60.855469 471.660156 54.292969 466.722656 49.335938 C 461.765625 44.359375 455.183594 41.621094 448.1875 41.621094 C 448.1875 41.621094 448.183594 41.621094 448.183594 41.621094 L 395.429688 41.621094 C 380.984375 41.621094 369.230469 53.375 369.230469 67.816406 C 369.230469 79.128906 376.4375 88.792969 386.503906 92.449219 L 325.273438 153.679688 C 315.058594 163.894531 315.058594 180.511719 325.273438 190.726562 C 330.210938 195.664062 336.789062 198.382812 343.796875 198.382812 C 350.808594 198.382812 357.386719 195.664062 362.320312 190.726562 L 423.550781 129.496094 C 427.210938 139.5625 436.871094 146.769531 448.183594 146.769531 C 462.628906 146.769531 474.382812 135.019531 474.382812 120.574219 Z M 454.382812 120.574219 C 454.382812 123.929688 451.542969 126.769531 448.183594 126.769531 C 444.824219 126.769531 441.988281 123.929688 441.988281 120.574219 L 441.988281 106.921875 C 441.988281 102.875 439.550781 99.230469 435.8125 97.679688 C 432.078125 96.132812 427.773438 96.992188 424.917969 99.847656 L 348.179688 176.585938 C 347.019531 177.742188 345.464844 178.378906 343.796875 178.378906 C 342.128906 178.378906 340.574219 177.742188 339.417969 176.585938 C 337.042969 174.210938 337.042969 170.195312 339.417969 167.820312 L 416.152344 91.085938 C 419.011719 88.222656 419.867188 83.921875 418.320312 80.1875 C 416.773438 76.449219 413.125 74.011719 409.082031 74.011719 L 395.429688 74.011719 C 392.070312 74.011719 389.230469 71.175781 389.230469 67.816406 C 389.230469 64.457031 392.070312 61.621094 395.429688 61.621094 L 448.1875 61.621094 C 449.828125 61.621094 451.378906 62.269531 452.554688 63.453125 C 453.734375 64.632812 454.382812 66.183594 454.382812 67.816406 Z M 454.382812 120.574219 " style=" stroke:none;fill-rule:nonzero;fill:rgb(0%,0%,0%);fill-opacity:1;" />
<path d="M 278 232 L 42 232 C 36.476562 232 32 236.476562 32 242 L 32 418 C 32 423.523438 36.476562 428 42 428 L 278 428 C 283.523438 428 288 423.523438 288 418 L 288 242 C 288 236.476562 283.523438 232 278 232 Z M 268 408 L 52 408 L 52 252 L 268 252 Z M 268 408 " style=" stroke:none;fill-rule:nonzero;fill:rgb(0%,0%,0%);fill-opacity:1;" />
</g>
</svg>