<svg height="512" viewBox="0 0 64 64" width="512" xmlns="http://www.w3.org/2000/svg"><g id="Track_Location" data-name="Track Location"><path d="m41.17 3h-25.29a4.82 4.82 0 0 0 -4.82 4.81v48.38a4.82 4.82 0 0 0 4.82 4.81h25.29a4.82 4.82 0 0 0 4.83-4.81v-.52a4.17 4.17 0 0 0 3-3h1.89a2 2 0 0 0 2-2v-4.14a7.46 7.46 0 0 0 -.94-3.6l-1-1.86a3.76 3.76 0 0 0 -3.28-1.93h-1.67v-31.33a4.82 4.82 0 0 0 -4.83-4.81zm-6.87 2c-.15.42-.23.73-.4 1.29a1.65 1.65 0 0 1 -1.58 1.17h-7.6a1.63 1.63 0 0 1 -1.57-1.17c-.15-.59-.25-.85-.41-1.29zm6.87 54h-25.29a2.82 2.82 0 0 1 -2.82-2.81v-48.38a2.82 2.82 0 0 1 2.82-2.81h4a1 1 0 0 1 1 .72l.35 1.15a3.64 3.64 0 0 0 3.49 2.59h7.6a3.62 3.62 0 0 0 3.49-2.59l.35-1.15a1 1 0 0 1 1-.72h4a2.81 2.81 0 0 1 2.84 2.81v31.33h-3.26v-4.86a2.3 2.3 0 0 0 -2.3-2.3h-5.78c1.7-2.91 3.41-6.31 3.41-8.35a7.61 7.61 0 0 0 -15.21 0c0 2 1.7 5.44 3.41 8.35h-5.11a2.3 2.3 0 0 0 -2.3 2.3v16a2.3 2.3 0 0 0 2.3 2.3h.78a4.16 4.16 0 0 0 8.08 0h1.57a4.15 4.15 0 0 0 8.07 0h3.34a4.19 4.19 0 0 0 3 3v.52a2.81 2.81 0 0 1 -2.83 2.9zm-3.51-8.37a4.15 4.15 0 0 0 -8.07 0h-1.59a4.16 4.16 0 0 0 -8.08 0h-.78a.31.31 0 0 1 -.3-.3v-16a.3.3 0 0 1 .3-.3h6.32c1.05 1.65 1.93 2.92 2.16 3.26a1 1 0 0 0 .82.42 1 1 0 0 0 .82-.42c.24-.34 1.11-1.61 2.16-3.26h7a.29.29 0 0 1 .3.3v16.3zm-1.87 1a2.17 2.17 0 1 1 -2.17-2.17 2.17 2.17 0 0 1 2.17 2.17zm-9.64 0a2.17 2.17 0 1 1 -2.15-2.17 2.17 2.17 0 0 1 2.15 2.17zm2.31-16.74c-2.09-3.12-5.6-8.88-5.6-11.26a5.61 5.61 0 0 1 11.21 0c0 2.37-3.52 8.14-5.61 11.26zm16.54 18.91a2.17 2.17 0 0 1 -2.17-2.17 2.17 2.17 0 1 1 2.17 2.17zm4.22-11.8 1 1.87a5.47 5.47 0 0 1 .68 2.62v4.1h-1.9a4.15 4.15 0 0 0 -8.07 0h-.21v-9.45h6.95a1.75 1.75 0 0 1 1.55.86z"/><path d="m30.41 39.5-2.65 2.65-1.12-1.15a1 1 0 0 0 -1.42 0 1 1 0 0 0 0 1.41l1.83 1.83a1 1 0 0 0 .71.29 1 1 0 0 0 .7-.29l3.36-3.36a1 1 0 1 0 -1.41-1.41z"/><path d="m28.46 20a3.63 3.63 0 1 0 3.63 3.63 3.64 3.64 0 0 0 -3.63-3.63zm0 5.26a1.63 1.63 0 1 1 1.63-1.63 1.63 1.63 0 0 1 -1.63 1.63z"/></g></svg>