<?xml version="1.0" encoding="UTF-8"?>
<!-- Generator: Adobe Illustrator 24.3.0, SVG Export Plug-In . SVG Version: 6.00 Build 0)  -->
<svg xmlns="http://www.w3.org/2000/svg" xmlns:xlink="http://www.w3.org/1999/xlink" version="1.1" id="Capa_1" x="0px" y="0px" viewBox="0 0 512 512" style="enable-background:new 0 0 512 512;" xml:space="preserve" width="512" height="512">
<g>
	<g id="Page-1_55_">
		<g id="finance_and_pointers_export_55_" transform="translate(-176.000000, -536.000000)">
			<path id="video_x2C_-volume_x2C_-playback_x2C_-scroll_x2C_-length_x2C_-film_x2C_-screen" d="M221.176,551.059h421.647     c24.95,0,45.176,20.226,45.176,45.176v240.941c0,24.95-20.226,45.177-45.176,45.177H221.176     c-24.95,0-45.176-20.226-45.176-45.177V596.235C176,571.285,196.226,551.059,221.176,551.059z M221.176,581.176     c-8.317,0-15.059,6.742-15.059,15.059v240.941c0,8.317,6.742,15.059,15.059,15.059h421.647c8.317,0,15.059-6.742,15.059-15.059     V596.235c0-8.317-6.742-15.059-15.059-15.059H221.176z M479.359,965.176c6.479-21.771,26.647-37.647,50.523-37.647     c23.876,0,44.044,15.876,50.523,37.647h92.536c8.317,0,15.059,6.742,15.059,15.059s-6.742,15.059-15.059,15.059h-92.536     c-6.479,21.771-26.647,37.647-50.523,37.647c-23.876,0-44.044-15.876-50.523-37.647h-288.3c-8.317,0-15.059-6.742-15.059-15.059     s6.742-15.059,15.059-15.059H479.359L479.359,965.176z M529.882,1002.824c12.475,0,22.588-10.113,22.588-22.588     s-10.113-22.588-22.588-22.588c-12.475,0-22.588,10.113-22.588,22.588S517.407,1002.824,529.882,1002.824z"/>
		</g>
	</g>
</g>















</svg>
