<svg height="512" viewBox="0 0 64 64" width="512" xmlns="http://www.w3.org/2000/svg"><g id="Passport-Travel-Time-Relax-Time_Management" data-name="Passport-Travel-Time-Relax-Time Management"><path d="m54 2h-24a5 5 0 0 0 -5 5v25.88a14.807 14.807 0 0 0 -5-.88 15 15 0 1 0 14.12 20h19.88a5 5 0 0 0 5-5v-40a5 5 0 0 0 -5-5zm-34 58a13 13 0 1 1 13-13 13.012 13.012 0 0 1 -13 13zm37-13a3.009 3.009 0 0 1 -3 3h-19.3a16.31 16.31 0 0 0 .25-2h19.05a4.924 4.924 0 0 0 3-1.03zm0-4a3.009 3.009 0 0 1 -3 3h-19.05a15.007 15.007 0 0 0 -7.95-12.26v-26.74a3.009 3.009 0 0 1 3-3h24a3.009 3.009 0 0 1 3 3z"/><path d="m42 11a9 9 0 1 0 9 9 9.01 9.01 0 0 0 -9-9zm5.736 5h-2.122a12.56 12.56 0 0 0 -.71-2.361 7.033 7.033 0 0 1 2.832 2.361zm1.264 4a6.956 6.956 0 0 1 -.3 2h-2.8c.061-.658.1-1.329.1-2s-.035-1.342-.1-2h2.8a6.956 6.956 0 0 1 .3 2zm-7 7c-.376 0-1.1-1.037-1.569-3h3.138c-.469 1.963-1.193 3-1.569 3zm-1.9-5a19.659 19.659 0 0 1 0-4h3.8a19.659 19.659 0 0 1 0 4zm-5.1-2a6.956 6.956 0 0 1 .3-2h2.8c-.061.658-.1 1.329-.1 2s.035 1.342.1 2h-2.8a6.956 6.956 0 0 1 -.3-2zm7-7c.376 0 1.1 1.037 1.569 3h-3.138c.469-1.963 1.193-3 1.569-3zm-2.9.639a12.56 12.56 0 0 0 -.714 2.361h-2.122a7.033 7.033 0 0 1 2.836-2.361zm-2.836 10.361h2.122a12.56 12.56 0 0 0 .71 2.361 7.033 7.033 0 0 1 -2.832-2.361zm8.64 2.361a12.56 12.56 0 0 0 .71-2.361h2.122a7.033 7.033 0 0 1 -2.836 2.361z"/><path d="m36 33h12v2h-12z"/><path d="m36 37h12v2h-12z"/><path d="m20 36a11 11 0 1 0 11 11 11.013 11.013 0 0 0 -11-11zm8.941 12a8.956 8.956 0 0 1 -1.916 4.611l-1.368-1.368-1.414 1.414 1.368 1.368a8.956 8.956 0 0 1 -4.611 1.916v-1.941h-2v1.941a8.956 8.956 0 0 1 -4.611-1.916l1.368-1.368-1.414-1.414-1.368 1.368a8.956 8.956 0 0 1 -1.916-4.611h1.941v-2h-1.941a8.956 8.956 0 0 1 1.916-4.611l1.368 1.368 1.414-1.414-1.368-1.368a8.956 8.956 0 0 1 4.611-1.916v1.941h2v-1.941a8.956 8.956 0 0 1 4.611 1.916l-1.368 1.368 1.414 1.414 1.368-1.368a8.956 8.956 0 0 1 1.916 4.611h-1.941v2z"/><path d="m19 46.586-1.707 1.707 1.414 1.414 2-2a1 1 0 0 0 .293-.707v-5h-2z"/></g></svg>