<?xml version="1.0" encoding="UTF-8"?><svg id="Layer_2" xmlns="http://www.w3.org/2000/svg" viewBox="0 0 107.22 102.78"><defs><style>.cls-1{fill:#fff;}.cls-2{fill:none;stroke:#000;stroke-miterlimit:10;stroke-width:2.1px;}</style></defs><g id="Layer_1-2"><g><rect class="cls-1" width="107.22" height="102.78" rx="6.71" ry="6.71"/><g><path class="cls-2" d="M49.92,18.55c-.02-.15-.02-.3-.06-.45-.23-1.02-.8-1.77-1.81-2.09-1.1-.34-2.08-.08-2.91,.75-2.77,2.79-5.56,5.55-8.33,8.35-.4,.41-.63,.47-1.05,.02-.92-1-1.9-1.94-2.88-2.89-1.2-1.17-2.87-1.22-3.97-.14-1.11,1.1-1.08,2.75,.11,3.96,1.74,1.77,3.49,3.52,5.26,5.26,1.19,1.17,2.78,1.2,3.96,.03,3.61-3.58,7.19-7.18,10.78-10.77,.56-.56,.84-1.24,.88-2.03Z"/><path class="cls-2" d="M72.98,37.53h9.22c7.44,0,13.48-6.04,13.48-13.48,0-3.72-1.51-7.09-3.95-9.53-2.44-2.44-5.82-3.95-9.53-3.95H25.03c-7.44,0-13.48,6.03-13.48,13.48,0,3.72,1.51,7.09,3.95,9.53,2.44,2.44,5.82,3.95,9.53,3.95h39.25"/><path class="cls-2" d="M50.24,49.2c.82,.57,2.1,1.76,2.95,3.37,1.04,1.97,2.1,3.93,3.15,5.89,.1,.18,.19,.36,.3,.53,.72,1.13,1.58,1.25,2.5,.3,.87-.89,1.54-1.91,1.89-3.13,.72-2.52,1-5.11,1.44-7.68,1.17-6.93,2.29-13.87,3.41-20.81,.22-1.35,.63-2.54,1.93-3.22,2.21-1.15,4.86,.24,5.2,2.75,.05,.4,.06,.82,.06,1.23-.05,6.09-.1,12.18-.18,18.28,0,.6,.21,.82,.74,1.03,7.76,2.99,14.35,7.62,19.63,14.08,.6,.74,.82,1.55,.63,2.5-.83,4.28-1.89,8.49-3.51,12.54-.53,1.33-1.11,2.64-1.8,3.91-1.38,2.52-2.12,5.25-2.54,8.08-.37,2.52-1.29,3.31-3.82,3.34-5.04,.07-10.09,.13-15.13,.19-3.24,.04-5.47-1.52-6.34-4.61-1.57-5.61-4.27-10.62-7.91-15.13-1.39-1.73-2.22-3.7-2.94-5.77-1.42-4.03-2.72-8.12-4.74-11.91-.59-1.1-1.25-2.17-1.88-3.26-.88-1.51-.58-2.63,1-3.41,1.85-.92,3.62-.62,5.97,.91Z"/></g></g></g></svg>