<?xml version="1.0" encoding="UTF-8"?><svg id="Layer_2" xmlns="http://www.w3.org/2000/svg" viewBox="0 0 107.22 102.78"><defs><style>.cls-1{fill:#fff;}.cls-2{fill:none;stroke:#000;stroke-miterlimit:10;stroke-width:2px;}</style></defs><g id="Layer_1-2"><g><rect class="cls-1" x="0" width="107.22" height="102.78" rx="6.71" ry="6.71"/><g><path class="cls-2" d="M10.77,32.65c.35-1.22,.68-2.44,1.51-3.46,1.4-1.72,3.18-2.66,5.39-2.75,.28-.01,.56-.02,.84-.02,21.02,0,42.04,0,63.07-.01,3.05,0,5.39,1.14,6.89,3.85,.46,.84,.7,1.76,.78,2.7,.14,1.56-1.04,2.48-2.52,1.95-1.26-.46-2.5-.93-3.83-1.12-6.4-.88-11.54,1.3-15.43,6.41-1.58,2.07-2.51,4.45-2.85,7.04-.12,.96-.54,1.68-1.31,2.31-1.61,1.31-2.46,3.06-2.54,5.15-.03,.72,.01,1.45-.07,2.17-.11,.98-.64,1.47-1.61,1.62-.27,.04-.55,.05-.83,.05-13.24,0-26.49,0-39.73,0-3.17,0-5.59-1.24-7.08-4.12-.36-.7-.44-1.48-.69-2.2v-19.58Zm28.67,13.04c1.31,.5,2.14,.37,2.66-.46,.23-.36,.32-.76,.29-1.19-.07-.77-.67-1.15-1.18-1.6,1.18-.86,1.49-1.7,.98-2.62-.49-.88-1.37-1.07-2.77-.57-.34-1.51-.83-2.08-1.82-2.1-.4,0-.76,.11-1.1,.33-.65,.43-.65,1.16-.83,1.81-1.33-.56-2.24-.39-2.75,.51-.52,.91-.23,1.73,.93,2.66-1.17,1.01-1.45,1.78-.93,2.69,.2,.34,.49,.58,.87,.75,.68,.31,1.28,.02,1.88-.24,.33,1.52,.88,2.14,1.86,2.15,.96,0,1.46-.54,1.91-2.12Zm-18.02-.02c.21,1.44,.67,2.03,1.69,2.12,.39,.03,.76-.06,1.11-.27,.69-.42,.79-1.13,.86-1.85,1.4,.52,2.24,.38,2.75-.45,.31-.5,.37-1.03,.17-1.6-.19-.55-.71-.8-1.07-1.19,1.12-.82,1.44-1.59,1.03-2.47-.25-.53-.67-.86-1.25-1.01-.6-.15-1.1,.19-1.65,.32-.14-1.44-.67-2.09-1.72-2.13-1.11-.05-1.7,.62-1.93,2.14-1.38-.55-2.26-.39-2.78,.52-.5,.88-.19,1.77,.94,2.66-1.14,.94-1.44,1.79-.93,2.69,.5,.88,1.39,1.05,2.77,.51Zm32.25-.03c1.29,.58,2.1,.46,2.67-.34,.25-.35,.33-.75,.32-1.18-.02-.82-.64-1.22-1.18-1.67,1.16-.82,1.48-1.73,.97-2.63-.52-.92-1.41-1.09-2.78-.53-.23-1.48-.8-2.14-1.84-2.14-1.05,0-1.61,.64-1.84,2.12-1.47-.51-2.27-.35-2.79,.55-.52,.9-.23,1.72,.94,2.65-1.17,.97-1.43,1.68-.97,2.61,.46,.92,1.19,1.09,2.82,.65,.25,1.45,.87,2.13,1.9,2.09,1.01-.04,1.58-.72,1.78-2.17Z"/><path class="cls-2" d="M81.15,78.16c-3.99,0-7.97,0-11.96,0-2.67,0-4.06-1.4-4.06-4.08,0-5.63,0-11.26,0-16.89,0-2.25,.97-3.5,3.14-3.96,.54-.11,.42-.41,.42-.71-.04-2.31,.28-4.54,1.31-6.65,2.45-5.02,8.01-7.77,13.66-6.73,5.33,.98,9.57,5.75,9.97,11.22,.06,.78,.07,1.56,.07,2.34,0,.34,.09,.45,.44,.53,2.12,.46,3.12,1.72,3.12,3.89,0,5.69,0,11.37,0,17.06,0,2.56-1.42,3.97-3.99,3.98-4.04,0-8.08,0-12.12,0Zm.11-24.98h3.09c2.5,0,2.54-.03,2.12-2.56-.34-2.07-1.51-3.53-3.46-4.23-1.98-.71-3.84-.33-5.43,1.1-1.5,1.35-1.81,3.11-1.75,5.02,.02,.52,.11,.71,.67,.69,1.59-.04,3.17-.01,4.76-.01Zm3.48,10.66c0-1.58-1.12-3.01-2.69-3.41-1.56-.4-3.25,.37-4.02,1.83-.75,1.42-.43,3.2,.85,4.23,.43,.35,.53,.7,.53,1.2-.01,.66-.08,1.34,.1,2,.2,.78,.91,1.34,1.7,1.33,.8,0,1.48-.56,1.68-1.35,.18-.69,.1-1.39,.09-2.08,0-.44,.09-.76,.48-1.06,.87-.66,1.28-1.58,1.28-2.68Z"/></g></g></g></svg>