<?xml version="1.0" encoding="UTF-8"?><svg id="Layer_2" xmlns="http://www.w3.org/2000/svg" viewBox="0 0 107.22 102.78"><defs><style>.cls-1{fill:#fff;}.cls-2{fill:none;stroke:#000;stroke-miterlimit:10;stroke-width:2px;}</style></defs><g id="Layer_1-2"><g><rect class="cls-1" width="107.22" height="102.78" rx="6.71" ry="6.71"/><g><rect class="cls-2" x="64.2" y="44.96" width="33.07" height="47.48" rx="3.65" ry="3.65"/><rect class="cls-2" x="9.95" y="9.73" width="33.07" height="47.48" rx="3.65" ry="3.65"/><path class="cls-2" d="M56.23,9.72h36.35c2.5,0,4.53,2.03,4.53,4.53v15.75c0,2.5-2.03,4.53-4.53,4.53H56.23c-2.06,0-3.73-1.67-3.73-3.73V13.44c0-2.06,1.67-3.73,3.73-3.73Z"/><path class="cls-2" d="M13.85,68.42H50.21c2.5,0,4.53,2.03,4.53,4.53v15.75c0,2.5-2.03,4.53-4.53,4.53H13.85c-2.06,0-3.73-1.67-3.73-3.73v-17.36c0-2.06,1.67-3.73,3.73-3.73Z"/></g></g></g></svg>