<?xml version="1.0" encoding="UTF-8"?><svg id="Layer_2" xmlns="http://www.w3.org/2000/svg" viewBox="0 0 107.22 102.78"><defs><style>.cls-1{fill:#fff;}.cls-2{fill:none;stroke:#000;stroke-miterlimit:10;stroke-width:2px;}</style></defs><g id="Layer_1-2"><g><rect class="cls-1" width="107.22" height="102.78" rx="6.71" ry="6.71"/><g><path class="cls-2" d="M81.15,73.6c2.48,3.39,4,7.55,4.15,12.05,.04,1.16,.06,2.32,.01,3.47-.06,1.58-1.12,2.58-2.7,2.64-.31,.01-.63,0-.94,0-22.68,0-45.35-.01-68.03,.04-1.67,0-2.91-.42-3.69-1.92v-7.58c.41-.74,.38-1.59,.58-2.39,2.18-8.76,10.02-15.01,19.05-15.05,11.5-.05,22.98-.06,34.48,0,2.44,.01,4.8,.44,6.98,1.22"/><path class="cls-2" d="M71.86,35.18c.03,13.4-10.79,24.25-24.21,24.25-13.35,0-24.2-10.8-24.24-24.14-.04-13.4,10.79-24.29,24.18-24.32,13.4-.03,24.24,10.78,24.27,24.2Z"/><path class="cls-2" d="M69.98,80.95c-.84,0-1.68,.04-2.52,0-1.35-.08-2.33-.94-2.46-2.29-.18-1.88-.12-3.78-.02-5.67,.04-.74,.45-1.3,.96-1.81,7.16-7.16,14.31-14.33,21.47-21.49,1.39-1.39,2.83-1.38,4.24,0,1.55,1.52,3.09,3.06,4.61,4.61,1.33,1.36,1.36,2.82,.04,4.15-7.2,7.22-14.42,14.42-21.63,21.63-.6,.6-1.31,.91-2.16,.9-.84,0-1.68,0-2.52,0v-.02Z"/></g></g></g></svg>