<?xml version="1.0"?>
<svg xmlns="http://www.w3.org/2000/svg" xmlns:xlink="http://www.w3.org/1999/xlink" xmlns:svgjs="http://svgjs.com/svgjs" version="1.1" width="512" height="512" x="0" y="0" viewBox="0 0 512 512" style="enable-background:new 0 0 512 512" xml:space="preserve"><g><path d="m512 256.239c0 1.836-.73 3.595-2.027 4.892l-25.885 25.885c-1.351 1.351-3.122 2.027-4.892 2.027s-3.541-.676-4.892-2.027c-2.703-2.7-2.703-7.083 0-9.784l14.074-14.074h-80.025c-3.822 0-6.919-3.097-6.919-6.919s3.097-6.919 6.919-6.919h80.024l-14.073-14.072c-2.703-2.7-2.703-7.081 0-9.784s7.081-2.703 9.784 0l25.885 25.883c1.297 1.297 2.027 3.056 2.027 4.892zm-474.302 19.714c2.703-2.703 2.703-7.083 0-9.784l-14.074-14.074h80.025c3.822 0 6.919-3.097 6.919-6.919s-3.097-6.919-6.919-6.919h-80.025l14.074-14.074c2.703-2.7 2.703-7.081 0-9.784s-7.081-2.703-9.784 0l-25.887 25.885c-1.297 1.297-2.027 3.056-2.027 4.892s.73 3.595 2.027 4.892l25.887 25.885c1.351 1.351 3.122 2.027 4.892 2.027 1.771 0 3.541-.676 4.892-2.027zm92.586-112.205-69.307-40.011 19.23-5.153c3.691-.989 5.881-4.782 4.892-8.473s-4.786-5.89-8.473-4.892l-35.36 9.475c-1.773.475-3.284 1.635-4.2 3.223-.919 1.59-1.167 3.477-.691 5.25 0 0 9.467 35.329 9.475 35.358.955 3.564 4.893 5.861 8.473 4.892 3.691-.989 5.881-4.782 4.892-8.473l-5.151-19.223s69.201 39.95 69.302 40.009c3.192 1.843 7.57.724 9.451-2.531 1.91-3.309.775-7.541-2.533-9.451zm-12.451 152.353-69.303 40.012 5.152-19.225c.989-3.691-1.2-7.484-4.892-8.473-3.68-1-7.482 1.2-8.473 4.892l-9.475 35.358c-.475 1.773-.227 3.66.691 5.25.917 1.588 2.428 2.748 4.2 3.223 0 0 35.341 9.47 35.36 9.475 3.578.959 7.487-1.214 8.473-4.892.989-3.691-1.2-7.484-4.892-8.473l-19.228-5.152 69.304-40.012c3.309-1.91 4.444-6.142 2.532-9.45-1.908-3.305-6.136-4.445-9.449-2.533zm272.882-129.954c1.205.032 2.408-.232 3.452-.834 0 0 69.303-40.014 69.303-40.014l-5.152 19.228c-.989 3.689 1.2 7.484 4.892 8.473 3.643.986 7.499-1.258 8.473-4.892l9.477-35.36c.475-1.773.227-3.66-.691-5.25-.917-1.59-2.428-2.748-4.2-3.223l-35.36-9.473c-3.691-1-7.484 1.203-8.473 4.892-.989 3.691 1.2 7.484 4.892 8.473l19.225 5.151-69.304 40.014c-3.308 1.91-4.444 6.142-2.532 9.45 1.197 2.071 3.603 3.302 5.998 3.365zm75.436 156.74c-.989-3.691-4.782-5.894-8.473-4.892-3.691.989-5.881 4.782-4.892 8.473l5.153 19.229-69.303-40.015c-3.311-1.914-7.538-.773-9.45 2.532-1.912 3.309-.777 7.541 2.532 9.45l69.303 40.015-19.227 5.152c-3.691.989-5.881 4.781-4.892 8.473.944 3.523 4.914 5.855 8.473 4.892l35.36-9.475c3.691-.989 5.881-4.782 4.892-8.473zm-208.568 21.352c-3.822 0-6.919 3.097-6.919 6.919v133.923c0 3.822 3.097 6.919 6.919 6.919s6.919-3.097 6.919-6.919v-133.923c0-3.822-3.097-6.919-6.919-6.919zm105.201-198.012v132.986c0 23.844-18.439 43.573-42.315 46.826v159.041c0 3.822-3.097 6.919-6.919 6.919s-6.919-3.097-6.919-6.919v-301.157c0-3.822 3.097-6.919 6.919-6.919s6.919 3.097 6.919 6.919v128.149c16.215-3.056 28.477-16.624 28.477-32.859v-132.986c0-21.331-23.221-30.279-37.063-33.716-37.743-9.363-75.333-9.367-111.709-.014-16.932 4.356-37.117 13.741-37.117 33.73v132.986c0 16.235 12.262 29.803 28.475 32.859v-128.149c0-3.822 3.097-6.919 6.919-6.919s6.919 3.097 6.919 6.919v301.158c0 3.822-3.097 6.919-6.919 6.919s-6.919-3.097-6.919-6.919v-159.041c-23.874-3.252-42.313-22.982-42.313-46.826v-132.987c0-22.514 16.872-39.252 47.509-47.131 12.623-3.247 25.388-5.323 38.236-6.448-17.838-10.245-30.304-33.037-30.304-59.504 0-32.779 19.673-53.144 51.34-53.144s51.34 20.365 51.34 53.144c0 26.526-12.52 49.364-30.421 59.576 12.73 1.143 25.504 3.187 38.297 6.361 30.23 7.505 47.568 24.687 47.568 47.146zm-106.784-61.619c20.678 0 37.502-23.086 37.502-51.464 0-34.2-23.496-39.306-37.502-39.306-14.007 0-37.502 5.106-37.502 39.306 0 28.379 16.824 51.464 37.502 51.464z" fill="#5d5555" data-original="#000000"/></g></svg>
