<?xml version="1.0" encoding="UTF-8"?><svg id="Layer_2" xmlns="http://www.w3.org/2000/svg" viewBox="0 0 107.22 102.78"><defs><style>.cls-1{fill:#fff;}.cls-2,.cls-3,.cls-4{fill:none;stroke:#000;stroke-miterlimit:10;}.cls-3{stroke-linecap:round;stroke-width:2.05px;}.cls-4{stroke-width:2.16px;}</style></defs><g id="Layer_1-2"><g><rect class="cls-1" width="107.22" height="102.78" rx="6.71" ry="6.71"/><g><rect class="cls-4" x="30.79" y="9.54" width="45.65" height="83.7" rx="8.6" ry="8.6"/><circle class="cls-2" cx="53.61" cy="81.83" r="3.61"/><line class="cls-3" x1="46.97" y1="19.06" x2="60.27" y2="19.06"/><g><path d="M55.51,44.27v.3c0,1.49,0,2.98,0,4.46,0,.2,.04,.29,.26,.34,1.43,.35,2.84,.77,4.12,1.55,1.94,1.19,2.83,2.93,2.74,5.18-.13,3.09-1.91,5.31-4.97,6.24-.62,.19-1.26,.32-1.9,.39-.2,.02-.24,.09-.24,.28,.01,.43,0,.87,0,1.3,0,.35-.13,.48-.48,.48-.89,0-1.79,0-2.68,0-.33,0-.47-.14-.47-.49,0-.48,0-.96,0-1.44,0-.16-.04-.22-.21-.24-2.57-.41-4.83-1.48-6.78-3.22-.37-.33-.38-.46-.07-.85,.67-.83,1.34-1.65,2.01-2.48,.31-.38,.46-.38,.83-.05,1.15,1.05,2.47,1.8,3.95,2.27,.2,.06,.27,.07,.27-.18-.01-1.6,0-3.2,0-4.8,0-.17-.05-.24-.22-.29-1.2-.33-2.37-.73-3.45-1.36-2.04-1.19-2.88-3.01-2.76-5.32,.15-2.84,2.07-5.14,5.05-6.07,.39-.12,.78-.23,1.18-.28,.16-.02,.2-.09,.2-.24,0-.42,0-.85,0-1.27,0-.34,.14-.48,.48-.48,.89,0,1.79,0,2.68,0,.34,0,.47,.13,.48,.49,0,.4,.02,.79,0,1.19-.02,.26,.09,.33,.32,.36,1.99,.31,3.78,1.09,5.38,2.3,.23,.18,.46,.36,.68,.56,.23,.2,.25,.38,.08,.62-.68,.93-1.37,1.86-2.06,2.79-.2,.27-.42,.27-.7,.03-1.02-.89-2.17-1.55-3.45-1.98-.07-.02-.14-.04-.24-.06Zm-2.85,11.53c0,.97,0,1.94,0,2.91,0,.49-.18,.62-.66,.5-1.69-.41-3.2-1.18-4.53-2.3-.15-.13-.22-.13-.34,.03-.48,.61-.96,1.21-1.46,1.8-.13,.15-.11,.22,.04,.35,1.88,1.57,4.04,2.5,6.47,2.82,.37,.05,.47,.16,.47,.53,0,.46,0,.92,0,1.38,0,.15,.04,.2,.19,.19,.56,0,1.11-.01,1.67,0,.19,0,.21-.07,.21-.23,0-.43,0-.87,0-1.3,0-.33,.11-.44,.43-.47,.73-.07,1.45-.18,2.16-.39,2.82-.84,4.42-2.82,4.52-5.6,.05-1.32-.3-2.51-1.23-3.49-.56-.59-1.23-1.01-1.96-1.35-1.11-.52-2.29-.83-3.48-1.12-.37-.09-.45-.17-.45-.56,0-1.86,0-3.73,0-5.59,0-.45,.19-.59,.63-.48,1.46,.36,2.78,1.02,3.95,1.97,.16,.13,.22,.11,.33-.05,.45-.63,.91-1.25,1.37-1.86,.1-.14,.11-.21-.04-.33-1.7-1.36-3.64-2.16-5.8-2.43-.34-.04-.44-.15-.45-.49,0-.41,0-.83,0-1.24,0-.16-.04-.21-.2-.21-.56,0-1.11,.01-1.67,0-.17,0-.2,.07-.19,.22,0,.38,0,.75,0,1.13,0,.42-.1,.53-.51,.58-1,.13-1.94,.43-2.82,.91-2.47,1.36-3.63,4.06-2.89,6.68,.4,1.39,1.37,2.28,2.61,2.92,1.01,.52,2.08,.85,3.17,1.14,.38,.1,.44,.19,.44,.57,0,.96,0,1.92,0,2.88Z"/><path d="M54.72,56.27c0-.88,0-1.75,0-2.63,0-.48,.2-.62,.66-.48,.63,.19,1.24,.42,1.83,.72,2.12,1.07,1.78,3.56,.41,4.62-.73,.56-1.57,.84-2.47,.95-.27,.04-.44-.16-.44-.49,0-.89,0-1.79,0-2.68Zm.79,.02c0,.7,0,1.39,0,2.09,0,.15,.03,.21,.19,.17,.65-.17,1.24-.43,1.71-.93,.68-.72,.88-2.26-.43-2.97-.4-.22-.81-.38-1.23-.55-.21-.08-.24-.02-.24,.19,.01,.67,0,1.34,0,2Z"/><path d="M52.66,46.29c0,.83,0,1.66,0,2.48,0,.42-.23,.58-.62,.44-.48-.17-.94-.37-1.38-.64-1.61-.97-1.56-2.8-.67-3.92,.55-.7,1.29-1.11,2.14-1.33,.32-.08,.53,.09,.53,.43,0,.85,0,1.69,0,2.54Zm-.79,2c0-1.31,0-2.59,0-3.87,0-.14-.02-.19-.17-.12-.58,.27-1.05,.65-1.34,1.24-.42,.87-.18,1.76,.62,2.3,.27,.18,.55,.32,.89,.45Z"/></g></g></g></g></svg>