<?xml version="1.0"?>
<svg xmlns="http://www.w3.org/2000/svg" xmlns:xlink="http://www.w3.org/1999/xlink" xmlns:svgjs="http://svgjs.com/svgjs" version="1.1" width="512" height="512" x="0" y="0" viewBox="0 0 64 64" style="enable-background:new 0 0 512 512" xml:space="preserve"><g><g id="_20" data-name="20"><path d="m55.2988 3.25h-38.68a.7384.7384 0 0 0 -.3366.09.6285.6285 0 0 0 -.1937.1295l-7.918 7.9189a.74.74 0 0 0 -.1467.2194.7244.7244 0 0 0 -.0253.0712.7419.7419 0 0 0 -.0383.1927c-.001.0161-.0093.0306-.0093.0469v48.0814a.75.75 0 0 0 .75.75h46.5979a.75.75 0 0 0 .75-.75v-56a.75.75 0 0 0 -.75-.75zm-41.9912 5.1226 2.626-2.6263v5.4227h-5.4219zm41.2412 50.8774h-45.0976v-46.5811h7.2324a.75.75 0 0 0 .75-.75v-7.1689h37.1152z" fill="#444444" data-original="#000000"/><path d="m26.084 29.835a.6314.6314 0 0 1 .292.5752c-.0088.1523-.0166.3047-.0166.4561a5.594 5.594 0 0 0 .3883 2.0183 2.4732 2.4732 0 0 0 -1.0758.6252 2.4476 2.4476 0 0 0 -.7217 1.7441 2.4736 2.4736 0 0 0 2.4668 2.4746h.3906v.7988a3.956 3.956 0 0 0 3.9524 3.9522h.4766a3.956 3.956 0 0 0 3.9521-3.9521v-.7988h.3913a2.47 2.47 0 0 0 .6463-4.852 5.7352 5.7352 0 0 0 .4016-2.3922.6863.6863 0 0 1 .2813-.6445 10.73 10.73 0 1 0 -11.8252-.0049zm8.6045 8.6924a2.4544 2.4544 0 0 1 -2.4521 2.4521h-.4764a2.4544 2.4544 0 0 1 -2.4521-2.4521v-.7988h5.3809zm2.8574-3.2734a.9787.9787 0 0 1 -.9658.9746h-9.1631a.9719.9719 0 0 1 -.9668-.9746.9787.9787 0 0 1 .9668-.9746h9.163a.9717.9717 0 0 1 .9659.9745zm-14.7178-15.4054a9.23 9.23 0 1 1 14.26 8.7363 2.1987 2.1987 0 0 0 -.957 2.0381 4.1094 4.1094 0 0 1 -.4922 2.1562h-2.8889v-11.0761h2.3516v-1.5h-6.2061v1.5h2.3545v11.0762h-2.9209a4.0825 4.0825 0 0 1 -.47-1.9131c0-.124.0078-.2471.0127-.3506a2.11 2.11 0 0 0 -.9658-1.9346 9.2037 9.2037 0 0 1 -4.0779-8.7324z" fill="#444444" data-original="#000000"/><path d="m14.943 45.153h34.113v1.5h-34.113z" fill="#444444" data-original="#000000"/><path d="m14.943 49.327h34.113v1.5h-34.113z" fill="#444444" data-original="#000000"/><path d="m14.943 53.5h34.113v1.5h-34.113z" fill="#444444" data-original="#000000"/></g></g></svg>
