<?xml version="1.0" encoding="UTF-8"?><svg id="Layer_2" xmlns="http://www.w3.org/2000/svg" viewBox="0 0 107.22 102.78"><defs><style>.cls-1{fill:#fff;}.cls-2{fill:none;stroke:#000;stroke-miterlimit:10;stroke-width:2px;}</style></defs><g id="Layer_1-2"><g><rect class="cls-1" width="107.22" height="102.78" rx="6.71" ry="6.71"/><g><g><path class="cls-2" d="M80.9,26.58c.51,0,1.01,.01,1.52,.01,4.48,.03,7.53,3.06,7.56,7.54,.01,2.02-.04,4.04,.02,6.05,.02,.77-.18,.96-.96,.97-3.44,.03-6.88-.23-10.31,.14-9.02,.98-15.71,10.12-13.96,19.03,1.59,8.13,8.18,13.54,16.48,13.55,2.64,0,5.29,.03,7.93-.02,.7-.01,.83,.21,.81,.85-.04,2.02,0,4.03-.02,6.05,0,.59,0,1.2-.13,1.78-.74,3.63-3.64,5.88-7.57,5.88-20.35,0-40.69,0-61.04,0-.45,0-.91-.01-1.36-.04-4.79-.29-9.19-4.44-9.77-9.19,.05-.31,.09-.61-.15-.87V26.57"/><path class="cls-2" d="M10.1,79.18l-.07-.02h-.08v-.85c.24,.26,.21,.56,.15,.87Z"/><path class="cls-2" d="M97.27,57.5c0,2.64,0,5.28,0,7.92,0,1.86-1.11,2.98-2.96,2.98-4.49,0-8.97,.02-13.46,0-6.02-.04-10.87-4.92-10.87-10.91,0-5.99,4.85-10.87,10.88-10.9,4.49-.02,8.97,0,13.46,0,1.84,0,2.94,1.13,2.95,2.99,0,2.64,0,5.28,0,7.92Zm-12.75-.03c0-2.02-1.59-3.6-3.62-3.6-2.02,0-3.61,1.58-3.62,3.6,0,2.06,1.6,3.66,3.66,3.64,2.01-.02,3.59-1.62,3.58-3.64Z"/></g><path class="cls-2" d="M13.95,14.37h63.04c2.21,0,4,1.79,4,4v8.2H9.95v-8.2c0-2.21,1.79-4,4-4Z"/></g></g></g></svg>