<svg width="51" height="53" viewBox="0 0 51 53" fill="none" xmlns="http://www.w3.org/2000/svg">
<path d="M14.8285 48.1276H8.59969C7.49837 48.1276 6.44217 47.6668 5.66342 46.8465C4.88467 46.0261 4.44717 44.9135 4.44717 43.7534V28.4438C4.44717 27.2837 4.88467 26.1711 5.66342 25.3508C6.44217 24.5304 7.49837 24.0696 8.59969 24.0696H14.8285M29.3623 19.6954V10.947C29.3623 9.20686 28.706 7.53798 27.5379 6.3075C26.3698 5.07702 24.7855 4.38574 23.1335 4.38574L14.8285 24.0696V48.1276H38.2487C39.2501 48.1395 40.2219 47.7698 40.985 47.0866C41.7481 46.4033 42.251 45.4526 42.4012 44.4096L45.2664 24.7257C45.3567 24.0988 45.3166 23.4587 45.1488 22.8497C44.9809 22.2408 44.6894 21.6776 44.2944 21.1991C43.8994 20.7206 43.4104 20.3383 42.8612 20.0786C42.312 19.819 41.7158 19.6882 41.1139 19.6954H29.3623Z" stroke="#111111" stroke-width="4" stroke-linecap="round" stroke-linejoin="round"/>
</svg>
