<?xml version="1.0" encoding="UTF-8"?><svg id="Layer_2" xmlns="http://www.w3.org/2000/svg" viewBox="0 0 64.28 81.3"><defs><style>.cls-1{stroke-linecap:round;stroke-width:1.5px;}.cls-1,.cls-2{fill:none;stroke:#000;stroke-linejoin:round;}.cls-2{stroke-width:3px;}</style></defs><g id="Layer_1-2"><g><g><path class="cls-2" d="M6.45,31.33v10.46c0,3.73,3.03,6.76,6.76,6.76h5.05v-5.11h-6.45c-.42,0-.75-.34-.75-.75v-11.35"/><path class="cls-2" d="M5.8,14.46H1.5v8.52c0,4.99,4.05,9.03,9.04,9.03h.51c5.93,0,10.74-4.81,10.74-10.74h2.21v1.11c0,5.32,4.31,9.63,9.63,9.63h0c5.32,0,9.63-4.31,9.63-9.63v-7.93H10.54m-4.74,0V1.5h4.74V14.46m-4.74,0h4.74"/><path class="cls-1" d="M31.45,18.19l5.67,5.62"/><path class="cls-1" d="M27.85,18.19l2.93,2.88"/></g><g><path d="M48.16,41.31h-.08l-1.59-.15h0l-.71-.06v.04c-.21,.04-.44,.05-.68,.05-.19,0-.39,0-.58,.02-2.19,.22-3.74,1.33-4.6,3.3-.87,1.99-.63,3.96,.68,5.71,.59,.79,.76,1.46,.54,2.18-.24,.81-.78,1.32-1.6,1.51-.83,.19-1.53-.03-2.09-.67-.89-1.01-1.91-1.65-3.12-1.93-1.47-.35-2.98-.1-4.25,.69-1.27,.79-2.15,2.03-2.48,3.5-.95,4.22-.52,8.33,1.27,12.21,.05,.11,.13,.23,.2,.34,.1,.15,.22,.34,.19,.42-.04,.11-.22,.24-.39,.35-.11,.07-.21,.14-.3,.22-2.46,2.08-5.03,4.39-7.11,7.24-.41,.56-.81,1.19-1.04,1.93l-.13-.04-.06,.69h0v.06l-.06,.61,.03-.02v.07l.1,.04c.15,.88,.83,1.55,1.76,1.66,.15,.02,.29,.03,.44,.03,.91,0,1.75-.32,2.49-.64,2.49-1.07,4.67-2.57,6.47-3.9,.97-.72,1.9-1.47,2.77-2.24,.06-.06,.09-.07,.09-.07,0,0,.04,.01,.1,.06,3.02,2.29,6.5,3.55,10.33,3.75,8.12,.42,15.7-4.64,18.43-12.31,3.28-9.2-.98-19.17-9.89-23.19-1.2-.54-2.52-.96-4.03-1.27-.02,0-.03,0-.05,0m-8.61,19.66c.94-.8,2.16-1.21,3.39-1.21,.92,0,1.85,.23,2.65,.69-.05,.03-.1,.06-.15,.09-1.14,.69-1.97,1.66-2.54,2.97-.43,.97-1.32,1.45-2.39,1.26-.92-.15-1.64-.94-1.74-1.91-.08-.75,.19-1.38,.78-1.89Zm-4.03,11.18c1.36-1.34,2.75-2.83,3.77-4.63h.01c2.77,.8,5.22-.33,6.4-2.96,.51-1.14,1.41-1.79,2.74-1.97,.87-.12,1.38-.51,1.52-1.18,.09-.43,0-.84-.26-1.21-1.3-1.83-3.36-3.05-5.63-3.36-2.28-.31-4.59,.34-6.34,1.77-1.52,1.25-2.16,2.88-1.89,4.86,0,.03,.01,.06,.02,.12-1.9,.67-3.58,1.76-5.13,2.82l-.09,.06c-.86-1.75-1.37-3.56-1.54-5.54-.15-1.7-.02-3.4,.38-5.04,.24-.98,.84-1.6,1.79-1.86,1.06-.28,1.96-.04,2.66,.73,.78,.85,1.55,1.39,2.41,1.68,2.17,.75,4.52-.01,5.86-1.87,1.33-1.85,1.27-4.38-.13-6.14-.76-.96-.91-1.94-.45-2.99,.41-.92,1.13-1.43,2.1-1.48,4.47-.22,8.31,1.15,11.43,4.02,3.42,3.15,5.13,7.08,5.07,11.67-.09,7.93-5.84,14.38-13.68,15.33-3.97,.49-7.67-.45-11.01-2.77-.02-.01-.04-.03-.05-.04,.01-.01,.03-.03,.05-.05Zm.88-5.59c-2.19,3.09-4.99,5.48-7.72,7.61-.12,.09-.16,.11-.15,.11,0,0-.04-.02-.1-.11-.26-.37-.57-.72-.86-1.05l-.16-.19-.02-.02c2.33-2.08,5.16-4.43,8.46-6.08,.19-.09,.37-.18,.56-.26Zm-10.33,9.4c-.95,.59-1.96,1.19-3.06,1.65,.66-.94,1.44-1.8,2.25-2.65l.8,.99Z"/><path d="M49.29,73.8c.13,.01,.25,.02,.37,.02,.92,0,1.8-.32,2.51-.91,.81-.67,1.3-1.61,1.4-2.65,.1-1.04-.22-2.06-.9-2.87-.68-.81-1.62-1.31-2.66-1.4-2.17-.19-4.05,1.39-4.26,3.53-.1,1.05,.21,2.07,.88,2.88,.67,.81,1.61,1.31,2.65,1.4Zm.38-4.86s.04,0,.06,0c.24,.01,.48,.14,.65,.33,.17,.2,.26,.46,.24,.7-.05,.51-.52,.9-1.03,.86-.52-.04-.91-.5-.87-1.01,.04-.49,.47-.88,.96-.88Z"/><path d="M51.28,62.64c-.11,1.05,.2,2.08,.87,2.9,.66,.81,1.6,1.31,2.64,1.41,.13,.01,.26,.02,.39,.02,.91,0,1.78-.31,2.49-.89,.81-.66,1.32-1.6,1.42-2.64,.1-1.04-.21-2.06-.88-2.88-.67-.82-1.61-1.32-2.65-1.42-2.13-.2-4.06,1.37-4.28,3.51Zm4.51,1.13c-.2,.17-.46,.24-.72,.21-.52-.06-.89-.52-.83-1.04,.05-.51,.53-.91,1.04-.85,.5,.05,.9,.53,.86,1.04-.02,.25-.14,.48-.34,.64Z"/><path d="M53.26,57.01c.13,.01,.26,.02,.39,.02,.91,0,1.79-.31,2.5-.9,.81-.67,1.31-1.6,1.41-2.64,.1-1.04-.22-2.06-.89-2.88-.67-.81-1.61-1.31-2.65-1.41-2.14-.19-4.06,1.38-4.27,3.51-.1,1.05,.21,2.08,.88,2.89,.66,.81,1.6,1.31,2.64,1.41Zm.3-2.96c-.52-.05-.9-.51-.85-1.02h0c.04-.49,.47-.87,.95-.87,.02,0,.05,0,.07,0,.24,.02,.48,.14,.65,.35,.17,.2,.25,.46,.22,.7-.05,.51-.53,.9-1.04,.84Z"/></g></g></g></svg>