<?xml version="1.0" encoding="UTF-8"?><svg id="Layer_2" xmlns="http://www.w3.org/2000/svg" viewBox="0 0 54.85 80.42"><defs><style>.cls-1{stroke:#000;stroke-miterlimit:10;stroke-width:.94px;}</style></defs><g id="Layer_1-2"><path class="cls-1" d="M54.33,67.18c-.12-5.03-3.88-9.33-8.84-10.14-.64-.1-.75-.32-.75-.9,.02-4.69,.01-9.39,.01-14.08,0-.8,0-1.6,0-2.4h0v-.22c0-1.56,0-11.34,0-11.74,0-.28,.07-.4,.32-.54,3.56-2.09,5.57-5.17,5.99-9.15,.61-5.74-2.8-10.96-8.28-12.69-1.76-.56-3.53-.68-5.25-.38-.2,.03-.29,0-.43-.14-1.74-1.92-3.89-3.22-6.38-3.88-.48-.13-.97-.2-1.44-.28l-.28-.05h-.01l-.02-.1h-2.91l-.06,.04c-.15,.1-.32,.12-.53,.14-.09,0-.19,.02-.28,.04-2.82,.53-5.24,1.87-7.19,3.98-.19,.2-.32,.28-.62,.24-6.21-.86-12.05,3.31-13.31,9.5-.02,.11-.03,.21-.04,.32-.02,.21-.03,.39-.14,.54l-.04,.06v2.6c.04,.17,.08,.35,.11,.53,.08,.39,.16,.78,.25,1.16,.85,3.32,2.79,5.87,5.77,7.56,.23,.13,.29,.24,.29,.51,0,.25,0,4.01,0,7.24h0c0,7.02,0,14.03,0,21.05,0,.39,.12,.75-.53,.85-5.29,.83-9.22,5.4-9.26,10.75-.02,3.6,0,7.19,0,10.79,0,.13,0,.26,0,.38,.06,.68,.53,1.16,1.17,1.18,.67,.02,1.2-.46,1.26-1.17,.02-.2,0-.41,0-.61,0-3.57-.04-7.14,.02-10.71,.06-4.13,3.1-7.58,7.17-8.19,2.13-.32,4.28-.06,6.42-.14,.42-.02,.7,.12,.99,.42,1.68,1.71,3.39,3.4,5.09,5.09,.86,.85,1.4,.85,2.27-.01,.71-.7,1.43-1.39,2.11-2.11,.31-.34,.5-.38,.84-.02,.71,.77,1.47,1.49,2.21,2.22,.75,.74,1.35,.74,2.11,0,1.05-1.04,2.09-2.09,3.14-3.13,.81-.81,1.5-1.93,2.48-2.33,.98-.41,2.26-.11,3.41-.1,1.37,.01,2.76-.11,4.11,.22,3.89,.95,6.55,4.22,6.6,8.23,.05,3.65,0,7.3,.02,10.94,0,.91,.46,1.43,1.22,1.43,.73,0,1.22-.52,1.22-1.36,0-3.8,.07-7.6-.02-11.4ZM17.63,33.83h19.61c-.04,2.17-.13,7.29-.32,8.11-1.11,4.76-5.76,7.94-10.63,7.35-4.91-.6-8.6-4.65-8.65-9.52,0-.2,0-4.15,0-5.94Zm-4.77-6.97c0-.78-.31-1.28-1.01-1.64-3.43-1.71-5.25-4.52-5.4-8.34-.19-4.63,3.43-8.87,8.06-9.45,.53-.07,1.03-.09,1.56-.08-.47,.91-.78,1.67-1.01,2.42-.34,1.14-.53,2.34-.55,3.58-.01,.78,.45,1.36,1.14,1.43,.36,.04,.69-.06,.94-.26,.27-.22,.43-.55,.47-.95l.02-.22c.08-.9,.16-1.74,.38-2.59,.99-3.85,4.44-6.96,8.41-7.57,4.67-.71,9.26,1.78,11.16,6.07,.53,1.19,.82,2.43,.89,3.68,.01,.26,.03,.53,.08,.8,.12,.64,.6,1.05,1.24,1.05h0c.66,0,1.18-.46,1.24-1.11,.11-1.03-.07-2.03-.25-2.89-.24-1.16-.67-2.32-1.27-3.44h0c1.79-.08,3.41,.32,4.84,1.19,3.58,2.16,5.16,5.32,4.69,9.39-.37,3.23-2.08,5.64-5.08,7.17-.88,.45-1.24,1.02-1.22,1.98,0,.2,0,1.94,.01,4.06H12.86c0-2.23,0-4.07,0-4.28Zm4.58,29.49c-.23,.24-.48,.33-.8,.32-1.07-.02-2,.12-3.07,.16-.57,.03-.72-.12-.71-.7,.03-4.74,.02-9.49,.02-14.23,0-.75,0-1.5,0-2.25h.01v-.23c0-.54-.01-1.75-.02-3.21,0-.38,0-.76,0-1.13h0c0-.41,0-.83,0-1.26h2.31c0,1.75,0,5.57,0,5.71,.03,3.79,1.51,6.92,4.39,9.37,.36,.31,.59,.6,.5,1.09-.01,.07,0,.15,0,.23,0,1.15,.33,2.45-.1,3.4-.48,1.07-1.66,1.82-2.53,2.72Zm8.06,4.17c-.05,.06-.1,.11-.16,.16-.53,.5-1.02,1.34-1.61,1.41-.54,.07-1.02-.86-1.52-1.35-.82-.8-1.61-1.63-2.43-2.42-.32-.3-.43-.5-.03-.83,.54-.45,.99-1.28,1.56-1.36,.53-.07,.98,.83,1.47,1.3,.84,.81,1.66,1.65,2.48,2.48,.12,.12,.24,.25,.37,.39-.05,.09-.08,.16-.12,.21Zm2.3-2.29c-.31,.31-.47,.3-.78,0-1.37-1.4-2.76-2.78-4.16-4.16-.25-.25-.37-.5-.36-.86,.03-.76,0-1.53,0-2.42,3.29,1.34,6.51,1.34,9.8,0,0,.95-.01,1.8,0,2.66,0,.27-.15,.41-.31,.57-1.41,1.4-2.82,2.8-4.21,4.21Zm6.16,1.17c-.81,.84-1.65,1.66-2.48,2.48-.12,.12-.21,.3-.61,.33-.09-.12-.25-.35-.43-.57-.38-.47-1.18-.8-1.13-1.33,.04-.45,.72-.85,1.13-1.27,.89-.9,1.81-1.79,2.69-2.71,.28-.3,.47-.38,.77-.02,.47,.53,1.32,.99,1.38,1.54,.06,.58-.85,1.03-1.33,1.54Zm7.49-2.74s-.05,0-.08,0c-1.17,0-2.59,.32-3.58-.1-1.05-.45-1.77-1.63-2.66-2.47-.29-.27-.43-.55-.37-.94,.02-.15,0-.31,0-.46,0-.99-.11-2.01,.03-2.98,.16-1.05,1.29-1.41,1.9-2.16,1.89-2.32,2.93-4.93,2.96-7.92,0-.17,0-4.04,0-5.81h2.54c0,2.44,.01,4.8,.02,5.6v.08c0,5.46,0,10.92,.01,16.37,0,.63-.14,.9-.78,.77Z"/></g></svg>