<?xml version="1.0" encoding="UTF-8"?><svg id="Layer_2" xmlns="http://www.w3.org/2000/svg" viewBox="0 0 62.86 71.44"><defs><style>.cls-1{stroke:#fff;stroke-miterlimit:10;stroke-width:.5px;}</style></defs><g id="Layer_1-2"><g><path class="cls-1" d="M30.94,46.91c-1.66-.63-3.37-.73-5.11-.66-.48,.02-.69-.06-.66-.62,.05-1.06,.04-2.12,0-3.18-.02-.47,.15-.59,.57-.72,4.33-1.32,6.94-4.2,7.63-8.7,.3-1.97,.06-3.96,.12-5.95,.02-.62-.26-1.43,.12-1.79,.32-.3,1.13-.1,1.73-.11,1.89-.02,2.82-1.53,1.98-3.23-.71-1.44-1.36-2.93-2.18-4.31-1.29-2.16-1.98-4.42-1.65-6.95,.03-.25,0-.51,0-.76-.17-3.01-1.21-5.57-3.81-7.31-1.62-1.08-3.45-1.61-5.34-1.97-.87-.16-1.77-.11-2.61-.41h-5.68c-.1,.24-.32,.12-.48,.14-1.74,.2-3.47,.47-5.12,1.11-3.19,1.23-5.24,3.43-5.85,6.85-.32,1.79-.16,3.59-.18,5.39,0,.38-.07,.71-.25,1.05-1.21,2.38-2.4,4.77-3.58,7.16-.84,1.69,.1,3.22,1.98,3.23,.42,0,.83,.03,1.25,0,.47-.05,.63,.08,.62,.59-.04,1.68,0,3.37-.02,5.06,0,.97-.01,1.94,.21,2.89,.97,4.16,3.51,6.85,7.61,8.03,.38,.11,.53,.23,.5,.64-.04,.64,0,1.29-.01,1.94,0,.62,.21,1.43-.1,1.8-.32,.39-1.17,.08-1.78,.12-.09,0-.18,0-.28,0-5.68,.05-10.27,4.64-10.3,10.33-.02,4.11,0,8.22,0,12.33,0,1.43,.85,2.27,2.28,2.28,10.94,0,21.88,0,32.82,0,1.43,0,2.29-.85,2.29-2.27,0-4.13,.02-8.26,0-12.4-.03-4.27-2.73-8.07-6.71-9.6ZM8.66,9.33c.27-1.86,1.29-3.11,2.99-3.84,1.64-.7,3.37-.92,5.12-1.02,2.79-.15,5.58-.13,8.31,.6,2.88,.77,4.21,2.46,4.25,5.42,0,.71,.25,1.65-.1,2.08-.37,.45-1.34,.13-2.04,.13-2.77,.01-5.54,0-8.31,0-3.23,0-6.46-.01-9.69,.01-.52,0-.68-.11-.64-.64,.07-.92-.03-1.84,.11-2.76Zm-2.94,11.69c.37-.76,.71-1.47,1.07-2.18,.33-.65,.53-1.54,1.07-1.88,.51-.33,1.39-.09,2.1-.09,6.49,0,12.97,0,19.46-.02,.57,0,.84,.18,1.07,.69,.52,1.14,1.11,2.26,1.72,3.48H5.72Zm2.86,10.78c-.03-2.05,0-4.11-.02-6.16,0-.36,.09-.46,.46-.46,6.62,.01,13.25,0,19.87,.01,.21,0,.48-.1,.46,.3-.08,2.44,.21,4.9-.14,7.33-.42,2.85-2.93,4.98-5.8,5.11-1.64,.07-2.37,.83-2.37,2.47,0,2.52,0,5.03,0,7.55,0,1.58,.67,2.32,2.32,2.5-.33,.5-.64,.98-.96,1.45-1.05,1.57-2.1,3.14-3.15,4.71-.11,.17-.2,.58-.5,.13-1.39-2.09-2.78-4.17-4.18-6.28,1.68-.2,2.32-.92,2.32-2.56,0-2.54,0-5.08,0-7.62,0-1.48-.79-2.29-2.29-2.34-3.32-.13-5.96-2.8-6.01-6.12Zm4.21,26.91c-1.25,.02-2.13,.89-2.14,2.14-.01,1.87-.02,3.74,0,5.61,0,.45-.11,.58-.56,.57-1.73-.03-3.46-.02-5.19,0-.39,0-.5-.1-.5-.49,.02-3.37-.02-6.74,.02-10.11,.03-2.73,2.04-5.18,4.67-5.84,.32-.08,.53-.06,.75,.26,1.67,2.54,3.37,5.07,5.06,7.6,.04,.05,.05,.12,.11,.26-.8,0-1.51-.01-2.23,0Zm10.33,7.89c0,.33-.09,.42-.42,.42-2.49-.01-4.99-.01-7.48,0-.33,0-.43-.09-.42-.42,.02-1.08,.03-2.17,0-3.25,0-.39,.1-.5,.5-.49,1.25,.02,2.49,0,3.74,0s2.4,.02,3.6,0c.39,0,.5,.1,.49,.5-.03,1.08-.02,2.17,0,3.25Zm9.85,.42c-1.73-.02-3.46-.03-5.19,0-.46,0-.52-.15-.51-.55,.02-1.82,.01-3.65,0-5.47,0-1.47-.84-2.3-2.33-2.3-.66,0-1.32,0-1.97,0-.06-.22,.08-.31,.15-.41,1.63-2.46,3.28-4.91,4.9-7.37,.23-.35,.44-.43,.84-.32,2.69,.73,4.61,3.14,4.63,5.94,.03,3.32,0,6.65,.02,9.97,0,.45-.15,.52-.55,.52Z"/><path class="cls-1" d="M61.19,42.18c-5.34-2.68-10.7-5.35-16.05-8.02-1.87-.93-3.33-.02-3.33,2.08,0,5.4,0,10.8,0,16.2s0,10.94,0,16.41c0,.68,.16,1.29,.67,1.75,.66,.59,1.43,.76,2.24,.39,.86-.39,1.25-1.11,1.25-2.05,0-4.8,.01-9.6-.02-14.4,0-.59,.17-.87,.7-1.13,4.78-2.36,9.55-4.76,14.32-7.15,.37-.19,.75-.36,1.04-.67,1.03-1.09,.67-2.66-.83-3.41Zm-15.17,6.9v-9.85c3.27,1.63,6.5,3.25,9.85,4.92-3.34,1.67-6.56,3.28-9.85,4.93Z"/></g></g></svg>