<?xml version="1.0" encoding="UTF-8"?><svg id="Layer_2" xmlns="http://www.w3.org/2000/svg" viewBox="0 0 61.44 63.94"><defs><style>.cls-1,.cls-2,.cls-3{fill:none;stroke:#000;stroke-linecap:round;}.cls-1,.cls-3{stroke-width:3.26px;}.cls-2{stroke-width:3.22px;}.cls-2,.cls-3{stroke-linejoin:round;}</style></defs><g id="Layer_1-2"><g><path class="cls-1" d="M14.28,60.25c0-6.22,8.29-6.22,12.44-10.37,2.07-2.07-4.15-2.07-4.15-12.44,0-6.91,2.76-10.37,8.29-10.37s8.29,3.46,8.29,10.37c0,10.37-6.22,10.37-4.15,12.44,4.15,4.15,12.44,4.15,12.44,10.37"/><path class="cls-3" d="M8.84,62.31V12.84c0-2.25,1.83-4.08,4.08-4.08H48.52c2.25,0,4.08,1.83,4.08,4.08V62.31"/><path class="cls-2" d="M1.61,62.31V5.58C1.61,3.39,3.43,1.61,5.69,1.61H55.76c2.25,0,4.08,1.78,4.08,3.97V62.31"/></g></g></svg>