<?xml version="1.0" encoding="UTF-8"?><svg id="Layer_2" xmlns="http://www.w3.org/2000/svg" viewBox="0 0 79.44 42.27"><defs><style>.cls-1{stroke-width:1.02px;}.cls-1,.cls-2,.cls-3{fill:none;stroke:#000;}.cls-1,.cls-3{stroke-linecap:round;}.cls-2{stroke-width:.84px;}.cls-3{stroke-linejoin:round;stroke-width:4.47px;}</style></defs><g id="Layer_1-2"><g><path class="cls-3" d="M55.68,15.81l18.41-3.83c1.55-.49,3.12,.66,3.12,2.28v17.92c0,1.62-1.57,2.77-3.12,2.28l-18.4-3.83"/><path class="cls-3" d="M55.68,8.76c0-1.32-1.07-2.4-2.4-2.4H4.63c-1.32,0-2.4,1.07-2.4,2.4v28.88c0,1.32,1.08,2.4,2.4,2.4H53.29c1.33,0,2.4-1.07,2.4-2.4V8.76Z"/><line class="cls-2" x1="69.97" y1="12.84" x2="69.97" y2="33.3"/><rect class="cls-1" x="33.63" y=".51" width="17.39" height="6.86" rx="1.58" ry="1.58"/><rect x="7.18" y="11.05" width="13.97" height="1.62" rx=".81" ry=".81"/></g></g></svg>