<?xml version="1.0" encoding="UTF-8"?><svg id="Layer_2" xmlns="http://www.w3.org/2000/svg" viewBox="0 0 64.75 47.33"><defs><style>.cls-1{stroke-linecap:round;stroke-linejoin:round;stroke-width:4px;}.cls-1,.cls-2,.cls-3{fill:none;stroke:#000;}.cls-2{stroke-width:1.05px;}.cls-3{stroke-width:3.67px;}</style></defs><g id="Layer_1-2"><g><path class="cls-1" d="M17.08,8.67c1.12,0,2.17-.56,2.79-1.48l1.5-2.21c1.25-1.85,3.36-2.97,5.62-2.97h10.77c2.26,0,4.37,1.11,5.62,2.97l1.49,2.21c.63,.93,1.68,1.49,2.8,1.49h11.71c1.86,0,3.37,1.51,3.37,3.37v29.92c0,1.86-1.51,3.37-3.37,3.37H5.37c-1.86,0-3.37-1.51-3.37-3.37V12.04c0-1.86,1.51-3.37,3.37-3.37h11.71Z"/><line class="cls-2" x1="45.68" y1="19.57" x2="62.75" y2="19.57"/><line class="cls-2" x1="19.07" y1="19.57" x2="2" y2="19.57"/><path class="cls-3" d="M32.37,34.52c5.14,0,9.3-4.11,9.3-9.18s-4.16-9.18-9.3-9.18-9.29,4.11-9.29,9.18,4.16,9.18,9.29,9.18Z"/><path class="cls-2" d="M32.37,39.67c8.03,0,14.53-6.42,14.53-14.34s-6.5-14.34-14.53-14.34-14.51,6.42-14.51,14.34,6.5,14.34,14.51,14.34Z"/></g></g></svg>