<?xml version="1.0" encoding="UTF-8"?><svg id="Layer_2" xmlns="http://www.w3.org/2000/svg" viewBox="0 0 75.47 82.11"><defs><style>.cls-1{stroke-width:4px;}.cls-1,.cls-2,.cls-3,.cls-4,.cls-5,.cls-6,.cls-7,.cls-8,.cls-9,.cls-10{fill:none;stroke:#000;stroke-miterlimit:10;}.cls-2{stroke-width:1.36px;}.cls-4{stroke-width:1.38px;}.cls-5{stroke-width:3.91px;}.cls-6{stroke-width:3.75px;}.cls-7{stroke-width:3.9px;}.cls-8{stroke-width:1.01px;}.cls-9{stroke-linecap:round;stroke-width:.96px;}.cls-10{stroke-width:1.24px;}</style></defs><g id="Layer_1-2"><g><path class="cls-1" d="M13.28,2H61.78c1.8,0,3.26,1.46,3.26,3.26v11.11H10.02V5.26c0-1.8,1.46-3.26,3.26-3.26Z"/><path class="cls-7" d="M4.89,38.38H70.18v38.44c0,1.84-1.49,3.34-3.34,3.34H8.22c-1.84,0-3.34-1.49-3.34-3.34V38.38h0Z"/><path class="cls-8" d="M48.28,72.15h17.12c.46,0,.84,.38,.84,.84v1.81h-18.8v-1.81c0-.46,.38-.84,.84-.84Z"/><path class="cls-3" d="M44.98,75.05h23.96c.68,0,1.24,.56,1.24,1.24v2.85h-26.44v-2.85c0-.68,.56-1.24,1.24-1.24Z"/><rect class="cls-2" x="10.43" y="48.53" width="30.41" height="22.03" rx="4.09" ry="4.09"/><path class="cls-4" d="M54.19,48.53h5.55c2.51,0,4.55,2.04,4.55,4.55v18.88h-14.65v-18.88c0-2.51,2.04-4.55,4.55-4.55Z"/><path class="cls-1" d="M70.11,38.38H5.37c-2.44,0-4.06-2.51-3.07-4.74l7.72-17.28h55.03l8.1,17.22c1.05,2.23-.58,4.8-3.04,4.8Z"/><path class="cls-5" d="M47.38,38.43s7.94,.23,8.49-4.66l-3.1-17.4"/><path class="cls-1" d="M65.32,38.38s-8.04,.49-9.45-4.34"/><path class="cls-1" d="M28.45,38.5c.27-.55,8.8,.98,9.24-3.7l.43-18.89"/><path class="cls-1" d="M46.13,38.36s-7.93,.88-8.39-4.13"/><path class="cls-1" d="M10.43,38.41s7.49,.77,9.14-3.37l5.06-18.66"/><path class="cls-6" d="M29,38.37s-10.25,1.44-9.18-4.65"/><line class="cls-10" x1="49.77" y1="55.29" x2="64.29" y2="55.29"/><circle class="cls-10" cx="52.31" cy="63.71" r=".34"/><line class="cls-9" x1="23.04" y1="56.38" x2="15.98" y2="63.44"/><line class="cls-9" x1="31.7" y1="54.46" x2="20.79" y2="65.37"/></g></g></svg>