<?xml version="1.0" encoding="UTF-8"?><svg id="Layer_2" xmlns="http://www.w3.org/2000/svg" viewBox="0 0 89.74 74.07"><defs><style>.cls-1,.cls-2{stroke:#000;stroke-width:.5px;}.cls-2{fill:none;stroke-miterlimit:10;}</style></defs><g id="Layer_1-2"><g><path class="cls-1" d="M.25,43.62c.6-1.59,1.54-2.84,3.31-3.21,.34-.07,.69-.1,1.03-.1,10.11,0,20.21,0,30.32,0,2.58,0,4.37,1.8,4.37,4.39,0,6.17,.01,12.34-.01,18.51,0,.64,.11,.91,.83,.87,1.27-.07,2.56-.06,3.83,0,.73,.04,1-.11,.95-.92-.09-1.83-.05-3.65,.64-5.41,1.44-3.69,4.98-6.2,8.94-6.26,1.22-.02,2.44-.02,3.66,0,.48,.01,.66-.06,.71-.63,.1-1.12-.27-1.77-1.23-2.45-4.66-3.31-7.06-7.9-7.15-13.64-.06-4.22-.02-8.44-.01-12.66,.02-7.68,6.23-13.9,13.91-13.93,3.63-.01,7.26,0,10.89,0,1.22,0,1.68,.45,1.68,1.66,0,1.16,.02,2.33,0,3.49,0,.42,.12,.56,.54,.67,4.09,1.14,6.44,4.26,6.44,8.52,0,4.02,.04,8.03,0,12.05-.07,6.12-2.7,10.88-7.77,14.29-.45,.3-.87,2.06-.57,2.49,.16,.23,.43,.11,.65,.12,1.68,.07,3.36-.12,5.04,.15,4.64,.74,8.16,4.72,8.22,9.42,.05,3.72,.01,7.45,0,11.17,0,1.01-.58,1.63-1.43,1.61-.82-.02-1.35-.63-1.35-1.6,0-3.52,0-7.04,0-10.56,0-4.42-2.96-7.38-7.36-7.39-.67,0-1.35,.09-2-.02-1.95-.32-3.41,.39-4.53,1.95-.66,.92-1.46,.99-2.51,.6-3.11-1.18-3.14-1.16-6.36,.05-.94,.36-1.7,.27-2.3-.56-1.18-1.64-2.7-2.32-4.76-2.05-1.57,.2-3.18-.11-4.73,.5-2.61,1.03-4.41,3.49-4.49,6.28-.02,.76,.03,1.52-.02,2.27-.04,.59,.1,.79,.74,.78,2-.05,4.01-.02,6.01-.02,1.16,0,1.62,.47,1.63,1.63,0,1.25,0,2.5,0,3.75,0,2.59-1.8,4.39-4.38,4.39-15.65,0-31.31,0-46.96,0-2.16,0-3.57-1.04-4.28-3.13-.02-.07-.1-.13-.15-.19,0-8.96,0-17.93,0-26.89Zm19.52,27.41c4.99,0,9.99,0,14.98,0,1.25,0,1.75-.49,1.75-1.73,0-8.14,0-16.29,0-24.43,0-1.3-.48-1.77-1.8-1.77-9.96,0-19.91,0-29.87,0-1.31,0-1.79,.47-1.79,1.78,0,8.12,0,16.23,0,24.35,0,1.36,.47,1.82,1.84,1.82,4.96,0,9.93,0,14.89,0Zm61.3-38.33c.68-2.17-.4-3.9-2.27-5.32-.09-.07-.18-.15-.24-.25-.32-.46-.67-.47-1.18-.25-2.97,1.33-6.1,2.06-9.34,2.19-3.83,.16-7.49-.67-11-2.17-.52-.22-.86-.23-1.27,.23-.67,.76-1.43,1.45-2.14,2.17-.2,.2-.41,.37-.4,.72,.08,2.18-.14,4.36,.15,6.54,.8,5.99,5.29,10.73,11.25,11.88,5.81,1.13,11.83-1.73,14.74-6.97,1.48-2.65,1.92-5.51,1.7-8.79Zm-27.85-7.02c.61-.59,1.13-1.05,1.6-1.55,.6-.64,1.25-.75,2.03-.37,6.88,3.38,13.77,3.39,20.66,0,.78-.38,1.44-.27,2.03,.38,.47,.52,.98,1,1.59,1.62,0-1.28,0-2.35,0-3.42-.02-3.27-2.26-5.61-5.51-5.77-.99-.05-1.45-.53-1.46-1.54,0-1.13-.04-2.27,.01-3.4,.02-.56-.16-.66-.68-.66-3.08,.03-6.16,0-9.23,.02-4.86,.05-9.08,3.27-10.53,7.92-.68,2.19-.42,4.43-.49,6.78Zm-14.12,45.27c.07,.03,.13,.08,.18,.08,4.18,0,8.35,.01,12.53,0,.86,0,1.38-.56,1.41-1.44,.03-.73-.02-1.45,.02-2.18,.03-.47-.14-.57-.58-.57-4.26,.02-8.53,.02-12.79,0-.55,0-.58,.22-.59,.66-.01,1.16,.14,2.32-.18,3.46Zm22.62-20.34c-.61,1.46,.39,2.21,1.23,3.05,.31,.31,.59,.43,.97,.23,2.17-1.14,4.33-1.14,6.51-.01,.17,.09,.4,.2,.65,.07,1.19-.59,1.85-2,1.55-3.35-4.24,1.19-6.79,1.15-10.91,0Z"/><path class="cls-2" d="M17.12,57.01c.02-1.44,1.22-2.61,2.67-2.6,1.46,0,2.64,1.22,2.63,2.7-.02,1.43-1.23,2.62-2.67,2.6-1.47-.02-2.65-1.23-2.63-2.7Zm2.64,.93c.48,0,.88-.39,.89-.86,0-.5-.41-.91-.9-.9-.48,.01-.86,.41-.86,.89,0,.48,.4,.87,.88,.87Z"/><path d="M19.73,0C9.84,0,1.78,8.05,1.78,17.95s8.05,17.95,17.95,17.95,17.95-8.05,17.95-17.95S29.63,0,19.73,0Zm0,3c8.24,0,14.95,6.71,14.95,14.95,0,2.2-.49,4.29-1.35,6.18l-1.34-2.71c-2.18-4.41-4.36-8.83-6.54-13.24-.12-.24-.49-.97-1.4-.94-.89,.03-1.22,.75-1.32,.99-.57,1.28-1.14,2.56-1.72,3.83l-1.75,3.88-2.53-2.87c-.41-.46-.84-.68-1.29-.66-.45,.02-.86,.29-1.22,.8l-7.8,11.01c-.05,.07-.09,.13-.14,.2-.95-1.96-1.5-4.15-1.5-6.47,0-8.24,6.71-14.95,14.95-14.95Zm11.23,22.68H8.85l6.78-9.55,2.04,2.3c.28,.32,.56,.64,.85,.96,.39,.43,.88,.64,1.35,.56,.47-.07,.88-.42,1.12-.94l3.17-7.03,6.8,13.71Zm-21.76,2.86H27.7c.6,0,1.2,0,1.79,0,.26,0,.51,0,.77,0-2.7,2.69-6.43,4.35-10.53,4.35s-7.83-1.66-10.53-4.35Z"/></g></g></svg>