<?xml version="1.0" encoding="UTF-8"?><svg id="Layer_2" xmlns="http://www.w3.org/2000/svg" viewBox="0 0 75.33 62.68"><defs><style>.cls-1{stroke:#000;stroke-miterlimit:10;stroke-width:.44px;}</style></defs><g id="Layer_1-2"><g><path class="cls-1" d="M20.54,62.34c-.92-.22-1.28-.67-1.29-1.66-.01-1.43,0-2.86,0-4.49-.75,1.14-1.38,2.13-2.16,3.01-.42,.47-.83,.96-1.28,1.4-.68,.66-1.46,.69-2.14,.04-1.38-1.34-2.75-2.7-4.08-4.08-.68-.71-.63-1.44,.13-2.26,1.28-1.37,2.27-2.92,2.9-4.68,.53-1.48,.77-3.01,.77-4.58,0-3.17,0-6.34,0-9.5,0-.34,.01-.61-.42-.79-.66-.28-.79-.91-.79-1.59,.01-3.41-.02-6.82,.02-10.24,0-.68-.21-.98-.83-1.27C5.01,18.64,1.31,13.65,.37,6.66,.19,5.28,.04,3.89,.74,2.58,1.67,.84,3.46-.03,5.45,.3c1.76,.29,3.23,1.8,3.46,3.67,.18,1.5,.24,3,.86,4.42,1.08,2.48,2.85,4.25,5.45,5.38-.22-.75-.38-1.43-.45-2.12-.45-4.41,2.85-7.49,6.75-7.11,2.87,.28,5.19,2.8,5.33,5.91,.06,1.22-.05,2.41-.64,3.64,2.46-.76,4.31-2.13,5.6-4.2,.98-1.57,1.53-3.26,1.44-5.17-.11-2.28,1.55-4.16,3.7-4.44,2.33-.3,4.33,1.04,4.88,3.3,.28,1.13,.16,2.32,.48,3.46,.98,3.54,3.26,5.8,6.81,7.07-.7-1.55-.75-3.05-.52-4.57,.43-2.87,3.05-5.08,6-5.03,3.06,.05,5.58,2.34,5.92,5.29,.15,1.33,.03,2.6-.38,3.9,3.48-1.22,5.99-4.78,6.18-8.76,.06-1.37,.4-2.6,1.43-3.55,2.38-2.2,6.15-1.19,7.15,1.89,.06,.18,.01,.4,.21,.52v2.63c-.15,.05-.13,.19-.14,.3-1.01,7.08-4.79,12.07-11.28,15.03-.34,.15-.61,.32-.83,.65-.33,.52-.87,.69-1.47,.55-.6-.14-.95-.51-1.09-1.13-.29-1.34,.1-1.95,1.63-2.52,6.07-2.25,10.21-8.09,10.25-14.45,0-1.05-.57-1.75-1.44-1.75-.84,0-1.42,.64-1.48,1.66-.04,.58-.08,1.17-.15,1.74-.68,5.33-5.36,10.02-10.69,10.72-2.35,.31-4.73,.23-7.08,.12-4.41-.2-7.84-2.25-10.27-5.92-1.35-2.04-1.93-4.33-2.03-6.76-.04-1.03-.72-1.63-1.55-1.56-.87,.07-1.37,.73-1.34,1.76,.2,7.01,4.64,12.81,11.36,14.82,1.43,.43,1.65,.71,1.65,2.23,0,3.14,0,6.29,0,9.43,0,.33-.09,.66,.48,.66,3.39-.02,6.78-.02,10.16,0,.37,0,.45-.13,.45-.47,0-.53-.06-1.07,.06-1.6,.18-.78,.75-1.24,1.5-1.2,.75,.05,1.31,.58,1.33,1.38,.04,1.14,.01,2.29,0,3.43,0,.51-.25,.95-.7,1.11-.5,.18-.49,.5-.49,.9,0,2.92,.05,5.85,0,8.77-.07,3.8,1.06,7.13,3.68,9.92,.85,.91,.8,1.6-.06,2.48-1.16,1.18-2.34,2.35-3.51,3.52-1.11,1.11-1.8,1.08-2.87-.05-1.13-1.19-2.09-2.51-3.08-4.06,0,1.64,0,3.07,0,4.5,0,.99-.37,1.44-1.29,1.66-2.06,0-4.12,0-6.18,0-.99-.23-1.31-.66-1.31-1.86,0-8.31,0-16.62,0-24.93,0-.26,.17-.59-.21-.77-.73-.34-.86-.98-.85-1.71,0-3.34,0-6.68,.01-10.01,0-.47-.08-.72-.59-.89-2.95-1.02-5.49-2.7-7.58-5.03-.36-.4-.54-.35-.87,.02-2.07,2.27-4.54,3.95-7.45,4.97-.51,.18-.69,.41-.69,.98,.03,3.31,.01,6.63,.02,9.94,0,.63-.02,1.28-.65,1.6-.43,.22-.43,.51-.43,.88,0,1.46,.03,2.92,0,4.39-.03,1.15-1.14,1.83-2.1,1.31-.64-.34-.8-.93-.8-1.6,0-1.36-.02-2.73,.01-4.09,.01-.48-.13-.6-.6-.6-2.53,.02-5.07,.03-7.6,0-.54,0-.62,.17-.62,.65,.02,3.12,.01,6.24,.01,9.36,0,3.14-.77,6.05-2.43,8.74-.39,.63-1.28,1.2-1.1,1.84,.18,.65,1.03,1.11,1.56,1.69,.27,.3,.41,.26,.65-.04,2.29-2.83,3.67-6.05,4.1-9.67,.31-2.6,.1-5.21,.16-7.81,0-.32-.01-.63,.09-.94,.21-.67,.73-1.07,1.41-1.04,.68,.02,1.16,.37,1.33,1.03,.08,.3,.09,.62,.09,.94,0,6.36,.01,12.72,0,19.08,0,.56,.13,.78,.71,.72,.53-.05,1.07-.04,1.61,0,.51,.04,.66-.12,.65-.64-.03-2.41-.01-4.82-.01-7.24,0-.49-.03-.98,.04-1.46,.12-.88,.74-1.37,1.55-1.3,.77,.06,1.31,.62,1.31,1.48,.02,3.51,.02,7.02,0,10.53,0,.88-.41,1.29-1.3,1.49-2.06,0-4.12,0-6.18,0ZM34.43,11.25c-.12,.17-.19,.27-.26,.37-2.2,3.23-5.22,5.18-9.11,5.67-2.23,.28-4.48,.2-6.71,.09-4.38-.21-7.79-2.22-10.22-5.87-1.32-1.99-1.98-4.21-2.04-6.6-.02-.73-.21-1.37-.95-1.66-1.04-.42-1.98,.35-1.98,1.6,0,6.31,4.2,12.28,10.2,14.48,1.6,.58,1.75,.8,1.75,2.49,0,3.19,.01,6.38-.01,9.58,0,.5,.11,.65,.64,.65,3.26-.02,6.53-.03,9.79,0,.57,0,.73-.17,.67-.7-.04-.29,0-.58,0-.88,0-2.92,0-5.85,0-8.77,0-1.19,.32-1.59,1.46-1.94,.19-.06,.38-.1,.56-.16,2.97-.97,5.45-2.66,7.43-5.07,.12-.15,.27-.27,.14-.5-.51-.88-.93-1.8-1.35-2.78Zm15.8,35.85c0,3.39,0,6.77,0,10.16,0,.72-.32,1.68,.15,2.09,.41,.36,1.35,.06,2.05,.13,.61,.06,.76-.14,.76-.75-.02-6.33-.02-12.67-.01-19,0-.31,0-.64,.08-.94,.16-.68,.7-1.08,1.38-1.08,.68,0,1.21,.39,1.38,1.07,.07,.3,.08,.63,.09,.94,.06,2.56-.14,5.12,.15,7.67,.41,3.65,1.79,6.89,4.09,9.75,.25,.31,.39,.41,.7,.06,.42-.48,.87-.93,1.34-1.34,.33-.29,.34-.48,.06-.83-2.39-3.05-3.43-6.54-3.4-10.4,.02-3.02,0-6.04,.02-9.06,0-.52-.13-.64-.64-.63-2.51,.03-5.02,.04-7.53,0-.58,0-.66,.18-.66,.7,.02,3.82,.01,7.65,.01,11.48ZM23.93,10.95c0-1.75-.72-2.88-2.14-3.36-1.29-.44-2.71,0-3.51,1.1-.74,1.02-.76,2.19-.52,3.36,.23,1.14,.95,1.9,2.04,2.28,1.98,.7,4.32-.81,4.13-3.38Zm27.48-.09c0,1.8,.72,2.99,2.1,3.46,1.51,.52,3.18-.18,3.87-1.62,.8-1.68,.23-3.95-1.22-4.82-1.02-.62-2.09-.64-3.12-.07-1.2,.67-1.7,1.75-1.63,3.05Z"/><path class="cls-1" d="M26.72,62.34s0,.08-.02,.12h-6.14s-.01-.08-.02-.12c2.06,0,4.12,0,6.18,0Z"/><path class="cls-1" d="M54.8,62.34s0,.08-.02,.12h-6.14s-.03-.07-.02-.12c2.06,0,4.12,0,6.18,0Z"/><path class="cls-1" d="M28.02,45.24c-.01,.78-.69,1.44-1.47,1.42-.77-.02-1.45-.72-1.43-1.48,.02-.76,.73-1.45,1.48-1.43,.77,.02,1.43,.71,1.41,1.48Z"/><path class="cls-1" d="M63.13,26.07c-.01,.78-.68,1.45-1.45,1.43-.76-.02-1.44-.72-1.43-1.48,.02-.76,.72-1.45,1.47-1.43,.78,.01,1.42,.69,1.41,1.48Z"/></g></g></svg>