<?xml version="1.0" encoding="UTF-8"?><svg id="Layer_2" xmlns="http://www.w3.org/2000/svg" viewBox="0 0 67.08 67.07"><defs><style>.cls-1{stroke-linecap:round;stroke-linejoin:round;}.cls-1,.cls-2{fill:none;stroke:#000;stroke-width:4px;}</style></defs><g id="Layer_1-2"><g><path class="cls-2" d="M65.08,33.54h-11.76c-1.24,0-2.26,1.01-2.26,2.26v16.5c0,1.25,1.02,2.26,2.26,2.26h9.5c1.24,0,2.26-1.01,2.26-2.26v-18.76c0-17.42-14.13-31.54-31.55-31.54S2,16.12,2,33.54v18.76c0,1.25,1.02,2.26,2.26,2.26H13.75c1.26,0,2.26-1.01,2.26-2.26v-16.5c0-1.25-1.01-2.26-2.26-2.26H2"/><path class="cls-1" d="M65.07,40.55v14.02s0,10.51-7,10.51h-17.52"/></g></g></svg>