<?xml version="1.0" encoding="UTF-8"?><svg id="Layer_2" xmlns="http://www.w3.org/2000/svg" viewBox="0 0 88.23 45.07"><defs><style>.cls-1{stroke-width:3px;}.cls-1,.cls-2,.cls-3{fill:none;stroke:#000;}.cls-2{stroke-width:2.36px;}</style></defs><g id="Layer_1-2"><g><path class="cls-1" d="M41.68,1.5h.43c.18,.17,.4,.06,.61,.07h1.83c.17-.02,.37,.11,.52-.07h.7c.03,.12,.13,.08,.21,.09,.93,.04,1.85,.11,2.77,.26,1.38,.23,2.73,.55,3.86,1.43,2.12,1.67,4.07,3.52,5.88,5.53,1.7,1.88,3.22,3.91,4.87,5.83,1.43,1.67,3.03,3.11,5.21,3.75,2.83,.84,5.69,1.54,8.58,2.14,1.81,.37,3.64,.67,5.42,1.21,1.63,.5,2.73,1.52,3.24,3.15,.19,.61,.33,1.23,.45,1.85,.46,2.3,.7,4.61,.21,6.93-.47,2.24-1.55,4.07-3.62,5.19-1.57,.85-3.25,1.09-5,.66-.3-.07-.46-.2-.43-.55,.04-.47-.01-.95-.06-1.43-.44-4.45-3.24-7.68-7.6-8.63-2.41-.53-4.78-.32-6.89,1.07-3.19,2.09-4.65,5.16-4.75,8.91-.01,.41-.11,.48-.5,.48-8.95-.01-17.91,0-26.86,0-1.29,0-2.58,0-3.87,0-.24,0-.35-.03-.36-.32-.01-.85-.14-1.7-.34-2.53-1.17-5.11-5.35-8.43-10.52-7.83-3.11,.36-5.55,1.81-7.17,4.52-1.08,1.8-1.54,3.79-1.68,5.86-.02,.3-.08,.37-.37,.28-.66-.21-1.32-.41-1.96-.68-1.24-.53-2.19-1.34-2.58-2.68-.21-.7-.35-1.41-.36-2.13-.03-3.04-.07-6.08,.07-9.12,.02-.47,.11-.91,.3-1.34,1.14-2.63,3.08-4.47,5.61-5.74,.29-.14,.54-.31,.76-.56,1.41-1.6,2.92-3.1,4.52-4.51,4.52-3.98,9.62-6.94,15.36-8.77,3.87-1.23,7.83-1.92,11.87-2.17,.55-.03,1.11,.04,1.65-.15Z"/><path class="cls-3" d="M49.18,16.8c2.33,0,4.67,0,7,0,.44,0,.63-.23,.55-.67-.07-.36-.25-.65-.51-.92-2.3-2.35-4.66-4.65-6.99-6.97-.2-.2-.43-.33-.7-.41-.56-.18-1.14-.22-1.73-.22-1.63,0-3.22,.27-4.81,.58-.21,.04-.18,.17-.18,.31,0,2.68,0,5.36,0,8.04,0,.22,.06,.28,.28,.27,2.36,0,4.72,0,7.08,0Z"/><path class="cls-3" d="M25.03,16.71s.2-.03,.2,0c1.4,0,2.6,.08,4,.08,.37,0,.61-.23,.61-.6,0-2.01,0-4.03,0-6.04,0-.03,0-.07,0-.1,0-.1-.03-.13-.13-.1-.27,.07-.54,.11-.81,.19-2.2,.61-4.19,1.64-6.03,2.98-.91,.66-1.76,1.39-2.55,2.19-.26,.26-.31,.62-.16,.99,.13,.31,.37,.42,.7,.41,1.39,0,2.78,0,4.17,0Z"/><path class="cls-2" d="M67.77,43.89c-3.06,0-5.54-2.48-5.54-5.53,0-3.06,2.49-5.53,5.55-5.53,3.04,0,5.51,2.48,5.52,5.52,0,3.06-2.46,5.54-5.53,5.54Z"/><path d="M70.55,38.37c0-1.54-1.25-2.8-2.79-2.8-1.54,0-2.8,1.24-2.8,2.79,0,1.54,1.25,2.8,2.79,2.81,1.54,0,2.8-1.25,2.8-2.79Z"/><path class="cls-2" d="M16.54,43.89c-3.06,0-5.54-2.48-5.54-5.53,0-3.06,2.49-5.53,5.55-5.53,3.04,0,5.51,2.48,5.52,5.52,0,3.06-2.46,5.54-5.53,5.54Z"/><path d="M19.32,38.37c0-1.54-1.25-2.8-2.79-2.8-1.54,0-2.8,1.24-2.8,2.79,0,1.54,1.25,2.8,2.79,2.81,1.54,0,2.8-1.25,2.8-2.79Z"/></g></g></svg>