<?xml version="1.0" encoding="UTF-8"?><svg id="Layer_2" xmlns="http://www.w3.org/2000/svg" viewBox="0 0 80.42 76.4"><defs><style>.cls-1{stroke-width:4px;}.cls-1,.cls-2,.cls-3{stroke-linecap:round;stroke-linejoin:round;}.cls-1,.cls-2,.cls-3,.cls-4{fill:none;stroke:#000;}.cls-2{stroke-width:4.47px;}.cls-3,.cls-4{stroke-width:2.12px;}</style></defs><g id="Layer_1-2"><g><path class="cls-1" d="M59.56,12.42l6.86,5.24,12.01-15.65"/><path class="cls-3" d="M9.47,69.61h0c0-3.95,3.2-7.15,7.15-7.15h1.21c3.95,0,7.15,3.2,7.15,7.15h0"/><circle class="cls-4" cx="17.18" cy="55.75" r="3.06"/><g><path d="M17.73,36.26h2.17l3.31-9.24h-2.01l-2.34,6.8-2.31-6.8h-2.13l3.3,9.24Z"/><path d="M24.16,36.26h1.94v-9.24h-1.94v9.24Z"/><path d="M27.51,33.75c.26,1.69,1.6,2.64,3.66,2.64s3.5-1.2,3.5-2.76c0-3.72-5.06-2.23-5.06-4.04,0-.62,.57-1.03,1.4-1.03s1.49,.38,1.65,1.33l1.93-.38c-.32-1.73-1.56-2.63-3.58-2.63s-3.42,1.2-3.42,2.76c0,3.7,5.07,2.24,5.07,4.03,0,.63-.59,1.03-1.49,1.03s-1.57-.38-1.73-1.32l-1.93,.37Z"/><path d="M35.21,36.26h1.97l.73-2.19h3.27l.74,2.19h2.07l-3.3-9.24h-2.17l-3.31,9.24Zm4.34-7.08l1.07,3.2h-2.15l1.08-3.2Z"/></g><rect class="cls-2" x="2.23" y="20.21" width="53.95" height="53.95" rx="4.54" ry="4.54"/><line class="cls-1" x1="4.14" y1="41.78" x2="54.52" y2="41.78"/></g></g></svg>