<svg width="30" height="31" viewBox="0 0 30 31" fill="none" xmlns="http://www.w3.org/2000/svg">
<g clip-path="url(#clip0_38_801)">
<path fill-rule="evenodd" clip-rule="evenodd" d="M16.3797 20.3603C16.7233 20.2341 16.8995 19.8532 16.7733 19.5095C16.647 19.1659 16.2661 18.9897 15.9225 19.1159C15.5788 19.2422 15.4026 19.6231 15.5289 19.9667C15.6551 20.3103 16.036 20.4866 16.3797 20.3603ZM16.897 21.7683C18.0182 21.3563 18.5932 20.1135 18.1812 18.9922C17.7693 17.871 16.5264 17.296 15.4052 17.708C14.2839 18.1199 13.709 19.3628 14.1209 20.484C14.5328 21.6053 15.7757 22.1802 16.897 21.7683Z" fill="black"/>
<path fill-rule="evenodd" clip-rule="evenodd" d="M7.33422 14.2432C7.7457 14.2907 8.04077 14.6628 7.99327 15.0742C7.89115 15.9588 7.84865 17.158 8.02418 18.3696C8.20055 19.5871 8.58851 20.759 9.29972 21.648L9.76824 22.2336L8.59693 23.1707L8.12841 22.585C7.18994 21.4119 6.73753 19.9505 6.53967 18.5847C6.34097 17.2131 6.39038 15.8792 6.50316 14.9022C6.55066 14.4907 6.92274 14.1957 7.33422 14.2432ZM9.59248 14.4357C9.98031 14.5812 10.1768 15.0135 10.0313 15.4014C9.99237 15.5052 9.93449 15.8207 9.94154 16.3409C9.94825 16.8364 10.013 17.4542 10.168 18.1249C10.3597 18.9546 10.8114 19.8439 11.1679 20.3167L11.6194 20.9155L10.4217 21.8186L9.97019 21.2197C9.4918 20.5852 8.94724 19.5045 8.7065 18.4626C8.52766 17.6885 8.44985 16.9643 8.44167 16.3612C8.43383 15.7826 8.48877 15.2427 8.62685 14.8746C8.77232 14.4867 9.20465 14.2903 9.59248 14.4357ZM8.50504 28.1949C8.40866 28.4456 8.3163 28.6858 8.22171 28.9091C8.06012 29.2905 7.61994 29.4687 7.23855 29.3071C6.85715 29.1455 6.67897 28.7053 6.84056 28.3239C6.91128 28.157 6.9858 27.9575 7.06932 27.7339C7.47518 26.6474 8.09364 24.9917 9.5223 23.7382C9.55271 23.7071 9.58592 23.6785 9.62161 23.6529C10.2963 23.0848 11.1454 22.6065 12.2272 22.3129C12.5407 22.2278 12.8509 22.1958 13.1375 22.1876L15.5512 22.1177C15.5584 22.1175 15.5657 22.1174 15.5729 22.1174L18.4717 22.1174C19.1364 22.0895 20.1716 22.1835 21.2339 22.5421C22.3078 22.9047 23.4698 23.5589 24.2761 24.6971C24.5156 25.0351 24.4357 25.5032 24.0977 25.7426C23.7597 25.9821 23.2916 25.9022 23.0521 25.5642C22.486 24.765 21.6368 24.2613 20.7542 23.9633C20.3961 23.8425 20.0426 23.759 19.716 23.7039C19.1675 24.3661 18.2274 25.1098 17.0876 25.6604C15.7209 26.3205 13.9698 26.7511 12.1108 26.3789C11.6584 26.2883 11.029 25.9697 10.5532 25.6767C10.3755 25.5673 10.1993 25.4492 10.041 25.3297C9.26759 26.2114 8.85916 27.2738 8.50504 28.1949ZM11.2371 24.3349C11.2703 24.3562 11.3046 24.3778 11.3397 24.3995C11.7909 24.6773 12.2296 24.8729 12.4052 24.9081C13.8611 25.1995 15.2761 24.8696 16.4352 24.3097C16.8763 24.0966 17.2669 23.8569 17.5976 23.6174L15.5838 23.6174L13.1809 23.6869C12.9713 23.693 12.7857 23.7155 12.6201 23.7605C12.09 23.9044 11.6334 24.1004 11.2371 24.3349Z" fill="black"/>
<path fill-rule="evenodd" clip-rule="evenodd" d="M0.136924 -1.27353C0.327664 -1.30488 0.507704 -1.17566 0.539053 -0.984924C0.545769 -0.944059 0.552711 -0.899637 0.560173 -0.851891C0.639968 -0.34129 0.779182 0.549531 1.33733 1.53732C1.94377 2.61059 3.05865 3.81858 5.1846 4.72808C6.66632 5.36198 7.28001 6.89964 7.54026 8.52077C7.76249 9.90503 7.74237 11.4516 7.72536 12.7599C7.72232 12.9936 7.71938 13.2197 7.71793 13.436C7.71664 13.6293 7.5589 13.7849 7.36561 13.7836C7.17231 13.7823 7.01666 13.6246 7.01795 13.4313C7.01945 13.2065 7.0224 12.9743 7.02542 12.7368C7.04208 11.4256 7.06082 9.95048 6.84911 8.63173C6.59738 7.06366 6.04092 5.85579 4.90927 5.37166C2.64678 4.40375 1.41232 3.09296 0.727891 1.88168C0.104922 0.779172 -0.0508519 -0.224224 -0.13107 -0.740937C-0.138482 -0.788681 -0.145249 -0.83227 -0.15168 -0.871398C-0.183029 -1.06214 -0.0538168 -1.24218 0.136924 -1.27353Z" fill="black"/>
</g>
<defs>
<clipPath id="clip0_38_801">
<rect width="30" height="30" fill="white" transform="translate(0 0.767578)"/>
</clipPath>
</defs>
</svg>
