<svg width="30" height="31" viewBox="0 0 30 31" fill="none" xmlns="http://www.w3.org/2000/svg">
<path fill-rule="evenodd" clip-rule="evenodd" d="M17.1115 5.32153C16.6952 5.32153 16.3577 5.65902 16.3577 6.07533C16.3577 6.49164 16.6952 6.82912 17.1115 6.82912C17.5278 6.82912 17.8653 6.49164 17.8653 6.07533C17.8653 5.65902 17.5278 5.32153 17.1115 5.32153ZM14.8577 6.07533C14.8577 4.83059 15.8667 3.82153 17.1115 3.82153C18.3562 3.82153 19.3653 4.83059 19.3653 6.07533C19.3653 7.32006 18.3562 8.32912 17.1115 8.32912C15.8667 8.32912 14.8577 7.32006 14.8577 6.07533Z" fill="black"/>
<path fill-rule="evenodd" clip-rule="evenodd" d="M14.1753 7.59858C14.4095 7.61018 14.6248 7.73064 14.7572 7.92415L16.2547 10.1129L19.2316 10.9301C19.631 11.0397 19.8659 11.4524 19.7563 11.8518C19.6466 12.2513 19.2339 12.4862 18.8345 12.3765L15.5925 11.4866C15.4213 11.4396 15.2723 11.3334 15.172 11.1868L14.0768 9.58614L10.361 14.0059L14.1748 16.5485C14.3835 16.6876 14.5088 16.9218 14.5088 17.1725V23.1877C14.5088 23.6019 14.173 23.9377 13.7588 23.9377C13.3446 23.9377 13.0088 23.6019 13.0088 23.1877V17.5739L8.83142 14.789C8.65387 14.6706 8.53514 14.4822 8.50497 14.271C8.47481 14.0597 8.53605 13.8456 8.67337 13.6823L13.5641 7.86502C13.715 7.68555 13.9412 7.58697 14.1753 7.59858Z" fill="black"/>
<path fill-rule="evenodd" clip-rule="evenodd" d="M5.23746 18.489C3.02203 18.489 1.22607 20.285 1.22607 22.5004C1.22607 24.7158 3.02203 26.5118 5.23746 26.5118C7.45288 26.5118 9.24884 24.7158 9.24884 22.5004C9.24884 20.285 7.45288 18.489 5.23746 18.489ZM0.226074 22.5004C0.226074 19.7327 2.46975 17.489 5.23746 17.489C8.00517 17.489 10.2488 19.7327 10.2488 22.5004C10.2488 25.2681 8.00517 27.5118 5.23746 27.5118C2.46975 27.5118 0.226074 25.2681 0.226074 22.5004Z" fill="black"/>
<path fill-rule="evenodd" clip-rule="evenodd" d="M23.5443 18.489C21.3289 18.489 19.533 20.285 19.533 22.5004C19.533 24.7158 21.3289 26.5118 23.5443 26.5118C25.7598 26.5118 27.5557 24.7158 27.5557 22.5004C27.5557 20.285 25.7598 18.489 23.5443 18.489ZM18.533 22.5004C18.533 19.7327 20.7766 17.489 23.5443 17.489C26.3121 17.489 28.5557 19.7327 28.5557 22.5004C28.5557 25.2681 26.3121 27.5118 23.5443 27.5118C20.7766 27.5118 18.533 25.2681 18.533 22.5004Z" fill="black"/>
<path fill-rule="evenodd" clip-rule="evenodd" d="M18.7267 12.6367C20.4493 12.3854 22.0453 13.5894 22.277 15.3147L22.2847 15.3715L23.4268 22.4204C23.471 22.693 23.2858 22.9498 23.0132 22.994C22.7406 23.0381 22.4838 22.853 22.4397 22.5804L21.4346 16.3772L14.5725 21.9464C14.3581 22.1204 14.0432 22.0877 13.8692 21.8733C13.6952 21.6589 13.7279 21.344 13.9423 21.17L20.3213 15.9928L15.2671 16.1572C14.9911 16.1662 14.7601 15.9497 14.7511 15.6737C14.7421 15.3977 14.9586 15.1667 15.2346 15.1577L21.1627 14.9649C20.814 14.059 19.874 13.4799 18.871 13.6262L18.7267 12.6367ZM10.5079 15.5698C10.7092 15.7589 10.7191 16.0753 10.53 16.2766L5.66707 21.4533H9.59873C9.87487 21.4533 10.0987 21.6771 10.0987 21.9533C10.0987 22.2294 9.87487 22.4533 9.59873 22.4533H4.51136C4.31197 22.4533 4.13164 22.3348 4.05247 22.1518C3.9733 21.9688 4.01042 21.7563 4.14694 21.6109L9.80115 15.5919C9.99022 15.3906 10.3066 15.3808 10.5079 15.5698Z" fill="black"/>
</svg>
