<svg width="30" height="31" viewBox="0 0 30 31" fill="none" xmlns="http://www.w3.org/2000/svg">
<path fill-rule="evenodd" clip-rule="evenodd" d="M16.2881 5.67388C16.7671 5.67388 17.1555 5.28554 17.1555 4.80649C17.1555 4.32743 16.7671 3.93909 16.2881 3.93909C15.809 3.93909 15.4207 4.32743 15.4207 4.80649C15.4207 5.28554 15.809 5.67388 16.2881 5.67388ZM16.2881 7.17388C17.5955 7.17388 18.6555 6.11396 18.6555 4.80649C18.6555 3.49901 17.5955 2.43909 16.2881 2.43909C14.9806 2.43909 13.9207 3.49901 13.9207 4.80649C13.9207 6.11396 14.9806 7.17388 16.2881 7.17388Z" fill="black"/>
<path fill-rule="evenodd" clip-rule="evenodd" d="M21.0263 6.47579C21.2175 6.50427 21.3494 6.68235 21.3209 6.87354L21.0886 8.43302C21.0601 8.62421 20.882 8.75611 20.6908 8.72763C20.4996 8.69915 20.3677 8.52107 20.3962 8.32988L20.6286 6.7704C20.657 6.57921 20.8351 6.44731 21.0263 6.47579ZM20.4371 10.1922C20.629 10.2159 20.7653 10.3906 20.7417 10.5824L18.862 25.829C18.8383 26.0208 18.6636 26.1572 18.4718 26.1335C18.2799 26.1099 18.1436 25.9352 18.1672 25.7433L20.0469 10.4968C20.0706 10.3049 20.2453 10.1686 20.4371 10.1922Z" fill="black"/>
<path fill-rule="evenodd" clip-rule="evenodd" d="M13.5824 6.70536C13.9055 6.71877 14.1836 6.93777 14.2724 7.24872L15.2819 10.7829L20.2777 9.26526C20.674 9.14486 21.0929 9.36855 21.2133 9.76488C21.3337 10.1612 21.11 10.5801 20.7136 10.7005L14.9882 12.4398C14.7958 12.4982 14.588 12.4769 14.4115 12.3808C14.2349 12.2846 14.1043 12.1215 14.0491 11.9281L13.4523 9.83886L12.4222 12.5654C11.947 13.8233 12.3339 15.1822 13.3985 15.9625C13.9691 16.3807 14.5628 16.8228 15.0691 17.2348C15.5583 17.6328 16.0275 18.051 16.3 18.4197C16.5991 18.8244 16.7547 19.41 16.8503 19.96C16.9515 20.5424 17.0057 21.218 17.0307 21.8989C17.0807 23.2626 17.0157 24.7207 16.9406 25.6512C16.9072 26.0641 16.5454 26.3718 16.1326 26.3384C15.7197 26.305 15.4121 25.9433 15.4454 25.5304C15.5172 24.6418 15.579 23.2444 15.5317 21.9539C15.508 21.3076 15.4575 20.7063 15.3724 20.2168C15.2817 19.695 15.1695 19.4138 15.0937 19.3113C14.9462 19.1117 14.6143 18.7986 14.1225 18.3983C13.6478 18.0122 13.0807 17.5893 12.5117 17.1723C10.884 15.9792 10.3146 13.9 11.019 12.0352L12.8497 7.18966C12.9639 6.88715 13.2593 6.69195 13.5824 6.70536ZM11.2741 17.7314C11.6883 17.7314 12.0241 18.0672 12.0241 18.4814V19.3036C12.0241 20.2448 11.7445 21.1647 11.2208 21.9467L7.96895 26.8025C7.73847 27.1466 7.27262 27.2388 6.92846 27.0083C6.58429 26.7778 6.49213 26.312 6.72261 25.9678L9.97445 21.112C10.3328 20.577 10.5241 19.9476 10.5241 19.3036V18.4814C10.5241 18.0672 10.8598 17.7314 11.2741 17.7314Z" fill="black"/>
<path fill-rule="evenodd" clip-rule="evenodd" d="M9.97252 6.74714L7.30131 13.7014C7.16373 14.0595 7.34256 14.4614 7.70073 14.599C8.0589 14.7366 8.46078 14.5577 8.59836 14.1996L11.2696 7.24535C11.4071 6.88718 11.2283 6.4853 10.8701 6.34772C10.512 6.21015 10.1101 6.38897 9.97252 6.74714ZM6.36781 13.3428C6.0322 14.2165 6.46843 15.1969 7.34216 15.5325C8.21588 15.8681 9.19625 15.4319 9.53186 14.5581L12.2031 7.60392C12.5387 6.73019 12.1024 5.74983 11.2287 5.41422C10.355 5.07861 9.37463 5.51484 9.03902 6.38857L6.36781 13.3428Z" fill="black"/>
<path fill-rule="evenodd" clip-rule="evenodd" d="M27.7042 21.13C27.8191 21.2855 27.7863 21.5046 27.6308 21.6195L21.8297 25.9073C21.0812 26.4606 20.1749 26.7591 19.2441 26.7591H13.991C13.7247 26.7591 13.4607 26.7881 13.1999 26.8453C11.7924 27.1539 9.81002 27.5696 8.0647 27.8943C7.19241 28.0565 6.37601 28.1966 5.71885 28.2892C5.39048 28.3354 5.09838 28.3703 4.85714 28.39C4.62334 28.409 4.4133 28.4161 4.26134 28.3971C4.06953 28.3731 3.93348 28.1982 3.95745 28.0064C3.98142 27.8146 4.15635 27.6785 4.34816 27.7025C4.42281 27.7118 4.57052 27.711 4.80027 27.6923C5.02257 27.6742 5.29981 27.6413 5.62123 27.596C6.26364 27.5056 7.06859 27.3675 7.93669 27.2061C9.67213 26.8833 11.6466 26.4692 13.05 26.1615C13.3594 26.0937 13.6737 26.0591 13.991 26.0591H19.2441C20.0252 26.0591 20.7856 25.8086 21.4137 25.3444L27.2147 21.0566C27.3702 20.9417 27.5893 20.9746 27.7042 21.13Z" fill="black"/>
</svg>
