<svg width="30" height="31" viewBox="0 0 30 31" fill="none" xmlns="http://www.w3.org/2000/svg">
<g clip-path="url(#clip0_38_783)">
<path fill-rule="evenodd" clip-rule="evenodd" d="M15.1347 3.75137C15.3762 3.76307 15.5972 3.89046 15.7284 4.09354C16.6347 5.49655 17.3061 6.93546 17.7845 8.37718C17.9149 8.77031 17.702 9.19476 17.3088 9.32522C16.9157 9.45567 16.4912 9.24272 16.3608 8.84959C16.0304 7.85403 15.6 6.85961 15.0524 5.87851C14.1761 7.29927 13.2745 9.45346 12.9011 12.1304C12.8438 12.5406 12.4649 12.8268 12.0546 12.7696C11.6444 12.7123 11.3582 12.3334 11.4155 11.9231C11.9158 8.33699 13.3014 5.55976 14.5107 4.03453C14.6609 3.84509 14.8932 3.73967 15.1347 3.75137ZM17.952 12.769C18.3656 12.7456 18.7198 13.0619 18.7431 13.4755C19.0492 18.8989 17.2193 23.7702 15.7422 26.2416C15.6053 26.4705 15.3571 26.6096 15.0904 26.6067C14.8237 26.6039 14.5785 26.4596 14.4466 26.2278C12.5213 22.8455 11.5967 19.6175 11.3173 16.6933C11.2779 16.281 11.5802 15.9148 11.9926 15.8754C12.4049 15.836 12.7711 16.1384 12.8105 16.5507C13.0364 18.9149 13.7186 21.5174 15.0979 24.2672C16.2911 21.7861 17.4877 17.8501 17.2455 13.56C17.2222 13.1465 17.5385 12.7923 17.952 12.769Z" fill="black"/>
<path fill-rule="evenodd" clip-rule="evenodd" d="M27.2069 3.77628C27.4116 3.83139 27.5835 3.97056 27.6799 4.15937L29.0324 6.80767C29.2068 7.14911 29.0956 7.56708 28.7746 7.77673L24.8673 10.3288C24.7715 10.3914 24.6626 10.4312 24.549 10.4452L21.644 10.8037L9.60327 18.3923L8.53461 20.6636C8.47159 20.7975 8.37036 20.9098 8.24366 20.9863L3.51839 23.8396C3.16413 24.0535 2.70354 23.9401 2.48917 23.5861L1.08476 21.267C0.87333 20.9179 0.97991 20.4638 1.32459 20.2451L6.06065 17.2413C6.18078 17.1651 6.3201 17.1247 6.46235 17.1247H8.80132L20.8136 9.55395L22.2383 6.8038C22.2985 6.68768 22.3879 6.5893 22.4979 6.51844L26.6056 3.87014C26.7838 3.75527 27.0022 3.72117 27.2069 3.77628ZM22.7064 9.1612L24.1927 8.97781L27.3899 6.88953L26.7213 5.58026L23.4784 7.67099L22.7064 9.1612ZM7.8362 18.6247H6.68014L2.74837 21.1184L3.38423 22.1684L7.27398 19.8196L7.8362 18.6247Z" fill="black"/>
<path fill-rule="evenodd" clip-rule="evenodd" d="M9.57329 19.6816C9.85955 19.2719 10.2569 18.9973 10.5452 18.8643L10.8385 19.4998C10.6414 19.5908 10.3499 19.7922 10.1471 20.0825C9.95201 20.3618 9.84085 20.7171 9.96481 21.1599C10.1323 21.7583 10.4987 22.1205 10.8975 22.4984C10.9135 22.5135 10.9298 22.5289 10.9461 22.5443C11.3147 22.8923 11.7551 23.3082 11.8239 23.9619C11.8913 24.6021 11.6974 25.1938 11.2205 25.8091C10.7537 26.4114 10.0049 27.0516 8.9343 27.8123C8.00091 28.4755 7.70983 29.5433 7.71647 30.556C7.71976 31.0587 7.79723 31.5314 7.89629 31.9022C7.94579 32.0875 7.99959 32.2433 8.04994 32.3618C8.10381 32.4886 8.14333 32.5477 8.15497 32.561L7.62817 33.022C7.5418 32.9233 7.46755 32.7811 7.40569 32.6356C7.3403 32.4817 7.2764 32.294 7.22 32.0829C7.10728 31.6609 7.02021 31.1289 7.01648 30.5606C7.00908 29.431 7.33402 28.0906 8.52885 27.2416C9.58651 26.4901 10.2658 25.8982 10.6672 25.3803C11.0584 24.8756 11.1724 24.4592 11.1278 24.0352C11.0877 23.6539 10.8368 23.4051 10.4161 23.0065C10.0168 22.6282 9.51516 22.1503 9.29072 21.3486C9.10111 20.6712 9.2793 20.1024 9.57329 19.6816Z" fill="black"/>
<path fill-rule="evenodd" clip-rule="evenodd" d="M22.0482 12.4565C21.7619 12.0468 21.3646 11.7722 21.0763 11.6392L20.783 12.2747C20.98 12.3657 21.2715 12.5671 21.4743 12.8574C21.6694 13.1367 21.7806 13.492 21.6567 13.9348C21.4891 14.5332 21.1227 14.8954 20.7239 15.2733C20.7079 15.2885 20.6917 15.3038 20.6753 15.3192C20.3068 15.6672 19.8663 16.0831 19.7975 16.7368C19.7301 17.377 19.9241 17.9687 20.401 18.584C20.8677 19.1863 21.6166 19.8265 22.6872 20.5872C23.6206 21.2504 23.9116 22.3182 23.905 23.3309C23.9017 23.8336 23.8242 24.3063 23.7252 24.6771C23.6757 24.8624 23.6219 25.0182 23.5715 25.1367C23.5176 25.2635 23.4781 25.3226 23.4665 25.3359L23.9933 25.7969C24.0797 25.6982 24.1539 25.556 24.2158 25.4105C24.2812 25.2566 24.3451 25.0689 24.4015 24.8578C24.5142 24.4358 24.6013 23.9038 24.605 23.3355C24.6124 22.2059 24.2874 20.8655 23.0926 20.0165C22.0349 19.265 21.3557 18.6731 20.9543 18.1552C20.5631 17.6505 20.449 17.2341 20.4937 16.8101C20.5338 16.4288 20.7846 16.18 21.2054 15.7814C21.6046 15.4031 22.1063 14.9252 22.3307 14.1235C22.5204 13.4461 22.3422 12.8773 22.0482 12.4565Z" fill="black"/>
</g>
<defs>
<clipPath id="clip0_38_783">
<rect width="30" height="30" fill="white" transform="translate(0 0.767578)"/>
</clipPath>
</defs>
</svg>
