<svg width="30" height="31" viewBox="0 0 30 31" fill="none" xmlns="http://www.w3.org/2000/svg">
<g clip-path="url(#clip0_38_782)">
<path fill-rule="evenodd" clip-rule="evenodd" d="M27.8113 10.9163L30.6431 17.2635C30.7556 17.5157 30.6424 17.8113 30.3902 17.9238C30.138 18.0363 29.8424 17.9231 29.7299 17.6709L27.7871 13.3165L24.7964 19.6728C24.3527 20.6159 23.0941 20.8076 22.3898 20.0392C22.174 19.8039 21.7908 19.8505 21.6378 20.1308L15.7255 30.9604C15.5931 31.2028 15.2894 31.292 15.047 31.1597C14.8046 31.0273 14.7154 30.7236 14.8477 30.4812L20.7601 19.6516C21.2416 18.7695 22.4479 18.6227 23.1269 19.3635C23.3507 19.6076 23.7506 19.5467 23.8916 19.2471L27.8113 10.9163Z" fill="black"/>
<path fill-rule="evenodd" clip-rule="evenodd" d="M21.5192 15.4106C21.2953 15.1325 20.8605 15.172 20.6903 15.4858L16.1377 23.8798C16.0061 24.1225 15.7026 24.2126 15.4598 24.0809C15.2171 23.9492 15.127 23.6457 15.2587 23.403L19.8113 15.0091C20.3219 14.0677 21.6261 13.9492 22.298 14.7832L23.7434 16.5775C23.9166 16.7925 23.8827 17.1073 23.6677 17.2805C23.4526 17.4537 23.1379 17.4198 22.9646 17.2048L21.5192 15.4106Z" fill="black"/>
<path fill-rule="evenodd" clip-rule="evenodd" d="M22.2125 5.37231H28.172V11.5008C28.172 11.6941 28.0153 11.8508 27.822 11.8508C27.6287 11.8508 27.472 11.6941 27.472 11.5008V9.18664H22.1709L24.3847 7.31752L22.2125 5.37231ZM27.472 8.48664V6.07231H24.0435L25.4514 7.33306L24.0851 8.48664H27.472Z" fill="black"/>
<path fill-rule="evenodd" clip-rule="evenodd" d="M11.5767 10.0012C12.0558 10.0012 12.4441 9.61281 12.4441 9.13376C12.4441 8.6547 12.0558 8.26636 11.5767 8.26636C11.0977 8.26636 10.7094 8.6547 10.7094 9.13376C10.7094 9.61281 11.0977 10.0012 11.5767 10.0012ZM11.5767 11.5012C12.8842 11.5012 13.9441 10.4412 13.9441 9.13376C13.9441 7.82628 12.8842 6.76636 11.5767 6.76636C10.2693 6.76636 9.20935 7.82628 9.20935 9.13376C9.20935 10.4412 10.2693 11.5012 11.5767 11.5012Z" fill="black"/>
<path fill-rule="evenodd" clip-rule="evenodd" d="M10.0031 11.6025C10.3339 11.6261 10.6099 11.864 10.6819 12.1877L11.5739 16.1957L13.7397 13.0799C13.9762 12.7398 14.4435 12.6557 14.7836 12.8922C15.1238 13.1286 15.2078 13.596 14.9714 13.9361L11.8292 18.4564C11.6593 18.7009 11.3608 18.8217 11.0686 18.7642C10.7765 18.7067 10.546 18.4819 10.4813 18.1912L9.76351 14.9659L8.8208 17.4612C8.34556 18.7192 8.73247 20.0781 9.79705 20.8584C10.3676 21.2766 10.9613 21.7187 11.4677 22.1307C11.9568 22.5287 12.4261 22.9469 12.6985 23.3156C12.9977 23.7203 13.1532 24.3059 13.2488 24.8559C13.35 25.4383 13.4043 26.1139 13.4292 26.7947C13.4793 28.1585 13.4143 29.6166 13.3391 30.5471C13.3057 30.96 12.944 31.2676 12.5311 31.2343C12.1183 31.2009 11.8106 30.8392 11.844 30.4263C11.9158 29.5377 11.9776 28.1403 11.9303 26.8497C11.9065 26.2035 11.856 25.6022 11.771 25.1127C11.6803 24.5909 11.568 24.3096 11.4923 24.2072C11.3448 24.0076 11.0129 23.6944 10.521 23.2942C10.0464 22.9081 9.47922 22.4852 8.91028 22.0682C7.28253 20.8751 6.71311 18.7959 7.4176 16.9311L9.24821 12.0855C9.3654 11.7754 9.67236 11.5789 10.0031 11.6025ZM7.67262 22.6273C8.08683 22.6273 8.42262 22.963 8.42262 23.3773V24.1995C8.42262 25.1406 8.14304 26.0606 7.61935 26.8426L4.36751 31.6983C4.13703 32.0425 3.67118 32.1347 3.32702 31.9042C2.98285 31.6737 2.89069 31.2079 3.12117 30.8637L6.37301 26.0079C6.73132 25.4729 6.92262 24.8434 6.92262 24.1995V23.3773C6.92262 22.963 7.2584 22.6273 7.67262 22.6273Z" fill="black"/>
<path fill-rule="evenodd" clip-rule="evenodd" d="M6.37108 11.6429L3.69987 18.5971C3.56229 18.9553 3.74112 19.3572 4.09929 19.4947C4.45746 19.6323 4.85934 19.4535 4.99692 19.0953L7.66812 12.1411C7.8057 11.7829 7.62688 11.3811 7.26871 11.2435C6.91054 11.1059 6.50866 11.2847 6.37108 11.6429ZM2.76637 18.2385C2.43076 19.1123 2.86699 20.0926 3.74072 20.4282C4.61444 20.7638 5.59481 20.3276 5.93042 19.4539L8.60163 12.4997C8.93724 11.6259 8.50101 10.6456 7.62728 10.31C6.75355 9.97436 5.77319 10.4106 5.43758 11.2843L2.76637 18.2385Z" fill="black"/>
</g>
<defs>
<clipPath id="clip0_38_782">
<rect width="30" height="30" fill="white" transform="translate(0 0.767578)"/>
</clipPath>
</defs>
</svg>
