<svg width="30" height="31" viewBox="0 0 30 31" fill="none" xmlns="http://www.w3.org/2000/svg">
<g clip-path="url(#clip0_38_779)">
<path fill-rule="evenodd" clip-rule="evenodd" d="M8.21276 25.4481C5.26531 25.0594 1.67186 25.8564 0.244911 26.3064C0.0605606 26.3645 -0.136014 26.2622 -0.19415 26.0779C-0.252287 25.8935 -0.149971 25.6969 0.0343786 25.6388C1.50253 25.1758 5.20978 24.346 8.30429 24.7541C9.68024 24.9356 10.9679 25.266 12.2569 25.5968C12.7585 25.7256 13.2602 25.8543 13.7675 25.9744C15.5909 26.406 17.5379 26.7413 19.9471 26.619C23.8566 26.4207 26.3151 25.8759 27.0301 25.6402C27.2136 25.5797 27.4115 25.6794 27.472 25.863C27.5326 26.0466 27.4328 26.2445 27.2492 26.305C26.4537 26.5673 23.9275 27.1181 19.9825 27.3182C17.4827 27.445 15.4646 27.0955 13.6062 26.6556C13.0711 26.5289 12.5535 26.396 12.0434 26.2651C10.7702 25.9383 9.54429 25.6237 8.21276 25.4481Z" fill="black"/>
<path fill-rule="evenodd" clip-rule="evenodd" d="M8.07312 28.2213C5.12567 27.8326 1.53222 28.6296 0.105262 29.0796C-0.0790878 29.1377 -0.275662 29.0354 -0.333799 28.8511C-0.391936 28.6667 -0.28962 28.4701 -0.10527 28.412C1.36288 27.949 5.07013 27.1192 8.16464 27.5273C9.54059 27.7088 10.8283 28.0392 12.1173 28.37C12.6188 28.4987 13.1206 28.6275 13.6278 28.7476C15.4513 29.1792 17.3982 29.5144 19.8074 29.3922C23.717 29.1939 26.1755 28.6491 26.8904 28.4134C27.074 28.3529 27.2719 28.4526 27.3324 28.6362C27.3929 28.8198 27.2932 29.0177 27.1096 29.0782C26.314 29.3405 23.7879 29.8912 19.8429 30.0913C17.343 30.2181 15.325 29.8686 13.4666 29.4288C12.9315 29.3021 12.4138 29.1692 11.9038 29.0383C10.6305 28.7115 9.40464 28.3969 8.07312 28.2213Z" fill="black"/>
<path fill-rule="evenodd" clip-rule="evenodd" d="M15.2711 0.811431C15.6834 0.771368 16.0501 1.0731 16.0901 1.48537L16.3018 3.66418L17.4524 16.4494L17.6961 18.741L21.367 19.7825C22.2074 20.0209 22.7432 20.8426 22.6226 21.7077L21.9477 26.5476C21.8905 26.9578 21.5116 27.244 21.1013 27.1868C20.6911 27.1296 20.4049 26.7507 20.4621 26.3405L21.1369 21.5006C21.1542 21.377 21.0776 21.2596 20.9576 21.2256L17.852 20.3444L18.1818 23.894C18.2202 24.3064 17.9169 24.6718 17.5045 24.7101C17.092 24.7485 16.7266 24.4452 16.6883 24.0328L16.3563 20.461L13.21 21.9521C13.0981 22.0052 13.0419 22.1322 13.0779 22.2508L14.0855 25.5625C14.2061 25.9587 13.9826 26.3777 13.5863 26.4983C13.19 26.6189 12.771 26.3954 12.6505 25.9991L11.6429 22.6874C11.3904 21.8576 11.7839 20.968 12.5677 20.5966L16.2019 18.8743L16.032 17.2775C14.6296 17.3605 12.2296 17.8956 9.98438 19.5468C9.41998 19.9619 8.71058 20.0161 8.14007 19.7733C7.54739 19.521 7.08605 18.9298 7.14864 18.1427C7.45538 14.2853 9.28752 8.56941 14.7724 3.43339L14.5972 1.63046C14.5571 1.21818 14.8588 0.851494 15.2711 0.811431ZM14.9483 5.35928C10.4219 9.9891 8.90777 14.9435 8.64392 18.2616C8.63965 18.3153 8.65208 18.3346 8.65611 18.3408C8.66335 18.3519 8.68301 18.3741 8.72749 18.3931C8.82324 18.4338 8.96969 18.4311 9.09569 18.3384C11.5613 16.5251 14.2065 15.8941 15.8865 15.7839L14.9483 5.35928Z" fill="black"/>
</g>
<defs>
<clipPath id="clip0_38_779">
<rect width="30" height="30" fill="white" transform="translate(0 0.767578)"/>
</clipPath>
</defs>
</svg>
