<svg width="30" height="31" viewBox="0 0 30 31" fill="none" xmlns="http://www.w3.org/2000/svg">
<g clip-path="url(#clip0_38_802)">
<path fill-rule="evenodd" clip-rule="evenodd" d="M24.4386 14.3145C24.2143 14.2428 24.0594 14.214 23.973 14.2177C23.8915 14.2213 23.7327 14.2633 23.4862 14.371C23.25 14.4743 22.966 14.623 22.6463 14.8071C22.0076 15.175 21.2508 15.6701 20.4922 16.1877C19.8047 16.6569 19.121 17.1409 18.5282 17.5606C18.4678 17.6034 18.4083 17.6455 18.3498 17.6869C17.7252 18.1289 17.2052 18.4949 16.9297 18.6603C16.4212 18.9654 15.7868 19.0143 15.2427 18.9757C14.6908 18.9366 14.1757 18.8033 13.8616 18.6891C13.6799 18.623 13.5862 18.4222 13.6523 18.2405C13.7183 18.0589 13.9192 17.9652 14.1008 18.0312C14.3613 18.1259 14.8125 18.2434 15.2922 18.2774C15.7798 18.312 16.2423 18.2564 16.5695 18.06C16.8163 17.912 17.3083 17.5663 17.9455 17.1155C18.0039 17.0741 18.0635 17.032 18.124 16.9891C18.7162 16.5698 19.4048 16.0823 20.0977 15.6095C20.8604 15.089 21.6347 14.5819 22.297 14.2005C22.6278 14.01 22.9366 13.8474 23.2058 13.7297C23.4648 13.6164 23.7239 13.5279 23.9426 13.5184C24.2305 13.5059 24.6212 13.624 25.0222 13.7799C26.5417 14.3706 29.0869 15.8723 30.4122 16.7058C30.5758 16.8087 30.6251 17.0248 30.5222 17.1884C30.4193 17.352 30.2032 17.4013 30.0396 17.2983C28.8057 16.5224 26.5695 15.203 25.0961 14.5671C25.0623 14.7113 25.0489 14.8742 25.0772 15.0337C25.1232 15.2935 25.2852 15.5858 25.7672 15.7924C26.5767 16.1393 26.9423 16.8286 26.8136 17.5188C26.6888 18.188 26.118 18.755 25.2834 18.9394C24.8989 19.0243 24.4748 19.1048 24.0111 19.1762C23.888 19.1951 23.7647 19.214 23.6413 19.233C22.3998 19.4235 21.1481 19.6155 20.01 19.8396C18.7542 20.0869 17.6645 20.3681 16.8937 20.7162C16.7175 20.7958 16.5102 20.7175 16.4306 20.5413C16.3511 20.3651 16.4294 20.1578 16.6055 20.0783C17.454 19.6951 18.6103 19.4018 19.8748 19.1528C21.0282 18.9257 22.2948 18.7314 23.5332 18.5413C23.6574 18.5223 23.7812 18.5033 23.9046 18.4843C24.3536 18.4152 24.7628 18.3375 25.1324 18.2559C25.7414 18.1213 26.0607 17.7378 26.1255 17.3905C26.1863 17.0643 26.0409 16.6713 25.4914 16.4358C24.8034 16.1409 24.477 15.6594 24.3879 15.1557C24.3344 14.8537 24.3688 14.5602 24.4386 14.3145Z" fill="black"/>
<path fill-rule="evenodd" clip-rule="evenodd" d="M19.2177 1.02234C19.411 1.02234 19.5677 1.17904 19.5677 1.37234V3.53222C19.5677 3.72552 19.411 3.88222 19.2177 3.88222C19.0244 3.88222 18.8677 3.72552 18.8677 3.53222V1.37234C18.8677 1.17904 19.0244 1.02234 19.2177 1.02234Z" fill="black"/>
<path fill-rule="evenodd" clip-rule="evenodd" d="M19.2177 9.21423C19.411 9.21423 19.5677 9.37093 19.5677 9.56423V11.7241C19.5677 11.9174 19.411 12.0741 19.2177 12.0741C19.0244 12.0741 18.8677 11.9174 18.8677 11.7241V9.56423C18.8677 9.37093 19.0244 9.21423 19.2177 9.21423Z" fill="black"/>
<path fill-rule="evenodd" clip-rule="evenodd" d="M16.3552 6.72634C16.3552 6.91964 16.1985 7.07634 16.0052 7.07634L13.8453 7.07634C13.652 7.07634 13.4953 6.91964 13.4953 6.72634C13.4953 6.53304 13.652 6.37634 13.8453 6.37634L16.0052 6.37634C16.1985 6.37634 16.3552 6.53304 16.3552 6.72634Z" fill="black"/>
<path fill-rule="evenodd" clip-rule="evenodd" d="M17.1634 8.69072C17.3001 8.82741 17.3001 9.04902 17.1634 9.1857L15.6361 10.713C15.4994 10.8496 15.2778 10.8496 15.1411 10.713C15.0045 10.5763 15.0045 10.3547 15.1411 10.218L16.6684 8.69072C16.8051 8.55404 17.0267 8.55404 17.1634 8.69072Z" fill="black"/>
<path fill-rule="evenodd" clip-rule="evenodd" d="M21.1823 8.69075C21.319 8.55406 21.5406 8.55406 21.6773 8.69074L23.2045 10.218C23.3412 10.3547 23.3412 10.5763 23.2045 10.713C23.0679 10.8497 22.8463 10.8497 22.7096 10.713L21.1823 9.18572C21.0456 9.04904 21.0456 8.82743 21.1823 8.69075Z" fill="black"/>
<path fill-rule="evenodd" clip-rule="evenodd" d="M24.7717 6.72634C24.7717 6.91964 24.615 7.07634 24.4217 7.07634L22.2618 7.07634C22.0685 7.07634 21.9118 6.91964 21.9118 6.72634C21.9118 6.53304 22.0685 6.37634 22.2618 6.37634L24.4217 6.37634C24.615 6.37634 24.7717 6.53304 24.7717 6.72634Z" fill="black"/>
<path fill-rule="evenodd" clip-rule="evenodd" d="M23.1147 2.73931C23.2514 2.87599 23.2514 3.0976 23.1147 3.23428L21.5874 4.76155C21.4507 4.89823 21.2291 4.89823 21.0924 4.76155C20.9557 4.62487 20.9557 4.40326 21.0924 4.26658L22.6197 2.73931C22.7564 2.60263 22.978 2.60263 23.1147 2.73931Z" fill="black"/>
<path fill-rule="evenodd" clip-rule="evenodd" d="M15.2309 2.73933C15.3676 2.60265 15.5892 2.60265 15.7259 2.73933L17.2531 4.2666C17.3898 4.40328 17.3898 4.62489 17.2531 4.76157C17.1164 4.89825 16.8948 4.89825 16.7582 4.76157L15.2309 3.2343C15.0942 3.09762 15.0942 2.87601 15.2309 2.73933Z" fill="black"/>
<path fill-rule="evenodd" clip-rule="evenodd" d="M7.72463 3.73682C5.80099 3.73682 4.24158 5.29623 4.24158 7.21987C4.24158 8.12043 4.34325 9.31101 4.45767 10.6507C4.48384 10.9572 4.51067 11.2714 4.53711 11.5918C4.6767 13.2832 4.80215 15.1198 4.7248 16.7183C4.66896 17.8723 4.5888 19.183 4.50976 20.4751C4.374 22.6948 4.24158 24.8597 4.24158 26.0819C4.24158 27.8336 5.66165 29.2537 7.41339 29.2537H8.22264C9.97439 29.2537 11.3945 27.8336 11.3945 26.0819C11.3945 23.7962 11.0494 19.1416 10.8496 16.7443C10.7435 15.4714 10.8888 13.5948 11.0491 11.8241C11.0782 11.5027 11.1077 11.1846 11.1368 10.8727C11.2719 9.41976 11.3945 8.10213 11.3945 7.21987C11.3945 5.29623 9.83504 3.73682 7.9114 3.73682H7.72463ZM2.74158 7.21987C2.74158 4.4678 4.97257 2.23682 7.72463 2.23682H7.9114C10.6635 2.23682 12.8945 4.4678 12.8945 7.21987C12.8945 8.17921 12.7629 9.59018 12.6276 11.0427C12.5991 11.3477 12.5706 11.6544 12.543 11.9592C12.3797 13.7639 12.2513 15.5022 12.3444 16.6197C12.543 19.0032 12.8945 23.7223 12.8945 26.0819C12.8945 28.6621 10.8028 30.7537 8.22264 30.7537H7.41339C4.83322 30.7537 2.74158 28.6621 2.74158 26.0819C2.74158 24.8183 2.87965 22.5563 3.01768 20.295C3.0956 19.0185 3.1735 17.7422 3.22656 16.6458C3.29861 15.1566 3.18201 13.4093 3.0422 11.7152C3.01714 11.4116 2.99123 11.1087 2.9656 10.8092C2.8507 9.46642 2.74158 8.19107 2.74158 7.21987Z" fill="black"/>
<path fill-rule="evenodd" clip-rule="evenodd" d="M19.2177 7.98982C19.9842 7.98982 20.6055 7.36847 20.6055 6.60199C20.6055 5.83551 19.9842 5.21416 19.2177 5.21416C18.4512 5.21416 17.8299 5.83551 17.8299 6.60199C17.8299 7.36847 18.4512 7.98982 19.2177 7.98982ZM19.2177 8.68982C20.3708 8.68982 21.3055 7.75507 21.3055 6.60199C21.3055 5.44891 20.3708 4.51416 19.2177 4.51416C18.0646 4.51416 17.1299 5.44891 17.1299 6.60199C17.1299 7.75507 18.0646 8.68982 19.2177 8.68982Z" fill="black"/>
<path fill-rule="evenodd" clip-rule="evenodd" d="M6.56367 11.6794C6.89895 11.4361 7.36793 11.5107 7.61116 11.846L9.688 14.7088C9.93123 15.0441 9.85661 15.5131 9.52133 15.7563C9.18606 15.9995 8.71708 15.9249 8.47385 15.5896L6.39701 12.7268C6.15378 12.3916 6.22839 11.9226 6.56367 11.6794Z" fill="black"/>
<path fill-rule="evenodd" clip-rule="evenodd" d="M6.1147 18.3588C6.44998 18.1156 6.91895 18.1902 7.16218 18.5255L9.23903 21.3883C9.48226 21.7235 9.40764 22.1925 9.07236 22.4357C8.73708 22.679 8.26811 22.6044 8.02488 22.2691L5.94803 19.4063C5.7048 19.071 5.77942 18.602 6.1147 18.3588Z" fill="black"/>
</g>
<defs>
<clipPath id="clip0_38_802">
<rect width="30" height="30" fill="white" transform="translate(0 0.767578)"/>
</clipPath>
</defs>
</svg>
