<svg width="30" height="31" viewBox="0 0 30 31" fill="none" xmlns="http://www.w3.org/2000/svg">
<g clip-path="url(#clip0_38_777)">
<path fill-rule="evenodd" clip-rule="evenodd" d="M26.3509 1.01758C26.7651 1.01758 27.1009 1.35336 27.1009 1.76758V20.1846C27.1009 23.9125 24.0788 26.9346 20.3509 26.9346H17.1653C16.825 28.4142 15.4999 29.5176 13.917 29.5176H12.2409C10.4001 29.5176 8.9079 28.0253 8.9079 26.1846C8.9079 24.14 10.5654 22.4825 12.6099 22.4825H13.548C15.3356 22.4825 16.8273 23.7495 17.174 25.4346H20.3509C23.2504 25.4346 25.6009 23.084 25.6009 20.1846V1.76758C25.6009 1.35336 25.9367 1.01758 26.3509 1.01758ZM4.7695 12.0176C3.73168 12.0176 2.89035 12.8589 2.89035 13.8967V16.7206C2.89035 19.1029 4.82162 21.0342 7.20397 21.0342H8.02094C9.29899 21.0342 10.4472 20.253 10.9164 19.0642L11.6984 17.0831C11.9218 16.5169 12.4686 16.1449 13.0773 16.1449C13.6534 16.1449 14.1773 16.4786 14.4208 17.0007L15.3639 19.0225C15.9364 20.2497 17.1679 21.0342 18.5221 21.0342H19.0331C21.4008 21.0342 23.3202 19.1148 23.3202 16.7471V13.8967C23.3202 12.8589 22.4788 12.0176 21.441 12.0176H4.7695ZM1.41323 13.5014C1.60901 11.8214 3.03699 10.5176 4.7695 10.5176H21.441C23.3073 10.5176 24.8202 12.0305 24.8202 13.8967V16.7471C24.8202 19.9432 22.2292 22.5342 19.0331 22.5342H18.5221C16.585 22.5342 14.8234 21.4121 14.0045 19.6566L13.0786 17.6717L12.3117 19.6149C11.6163 21.3766 9.91485 22.5342 8.02094 22.5342H7.20397C4.68827 22.5342 2.54578 20.9363 1.73605 18.7001C1.66863 19.0451 1.36472 19.3054 1 19.3054C0.585786 19.3054 0.25 18.9696 0.25 18.5554V14.1274C0.25 13.7132 0.585786 13.3774 1 13.3774C1.1527 13.3774 1.29474 13.423 1.41323 13.5014ZM12.6099 23.9825C11.3938 23.9825 10.4079 24.9684 10.4079 26.1846C10.4079 27.1969 11.2286 28.0176 12.2409 28.0176H13.917C14.9293 28.0176 15.75 27.1969 15.75 26.1846C15.75 24.9684 14.7641 23.9825 13.548 23.9825H12.6099Z" fill="black"/>
<path fill-rule="evenodd" clip-rule="evenodd" d="M42.3177 4.98894C42.3988 5.16444 42.3221 5.37239 42.1466 5.45339L35.8105 8.37776C34.2662 9.09053 32.4481 8.83782 31.1567 7.7309L30.5344 7.19754C29.3833 6.2109 27.7422 6.03854 26.4112 6.76451L23.984 8.08847C22.3755 8.9658 20.3813 8.67862 19.0858 7.38309C18.0099 6.30714 16.3537 6.06863 15.0178 6.79727L12.402 8.22409C10.9665 9.00707 9.17391 8.61753 8.19283 7.30944C7.44141 6.30754 6.08101 5.98639 4.96086 6.54647L1.32979 8.36201C-0.080019 9.06691 -1.79221 8.66272 -2.73793 7.40175C-3.51301 6.36831 -4.93633 6.07374 -6.05793 6.71466L-10.8264 9.43949C-10.9942 9.5354 -11.208 9.47709 -11.3039 9.30926C-11.3998 9.14142 -11.3415 8.92763 -11.1737 8.83172L-6.40522 6.10689C-4.97712 5.29082 -3.16483 5.66589 -2.17793 6.98175C-1.43519 7.97208 -0.0904837 8.28952 1.01674 7.73591L4.64781 5.92037C6.07055 5.209 7.79843 5.6169 8.75283 6.88944C9.52526 7.91933 10.9366 8.22602 12.0668 7.60956L14.6826 6.18274C16.2911 5.30541 18.2853 5.59259 19.5808 6.88812C20.6567 7.96407 22.3129 8.20258 23.6488 7.47394L26.076 6.14999C27.6622 5.28478 29.6181 5.4902 30.99 6.66606L31.6122 7.19942C32.6958 8.12822 34.2213 8.34026 35.5172 7.74219L41.8533 4.81782C42.0288 4.73682 42.2367 4.81343 42.3177 4.98894Z" fill="black"/>
<path fill-rule="evenodd" clip-rule="evenodd" d="M42.227 2.66287C42.2849 2.78824 42.2302 2.93677 42.1048 2.99463L35.7687 5.91899C34.2599 6.61538 32.4835 6.36848 31.2218 5.28701L30.5996 4.75365C29.417 3.73997 27.7308 3.56289 26.3634 4.30875L23.9362 5.63271C22.3667 6.4888 20.4208 6.20858 19.1566 4.94442C18.0493 3.83709 16.3448 3.59163 14.97 4.34151L12.3542 5.76833C10.9623 6.52752 9.22418 6.14982 8.27291 4.88147C7.4925 3.84091 6.0796 3.50737 4.91622 4.08906L1.28515 5.90459C-0.0814333 6.58788 -1.74112 6.19609 -2.65785 4.97378C-3.46319 3.89999 -4.94208 3.59393 -6.10746 4.25986L-10.8759 6.9847C-10.9958 7.0532 -11.1485 7.01155 -11.217 6.89167C-11.2855 6.77179 -11.2439 6.61908 -11.124 6.55058L-6.35553 3.82574C-4.97121 3.0347 -3.21449 3.39826 -2.25785 4.67378C-1.48611 5.70277 -0.0889072 6.03261 1.06154 5.45738L4.69261 3.64185C6.07212 2.95209 7.74751 3.3476 8.67291 4.58147C9.47514 5.65111 10.941 5.96963 12.1148 5.32938L14.7306 3.90256C16.3001 3.04647 18.246 3.3267 19.5102 4.59086C20.6175 5.69818 22.322 5.94364 23.6967 5.19377L26.124 3.86981C27.6737 3.02449 29.5847 3.22519 30.925 4.37402L31.5472 4.90738C32.6605 5.86162 34.2278 6.07947 35.5592 5.46501L41.8953 2.54065C42.0206 2.48279 42.1692 2.53751 42.227 2.66287Z" fill="black"/>
</g>
<defs>
<clipPath id="clip0_38_777">
<rect width="30" height="30" fill="white" transform="translate(0 0.767578)"/>
</clipPath>
</defs>
</svg>
