<svg width="70" height="70" viewBox="0 0 70 70" fill="none" xmlns="http://www.w3.org/2000/svg">
<path fill-rule="evenodd" clip-rule="evenodd" d="M26.1653 50.7934C31.3065 55.8699 34.7415 62.2016 36.3539 66.5224C36.582 67.1336 36.4618 67.8159 36.0372 68.3195C35.6126 68.8231 34.946 69.0742 34.2813 68.9808C12.4124 65.9082 4.60753 51.8239 3.52064 44.7243C3.4444 44.2263 3.58128 43.7197 3.89969 43.3216C4.21809 42.9234 4.69051 42.668 5.20787 42.6144C13.9513 41.708 21.0107 45.7035 26.1653 50.7934ZM7.77874 46.1857C14.0024 46.2219 19.245 49.2452 23.4347 53.3822C27.0138 56.9163 29.7129 61.1643 31.4412 64.7264C15.9513 61.4481 9.58174 51.953 7.77874 46.1857Z" fill="black"/>
<path fill-rule="evenodd" clip-rule="evenodd" d="M43.8347 50.7933C38.6935 55.8698 35.2585 62.2015 33.6461 66.5223C33.418 67.1336 33.5382 67.8158 33.9628 68.3194C34.3874 68.823 35.054 69.0741 35.7187 68.9807C57.5876 65.9081 65.3925 51.8238 66.4794 44.7242C66.5556 44.2262 66.4187 43.7196 66.1003 43.3215C65.7819 42.9233 65.3095 42.6679 64.7921 42.6143C56.0487 41.7079 48.9893 45.7034 43.8347 50.7933ZM62.2213 46.1856C55.9976 46.2218 50.755 49.2451 46.5653 53.3821C42.9862 56.9162 40.2871 61.1642 38.5588 64.7263C54.0487 61.4481 60.4183 51.9529 62.2213 46.1856Z" fill="black"/>
<path fill-rule="evenodd" clip-rule="evenodd" d="M35.4437 37.7139C36.4994 37.7139 37.3552 38.5419 37.3552 39.5634L37.3552 67.1504C37.3552 68.1718 36.4994 68.9999 35.4437 68.9999C34.388 68.9999 33.5322 68.1718 33.5322 67.1504L33.5322 39.5634C33.5322 38.5419 34.388 37.7139 35.4437 37.7139Z" fill="black"/>
<path fill-rule="evenodd" clip-rule="evenodd" d="M47.4475 26.3525L30.4329 9.88996C28.5041 8.02371 25.3768 8.02371 23.448 9.88996C21.5191 11.7562 21.5191 14.782 23.4479 16.6483L40.4626 33.1108C42.3914 34.977 45.5187 34.977 47.4475 33.1108C49.3764 31.2445 49.3764 28.2187 47.4475 26.3525ZM33.1362 7.2744C29.7144 3.96362 24.1665 3.96362 20.7447 7.2744C17.3229 10.5852 17.3228 15.953 20.7447 19.2638L37.7593 35.7263C41.1811 39.0371 46.729 39.0371 50.1508 35.7263C53.5726 32.4155 53.5726 27.0477 50.1508 23.7369L33.1362 7.2744Z" fill="black"/>
<path fill-rule="evenodd" clip-rule="evenodd" d="M39.8813 9.8901L23.4451 25.793C21.3565 27.8138 21.3565 31.0901 23.4451 33.1109C25.5337 35.1317 28.9199 35.1317 31.0085 33.1109L47.4447 17.2081C49.5332 15.1873 49.5332 11.9109 47.4446 9.89011C45.3561 7.86931 41.9698 7.86931 39.8813 9.8901ZM20.7418 23.1774C17.1603 26.6427 17.1603 32.2611 20.7418 35.7265C24.3234 39.1918 30.1302 39.1918 33.7117 35.7265L50.1479 19.8236C53.7295 16.3583 53.7295 10.7399 50.1479 7.27455C46.5664 3.80922 40.7595 3.80921 37.178 7.27454L20.7418 23.1774Z" fill="black"/>
</svg>
