<svg width="70" height="70" viewBox="0 0 70 70" fill="none" xmlns="http://www.w3.org/2000/svg">
<path fill-rule="evenodd" clip-rule="evenodd" d="M7.8983 16.5799C8.49973 10.6376 13.5142 6 19.611 6H49.6295C55.7263 6 60.7407 10.6376 61.3422 16.5799H69V20.2049H61.4026V58.5625C61.4026 61.5655 58.9699 64 55.9689 64H23.1656C20.1646 64 17.7318 61.5656 17.7318 58.5625V53.578H13.2716C10.2706 53.578 7.83784 51.1436 7.83784 48.1405V20.2049H1V16.5799H7.8983ZM21.3543 53.578V58.5625C21.3543 59.5635 22.1653 60.375 23.1656 60.375H55.9689C56.9692 60.375 57.7801 59.5635 57.7801 58.5625V20.2049H48.2103V48.1405C48.2103 51.1436 45.7775 53.578 42.7765 53.578H21.3543ZM49.4056 16.5799H57.6923C57.1118 12.6449 53.7231 9.625 49.6295 9.625H19.611C15.1095 9.625 11.4603 13.2767 11.4603 17.7812V35.83H44.5877V18.3924C44.5877 15.3021 47.0912 12.7969 50.1793 12.7969H52.0529V16.4219H50.1793C49.9047 16.4219 49.6432 16.4782 49.4056 16.5799ZM44.5877 39.455H11.4603V42.8915H44.5877V39.455ZM44.5877 46.5165H11.4603V48.1405C11.4603 49.1416 12.2713 49.953 13.2716 49.953H42.7765C43.7768 49.953 44.5877 49.1416 44.5877 48.1405V46.5165Z" fill="black"/>
</svg>
