<svg width="71" height="71" viewBox="0 0 71 71" fill="none" xmlns="http://www.w3.org/2000/svg">
<path fill-rule="evenodd" clip-rule="evenodd" d="M13.4434 8.23018C13.4434 5.46096 15.6897 3.23926 18.4433 3.23926H53.3593C56.1207 3.23926 58.3593 5.47783 58.3593 8.23925V55.1552C58.3593 57.9166 56.1207 60.1552 53.3593 60.1552H48.8779V65.2393C48.8779 66.3438 47.9825 67.2393 46.8779 67.2393C45.7733 67.2393 44.8779 66.3438 44.8779 65.2393V60.1552H26.4222V65.2393C26.4222 66.3438 25.5267 67.2393 24.4222 67.2393C23.3176 67.2393 22.4222 66.3438 22.4222 65.2393V60.1552H18.4434C15.6823 60.1552 13.4434 57.9175 13.4434 55.1557L13.4434 8.23018ZM18.4433 7.23926C17.8832 7.23926 17.4434 7.68576 17.4434 8.23019L17.4434 41.0946H33.9013V7.23926H18.4433ZM37.9013 7.23926V41.0946H54.3593V8.23925C54.3593 7.68697 53.9116 7.23926 53.3593 7.23926H37.9013ZM54.3593 45.0946H17.4434L17.4434 55.1556C17.4434 55.7075 17.8907 56.1552 18.4434 56.1552H53.3593C53.9116 56.1552 54.3593 55.7075 54.3593 55.1552V45.0946Z" fill="black"/>
</svg>
