<svg width="71" height="71" viewBox="0 0 71 71" fill="none" xmlns="http://www.w3.org/2000/svg">
<path fill-rule="evenodd" clip-rule="evenodd" d="M66.5798 66.1504C58.7321 66.1504 51.2059 63.0329 45.6567 57.4838C40.1076 51.9347 36.9901 44.4084 36.9901 36.5607C36.9901 28.7131 40.1076 21.1868 45.6567 15.6377C51.2059 10.0885 58.7321 6.97107 66.5798 6.97107V3.06885C65.236 3.06885 63.9005 3.14961 62.5798 3.30845C55.1708 4.19951 48.2282 7.54767 42.8974 12.8784C36.6165 19.1593 33.0879 27.6781 33.0879 36.5607C33.0879 45.4433 36.6165 53.9621 42.8974 60.2431C48.2282 65.5738 55.1708 68.922 62.5798 69.813C63.9005 69.9719 65.236 70.0526 66.5798 70.0526V66.1504Z" fill="black"/>
<path fill-rule="evenodd" clip-rule="evenodd" d="M15.4434 68.7153L11.4434 68.7153L11.4435 28.243C6.19305 27.2996 2.20907 22.7081 2.20907 17.1861L2.20907 12.7086C2.20907 6.28026 7.4203 1.06903 13.8487 1.06903C20.2771 1.06903 25.4883 6.28026 25.4883 12.7086L25.4883 16.3757C25.4883 22.3465 21.1438 27.3026 15.4435 28.2552L15.4434 68.7153ZM13.4435 24.4205C17.8865 24.4205 21.4883 20.8187 21.4883 16.3757L21.4883 12.7086C21.4883 8.4894 18.0679 5.06903 13.8487 5.06903C9.62944 5.06903 6.20907 8.4894 6.20907 12.7086L6.20907 17.1861C6.20907 21.1816 9.44801 24.4205 13.4435 24.4205Z" fill="black"/>
<path fill-rule="evenodd" clip-rule="evenodd" d="M65.149 55.1794C61.2593 54.5527 57.6358 52.7176 54.8144 49.8961C51.2778 46.3596 49.291 41.563 49.291 36.5616C49.291 31.5601 51.2778 26.7635 54.8144 23.227C57.6358 20.4055 61.2593 18.5704 65.149 17.9437C66.1348 17.7848 67.1377 17.7036 68.149 17.7036V20.681C63.9372 20.681 59.8979 22.3541 56.9197 25.3323C53.9415 28.3105 52.2684 32.3498 52.2684 36.5616C52.2684 40.7733 53.9415 44.8126 56.9197 47.7908C59.8979 50.769 63.9372 52.4421 68.149 52.4421V55.4195C67.1377 55.4195 66.1348 55.3383 65.149 55.1794Z" fill="black"/>
</svg>
