<svg width="71" height="71" viewBox="0 0 71 71" fill="none" xmlns="http://www.w3.org/2000/svg">
<path fill-rule="evenodd" clip-rule="evenodd" d="M46.3628 15.1694L42.4554 22.6751L45.5801 24.3377L48.9996 17.7693H59.8628L58.2429 25.6834C55.2549 34.667 46.9252 40.7247 37.5429 40.7247H31.7798C22.3959 40.7247 14.0652 34.6637 11.0807 25.6766L9.39427 17.7693H19.3785L16.8482 22.682L19.9802 24.3308L23.8622 16.7934L30.4787 3.31735L27.3158 1.7301L21.1937 14.1993H5.02066L7.18836 24.3634H1.32227V27.9333H8.13398C11.9027 37.754 21.273 44.2946 31.7798 44.2946H37.5429C48.0504 44.2946 57.4216 37.7542 61.1917 27.9333H68.3223V24.3634H62.119L64.1994 14.1993H50.7904L56.17 3.32198L53.0117 1.72546L46.3628 15.1694ZM43.0142 3.31444L32.7591 24.2971L29.5933 22.7157L39.8485 1.73301L43.0142 3.31444Z" fill="black"/>
<path fill-rule="evenodd" clip-rule="evenodd" d="M47.0516 39.0274C47.9659 38.6849 48.9818 39.1566 49.3206 40.081L53.9781 52.7877L58.8767 66.3998C59.2101 67.3262 58.7375 68.3504 57.8212 68.6875C56.9049 69.0245 55.8918 68.5468 55.5584 67.6204L51.0825 55.183H17.661L12.2127 67.7277C11.8206 68.6303 10.7791 69.0408 9.88625 68.6444C8.99344 68.2481 8.58747 67.1951 8.9795 66.2925L20.4083 39.9834C20.8004 39.0808 21.8421 38.6705 22.7348 39.067C23.6276 39.4635 24.0334 40.5166 23.6412 41.4191L19.212 51.613H49.7818L46.0095 41.3214C45.6707 40.397 46.1372 39.37 47.0516 39.0274Z" fill="black"/>
<path fill-rule="evenodd" clip-rule="evenodd" d="M34.3866 42.3145C35.3617 42.321 36.1469 43.1255 36.1404 44.1113L35.9836 67.9406C35.9771 68.9264 35.1814 69.7202 34.2063 69.7136C33.2312 69.7071 32.4461 68.9026 32.4525 67.9168L32.6093 44.0875C32.6158 43.1017 33.4115 42.3079 34.3866 42.3145Z" fill="black"/>
</svg>
