<svg width="71" height="71" viewBox="0 0 71 71" fill="none" xmlns="http://www.w3.org/2000/svg">
<path fill-rule="evenodd" clip-rule="evenodd" d="M32.1235 10.7822C34.1443 10.0499 36.4885 10.0664 39.1122 11.0109C43.4083 12.5574 45.8744 16.5686 45.927 20.8335C45.9665 24.0346 44.2746 26.4145 42.1179 28.0907C40.1921 29.5875 37.7863 30.6216 35.5324 31.3322V35.5142L67.6653 52.1242C71.6384 54.1779 70.199 60.2644 65.7401 60.2644H6.23721C1.91115 60.2644 0.360775 54.4632 4.0941 52.2451L32.139 35.5823V30.5987C32.139 29.5015 32.8553 28.537 33.8946 28.2347C36.1593 27.576 38.4107 26.6345 40.0546 25.3568C41.6694 24.1017 42.5558 22.6494 42.5339 20.8766C42.4975 17.9238 40.8175 15.2787 37.9778 14.2565C35.9646 13.5317 34.4334 13.6018 33.2648 14.0253C32.0781 14.4553 31.0881 15.3148 30.2906 16.4692C28.646 18.8497 28.0671 22.1287 28.2686 23.915C28.3752 24.8598 27.7069 25.7133 26.7759 25.8215C25.8449 25.9297 25.0038 25.2515 24.8973 24.3067C24.6055 21.7207 25.3706 17.592 27.512 14.4923C28.6074 12.9067 30.1208 11.508 32.1235 10.7822ZM33.8923 38.5311L5.80858 55.2169C5.06194 55.6605 5.37197 56.8207 6.23721 56.8207H65.7401C66.6319 56.8207 66.9198 55.6035 66.1252 55.1927L33.8923 38.5311Z" fill="black"/>
</svg>
