<svg width="71" height="71" viewBox="0 0 71 71" fill="none" xmlns="http://www.w3.org/2000/svg">
<path fill-rule="evenodd" clip-rule="evenodd" d="M25.7394 11.5997C25.7394 6.81893 29.6468 2.94336 34.4668 2.94336C39.2867 2.94336 43.1941 6.81893 43.1941 11.5997V43.4307L45.4814 45.7437C48.3281 48.6223 49.7068 52.6252 49.2308 56.6297C48.3961 63.6519 42.3953 68.9434 35.2665 68.9434H34.3496C27.216 68.9434 21.2179 63.634 20.4097 56.6039C19.8947 52.1246 21.7043 47.6917 25.2162 44.8296L25.7394 44.4031V11.5997ZM34.4668 6.70062C31.7389 6.70062 29.5275 8.89401 29.5275 11.5997V44.9377C29.5275 45.7234 29.1728 46.4679 28.5607 46.9668L27.621 47.7326C25.1019 49.7856 23.804 52.9652 24.1734 56.1782C24.7634 61.3102 29.142 65.1861 34.3496 65.1861H35.2665C40.4748 65.1861 44.8589 61.3202 45.4688 56.1898C45.8105 53.3149 44.8207 50.4413 42.7771 48.3747L40.2473 45.8165C39.7081 45.2712 39.406 44.5379 39.406 43.7741V11.5997C39.406 8.89401 37.1946 6.70062 34.4668 6.70062Z" fill="black"/>
<path fill-rule="evenodd" clip-rule="evenodd" d="M34.5638 55.7467C35.8226 55.7467 36.8431 54.7344 36.8431 53.4858C36.8431 52.2372 35.8226 51.225 34.5638 51.225C33.3049 51.225 32.2844 52.2372 32.2844 53.4858C32.2844 54.7344 33.3049 55.7467 34.5638 55.7467ZM34.5638 58.5646C37.3917 58.5646 39.6842 56.2908 39.6842 53.4858C39.6842 50.6809 37.3917 48.4071 34.5638 48.4071C31.7359 48.4071 29.4434 50.6809 29.4434 53.4858C29.4434 56.2908 31.7359 58.5646 34.5638 58.5646Z" fill="black"/>
<path fill-rule="evenodd" clip-rule="evenodd" d="M34.564 15.9356C35.61 15.9356 36.458 16.7767 36.458 17.8142L36.4574 48.2948C36.4574 49.3324 35.6094 50.1734 34.5633 50.1734C33.5173 50.1734 32.6693 49.3323 32.6693 48.2947L32.6699 17.8142C32.6699 16.7766 33.5179 15.9356 34.564 15.9356Z" fill="black"/>
</svg>
