<svg width="71" height="71" viewBox="0 0 71 71" fill="none" xmlns="http://www.w3.org/2000/svg">
<path fill-rule="evenodd" clip-rule="evenodd" d="M50.7986 20.0657H16.6503L10.7968 32.6924H7.36523V48.0597H11.9826V45.3191H10.3284V35.433H65.9009V45.3191H61.3198V48.0597H68.864V35.2282C68.864 33.815 67.6175 32.6924 66.1099 32.6924H56.6521L50.7986 20.0657ZM14.0209 32.6924L18.604 22.8063H21.9991V32.6924H14.0209ZM24.9623 32.6924V22.8063H36.6331V32.6924H24.9623ZM39.5962 32.6924V22.8063H48.8449L53.428 32.6924H39.5962Z" fill="black"/>
<path d="M50.0308 45.3191H23.2717V48.0597H50.0308V45.3191Z" fill="black"/>
<path fill-rule="evenodd" clip-rule="evenodd" d="M17.628 43.2882C15.0253 43.2882 13.047 45.401 13.047 47.8383C13.047 50.2756 15.0253 52.3884 17.628 52.3884C20.2307 52.3884 22.2091 50.2756 22.2091 47.8383C22.2091 45.401 20.2307 43.2882 17.628 43.2882ZM10.502 47.8383C10.502 43.7419 13.7651 40.5581 17.628 40.5581C21.491 40.5581 24.7541 43.7419 24.7541 47.8383C24.7541 51.9347 21.491 55.1184 17.628 55.1184C13.7651 55.1184 10.502 51.9347 10.502 47.8383Z" fill="black"/>
<path fill-rule="evenodd" clip-rule="evenodd" d="M55.6749 43.2882C53.0722 43.2882 51.0939 45.401 51.0939 47.8383C51.0939 50.2756 53.0722 52.3884 55.6749 52.3884C58.2776 52.3884 60.256 50.2756 60.256 47.8383C60.256 45.401 58.2776 43.2882 55.6749 43.2882ZM48.5488 47.8383C48.5488 43.7419 51.8119 40.5581 55.6749 40.5581C59.5379 40.5581 62.801 43.7419 62.801 47.8383C62.801 51.9347 59.5379 55.1184 55.6749 55.1184C51.8119 55.1184 48.5488 51.9347 48.5488 47.8383Z" fill="black"/>
<path d="M67.4025 57.7069H2.43555V6.96631H54.8824" stroke="black" stroke-width="3" stroke-linecap="round"/>
</svg>
