<svg width="71" height="71" viewBox="0 0 71 71" fill="none" xmlns="http://www.w3.org/2000/svg">
<path fill-rule="evenodd" clip-rule="evenodd" d="M15.7439 16.897C18.1196 9.21738 25.2461 3.87842 33.4101 3.87842H37.2407C45.3753 3.87842 52.4612 9.23072 54.7703 16.897H66.6165V24.5985C66.6165 29.6302 64.0936 34.3267 59.8984 37.1048L57.4823 38.7048L59.4215 60.6204H11.5204L15.0975 20.897H13.5992C10.838 20.897 8.59948 23.1352 8.59916 25.8964L8.59766 38.76C8.59753 39.8646 7.70199 40.7599 6.59742 40.7598C5.49285 40.7596 4.59753 39.8641 4.59766 38.7595L4.59916 25.8959C4.59974 20.9258 8.629 16.897 13.5992 16.897H15.7439ZM19.1137 20.897L15.8968 56.6204H55.052L53.3953 37.8978L51.4329 20.897H19.1137ZM50.5379 16.897H19.9882C22.1786 11.5208 27.4405 7.87842 33.4101 7.87842H37.2407C43.1808 7.87842 48.4055 11.5303 50.5379 16.897ZM55.4595 20.897L56.9982 34.2278L57.6899 33.7698C60.7664 31.7325 62.6165 28.2884 62.6165 24.5985V20.897H55.4595Z" fill="black"/>
<path fill-rule="evenodd" clip-rule="evenodd" d="M60.1922 67.8784L11.2871 67.8784L11.2871 63.8784L60.1922 63.8784L60.1922 67.8784Z" fill="black"/>
</svg>
