<svg width="71" height="71" viewBox="0 0 71 71" fill="none" xmlns="http://www.w3.org/2000/svg">
<path fill-rule="evenodd" clip-rule="evenodd" d="M31.1894 4.8208H35.1894V41.6553C40.4398 42.5987 44.4237 47.1902 44.4237 52.7122V55.1812C44.4237 61.6096 39.2125 66.8208 32.7841 66.8208C26.3558 66.8208 21.1445 61.6096 21.1445 55.1812V53.5226C21.1445 47.5518 25.4891 42.5957 31.1894 41.6431V4.8208ZM33.1894 45.4778C28.7463 45.4778 25.1445 49.0796 25.1445 53.5226V55.1812C25.1445 59.4004 28.5649 62.8208 32.7841 62.8208C37.0034 62.8208 40.4237 59.4004 40.4237 55.1812V52.7122C40.4237 48.7167 37.1848 45.4778 33.1894 45.4778Z" fill="black"/>
<path fill-rule="evenodd" clip-rule="evenodd" d="M3.29883 4.68115L5.29884 4.68117C8.90365 4.6812 13.274 7.2545 16.3592 13.4377C19.444 19.62 21.3754 29.5856 20.2695 45.0707L20.1368 46.9282H7.29883V66.6812H3.29883V4.68115ZM7.29883 42.9282H16.3989C17.1963 28.9172 15.3105 20.295 12.78 15.2236C10.9919 11.64 8.94223 9.90948 7.29883 9.1658V42.9282Z" fill="black"/>
<path fill-rule="evenodd" clip-rule="evenodd" d="M53.7322 8.98247C50.982 9.83477 48.9844 12.3986 48.9844 15.429V25.6909C48.9844 29.5121 50.2711 33.222 52.637 36.2227L53.7322 37.6116V8.98247ZM57.7322 8.96838V37.7678L58.9884 36.2298C61.4493 33.2167 62.7935 29.4459 62.7935 25.5555V15.7425C62.7935 12.5373 60.658 9.83085 57.7322 8.96838ZM57.7322 44.0912L62.0864 38.76C65.1306 35.0327 66.7935 30.368 66.7935 25.5555V15.7425C66.7935 9.63347 61.8412 4.68115 55.7322 4.68115C49.7963 4.68115 44.9844 9.49312 44.9844 15.429V25.6909C44.9844 30.4107 46.5736 34.993 49.496 38.6993L53.7322 44.0719V66.6812H57.7322V44.0912Z" fill="black"/>
</svg>
