<svg width="71" height="71" viewBox="0 0 71 71" fill="none" xmlns="http://www.w3.org/2000/svg">
<path fill-rule="evenodd" clip-rule="evenodd" d="M30.5189 5.12632C27.9233 5.12632 25.8192 7.26725 25.8192 9.90823V11.1508H44.0613V9.90823C44.0613 7.26725 41.9571 5.12632 39.3615 5.12632H30.5189ZM47.8211 11.1508V9.90823C47.8211 5.15447 44.0336 1.30078 39.3615 1.30078H30.5189C25.8468 1.30078 22.0593 5.15447 22.0593 9.90823V11.1508H13.7955C9.12343 11.1508 5.33594 15.0045 5.33594 19.7582V51.1417C5.33594 55.8954 9.12343 59.7491 13.7955 59.7491H57.5487C62.2208 59.7491 66.0083 55.8954 66.0083 51.1417V19.7582C66.0083 15.0045 62.2208 11.1508 57.5487 11.1508H47.8211ZM13.7955 14.9763C11.1999 14.9763 9.09576 17.1173 9.09576 19.7582V51.1417C9.09576 53.7827 11.1999 55.9236 13.7955 55.9236H57.5487C60.1443 55.9236 62.2485 53.7827 62.2485 51.1417V19.7582C62.2485 17.1173 60.1443 14.9763 57.5487 14.9763H13.7955ZM64.1284 69.3008H7.21585V65.4752H64.1284V69.3008Z" fill="black"/>
</svg>
