<svg width="70" height="70" viewBox="0 0 70 70" fill="none" xmlns="http://www.w3.org/2000/svg">
<path fill-rule="evenodd" clip-rule="evenodd" d="M34.9153 4.5077C35.5117 4.45346 36.0983 4.6879 36.4962 5.13955C44.5114 14.2369 48.5233 18.2828 57.7295 22.0605C59.1303 22.6353 60.22 23.8521 60.5898 25.382L68.8632 59.6047C69.5887 62.6059 67.3368 65.5 64.276 65.5H59.9179C58.8748 65.5 58.0291 64.6465 58.0291 63.5937C58.0291 62.541 58.8748 61.6875 59.9179 61.6875H64.276C64.8882 61.6875 65.3385 61.1087 65.1934 60.5084L56.9201 26.2857C56.849 25.9919 56.6289 25.7245 56.3068 25.5923C46.9438 21.7502 42.4106 17.4925 35.2638 9.46946C33.0223 12.3677 29.7511 15.4243 26.4654 18.0724C22.3662 21.3762 17.9751 24.2586 15.0454 25.5561C14.4571 25.8167 14.1382 26.2165 14.0481 26.5475L4.81384 60.482C4.64875 61.0887 5.10109 61.6875 5.72448 61.6875H9.60948C10.6526 61.6875 11.4982 62.541 11.4982 63.5937C11.4982 64.6465 10.6526 65.5 9.60948 65.5H5.72448C2.60756 65.5 0.34582 62.5058 1.17131 59.4722L10.4056 25.5378C10.8727 23.8212 12.1893 22.6577 13.5275 22.065C16.0245 20.9591 20.1209 18.3069 24.1083 15.0932C28.113 11.8656 31.7391 8.28553 33.4718 5.41461C33.7833 4.89843 34.3189 4.56195 34.9153 4.5077Z" fill="black"/>
<path fill-rule="evenodd" clip-rule="evenodd" d="M19.3164 42.2418C19.3164 39.873 21.219 37.9527 23.566 37.9527H46.3285C48.6755 37.9527 50.5781 39.873 50.5781 42.2418V63.5938C50.5781 64.3834 49.9439 65.0235 49.1615 65.0235C48.3792 65.0235 47.745 64.3834 47.745 63.5938V52.9178H22.1495V63.5938C22.1495 64.3834 21.5153 65.0235 20.7329 65.0235C19.9506 65.0235 19.3164 64.3834 19.3164 63.5938V42.2418ZM22.1495 50.0584H28.6696C28.6676 50.0277 28.6667 49.9968 28.6667 49.9656V47.852C28.6667 45.4832 30.5693 43.5629 32.9163 43.5629H37.206C39.553 43.5629 41.4556 45.4832 41.4556 47.852V49.9656C41.4556 49.9968 41.4546 50.0277 41.4526 50.0584H47.745V42.2418C47.745 41.4522 47.1108 40.8121 46.3285 40.8121H23.566C22.7837 40.8121 22.1495 41.4522 22.1495 42.2418V50.0584ZM38.6255 50.0584C38.6235 50.0277 38.6225 49.9968 38.6225 49.9656V47.852C38.6225 47.0624 37.9883 46.4223 37.206 46.4223H32.9163C32.1339 46.4223 31.4997 47.0624 31.4997 47.852V49.9656C31.4997 49.9968 31.4987 50.0277 31.4968 50.0584H38.6255Z" fill="black"/>
</svg>
