<svg width="71" height="71" viewBox="0 0 71 71" fill="none" xmlns="http://www.w3.org/2000/svg">
<path fill-rule="evenodd" clip-rule="evenodd" d="M3.50781 11.6992C3.50781 7.28094 7.08953 3.69922 11.5078 3.69922H59.5078C63.9261 3.69922 67.5078 7.28094 67.5078 11.6992V59.6992C67.5078 64.1175 63.9261 67.6992 59.5078 67.6992H11.5078C7.08954 67.6992 3.50781 64.1175 3.50781 59.6992V11.6992ZM11.5078 7.69922C9.29867 7.69922 7.50781 9.49008 7.50781 11.6992V21.7617H63.5078V11.6992C63.5078 9.49008 61.7169 7.69922 59.5078 7.69922H11.5078ZM63.5078 25.7617H7.50781V59.6992C7.50781 61.9084 9.29867 63.6992 11.5078 63.6992H59.5078C61.717 63.6992 63.5078 61.9084 63.5078 59.6992V25.7617ZM20.0938 34.4284C17.8847 34.4284 16.0938 36.2192 16.0938 38.4284V50.9457C16.0938 53.1548 17.8847 54.9457 20.0938 54.9457H49.9706C52.1797 54.9457 53.9706 53.1548 53.9706 50.9457V38.4284C53.9706 36.2192 52.1797 34.4284 49.9706 34.4284H20.0938ZM12.0938 38.4284C12.0938 34.0101 15.6756 30.4284 20.0938 30.4284H49.9706C54.3889 30.4284 57.9706 34.0101 57.9706 38.4284V50.9457C57.9706 55.364 54.3889 58.9457 49.9706 58.9457H20.0938C15.6756 58.9457 12.0938 55.364 12.0938 50.9457V38.4284Z" fill="black"/>
<path d="M17.8897 14.8316C17.8897 16.2918 16.698 17.4756 15.228 17.4756C13.7581 17.4756 12.5664 16.2918 12.5664 14.8316C12.5664 13.3713 13.7581 12.1876 15.228 12.1876C16.698 12.1876 17.8897 13.3713 17.8897 14.8316Z" fill="black"/>
<path d="M31.4072 14.8316C31.4072 16.2918 30.2156 17.4756 28.7456 17.4756C27.2756 17.4756 26.084 16.2918 26.084 14.8316C26.084 13.3713 27.2756 12.1876 28.7456 12.1876C30.2156 12.1876 31.4072 13.3713 31.4072 14.8316Z" fill="black"/>
<path d="M44.9307 14.8316C44.9307 16.2918 43.739 17.4756 42.2691 17.4756C40.7991 17.4756 39.6074 16.2918 39.6074 14.8316C39.6074 13.3713 40.7991 12.1876 42.2691 12.1876C43.739 12.1876 44.9307 13.3713 44.9307 14.8316Z" fill="black"/>
<path d="M58.4522 14.8316C58.4522 16.2918 57.2605 17.4756 55.7905 17.4756C54.3206 17.4756 53.1289 16.2918 53.1289 14.8316C53.1289 13.3713 54.3206 12.1876 55.7905 12.1876C57.2605 12.1876 58.4522 13.3713 58.4522 14.8316Z" fill="black"/>
</svg>
