<svg width="71" height="71" viewBox="0 0 71 71" fill="none" xmlns="http://www.w3.org/2000/svg">
<path fill-rule="evenodd" clip-rule="evenodd" d="M21.7828 11.6893C21.7828 6.56458 25.8931 2.41016 30.9633 2.41016C36.0336 2.41016 40.1438 6.56458 40.1438 11.6893V24.2652H47.917V11.4024C47.917 6.43612 51.9002 2.41016 56.8136 2.41016C61.7271 2.41016 65.7103 6.43612 65.7103 11.4024V24.2652H70.5811V27.8171H51.4312V50.9597L54.9147 54.0173C55.6989 54.7057 56.7027 55.0848 57.7414 55.0848C58.8848 55.0848 59.9814 54.6257 60.7898 53.8085L62.4834 52.0968C64.631 49.9261 67.5438 48.7066 70.5811 48.7066V52.2585C68.4758 52.2585 66.4569 53.1038 64.9682 54.6084L63.2747 56.3201C61.8072 57.8034 59.8168 58.6367 57.7414 58.6367C55.856 58.6367 54.034 57.9487 52.6105 56.6992L48.4802 53.0738C47.8812 52.5481 47.1145 52.2585 46.3211 52.2585C45.5833 52.2585 44.8669 52.509 44.2867 52.9697L39.2024 57.0074C37.8733 58.0629 36.232 58.6367 34.5418 58.6367C32.6899 58.6367 30.9027 57.9482 29.5206 56.7023L25.3758 52.9658C24.8704 52.5103 24.217 52.2585 23.5399 52.2585C22.8826 52.2585 22.2502 52.5124 21.772 52.9681L18.4184 56.164C16.7519 57.7521 14.548 58.6367 12.2576 58.6367C9.98122 58.6367 7.87015 57.4348 6.69031 55.4671L6.16568 54.5921C5.29705 53.1434 3.74281 52.2585 2.06683 52.2585H1.1669V48.7066H2.06683C4.97166 48.7066 7.66548 50.2403 9.17102 52.7512L9.69564 53.6261C10.2386 54.5317 11.2101 55.0848 12.2576 55.0848C13.6518 55.0848 14.9933 54.5463 16.0076 53.5797L19.3613 50.3837C20.0548 49.7228 20.8855 49.2416 21.7828 48.9683L21.7828 27.8171H0.581055V24.2652H21.7828V11.6893ZM25.297 27.8171V33.1354H47.917V27.8171H25.297ZM47.917 36.6873H25.297V42.5195H47.917V36.6873ZM47.917 46.0715H25.297L25.297 48.9604C26.1856 49.2226 27.013 49.6824 27.7148 50.315L31.8597 54.0515C32.5979 54.717 33.5526 55.0848 34.5418 55.0848C35.4446 55.0848 36.3213 54.7783 37.0313 54.2145L42.1156 50.1768C43.3149 49.2243 44.7959 48.7066 46.3211 48.7066C46.8626 48.7066 47.398 48.7718 47.917 48.8984V46.0715ZM25.297 24.2652V11.6893C25.297 8.52625 27.8339 5.96208 30.9633 5.96208C34.0928 5.96208 36.6297 8.52626 36.6297 11.6893V24.2652H25.297ZM51.4312 24.2652H62.1961V11.4024C62.1961 8.39779 59.7863 5.96208 56.8136 5.96208C53.841 5.96208 51.4312 8.39779 51.4312 11.4024V24.2652ZM2.06684 61.032H1.1669V57.4801H2.06684C4.97166 57.4801 7.66548 59.0138 9.17102 61.5247L9.69564 62.3996C10.2386 63.3051 11.2101 63.8582 12.2576 63.8582C13.6518 63.8582 14.9933 63.3198 16.0076 62.3531L19.3356 59.1816C20.4824 58.0888 21.999 57.4801 23.5751 57.4801C25.0922 57.4801 26.5563 58.0441 27.6885 59.0648L31.8597 62.825C32.5979 63.4905 33.5526 63.8582 34.5418 63.8582C35.4446 63.8582 36.3213 63.5518 37.0313 62.988L42.1156 58.9502C43.3149 57.9978 44.7959 57.4801 46.3211 57.4801C47.9612 57.4801 49.5461 58.0786 50.7844 59.1655L54.9147 62.7908C55.6989 63.4792 56.7027 63.8582 57.7414 63.8582C58.8848 63.8582 59.9814 63.3991 60.7898 62.582L62.4834 60.8703C64.631 58.6996 67.5438 57.4801 70.5811 57.4801V61.032C68.4758 61.032 66.4569 61.8773 64.9682 63.3819L63.2747 65.0936C61.8072 66.5769 59.8168 67.4102 57.7414 67.4102C55.856 67.4102 54.0341 66.7221 52.6105 65.4726L48.4802 61.8473C47.8812 61.3215 47.1145 61.032 46.3211 61.032C45.5833 61.032 44.8669 61.2825 44.2867 61.7432L39.2024 65.7809C37.8733 66.8364 36.232 67.4102 34.5418 67.4102C32.6899 67.4102 30.9027 66.7216 29.5206 65.4758L25.3495 61.7156C24.8611 61.2753 24.2295 61.032 23.5751 61.032C22.8952 61.032 22.2411 61.2946 21.7464 61.766L18.4184 64.9375C16.7519 66.5256 14.548 67.4102 12.2576 67.4102C9.98122 67.4102 7.87015 66.2083 6.69031 64.2405L6.16568 63.3656C5.29705 61.9169 3.74281 61.032 2.06684 61.032Z" fill="black"/>
</svg>
