<svg width="71" height="71" viewBox="0 0 71 71" fill="none" xmlns="http://www.w3.org/2000/svg">
<path fill-rule="evenodd" clip-rule="evenodd" d="M10.4132 7.7619C10.4132 5.55277 12.2041 3.7619 14.4132 3.7619H56.5445C58.7537 3.7619 60.5445 5.55276 60.5445 7.7619V63.7619H66.8891V67.7619H3.1875V63.7619H10.4132V7.7619ZM14.4132 63.7619H56.5445V7.7619L14.4132 7.7619V63.7619Z" fill="black"/>
<path d="M43.4194 34.976C43.4194 36.8554 41.8958 38.379 40.0163 38.379C38.1369 38.379 36.6133 36.8554 36.6133 34.976C36.6133 33.0965 38.1369 31.5729 40.0163 31.5729C41.8958 31.5729 43.4194 33.0965 43.4194 34.976Z" fill="black"/>
<path fill-rule="evenodd" clip-rule="evenodd" d="M48.0684 65.0932V5.362H52.0684V65.0932H48.0684Z" fill="black"/>
</svg>
