<svg width="71" height="71" viewBox="0 0 71 71" fill="none" xmlns="http://www.w3.org/2000/svg">
<path fill-rule="evenodd" clip-rule="evenodd" d="M10.5127 7.76025C10.5127 5.55112 12.3036 3.76025 14.5127 3.76025H56.2869C58.4961 3.76025 60.2869 5.55112 60.2869 7.76025V63.7603C60.2869 65.9694 58.4961 67.7603 56.2869 67.7603H14.5127C12.3036 67.7603 10.5127 65.9694 10.5127 63.7603V7.76025ZM56.2869 7.76025H14.5127V20.6874H56.2869L56.2869 7.76025ZM56.2869 24.6874H14.5127V63.7603H56.2869V24.6874Z" fill="black"/>
<path d="M25.4591 14.5427C25.4591 15.8717 24.3129 16.949 22.899 16.949C21.4851 16.949 20.3389 15.8717 20.3389 14.5427C20.3389 13.2137 21.4851 12.1363 22.899 12.1363C24.3129 12.1363 25.4591 13.2137 25.4591 14.5427Z" fill="black"/>
<path d="M25.4591 31.5209C25.4591 32.8499 24.3129 33.9273 22.899 33.9273C21.4851 33.9273 20.3389 32.8499 20.3389 31.5209C20.3389 30.1919 21.4851 29.1146 22.899 29.1146C24.3129 29.1146 25.4591 30.1919 25.4591 31.5209Z" fill="black"/>
</svg>
