<svg width="71" height="71" viewBox="0 0 71 71" fill="none" xmlns="http://www.w3.org/2000/svg">
<path fill-rule="evenodd" clip-rule="evenodd" d="M21.6843 24.7753C23.5778 24.7753 25.1781 23.2099 25.1781 21.1978C25.1781 19.1857 23.5778 17.6204 21.6843 17.6204C19.7907 17.6204 18.1904 19.1857 18.1904 21.1978C18.1904 23.2099 19.7907 24.7753 21.6843 24.7753ZM21.6843 27.7753C25.2707 27.7753 28.1781 24.8305 28.1781 21.1978C28.1781 17.5652 25.2707 14.6204 21.6843 14.6204C18.0978 14.6204 15.1904 17.5652 15.1904 21.1978C15.1904 24.8305 18.0978 27.7753 21.6843 27.7753Z" fill="black"/>
<path fill-rule="evenodd" clip-rule="evenodd" d="M25.1152 7.06689C15.4592 7.06689 7.58789 15.0025 7.58789 24.8457C7.58789 34.6888 15.4592 42.6244 25.1152 42.6244C27.6324 42.6244 30.8702 41.4683 33.3355 40.2877L35.0632 43.8953C32.4718 45.1363 28.5627 46.6244 25.1152 46.6244C13.2019 46.6244 3.58789 36.8495 3.58789 24.8457C3.58789 12.8418 13.2019 3.06689 25.1152 3.06689C37.0284 3.06689 46.6425 12.8418 46.6425 24.8457C46.6425 28.256 45.8663 31.4891 44.4803 34.3689L40.876 32.6342C42.0066 30.2852 42.6425 27.6439 42.6425 24.8457C42.6425 15.0025 34.7712 7.06689 25.1152 7.06689Z" fill="black"/>
<path fill-rule="evenodd" clip-rule="evenodd" d="M41.0023 32.4486C41.807 31.6919 43.0727 31.7307 43.8294 32.5354L64.7202 54.7499L66.8666 62.7268C67.4918 65.0502 65.2647 67.1274 62.9904 66.3419L54.496 63.4084L50.3215 59.4461V57.4486L48.5364 58.0315L41.6373 51.2962L37.837 51.6509C36.3547 51.7893 34.9951 50.8197 34.6432 49.3731L32.8531 42.0157C32.5919 40.9424 33.2503 39.8607 34.3235 39.5995C35.3968 39.3384 36.4785 39.9968 36.7397 41.07L38.3255 47.5879L43.1076 47.1415L49.5974 53.4772L54.3215 51.9345V57.7278L56.621 59.9105L62.5142 61.9457L61.1185 56.7588L40.9155 35.2757C40.1588 34.471 40.1976 33.2053 41.0023 32.4486Z" fill="black"/>
</svg>
