<svg width="71" height="71" viewBox="0 0 71 71" fill="none" xmlns="http://www.w3.org/2000/svg">
<path fill-rule="evenodd" clip-rule="evenodd" d="M35.1133 63.2231C50.43 63.2231 62.8466 50.8064 62.8466 35.4897C62.8466 20.173 50.43 7.75641 35.1133 7.75641C19.7966 7.75641 7.37995 20.173 7.37995 35.4897C7.37995 50.8064 19.7966 63.2231 35.1133 63.2231ZM35.1133 67.4897C52.7864 67.4897 67.1133 53.1629 67.1133 35.4897C67.1133 17.8166 52.7864 3.48975 35.1133 3.48975C17.4402 3.48975 3.11328 17.8166 3.11328 35.4897C3.11328 53.1629 17.4402 67.4897 35.1133 67.4897Z" fill="black"/>
<path fill-rule="evenodd" clip-rule="evenodd" d="M49.0374 36.33C49.0374 37.9405 48.7202 39.5353 48.1038 41.0232C47.4875 42.5112 46.5842 43.8631 45.4454 45.0019C44.3065 46.1407 42.9546 47.0441 41.4666 47.6604C39.9787 48.2767 38.384 48.594 36.7734 48.594V53.0115C38.2168 53.0115 39.6508 52.8242 41.0401 52.4567C41.7594 52.2663 42.4668 52.0277 43.1572 51.7417C45.1811 50.9034 47.02 49.6747 48.5691 48.1256C50.1181 46.5766 51.3468 44.7377 52.1852 42.7138C52.4711 42.0233 52.7098 41.316 52.9001 40.5967C53.2677 39.2074 53.455 37.7734 53.455 36.33H49.0374Z" fill="black"/>
<path fill-rule="evenodd" clip-rule="evenodd" d="M36.7734 22.7136C38.384 22.7136 39.9787 23.0308 41.4666 23.6471C42.9546 24.2635 44.3065 25.1668 45.4454 26.3056C46.5842 27.4444 47.4875 28.7964 48.1038 30.2843C48.7202 31.7723 49.0374 33.367 49.0374 34.9775L53.455 34.9775C53.455 33.5342 53.2677 32.1002 52.9001 30.7109C52.7098 29.9915 52.4711 29.2842 52.1852 28.5938C51.3468 26.5699 50.1181 24.7309 48.5691 23.1819C47.02 21.6329 45.1811 20.4041 43.1572 19.5658C42.4668 19.2798 41.7594 19.0412 41.0401 18.8509C39.6508 18.4833 38.2168 18.296 36.7734 18.296L36.7734 22.7136Z" fill="black"/>
<path fill-rule="evenodd" clip-rule="evenodd" d="M22.406 36.33C22.406 37.9405 22.7232 39.5353 23.3395 41.0232C23.9558 42.5112 24.8592 43.8631 25.998 45.0019C27.1368 46.1407 28.4888 47.0441 29.9767 47.6604C31.4646 48.2767 33.0594 48.594 34.6699 48.594V53.0115C33.2266 53.0115 31.7925 52.8242 30.4033 52.4567C29.6839 52.2663 28.9766 52.0277 28.2862 51.7417C26.2623 50.9034 24.4233 49.6747 22.8743 48.1256C21.3253 46.5766 20.0965 44.7377 19.2582 42.7138C18.9722 42.0233 18.7336 41.316 18.5433 40.5967C18.1757 39.2074 17.9884 37.7734 17.9884 36.33H22.406Z" fill="black"/>
<path fill-rule="evenodd" clip-rule="evenodd" d="M34.6699 22.7136C33.0594 22.7136 31.4646 23.0308 29.9767 23.6471C28.4888 24.2635 27.1368 25.1668 25.998 26.3056C24.8592 27.4444 23.9558 28.7964 23.3395 30.2843C22.7232 31.7723 22.406 33.367 22.406 34.9775L17.9884 34.9775C17.9884 33.5342 18.1757 32.1002 18.5433 30.7109C18.7336 29.9915 18.9722 29.2842 19.2582 28.5938C20.0965 26.5699 21.3253 24.7309 22.8743 23.1819C24.4233 21.6329 26.2623 20.4041 28.2862 19.5658C28.9766 19.2798 29.6839 19.0412 30.4033 18.8509C31.7926 18.4833 33.2266 18.296 34.6699 18.296L34.6699 22.7136Z" fill="black"/>
<path fill-rule="evenodd" clip-rule="evenodd" d="M35.724 40.4471C38.3715 40.4471 40.5177 38.3008 40.5177 35.6533C40.5177 33.0058 38.3715 30.8595 35.724 30.8595C33.0765 30.8595 30.9302 33.0058 30.9302 35.6533C30.9302 38.3008 33.0765 40.4471 35.724 40.4471ZM35.724 42.5804C39.5497 42.5804 42.6511 39.479 42.6511 35.6533C42.6511 31.8276 39.5497 28.7262 35.724 28.7262C31.8982 28.7262 28.7969 31.8276 28.7969 35.6533C28.7969 39.479 31.8982 42.5804 35.724 42.5804Z" fill="black"/>
</svg>
