<svg width="51" height="49" viewBox="0 0 51 49" fill="none" xmlns="http://www.w3.org/2000/svg">
<path fill-rule="evenodd" clip-rule="evenodd" d="M25.1493 44.181C36.2279 44.181 45.2089 35.5592 45.2089 24.9238C45.2089 14.2884 36.2279 5.66669 25.1493 5.66669C14.0708 5.66669 5.08981 14.2884 5.08981 24.9238C5.08981 35.5592 14.0708 44.181 25.1493 44.181ZM48.066 24.9238C48.066 37.0741 37.8059 46.9238 25.1493 46.9238C12.4928 46.9238 2.23267 37.0741 2.23267 24.9238C2.23267 12.7736 12.4928 2.92383 25.1493 2.92383C37.8059 2.92383 48.066 12.7736 48.066 24.9238Z" fill="black"/>
<path fill-rule="evenodd" clip-rule="evenodd" d="M25.1495 9.55225C25.9385 9.55225 26.5781 10.1663 26.5781 10.9237V24.3556L34.493 31.9539C35.0509 32.4895 35.0509 33.3578 34.493 33.8934C33.9351 34.429 33.0306 34.429 32.4727 33.8934L23.7209 25.4917V10.9237C23.7209 10.1663 24.3605 9.55225 25.1495 9.55225Z" fill="black"/>
</svg>
