<svg width="71" height="71" viewBox="0 0 71 71" fill="none" xmlns="http://www.w3.org/2000/svg">
<path fill-rule="evenodd" clip-rule="evenodd" d="M1.07031 34.6803C1.07031 33.5758 1.96574 32.6803 3.07031 32.6803H67.7079C68.8125 32.6803 69.7079 33.5758 69.7079 34.6803C69.7079 35.7849 68.8125 36.6803 67.7079 36.6803H63.2746V68.1381C63.2746 69.2426 62.3792 70.1381 61.2746 70.1381C60.17 70.1381 59.2746 69.2426 59.2746 68.1381V60.4867H13.4357V68.1381C13.4357 69.2426 12.5403 70.1381 11.4357 70.1381C10.3312 70.1381 9.43572 69.2426 9.43572 68.1381V36.6803H3.07031C1.96574 36.6803 1.07031 35.7849 1.07031 34.6803ZM13.4357 36.6803V56.4867H59.2746V36.6803H13.4357Z" fill="black"/>
<path fill-rule="evenodd" clip-rule="evenodd" d="M49.4722 5.48889L44.9279 18.8528H58.444L53.9002 5.48889H49.4722ZM45.9157 3.52309C46.3293 2.30684 47.4713 1.48889 48.756 1.48889H54.6164C55.9011 1.48889 57.0432 2.30688 57.4568 3.52318L62.6805 18.8871C63.3421 20.833 61.8954 22.8528 59.8402 22.8528H53.8597V34.7441C53.8597 35.8486 52.9643 36.7441 51.8597 36.7441C50.7551 36.7441 49.8597 35.8486 49.8597 34.7441V22.8528H43.5317C41.4764 22.8528 40.0297 20.8329 40.6914 18.887L45.9157 3.52309Z" fill="black"/>
</svg>
